<svg width="921" height="279" fill="none" xmlns="http://www.w3.org/2000/svg"><rect x="1" y="138" width="48" height="48" rx="24" fill="#fff"/><path d="M13.244 155.67c0 1.97 1.33 3.45 3.31 3.45 1.97 0 3.31-1.48 3.31-3.45 0-1.97-1.34-3.45-3.31-3.45-1.98 0-3.31 1.48-3.31 3.45zm5.76 0c0 1.55-.96 2.71-2.45 2.71-1.5 0-2.45-1.16-2.45-2.71 0-1.56.95-2.71 2.45-2.71 1.49 0 2.45 1.15 2.45 2.71zm2.877 5.17v-2.57c.39.54.97.85 1.63.85 1.27 0 2.15-.98 2.15-2.54 0-1.57-.88-2.53-2.15-2.53-.68 0-1.28.35-1.63.84v-.72h-.75v6.67h.75zm2.99-4.26c0 1.07-.58 1.87-1.55 1.87-.59 0-1.18-.36-1.44-.78v-2.18c.26-.42.85-.77 1.44-.77.97 0 1.55.79 1.55 1.86zm1.722 0c0 1.51 1.03 2.54 2.46 2.54.79 0 1.44-.26 1.92-.74l-.36-.49c-.38.39-.94.61-1.49.61-1.04 0-1.68-.76-1.74-1.67h3.91v-.19c0-1.45-.86-2.59-2.32-2.59-1.38 0-2.38 1.13-2.38 2.53zm2.37-1.91c1.1 0 1.58.89 1.59 1.61h-3.17c.04-.74.55-1.61 1.58-1.61zm6.805 4.33h.75v-3.39c0-1.05-.53-1.56-1.54-1.56-.72 0-1.38.42-1.72.82v-.7h-.75V159h.75v-3.53c.28-.39.84-.75 1.43-.75.65 0 1.08.27 1.08 1.12V159zm-14.231 12h.92l-2.69-6.67h-1.03l-2.68 6.67h.92l.59-1.48h3.38l.59 1.48zm-2.28-5.93l1.44 3.71h-2.89l1.45-3.71zm4.792 7.77v-2.57c.39.54.97.85 1.63.85 1.27 0 2.15-.98 2.15-2.54 0-1.57-.88-2.53-2.15-2.53-.68 0-1.28.35-1.63.84v-.72h-.75v6.67h.75zm2.99-4.26c0 1.07-.58 1.87-1.55 1.87-.59 0-1.18-.36-1.44-.78v-2.18c.26-.42.85-.77 1.44-.77.97 0 1.55.79 1.55 1.86zm2.752 4.26v-2.57c.39.54.97.85 1.63.85 1.27 0 2.15-.98 2.15-2.54 0-1.57-.88-2.53-2.15-2.53-.68 0-1.28.35-1.63.84v-.72h-.75v6.67h.75zm2.99-4.26c0 1.07-.58 1.87-1.55 1.87-.59 0-1.18-.36-1.44-.78v-2.18c.26-.42.85-.77 1.44-.77.97 0 1.55.79 1.55 1.86z" fill="#212121"/><rect x="1" y="138" width="48" height="48" rx="24" stroke="#000" stroke-width="2"/><path fill="#fff" d="M359 140h48v48h-48z"/><path d="M375.234 161h.83v-6.67h-.83v2.87h-3.9v-2.87h-.83V161h.83v-3.06h3.9V161zm4.469.12c1.47 0 2.39-1.14 2.39-2.54 0-1.4-.92-2.53-2.39-2.53-1.47 0-2.39 1.13-2.39 2.53s.92 2.54 2.39 2.54zm0-.67c-1.03 0-1.61-.88-1.61-1.87 0-.98.58-1.86 1.61-1.86 1.03 0 1.6.88 1.6 1.86 0 .99-.57 1.87-1.6 1.87zm9.442.55h.75v-3.49c0-.97-.47-1.46-1.35-1.46-.7 0-1.35.46-1.62.9-.14-.5-.56-.9-1.3-.9-.71 0-1.36.51-1.56.82v-.7h-.75V161h.75v-3.53c.26-.39.78-.75 1.27-.75.63 0 .89.39.89 1V161h.75v-3.54c.25-.38.78-.74 1.28-.74.62 0 .89.39.89 1V161zm1.967-2.42c0 1.51 1.03 2.54 2.46 2.54.79 0 1.44-.26 1.92-.74l-.36-.49c-.38.39-.94.61-1.49.61-1.04 0-1.68-.76-1.74-1.67h3.91v-.19c0-1.45-.86-2.59-2.32-2.59-1.38 0-2.38 1.13-2.38 2.53zm2.37-1.91c1.1 0 1.58.89 1.59 1.61h-3.17c.04-.74.55-1.61 1.58-1.61zm-25.546 15.39c.55.62 1.4 1.06 2.56 1.06 1.8 0 2.46-.99 2.46-1.96 0-1.4-1.24-1.74-2.33-2.03-.85-.23-1.62-.43-1.62-1.1 0-.63.57-1.06 1.37-1.06.73 0 1.43.25 1.93.8l.5-.61c-.56-.59-1.35-.93-2.37-.93-1.31 0-2.29.75-2.29 1.85 0 1.31 1.19 1.61 2.26 1.89.88.24 1.69.46 1.69 1.26 0 .51-.38 1.15-1.57 1.15-.94 0-1.66-.46-2.1-.95l-.49.63zm5.949-1.48c0 1.44.97 2.54 2.41 2.54.88 0 1.4-.36 1.77-.84l-.5-.46c-.32.43-.73.63-1.23.63-1.03 0-1.67-.8-1.67-1.87s.64-1.86 1.67-1.86c.5 0 .91.19 1.23.63l.5-.46c-.37-.48-.89-.84-1.77-.84-1.44 0-2.41 1.1-2.41 2.53zm5.231 2.42h.75v-3.42c.22-.39.85-.77 1.31-.77.12 0 .21.01.3.03v-.77c-.66 0-1.22.37-1.61.88v-.78h-.75V173zm3.021-2.42c0 1.51 1.03 2.54 2.46 2.54.79 0 1.44-.26 1.92-.74l-.36-.49c-.38.39-.94.61-1.49.61-1.04 0-1.68-.76-1.74-1.67h3.91v-.19c0-1.45-.86-2.59-2.32-2.59-1.38 0-2.38 1.13-2.38 2.53zm2.37-1.91c1.1 0 1.58.89 1.59 1.61h-3.17c.04-.74.55-1.61 1.58-1.61zm3.265 1.91c0 1.51 1.03 2.54 2.46 2.54.79 0 1.44-.26 1.92-.74l-.36-.49c-.38.39-.94.61-1.49.61-1.04 0-1.68-.76-1.74-1.67h3.91v-.19c0-1.45-.86-2.59-2.32-2.59-1.38 0-2.38 1.13-2.38 2.53zm2.37-1.91c1.1 0 1.58.89 1.59 1.61h-3.17c.04-.74.55-1.61 1.58-1.61zm6.805 4.33h.75v-3.39c0-1.05-.53-1.56-1.54-1.56-.72 0-1.38.42-1.72.82v-.7h-.75V173h.75v-3.53c.28-.39.84-.75 1.43-.75.65 0 1.08.27 1.08 1.12V173z" fill="#212121"/><path stroke="#A80000" stroke-width="2" d="M359 140h48v48h-48z"/><path fill="#fff" d="M872 140h48v48h-48z"/><path d="M882.747 160.06c.55.62 1.4 1.06 2.56 1.06 1.8 0 2.46-.99 2.46-1.96 0-1.4-1.24-1.74-2.33-2.03-.85-.23-1.62-.43-1.62-1.1 0-.63.57-1.06 1.37-1.06.73 0 1.43.25 1.93.8l.5-.61c-.56-.59-1.35-.93-2.37-.93-1.31 0-2.29.75-2.29 1.85 0 1.31 1.19 1.61 2.26 1.89.88.24 1.69.46 1.69 1.26 0 .51-.38 1.15-1.57 1.15-.94 0-1.66-.46-2.1-.95l-.49.63zm5.95-1.48c0 1.51 1.03 2.54 2.46 2.54.79 0 1.44-.26 1.92-.74l-.36-.49c-.38.39-.94.61-1.49.61-1.04 0-1.68-.76-1.74-1.67h3.91v-.19c0-1.45-.86-2.59-2.32-2.59-1.38 0-2.38 1.13-2.38 2.53zm2.37-1.91c1.1 0 1.58.89 1.59 1.61h-3.17c.04-.74.55-1.61 1.58-1.61zm3.544 4.33h.75v-6.67h-.75V161zm1.966-2.42c0 1.51 1.03 2.54 2.46 2.54.79 0 1.44-.26 1.92-.74l-.36-.49c-.38.39-.94.61-1.49.61-1.04 0-1.68-.76-1.74-1.67h3.91v-.19c0-1.45-.86-2.59-2.32-2.59-1.38 0-2.38 1.13-2.38 2.53zm2.37-1.91c1.1 0 1.58.89 1.59 1.61h-3.17c.04-.74.55-1.61 1.58-1.61zm3.265 1.91c0 1.44.97 2.54 2.41 2.54.88 0 1.4-.36 1.77-.84l-.5-.46c-.32.43-.73.63-1.23.63-1.03 0-1.67-.8-1.67-1.87s.64-1.86 1.67-1.86c.5 0 .91.19 1.23.63l.5-.46c-.37-.48-.89-.84-1.77-.84-1.44 0-2.41 1.1-2.41 2.53zm6.451 2.54c.44 0 .71-.13.9-.31l-.22-.56c-.1.11-.3.2-.51.2-.33 0-.49-.26-.49-.62v-3h.98v-.66h-.98v-1.32h-.75v1.32h-.8v.66h.8v3.16c0 .72.36 1.13 1.07 1.13zm-26.214 10.94c.55.62 1.4 1.06 2.56 1.06 1.8 0 2.46-.99 2.46-1.96 0-1.4-1.24-1.74-2.33-2.03-.85-.23-1.62-.43-1.62-1.1 0-.63.57-1.06 1.37-1.06.73 0 1.43.25 1.93.8l.5-.61c-.56-.59-1.35-.93-2.37-.93-1.31 0-2.29.75-2.29 1.85 0 1.31 1.19 1.61 2.26 1.89.88.24 1.69.46 1.69 1.26 0 .51-.38 1.15-1.57 1.15-.94 0-1.66-.46-2.1-.95l-.49.63zm7.284 1.06c.44 0 .71-.13.9-.31l-.22-.56c-.1.11-.3.2-.51.2-.33 0-.49-.26-.49-.62v-3h.98v-.66h-.98v-1.32h-.75v1.32h-.8v.66h.8v3.16c0 .72.36 1.13 1.07 1.13zm4.979-.12h.75v-4.83h-.75v3.55c-.28.39-.84.73-1.43.73-.65 0-1.08-.25-1.08-1.1v-3.18h-.75v3.41c0 1.05.53 1.54 1.54 1.54.72 0 1.35-.38 1.72-.8v.68zm5.748 0h.75v-6.67h-.75v2.57c-.39-.53-.98-.85-1.63-.85-1.27 0-2.15 1-2.15 2.54 0 1.57.89 2.53 2.15 2.53.68 0 1.27-.35 1.63-.84v.72zm0-1.31c-.27.42-.85.76-1.45.76-.97 0-1.55-.79-1.55-1.86s.58-1.87 1.55-1.87c.6 0 1.18.36 1.45.78v2.19zm2.622-4.33c.28 0 .51-.23.51-.51s-.23-.5-.51-.5c-.27 0-.5.22-.5.5s.23.51.5.51zm-.37 5.64h.75v-4.83h-.75V173zm4.356.12c1.47 0 2.39-1.14 2.39-2.54 0-1.4-.92-2.53-2.39-2.53-1.47 0-2.39 1.13-2.39 2.53s.92 2.54 2.39 2.54zm0-.67c-1.03 0-1.61-.88-1.61-1.87 0-.98.58-1.86 1.61-1.86 1.03 0 1.6.88 1.6 1.86 0 .99-.57 1.87-1.6 1.87z" fill="#212121"/><path stroke="#A80000" stroke-width="2" d="M872 140h48v48h-48z"/><path fill="#fff" d="M81.414 164.071l40.657-40.657 40.658 40.657-40.658 40.657z"/><path d="M109.228 161.571h3.93v-.74h-3.1v-5.93h-.83v6.67zm6.963.12c1.47 0 2.39-1.14 2.39-2.54 0-1.4-.92-2.53-2.39-2.53-1.47 0-2.39 1.13-2.39 2.53s.92 2.54 2.39 2.54zm0-.67c-1.03 0-1.61-.88-1.61-1.87 0-.98.58-1.86 1.61-1.86 1.03 0 1.6.88 1.6 1.86 0 .99-.57 1.87-1.6 1.87zm3.602 1.79c.57.56 1.13.72 1.95.72 1.18 0 2.3-.5 2.3-2.1v-4.69h-.75v.73c-.39-.53-.97-.85-1.62-.85-1.27 0-2.15.96-2.15 2.51 0 1.56.89 2.5 2.15 2.5.68 0 1.27-.37 1.62-.86v.69c0 1.06-.75 1.45-1.55 1.45-.69 0-1.17-.18-1.57-.66l-.38.56zm3.5-2.63c-.26.42-.84.79-1.44.79-.97 0-1.55-.78-1.55-1.84 0-1.07.58-1.84 1.55-1.84.6 0 1.18.36 1.44.78v2.11zm1.803-.7h2.4v-.66h-2.4v.66zm3.478 2.09h.83v-6.67h-.83v6.67zm5.622 0h.75v-3.39c0-1.05-.53-1.56-1.54-1.56-.72 0-1.38.42-1.72.82v-.7h-.75v4.83h.75v-3.53c.28-.39.84-.75 1.43-.75.65 0 1.08.27 1.08 1.12v3.16zm-28.337 11.06c.55.62 1.4 1.06 2.56 1.06 1.8 0 2.46-.99 2.46-1.96 0-1.4-1.24-1.74-2.33-2.03-.85-.23-1.62-.43-1.62-1.1 0-.63.57-1.06 1.37-1.06.73 0 1.43.25 1.93.8l.5-.61c-.56-.59-1.35-.93-2.37-.93-1.31 0-2.29.75-2.29 1.85 0 1.31 1.19 1.61 2.26 1.89.88.24 1.69.46 1.69 1.26 0 .51-.38 1.15-1.57 1.15-.94 0-1.66-.46-2.1-.95l-.49.63zm6.6-4.7c.28 0 .51-.23.51-.51s-.23-.5-.51-.5c-.27 0-.5.22-.5.5s.23.51.5.51zm-.37 5.64h.75v-4.83h-.75v4.83zm2.236 1.24c.57.56 1.13.72 1.95.72 1.18 0 2.3-.5 2.3-2.1v-4.69h-.75v.73c-.39-.53-.97-.85-1.62-.85-1.27 0-2.15.96-2.15 2.51 0 1.56.89 2.5 2.15 2.5.68 0 1.27-.37 1.62-.86v.69c0 1.06-.75 1.45-1.55 1.45-.69 0-1.17-.18-1.57-.66l-.38.56zm3.5-2.63c-.26.42-.84.79-1.44.79-.97 0-1.55-.78-1.55-1.84 0-1.07.58-1.84 1.55-1.84.6 0 1.18.36 1.44.78v2.11zm5.512 1.39h.75v-3.39c0-1.05-.53-1.56-1.54-1.56-.72 0-1.38.42-1.72.82v-.7h-.75v4.83h.75v-3.53c.28-.39.84-.75 1.43-.75.65 0 1.08.27 1.08 1.12v3.16zm8.086 0h.75v-4.83h-.75v3.55c-.28.39-.84.73-1.43.73-.65 0-1.08-.25-1.08-1.1v-3.18h-.75v3.41c0 1.05.53 1.54 1.54 1.54.72 0 1.35-.38 1.72-.8v.68zm2.998 1.84v-2.57c.39.54.97.85 1.63.85 1.27 0 2.15-.98 2.15-2.54 0-1.57-.88-2.53-2.15-2.53-.68 0-1.28.35-1.63.84v-.72h-.75v6.67h.75zm2.99-4.26c0 1.07-.58 1.87-1.55 1.87-.59 0-1.18-.36-1.44-.78v-2.18c.26-.42.85-.77 1.44-.77.97 0 1.55.79 1.55 1.86z" fill="#212121"/><path stroke="#000" stroke-width="2" d="M81.414 164.071l40.657-40.657 40.658 40.657-40.658 40.657z"/><path fill="#fff" d="M444.414 164.071l40.657-40.657 40.657 40.657-40.657 40.657z"/><path d="M479.839 161.571h.8v-6.67h-.83v5.27l-3.84-5.27h-.85v6.67h.83v-5.38l3.89 5.38zm5.35 0h.75v-3.32c0-1.17-.85-1.63-1.87-1.63-.79 0-1.41.26-1.93.8l.35.52c.43-.46.9-.67 1.48-.67.7 0 1.22.37 1.22 1.02v.87c-.39-.45-.94-.66-1.6-.66-.82 0-1.69.51-1.69 1.59 0 1.05.87 1.6 1.69 1.6.65 0 1.2-.23 1.6-.67v.55zm0-1.02c-.29.4-.8.6-1.33.6-.7 0-1.19-.44-1.19-1.05 0-.62.49-1.06 1.19-1.06.53 0 1.04.2 1.33.6v.91zm3.543 1.02h.82l2.01-4.83h-.82l-1.6 3.96-1.61-3.96h-.81l2.01 4.83zm2.789-.45c0 .3.25.55.55.55.3 0 .55-.25.55-.55 0-.3-.25-.55-.55-.55-.3 0-.55.25-.55.55zm-12.338 12.45h.83v-6.67h-1.19l-2.08 5.08-2.07-5.08h-1.19v6.67h.83v-5.55l2.26 5.55h.34l2.27-5.55v5.55zm2.076-2.42c0 1.51 1.03 2.54 2.46 2.54.79 0 1.44-.26 1.92-.74l-.36-.49c-.38.39-.94.61-1.49.61-1.04 0-1.68-.76-1.74-1.67h3.91v-.19c0-1.45-.86-2.59-2.32-2.59-1.38 0-2.38 1.13-2.38 2.53zm2.37-1.91c1.1 0 1.58.89 1.59 1.61h-3.17c.04-.74.55-1.61 1.58-1.61zm6.805 4.33h.75v-3.39c0-1.05-.53-1.56-1.54-1.56-.72 0-1.38.42-1.72.82v-.7h-.75v4.83h.75v-3.53c.28-.39.84-.75 1.43-.75.65 0 1.08.27 1.08 1.12v3.16zm5.507 0h.75v-4.83h-.75v3.55c-.28.39-.84.73-1.43.73-.65 0-1.08-.25-1.08-1.1v-3.18h-.75v3.41c0 1.05.53 1.54 1.54 1.54.72 0 1.35-.38 1.72-.8v.68z" fill="#212121"/><path stroke="#000" stroke-width="2" d="M444.414 164.071l40.657-40.657 40.657 40.657-40.657 40.657z"/><path fill="#fff" d="M149 75h66v32h-66z"/><path d="M154.255 94h4.37v-.74h-3.54v-2.3h3.47v-.74h-3.47v-2.15h3.54v-.74h-4.37V94zm8.793 0h.87l-1.86-2.48 1.75-2.35h-.87l-1.34 1.84-1.34-1.84h-.87l1.75 2.35-1.85 2.48h.86l1.45-1.98 1.45 1.98zm2.103-5.64c.28 0 .51-.23.51-.51s-.23-.5-.51-.5c-.27 0-.5.22-.5.5s.23.51.5.51zm-.37 5.64h.75v-4.83h-.75V94zm1.826-.64c.49.52 1.16.76 1.95.76 1.25 0 1.9-.65 1.9-1.46 0-1.07-.97-1.31-1.81-1.5-.63-.15-1.18-.3-1.18-.77 0-.43.41-.73 1.07-.73.62 0 1.15.26 1.44.61l.35-.52c-.39-.39-.97-.7-1.79-.7-1.15 0-1.8.64-1.8 1.39 0 1 .93 1.22 1.75 1.41.65.16 1.24.33 1.24.86 0 .47-.4.8-1.14.8-.66 0-1.27-.32-1.59-.69l-.39.54zm6.289.76c.44 0 .71-.13.9-.31l-.22-.56c-.1.11-.3.2-.51.2-.33 0-.49-.26-.49-.62v-3h.98v-.66h-.98v-1.32h-.75v1.32h-.8v.66h.8v3.16c0 .72.36 1.13 1.07 1.13zm2.089-5.76c.28 0 .51-.23.51-.51s-.23-.5-.51-.5c-.27 0-.5.22-.5.5s.23.51.5.51zm-.37 5.64h.75v-4.83h-.75V94zm5.506 0h.75v-3.39c0-1.05-.53-1.56-1.54-1.56-.72 0-1.38.42-1.72.82v-.7h-.75V94h.75v-3.53c.28-.39.84-.75 1.43-.75.65 0 1.08.27 1.08 1.12V94zm2.238 1.24c.57.56 1.13.72 1.95.72 1.18 0 2.3-.5 2.3-2.1v-4.69h-.75v.73c-.39-.53-.97-.85-1.62-.85-1.27 0-2.15.96-2.15 2.51 0 1.56.89 2.5 2.15 2.5.68 0 1.27-.37 1.62-.86v.69c0 1.06-.75 1.45-1.55 1.45-.69 0-1.17-.18-1.57-.66l-.38.56zm3.5-2.63c-.26.42-.84.79-1.44.79-.97 0-1.55-.78-1.55-1.84 0-1.07.58-1.84 1.55-1.84.6 0 1.18.36 1.44.78v2.11zm4.86-1.2c0 1.64.91 2.71 2.72 2.71s2.72-1.06 2.72-2.72v-4.07h-.83v4.06c0 1.22-.66 1.99-1.89 1.99s-1.89-.77-1.89-1.99v-4.06h-.83v4.08zm6.552 1.95c.49.52 1.16.76 1.95.76 1.25 0 1.9-.65 1.9-1.46 0-1.07-.97-1.31-1.81-1.5-.63-.15-1.18-.3-1.18-.77 0-.43.41-.73 1.07-.73.62 0 1.15.26 1.44.61l.35-.52c-.39-.39-.97-.7-1.79-.7-1.15 0-1.8.64-1.8 1.39 0 1 .93 1.22 1.75 1.41.65.16 1.24.33 1.24.86 0 .47-.4.8-1.14.8-.66 0-1.27-.32-1.59-.69l-.39.54zm4.789-1.78c0 1.51 1.03 2.54 2.46 2.54.79 0 1.44-.26 1.92-.74l-.36-.49c-.38.39-.94.61-1.49.61-1.04 0-1.68-.76-1.74-1.67h3.91v-.19c0-1.45-.86-2.59-2.32-2.59-1.38 0-2.38 1.13-2.38 2.53zm2.37-1.91c1.1 0 1.58.89 1.59 1.61h-3.17c.04-.74.55-1.61 1.58-1.61zm3.545 4.33h.75v-3.42c.22-.39.85-.77 1.31-.77.12 0 .21.01.3.03v-.77c-.66 0-1.22.37-1.61.88v-.78h-.75V94z" fill="#212121"/><path stroke="#000" stroke-width="2" d="M149 75h66v32h-66z"/><path fill="#fff" d="M149 221h66v32h-66z"/><path d="M165.889 240h.8v-6.67h-.83v5.27l-3.84-5.27h-.85V240h.83v-5.38l3.89 5.38zm2.05-2.42c0 1.51 1.03 2.54 2.46 2.54.79 0 1.44-.26 1.92-.74l-.36-.49c-.38.39-.94.61-1.49.61-1.04 0-1.68-.76-1.74-1.67h3.91v-.19c0-1.45-.86-2.59-2.32-2.59-1.38 0-2.38 1.13-2.38 2.53zm2.37-1.91c1.1 0 1.58.89 1.59 1.61h-3.17c.04-.74.55-1.61 1.58-1.61zm7.725 4.33h.75l1.54-4.83h-.78l-1.18 3.85-1.27-3.85h-.64l-1.27 3.85-1.18-3.85h-.78l1.54 4.83h.75l1.26-3.88 1.26 3.88zm5.771-2.59c0 1.64.91 2.71 2.72 2.71s2.72-1.06 2.72-2.72v-4.07h-.83v4.06c0 1.22-.66 1.99-1.89 1.99s-1.89-.77-1.89-1.99v-4.06h-.83v4.08zm6.552 1.95c.49.52 1.16.76 1.95.76 1.25 0 1.9-.65 1.9-1.46 0-1.07-.97-1.31-1.81-1.5-.63-.15-1.18-.3-1.18-.77 0-.43.41-.73 1.07-.73.62 0 1.15.26 1.44.61l.35-.52c-.39-.39-.97-.7-1.79-.7-1.15 0-1.8.64-1.8 1.39 0 1 .93 1.22 1.75 1.41.65.16 1.24.33 1.24.86 0 .47-.4.8-1.14.8-.66 0-1.27-.32-1.59-.69l-.39.54zm4.789-1.78c0 1.51 1.03 2.54 2.46 2.54.79 0 1.44-.26 1.92-.74l-.36-.49c-.38.39-.94.61-1.49.61-1.04 0-1.68-.76-1.74-1.67h3.91v-.19c0-1.45-.86-2.59-2.32-2.59-1.38 0-2.38 1.13-2.38 2.53zm2.37-1.91c1.1 0 1.58.89 1.59 1.61h-3.17c.04-.74.55-1.61 1.58-1.61zm3.545 4.33h.75v-3.42c.22-.39.85-.77 1.31-.77.12 0 .21.01.3.03v-.77c-.66 0-1.22.37-1.61.88v-.78h-.75V240z" fill="#212121"/><path stroke="#000" stroke-width="2" d="M149 221h66v32h-66z"/><path fill="#fff" d="M256 197h66v32h-66z"/><path d="M275.747 209.06c.55.62 1.4 1.06 2.56 1.06 1.8 0 2.46-.99 2.46-1.96 0-1.4-1.24-1.74-2.33-2.03-.85-.23-1.62-.43-1.62-1.1 0-.63.57-1.06 1.37-1.06.73 0 1.43.25 1.93.8l.5-.61c-.56-.59-1.35-.93-2.37-.93-1.31 0-2.29.75-2.29 1.85 0 1.31 1.19 1.61 2.26 1.89.88.24 1.69.46 1.69 1.26 0 .51-.38 1.15-1.57 1.15-.94 0-1.66-.46-2.1-.95l-.49.63zm5.95-1.48c0 1.51 1.03 2.54 2.46 2.54.79 0 1.44-.26 1.92-.74l-.36-.49c-.38.39-.94.61-1.49.61-1.04 0-1.68-.76-1.74-1.67h3.91v-.19c0-1.45-.86-2.59-2.32-2.59-1.38 0-2.38 1.13-2.38 2.53zm2.37-1.91c1.1 0 1.58.89 1.59 1.61h-3.17c.04-.74.55-1.61 1.58-1.61zm3.544 4.33h.75v-6.67h-.75V210zm1.966-2.42c0 1.51 1.03 2.54 2.46 2.54.79 0 1.44-.26 1.92-.74l-.36-.49c-.38.39-.94.61-1.49.61-1.04 0-1.68-.76-1.74-1.67h3.91v-.19c0-1.45-.86-2.59-2.32-2.59-1.38 0-2.38 1.13-2.38 2.53zm2.37-1.91c1.1 0 1.58.89 1.59 1.61h-3.17c.04-.74.55-1.61 1.58-1.61zm3.265 1.91c0 1.44.97 2.54 2.41 2.54.88 0 1.4-.36 1.77-.84l-.5-.46c-.32.43-.73.63-1.23.63-1.03 0-1.67-.8-1.67-1.87s.64-1.86 1.67-1.86c.5 0 .91.19 1.23.63l.5-.46c-.37-.48-.89-.84-1.77-.84-1.44 0-2.41 1.1-2.41 2.53zm6.451 2.54c.44 0 .71-.13.9-.31l-.22-.56c-.1.11-.3.2-.51.2-.33 0-.49-.26-.49-.62v-3h.98v-.66h-.98v-1.32h-.75v1.32h-.8v.66h.8v3.16c0 .72.36 1.13 1.07 1.13zM276.489 222h.92l-2.69-6.67h-1.03l-2.68 6.67h.92l.59-1.48h3.38l.59 1.48zm-2.28-5.93l1.44 3.71h-2.89l1.45-3.71zm3.762 3.51c0 1.44.97 2.54 2.41 2.54.88 0 1.4-.36 1.77-.84l-.5-.46c-.32.43-.73.63-1.23.63-1.03 0-1.67-.8-1.67-1.87s.64-1.86 1.67-1.86c.5 0 .91.19 1.23.63l.5-.46c-.37-.48-.89-.84-1.77-.84-1.44 0-2.41 1.1-2.41 2.53zm4.951 0c0 1.44.97 2.54 2.41 2.54.88 0 1.4-.36 1.77-.84l-.5-.46c-.32.43-.73.63-1.23.63-1.03 0-1.67-.8-1.67-1.87s.64-1.86 1.67-1.86c.5 0 .91.19 1.23.63l.5-.46c-.37-.48-.89-.84-1.77-.84-1.44 0-2.41 1.1-2.41 2.53zm7.341 2.54c1.47 0 2.39-1.14 2.39-2.54 0-1.4-.92-2.53-2.39-2.53-1.47 0-2.39 1.13-2.39 2.53s.92 2.54 2.39 2.54zm0-.67c-1.03 0-1.61-.88-1.61-1.87 0-.98.58-1.86 1.61-1.86 1.03 0 1.6.88 1.6 1.86 0 .99-.57 1.87-1.6 1.87zm6.873.55h.75v-4.83h-.75v3.55c-.28.39-.84.73-1.43.73-.65 0-1.08-.25-1.08-1.1v-3.18h-.75v3.41c0 1.05.53 1.54 1.54 1.54.72 0 1.35-.38 1.72-.8v.68zm5.508 0h.75v-3.39c0-1.05-.53-1.56-1.54-1.56-.72 0-1.38.42-1.72.82v-.7h-.75V222h.75v-3.53c.28-.39.84-.75 1.43-.75.65 0 1.08.27 1.08 1.12V222zm3.468.12c.44 0 .71-.13.9-.31l-.22-.56c-.1.11-.3.2-.51.2-.33 0-.49-.26-.49-.62v-3h.98v-.66h-.98v-1.32h-.75v1.32h-.8v.66h.8v3.16c0 .72.36 1.13 1.07 1.13z" fill="#212121"/><path stroke="#000" stroke-width="2" d="M256 197h66v32h-66z"/><path fill="#fff" d="M256 99h66v32h-66z"/><path d="M274.253 117.06c.55.62 1.4 1.06 2.56 1.06 1.8 0 2.46-.99 2.46-1.96 0-1.4-1.24-1.74-2.33-2.03-.85-.23-1.62-.43-1.62-1.1 0-.63.57-1.06 1.37-1.06.73 0 1.43.25 1.93.8l.5-.61c-.56-.59-1.35-.93-2.37-.93-1.31 0-2.29.75-2.29 1.85 0 1.31 1.19 1.61 2.26 1.89.88.24 1.69.46 1.69 1.26 0 .51-.38 1.15-1.57 1.15-.94 0-1.66-.46-2.1-.95l-.49.63zm6.599-4.7c.28 0 .51-.23.51-.51s-.23-.5-.51-.5c-.27 0-.5.22-.5.5s.23.51.5.51zm-.37 5.64h.75v-4.83h-.75V118zm2.237 1.24c.57.56 1.13.72 1.95.72 1.18 0 2.3-.5 2.3-2.1v-4.69h-.75v.73c-.39-.53-.97-.85-1.62-.85-1.27 0-2.15.96-2.15 2.51 0 1.56.89 2.5 2.15 2.5.68 0 1.27-.37 1.62-.86v.69c0 1.06-.75 1.45-1.55 1.45-.69 0-1.17-.18-1.57-.66l-.38.56zm3.5-2.63c-.26.42-.84.79-1.44.79-.97 0-1.55-.78-1.55-1.84 0-1.07.58-1.84 1.55-1.84.6 0 1.18.36 1.44.78v2.11zm5.512 1.39h.75v-3.39c0-1.05-.53-1.56-1.54-1.56-.72 0-1.38.42-1.72.82v-.7h-.75V118h.75v-3.53c.28-.39.84-.75 1.43-.75.65 0 1.08.27 1.08 1.12V118zm1.798-2.09h2.4v-.66h-2.4v.66zm3.478 2.09h.83v-6.67h-.83V118zm5.622 0h.75v-3.39c0-1.05-.53-1.56-1.54-1.56-.72 0-1.38.42-1.72.82v-.7h-.75V118h.75v-3.53c.28-.39.84-.75 1.43-.75.65 0 1.08.27 1.08 1.12V118z" fill="#212121"/><path stroke="#000" stroke-width="2" d="M256 99h66v32h-66z"/><path fill="#fff" d="M667 148h66v32h-66z"/><path d="M684.125 166.06c.55.62 1.4 1.06 2.56 1.06 1.8 0 2.46-.99 2.46-1.96 0-1.4-1.24-1.74-2.33-2.03-.85-.23-1.62-.43-1.62-1.1 0-.63.57-1.06 1.37-1.06.73 0 1.43.25 1.93.8l.5-.61c-.56-.59-1.35-.93-2.37-.93-1.31 0-2.29.75-2.29 1.85 0 1.31 1.19 1.61 2.26 1.89.88.24 1.69.46 1.69 1.26 0 .51-.38 1.15-1.57 1.15-.94 0-1.66-.46-2.1-.95l-.49.63zm7.283 1.06c.44 0 .71-.13.9-.31l-.22-.56c-.1.11-.3.2-.51.2-.33 0-.49-.26-.49-.62v-3h.98v-.66h-.98v-1.32h-.75v1.32h-.8v.66h.8v3.16c0 .72.36 1.13 1.07 1.13zm4.98-.12h.75v-4.83h-.75v3.55c-.28.39-.84.73-1.43.73-.65 0-1.08-.25-1.08-1.1v-3.18h-.75v3.41c0 1.05.53 1.54 1.54 1.54.72 0 1.35-.38 1.72-.8v.68zm5.748 0h.75v-6.67h-.75v2.57c-.39-.53-.98-.85-1.63-.85-1.27 0-2.15 1-2.15 2.54 0 1.57.89 2.53 2.15 2.53.68 0 1.27-.35 1.63-.84v.72zm0-1.31c-.27.42-.85.76-1.45.76-.97 0-1.55-.79-1.55-1.86s.58-1.87 1.55-1.87c.6 0 1.18.36 1.45.78v2.19zm2.622-4.33c.28 0 .51-.23.51-.51s-.23-.5-.51-.5c-.27 0-.5.22-.5.5s.23.51.5.51zm-.37 5.64h.75v-4.83h-.75V167zm4.356.12c1.47 0 2.39-1.14 2.39-2.54 0-1.4-.92-2.53-2.39-2.53-1.47 0-2.39 1.13-2.39 2.53s.92 2.54 2.39 2.54zm0-.67c-1.03 0-1.61-.88-1.61-1.87 0-.98.58-1.86 1.61-1.86 1.03 0 1.6.88 1.6 1.86 0 .99-.57 1.87-1.6 1.87zm3.192-.09c.49.52 1.16.76 1.95.76 1.25 0 1.9-.65 1.9-1.46 0-1.07-.97-1.31-1.81-1.5-.63-.15-1.18-.3-1.18-.77 0-.43.41-.73 1.07-.73.62 0 1.15.26 1.44.61l.35-.52c-.39-.39-.97-.7-1.79-.7-1.15 0-1.8.64-1.8 1.39 0 1 .93 1.22 1.75 1.41.65.16 1.24.33 1.24.86 0 .47-.4.8-1.14.8-.66 0-1.27-.32-1.59-.69l-.39.54z" fill="#212121"/><path stroke="#000" stroke-width="2" d="M667 148h66v32h-66z"/><path fill="#fff" d="M769 89h66v32h-66z"/><path d="M775.251 101.06c.55.62 1.4 1.06 2.56 1.06 1.8 0 2.46-.99 2.46-1.96 0-1.4-1.24-1.74-2.33-2.03-.85-.23-1.62-.43-1.62-1.1 0-.63.57-1.06 1.37-1.06.73 0 1.43.25 1.93.8l.5-.61c-.56-.59-1.35-.93-2.37-.93-1.31 0-2.29.75-2.29 1.85 0 1.31 1.19 1.61 2.26 1.89.88.24 1.69.46 1.69 1.26 0 .51-.38 1.15-1.57 1.15-.94 0-1.66-.46-2.1-.95l-.49.63zm5.949-1.48c0 1.51 1.03 2.54 2.46 2.54.79 0 1.44-.26 1.92-.74l-.36-.49c-.38.39-.94.61-1.49.61-1.04 0-1.68-.76-1.74-1.67h3.91v-.19c0-1.45-.86-2.59-2.32-2.59-1.38 0-2.38 1.13-2.38 2.53zm2.37-1.91c1.1 0 1.58.89 1.59 1.61h-3.17c.04-.74.55-1.61 1.58-1.61zm4.765 4.45c.44 0 .71-.13.9-.31l-.22-.56c-.1.11-.3.2-.51.2-.33 0-.49-.26-.49-.62v-3h.98v-.66h-.98v-1.32h-.75v1.32h-.8v.66h.8v3.16c0 .72.36 1.13 1.07 1.13zm4.328-.12h3.93v-.74h-3.1v-5.93h-.83V102zm6.963.12c1.47 0 2.39-1.14 2.39-2.54 0-1.4-.92-2.53-2.39-2.53-1.47 0-2.39 1.13-2.39 2.53s.92 2.54 2.39 2.54zm0-.67c-1.03 0-1.61-.88-1.61-1.87 0-.98.58-1.86 1.61-1.86 1.03 0 1.6.88 1.6 1.86 0 .99-.57 1.87-1.6 1.87zm3.332-1.87c0 1.44.97 2.54 2.41 2.54.88 0 1.4-.36 1.77-.84l-.5-.46c-.32.43-.73.63-1.23.63-1.03 0-1.67-.8-1.67-1.87s.64-1.86 1.67-1.86c.5 0 .91.19 1.23.63l.5-.46c-.37-.48-.89-.84-1.77-.84-1.44 0-2.41 1.1-2.41 2.53zm8.251 2.42h.75v-3.32c0-1.17-.85-1.63-1.87-1.63-.79 0-1.41.26-1.93.8l.35.52c.43-.46.9-.67 1.48-.67.7 0 1.22.37 1.22 1.02v.87c-.39-.45-.94-.66-1.6-.66-.82 0-1.69.51-1.69 1.59 0 1.05.87 1.6 1.69 1.6.65 0 1.2-.23 1.6-.67v.55zm0-1.02c-.29.4-.8.6-1.33.6-.7 0-1.19-.44-1.19-1.05 0-.62.49-1.06 1.19-1.06.53 0 1.04.2 1.33.6v.91zm3.474 1.14c.44 0 .71-.13.9-.31l-.22-.56c-.1.11-.3.2-.51.2-.33 0-.49-.26-.49-.62v-3h.98v-.66h-.98v-1.32h-.75v1.32h-.8v.66h.8v3.16c0 .72.36 1.13 1.07 1.13zm2.089-5.76c.28 0 .51-.23.51-.51s-.23-.5-.51-.5c-.27 0-.5.22-.5.5s.23.51.5.51zm-.37 5.64h.75v-4.83h-.75V102zm4.356.12c1.47 0 2.39-1.14 2.39-2.54 0-1.4-.92-2.53-2.39-2.53-1.47 0-2.39 1.13-2.39 2.53s.92 2.54 2.39 2.54zm0-.67c-1.03 0-1.61-.88-1.61-1.87 0-.98.58-1.86 1.61-1.86 1.03 0 1.6.88 1.6 1.86 0 .99-.57 1.87-1.6 1.87zm6.873.55h.75v-3.39c0-1.05-.53-1.56-1.54-1.56-.72 0-1.38.42-1.72.82v-.7h-.75V102h.75v-3.53c.28-.39.84-.75 1.43-.75.65 0 1.08.27 1.08 1.12V102zm-39.951 10.74c.4-.56.68-1.19.9-1.72l-.64-.28c-.12.37-.36.97-.72 1.52-.26-.29-.52-.58-.79-.89-.22-.25-.51-.58-.77-.95.84-.44 1.7-.88 1.7-1.88 0-.84-.65-1.31-1.51-1.31-.95 0-1.68.66-1.68 1.55 0 .47.21.98.51 1.49-.77.42-1.47.95-1.47 1.99 0 1.24.93 1.86 2.07 1.86.81 0 1.44-.34 1.93-.82.27.27.53.52.73.7h1.03c-.48-.45-.9-.85-1.29-1.26zm-2.74-3.95c0-.57.42-.97.94-.97.44 0 .78.26.78.75 0 .66-.61 1.01-1.32 1.37-.23-.4-.4-.8-.4-1.15zm.42 4.71c-.7 0-1.34-.46-1.34-1.29 0-.69.43-1.1.99-1.44.26.38.55.74.82 1.06.19.23.55.61.93 1.01-.38.38-.85.66-1.4.66zm11.114.5h.98l-1.8-2.72c.91-.08 1.73-.74 1.73-1.94 0-1.23-.87-2.01-2.09-2.01h-2.68V114h.83v-2.65h1.33l1.7 2.65zm.05-4.66c0 .75-.54 1.28-1.33 1.28h-1.75v-2.55h1.75c.79 0 1.33.52 1.33 1.27zm4.969 4.66h.75v-3.32c0-1.17-.85-1.63-1.87-1.63-.79 0-1.41.26-1.93.8l.35.52c.43-.46.9-.67 1.48-.67.7 0 1.22.37 1.22 1.02v.87c-.39-.45-.94-.66-1.6-.66-.82 0-1.69.51-1.69 1.59 0 1.05.87 1.6 1.69 1.6.65 0 1.2-.23 1.6-.67v.55zm0-1.02c-.29.4-.8.6-1.33.6-.7 0-1.19-.44-1.19-1.05 0-.62.49-1.06 1.19-1.06.53 0 1.04.2 1.33.6v.91zm5.753 1.02h.75v-6.67h-.75v2.57c-.39-.53-.98-.85-1.63-.85-1.27 0-2.15 1-2.15 2.54 0 1.57.89 2.53 2.15 2.53.68 0 1.27-.35 1.63-.84v.72zm0-1.31c-.27.42-.85.76-1.45.76-.97 0-1.55-.79-1.55-1.86s.58-1.87 1.55-1.87c.6 0 1.18.36 1.45.78v2.19zm2.622-4.33c.28 0 .51-.23.51-.51s-.23-.5-.51-.5c-.27 0-.5.22-.5.5s.23.51.5.51zm-.37 5.64h.75v-4.83h-.75V114zm5.506 0h.75v-4.83h-.75v3.55c-.28.39-.84.73-1.43.73-.65 0-1.08-.25-1.08-1.1v-3.18h-.75v3.41c0 1.05.53 1.54 1.54 1.54.72 0 1.35-.38 1.72-.8v.68zm1.828-.64c.49.52 1.16.76 1.95.76 1.25 0 1.9-.65 1.9-1.46 0-1.07-.97-1.31-1.81-1.5-.63-.15-1.18-.3-1.18-.77 0-.43.41-.73 1.07-.73.62 0 1.15.26 1.44.61l.35-.52c-.39-.39-.97-.7-1.79-.7-1.15 0-1.8.64-1.8 1.39 0 1 .93 1.22 1.75 1.41.65.16 1.24.33 1.24.86 0 .47-.4.8-1.14.8-.66 0-1.27-.32-1.59-.69l-.39.54z" fill="#212121"/><path stroke="#000" stroke-width="2" d="M769 89h66v32h-66z"/><path fill="#fff" d="M667 207h66v32h-66z"/><path d="M673.251 219.06c.55.62 1.4 1.06 2.56 1.06 1.8 0 2.46-.99 2.46-1.96 0-1.4-1.24-1.74-2.33-2.03-.85-.23-1.62-.43-1.62-1.1 0-.63.57-1.06 1.37-1.06.73 0 1.43.25 1.93.8l.5-.61c-.56-.59-1.35-.93-2.37-.93-1.31 0-2.29.75-2.29 1.85 0 1.31 1.19 1.61 2.26 1.89.88.24 1.69.46 1.69 1.26 0 .51-.38 1.15-1.57 1.15-.94 0-1.66-.46-2.1-.95l-.49.63zm5.949-1.48c0 1.51 1.03 2.54 2.46 2.54.79 0 1.44-.26 1.92-.74l-.36-.49c-.38.39-.94.61-1.49.61-1.04 0-1.68-.76-1.74-1.67h3.91v-.19c0-1.45-.86-2.59-2.32-2.59-1.38 0-2.38 1.13-2.38 2.53zm2.37-1.91c1.1 0 1.58.89 1.59 1.61h-3.17c.04-.74.55-1.61 1.58-1.61zm4.765 4.45c.44 0 .71-.13.9-.31l-.22-.56c-.1.11-.3.2-.51.2-.33 0-.49-.26-.49-.62v-3h.98v-.66h-.98v-1.32h-.75v1.32h-.8v.66h.8v3.16c0 .72.36 1.13 1.07 1.13zm4.328-.12h3.93v-.74h-3.1v-5.93h-.83V220zm6.963.12c1.47 0 2.39-1.14 2.39-2.54 0-1.4-.92-2.53-2.39-2.53-1.47 0-2.39 1.13-2.39 2.53s.92 2.54 2.39 2.54zm0-.67c-1.03 0-1.61-.88-1.61-1.87 0-.98.58-1.86 1.61-1.86 1.03 0 1.6.88 1.6 1.86 0 .99-.57 1.87-1.6 1.87zm3.332-1.87c0 1.44.97 2.54 2.41 2.54.88 0 1.4-.36 1.77-.84l-.5-.46c-.32.43-.73.63-1.23.63-1.03 0-1.67-.8-1.67-1.87s.64-1.86 1.67-1.86c.5 0 .91.19 1.23.63l.5-.46c-.37-.48-.89-.84-1.77-.84-1.44 0-2.41 1.1-2.41 2.53zm8.251 2.42h.75v-3.32c0-1.17-.85-1.63-1.87-1.63-.79 0-1.41.26-1.93.8l.35.52c.43-.46.9-.67 1.48-.67.7 0 1.22.37 1.22 1.02v.87c-.39-.45-.94-.66-1.6-.66-.82 0-1.69.51-1.69 1.59 0 1.05.87 1.6 1.69 1.6.65 0 1.2-.23 1.6-.67v.55zm0-1.02c-.29.4-.8.6-1.33.6-.7 0-1.19-.44-1.19-1.05 0-.62.49-1.06 1.19-1.06.53 0 1.04.2 1.33.6v.91zm3.474 1.14c.44 0 .71-.13.9-.31l-.22-.56c-.1.11-.3.2-.51.2-.33 0-.49-.26-.49-.62v-3h.98v-.66h-.98v-1.32h-.75v1.32h-.8v.66h.8v3.16c0 .72.36 1.13 1.07 1.13zm2.089-5.76c.28 0 .51-.23.51-.51s-.23-.5-.51-.5c-.27 0-.5.22-.5.5s.23.51.5.51zm-.37 5.64h.75v-4.83h-.75V220zm4.356.12c1.47 0 2.39-1.14 2.39-2.54 0-1.4-.92-2.53-2.39-2.53-1.47 0-2.39 1.13-2.39 2.53s.92 2.54 2.39 2.54zm0-.67c-1.03 0-1.61-.88-1.61-1.87 0-.98.58-1.86 1.61-1.86 1.03 0 1.6.88 1.6 1.86 0 .99-.57 1.87-1.6 1.87zm6.873.55h.75v-3.39c0-1.05-.53-1.56-1.54-1.56-.72 0-1.38.42-1.72.82v-.7h-.75V220h.75v-3.53c.28-.39.84-.75 1.43-.75.65 0 1.08.27 1.08 1.12V220zm-39.951 10.74c.4-.56.68-1.19.9-1.72l-.64-.28c-.12.37-.36.97-.72 1.52-.26-.29-.52-.58-.79-.89-.22-.25-.51-.58-.77-.95.84-.44 1.7-.88 1.7-1.88 0-.84-.65-1.31-1.51-1.31-.95 0-1.68.66-1.68 1.55 0 .47.21.98.51 1.49-.77.42-1.47.95-1.47 1.99 0 1.24.93 1.86 2.07 1.86.81 0 1.44-.34 1.93-.82.27.27.53.52.73.7h1.03c-.48-.45-.9-.85-1.29-1.26zm-2.74-3.95c0-.57.42-.97.94-.97.44 0 .78.26.78.75 0 .66-.61 1.01-1.32 1.37-.23-.4-.4-.8-.4-1.15zm.42 4.71c-.7 0-1.34-.46-1.34-1.29 0-.69.43-1.1.99-1.44.26.38.55.74.82 1.06.19.23.55.61.93 1.01-.38.38-.85.66-1.4.66zm11.114.5h.98l-1.8-2.72c.91-.08 1.73-.74 1.73-1.94 0-1.23-.87-2.01-2.09-2.01h-2.68V232h.83v-2.65h1.33l1.7 2.65zm.05-4.66c0 .75-.54 1.28-1.33 1.28h-1.75v-2.55h1.75c.79 0 1.33.52 1.33 1.27zm4.969 4.66h.75v-3.32c0-1.17-.85-1.63-1.87-1.63-.79 0-1.41.26-1.93.8l.35.52c.43-.46.9-.67 1.48-.67.7 0 1.22.37 1.22 1.02v.87c-.39-.45-.94-.66-1.6-.66-.82 0-1.69.51-1.69 1.59 0 1.05.87 1.6 1.69 1.6.65 0 1.2-.23 1.6-.67v.55zm0-1.02c-.29.4-.8.6-1.33.6-.7 0-1.19-.44-1.19-1.05 0-.62.49-1.06 1.19-1.06.53 0 1.04.2 1.33.6v.91zm5.753 1.02h.75v-6.67h-.75v2.57c-.39-.53-.98-.85-1.63-.85-1.27 0-2.15 1-2.15 2.54 0 1.57.89 2.53 2.15 2.53.68 0 1.27-.35 1.63-.84v.72zm0-1.31c-.27.42-.85.76-1.45.76-.97 0-1.55-.79-1.55-1.86s.58-1.87 1.55-1.87c.6 0 1.18.36 1.45.78v2.19zm2.622-4.33c.28 0 .51-.23.51-.51s-.23-.5-.51-.5c-.27 0-.5.22-.5.5s.23.51.5.51zm-.37 5.64h.75v-4.83h-.75V232zm5.506 0h.75v-4.83h-.75v3.55c-.28.39-.84.73-1.43.73-.65 0-1.08-.25-1.08-1.1v-3.18h-.75v3.41c0 1.05.53 1.54 1.54 1.54.72 0 1.35-.38 1.72-.8v.68zm1.828-.64c.49.52 1.16.76 1.95.76 1.25 0 1.9-.65 1.9-1.46 0-1.07-.97-1.31-1.81-1.5-.63-.15-1.18-.3-1.18-.77 0-.43.41-.73 1.07-.73.62 0 1.15.26 1.44.61l.35-.52c-.39-.39-.97-.7-1.79-.7-1.15 0-1.8.64-1.8 1.39 0 1 .93 1.22 1.75 1.41.65.16 1.24.33 1.24.86 0 .47-.4.8-1.14.8-.66 0-1.27-.32-1.59-.69l-.39.54z" fill="#212121"/><path stroke="#000" stroke-width="2" d="M667 207h66v32h-66z"/><path fill="#fff" d="M563 30h66v32h-66z"/><path d="M580.125 48.06c.55.62 1.4 1.06 2.56 1.06 1.8 0 2.46-.99 2.46-1.96 0-1.4-1.24-1.74-2.33-2.03-.85-.23-1.62-.43-1.62-1.1 0-.63.57-1.06 1.37-1.06.73 0 1.43.25 1.93.8l.5-.61c-.56-.59-1.35-.93-2.37-.93-1.31 0-2.29.75-2.29 1.85 0 1.31 1.19 1.61 2.26 1.89.88.24 1.69.46 1.69 1.26 0 .51-.38 1.15-1.57 1.15-.94 0-1.66-.46-2.1-.95l-.49.63zm7.283 1.06c.44 0 .71-.13.9-.31l-.22-.56c-.1.11-.3.2-.51.2-.33 0-.49-.26-.49-.62v-3h.98v-.66h-.98v-1.32h-.75v1.32h-.8v.66h.8v3.16c0 .72.36 1.13 1.07 1.13zm4.98-.12h.75v-4.83h-.75v3.55c-.28.39-.84.73-1.43.73-.65 0-1.08-.25-1.08-1.1v-3.18h-.75v3.41c0 1.05.53 1.54 1.54 1.54.72 0 1.35-.38 1.72-.8V49zm5.748 0h.75v-6.67h-.75v2.57c-.39-.53-.98-.85-1.63-.85-1.27 0-2.15 1-2.15 2.54 0 1.57.89 2.53 2.15 2.53.68 0 1.27-.35 1.63-.84V49zm0-1.31c-.27.42-.85.76-1.45.76-.97 0-1.55-.79-1.55-1.86s.58-1.87 1.55-1.87c.6 0 1.18.36 1.45.78v2.19zm2.622-4.33c.28 0 .51-.23.51-.51s-.23-.5-.51-.5c-.27 0-.5.22-.5.5s.23.51.5.51zm-.37 5.64h.75v-4.83h-.75V49zm4.356.12c1.47 0 2.39-1.14 2.39-2.54 0-1.4-.92-2.53-2.39-2.53-1.47 0-2.39 1.13-2.39 2.53s.92 2.54 2.39 2.54zm0-.67c-1.03 0-1.61-.88-1.61-1.87 0-.98.58-1.86 1.61-1.86 1.03 0 1.6.88 1.6 1.86 0 .99-.57 1.87-1.6 1.87zm3.192-.09c.49.52 1.16.76 1.95.76 1.25 0 1.9-.65 1.9-1.46 0-1.07-.97-1.31-1.81-1.5-.63-.15-1.18-.3-1.18-.77 0-.43.41-.73 1.07-.73.62 0 1.15.26 1.44.61l.35-.52c-.39-.39-.97-.7-1.79-.7-1.15 0-1.8.64-1.8 1.39 0 1 .93 1.22 1.75 1.41.65.16 1.24.33 1.24.86 0 .47-.4.8-1.14.8-.66 0-1.27-.32-1.59-.69l-.39.54z" fill="#212121"/><path stroke="#000" stroke-width="2" d="M563 30h66v32h-66z"/><path fill="#fff" d="M256 246h66v32h-66z"/><path d="M275.676 265h.98l-1.8-2.72c.91-.08 1.73-.74 1.73-1.94 0-1.23-.87-2.01-2.09-2.01h-2.68V265h.83v-2.65h1.33l1.7 2.65zm.05-4.66c0 .75-.54 1.28-1.33 1.28h-1.75v-2.55h1.75c.79 0 1.33.52 1.33 1.27zm1.561 2.24c0 1.51 1.03 2.54 2.46 2.54.79 0 1.44-.26 1.92-.74l-.36-.49c-.38.39-.94.61-1.49.61-1.04 0-1.68-.76-1.74-1.67h3.91v-.19c0-1.45-.86-2.59-2.32-2.59-1.38 0-2.38 1.13-2.38 2.53zm2.37-1.91c1.1 0 1.58.89 1.59 1.61h-3.17c.04-.74.55-1.61 1.58-1.61zm3.535 5.57c.57.56 1.13.72 1.95.72 1.18 0 2.3-.5 2.3-2.1v-4.69h-.75v.73c-.39-.53-.97-.85-1.62-.85-1.27 0-2.15.96-2.15 2.51 0 1.56.89 2.5 2.15 2.5.68 0 1.27-.37 1.62-.86v.69c0 1.06-.75 1.45-1.55 1.45-.69 0-1.17-.18-1.57-.66l-.38.56zm3.5-2.63c-.26.42-.84.79-1.44.79-.97 0-1.55-.78-1.55-1.84 0-1.07.58-1.84 1.55-1.84.6 0 1.18.36 1.44.78v2.11zm2.622-4.25c.28 0 .51-.23.51-.51s-.23-.5-.51-.5c-.27 0-.5.22-.5.5s.23.51.5.51zm-.37 5.64h.75v-4.83h-.75V265zm1.826-.64c.49.52 1.16.76 1.95.76 1.25 0 1.9-.65 1.9-1.46 0-1.07-.97-1.31-1.81-1.5-.63-.15-1.18-.3-1.18-.77 0-.43.41-.73 1.07-.73.62 0 1.15.26 1.44.61l.35-.52c-.39-.39-.97-.7-1.79-.7-1.15 0-1.8.64-1.8 1.39 0 1 .93 1.22 1.75 1.41.65.16 1.24.33 1.24.86 0 .47-.4.8-1.14.8-.66 0-1.27-.32-1.59-.69l-.39.54zm6.289.76c.44 0 .71-.13.9-.31l-.22-.56c-.1.11-.3.2-.51.2-.33 0-.49-.26-.49-.62v-3h.98v-.66h-.98v-1.32h-.75v1.32h-.8v.66h.8v3.16c0 .72.36 1.13 1.07 1.13zm1.439-2.54c0 1.51 1.03 2.54 2.46 2.54.79 0 1.44-.26 1.92-.74l-.36-.49c-.38.39-.94.61-1.49.61-1.04 0-1.68-.76-1.74-1.67h3.91v-.19c0-1.45-.86-2.59-2.32-2.59-1.38 0-2.38 1.13-2.38 2.53zm2.37-1.91c1.1 0 1.58.89 1.59 1.61h-3.17c.04-.74.55-1.61 1.58-1.61zm3.545 4.33h.75v-3.42c.22-.39.85-.77 1.31-.77.12 0 .21.01.3.03v-.77c-.66 0-1.22.37-1.61.88v-.78h-.75V265z" fill="#212121"/><path stroke="#000" stroke-width="2" d="M256 246h66v32h-66z"/><path fill="#fff" d="M350 246h66v32h-66z"/><path d="M357.284 261.67c0 1.97 1.33 3.45 3.31 3.45 1.97 0 3.31-1.48 3.31-3.45 0-1.97-1.34-3.45-3.31-3.45-1.98 0-3.31 1.48-3.31 3.45zm5.76 0c0 1.55-.96 2.71-2.45 2.71-1.5 0-2.45-1.16-2.45-2.71 0-1.56.95-2.71 2.45-2.71 1.49 0 2.45 1.15 2.45 2.71zm5.387 3.33h.75v-3.39c0-1.05-.53-1.56-1.54-1.56-.72 0-1.38.42-1.72.82v-.7h-.75V265h.75v-3.53c.28-.39.84-.75 1.43-.75.65 0 1.08.27 1.08 1.12V265zm2.248 0h.75v-.72c.36.49.95.84 1.63.84 1.26 0 2.15-.96 2.15-2.53 0-1.54-.89-2.54-2.15-2.54-.66 0-1.24.32-1.63.85v-2.57h-.75V265zm.75-1.31v-2.19c.26-.42.85-.78 1.44-.78.98 0 1.56.8 1.56 1.87s-.58 1.86-1.56 1.86c-.59 0-1.18-.34-1.44-.76zm7.112 1.43c1.47 0 2.39-1.14 2.39-2.54 0-1.4-.92-2.53-2.39-2.53-1.47 0-2.39 1.13-2.39 2.53s.92 2.54 2.39 2.54zm0-.67c-1.03 0-1.61-.88-1.61-1.87 0-.98.58-1.86 1.61-1.86 1.03 0 1.6.88 1.6 1.86 0 .99-.57 1.87-1.6 1.87zm6.632.55h.75v-3.32c0-1.17-.85-1.63-1.87-1.63-.79 0-1.41.26-1.93.8l.35.52c.43-.46.9-.67 1.48-.67.7 0 1.22.37 1.22 1.02v.87c-.39-.45-.94-.66-1.6-.66-.82 0-1.69.51-1.69 1.59 0 1.05.87 1.6 1.69 1.6.65 0 1.2-.23 1.6-.67v.55zm0-1.02c-.29.4-.8.6-1.33.6-.7 0-1.19-.44-1.19-1.05 0-.62.49-1.06 1.19-1.06.53 0 1.04.2 1.33.6v.91zm2.254 1.02h.75v-3.42c.22-.39.85-.77 1.31-.77.12 0 .21.01.3.03v-.77c-.66 0-1.22.37-1.61.88v-.78h-.75V265zm6.801 0h.75v-6.67h-.75v2.57c-.39-.53-.98-.85-1.63-.85-1.27 0-2.15 1-2.15 2.54 0 1.57.89 2.53 2.15 2.53.68 0 1.27-.35 1.63-.84v.72zm0-1.31c-.27.42-.85.76-1.45.76-.97 0-1.55-.79-1.55-1.86s.58-1.87 1.55-1.87c.6 0 1.18.36 1.45.78v2.19zm2.621-4.33c.28 0 .51-.23.51-.51s-.23-.5-.51-.5c-.27 0-.5.22-.5.5s.23.51.5.51zm-.37 5.64h.75v-4.83h-.75V265zm5.507 0h.75v-3.39c0-1.05-.53-1.56-1.54-1.56-.72 0-1.38.42-1.72.82v-.7h-.75V265h.75v-3.53c.28-.39.84-.75 1.43-.75.65 0 1.08.27 1.08 1.12V265zm2.237 1.24c.57.56 1.13.72 1.95.72 1.18 0 2.3-.5 2.3-2.1v-4.69h-.75v.73c-.39-.53-.97-.85-1.62-.85-1.27 0-2.15.96-2.15 2.51 0 1.56.89 2.5 2.15 2.5.68 0 1.27-.37 1.62-.86v.69c0 1.06-.75 1.45-1.55 1.45-.69 0-1.17-.18-1.57-.66l-.38.56zm3.5-2.63c-.26.42-.84.79-1.44.79-.97 0-1.55-.78-1.55-1.84 0-1.07.58-1.84 1.55-1.84.6 0 1.18.36 1.44.78v2.11z" fill="#212121"/><path stroke="#000" stroke-width="2" d="M350 246h66v32h-66z"/><path fill="#fff" d="M563 148h66v32h-66z"/><path d="M581.111 166.06c.55.62 1.4 1.06 2.56 1.06 1.8 0 2.46-.99 2.46-1.96 0-1.4-1.24-1.74-2.33-2.03-.85-.23-1.62-.43-1.62-1.1 0-.63.57-1.06 1.37-1.06.73 0 1.43.25 1.93.8l.5-.61c-.56-.59-1.35-.93-2.37-.93-1.31 0-2.29.75-2.29 1.85 0 1.31 1.19 1.61 2.26 1.89.88.24 1.69.46 1.69 1.26 0 .51-.38 1.15-1.57 1.15-.94 0-1.66-.46-2.1-.95l-.49.63zm5.95-1.48c0 1.51 1.03 2.54 2.46 2.54.79 0 1.44-.26 1.92-.74l-.36-.49c-.38.39-.94.61-1.49.61-1.04 0-1.68-.76-1.74-1.67h3.91v-.19c0-1.45-.86-2.59-2.32-2.59-1.38 0-2.38 1.13-2.38 2.53zm2.37-1.91c1.1 0 1.58.89 1.59 1.61h-3.17c.04-.74.55-1.61 1.58-1.61zm6.565 4.33h.75v-3.32c0-1.17-.85-1.63-1.87-1.63-.79 0-1.41.26-1.93.8l.35.52c.43-.46.9-.67 1.48-.67.7 0 1.22.37 1.22 1.02v.87c-.39-.45-.94-.66-1.6-.66-.82 0-1.69.51-1.69 1.59 0 1.05.87 1.6 1.69 1.6.65 0 1.2-.23 1.6-.67v.55zm0-1.02c-.29.4-.8.6-1.33.6-.7 0-1.19-.44-1.19-1.05 0-.62.49-1.06 1.19-1.06.53 0 1.04.2 1.33.6v.91zm2.253 1.02h.75v-3.42c.22-.39.85-.77 1.31-.77.12 0 .21.01.3.03v-.77c-.66 0-1.22.37-1.61.88v-.78h-.75V167zm3.021-2.42c0 1.44.97 2.54 2.41 2.54.88 0 1.4-.36 1.77-.84l-.5-.46c-.32.43-.73.63-1.23.63-1.03 0-1.67-.8-1.67-1.87s.64-1.86 1.67-1.86c.5 0 .91.19 1.23.63l.5-.46c-.37-.48-.89-.84-1.77-.84-1.44 0-2.41 1.1-2.41 2.53zm8.501 2.42h.75v-3.41c0-1.05-.53-1.54-1.54-1.54-.73 0-1.39.42-1.73.82v-2.54h-.75V167h.75v-3.53c.29-.39.85-.75 1.43-.75.65 0 1.09.25 1.09 1.1V167z" fill="#212121"/><path stroke="#000" stroke-width="2" d="M563 148h66v32h-66z"/><path fill="#fff" d="M769 148h66v32h-66z"/><path d="M790.937 167h.98l-1.8-2.72c.91-.08 1.73-.74 1.73-1.94 0-1.23-.87-2.01-2.09-2.01h-2.68V167h.83v-2.65h1.33l1.7 2.65zm.05-4.66c0 .75-.54 1.28-1.33 1.28h-1.75v-2.55h1.75c.79 0 1.33.52 1.33 1.27zm1.561 2.24c0 1.51 1.03 2.54 2.46 2.54.79 0 1.44-.26 1.92-.74l-.36-.49c-.38.39-.94.61-1.49.61-1.04 0-1.68-.76-1.74-1.67h3.91v-.19c0-1.45-.86-2.59-2.32-2.59-1.38 0-2.38 1.13-2.38 2.53zm2.37-1.91c1.1 0 1.58.89 1.59 1.61h-3.17c.04-.74.55-1.61 1.58-1.61zm3.125 3.69c.49.52 1.16.76 1.95.76 1.25 0 1.9-.65 1.9-1.46 0-1.07-.97-1.31-1.81-1.5-.63-.15-1.18-.3-1.18-.77 0-.43.41-.73 1.07-.73.62 0 1.15.26 1.44.61l.35-.52c-.39-.39-.97-.7-1.79-.7-1.15 0-1.8.64-1.8 1.39 0 1 .93 1.22 1.75 1.41.65.16 1.24.33 1.24.86 0 .47-.4.8-1.14.8-.66 0-1.27-.32-1.59-.69l-.39.54zm8.328.64h.75v-4.83h-.75v3.55c-.28.39-.84.73-1.43.73-.65 0-1.08-.25-1.08-1.1v-3.18h-.75v3.41c0 1.05.53 1.54 1.54 1.54.72 0 1.35-.38 1.72-.8v.68zm2.248 0h.75v-6.67h-.75V167zm3.466.12c.44 0 .71-.13.9-.31l-.22-.56c-.1.11-.3.2-.51.2-.33 0-.49-.26-.49-.62v-3h.98v-.66h-.98v-1.32h-.75v1.32h-.8v.66h.8v3.16c0 .72.36 1.13 1.07 1.13zm1.3-.76c.49.52 1.16.76 1.95.76 1.25 0 1.9-.65 1.9-1.46 0-1.07-.97-1.31-1.81-1.5-.63-.15-1.18-.3-1.18-.77 0-.43.41-.73 1.07-.73.62 0 1.15.26 1.44.61l.35-.52c-.39-.39-.97-.7-1.79-.7-1.15 0-1.8.64-1.8 1.39 0 1 .93 1.22 1.75 1.41.65.16 1.24.33 1.24.86 0 .47-.4.8-1.14.8-.66 0-1.27-.32-1.59-.69l-.39.54z" fill="#212121"/><path stroke="#000" stroke-width="2" d="M769 148h66v32h-66z"/><path fill="#fff" d="M667 30h66v32h-66z"/><path d="M675.272 49h3.04c1.22 0 1.93-.73 1.93-1.8 0-.8-.59-1.53-1.3-1.64.61-.13 1.17-.69 1.17-1.53 0-1-.71-1.7-1.87-1.7h-2.97V49zm.83-3.78v-2.15h2c.75 0 1.15.48 1.15 1.08 0 .61-.4 1.07-1.15 1.07h-2zm0 3.04v-2.3h2.04c.82 0 1.24.54 1.24 1.15 0 .71-.46 1.15-1.24 1.15h-2.04zm5.279 1.95l-.12.68c.14.04.39.07.55.07.64-.01 1.13-.28 1.42-.98l2.42-5.81h-.82l-1.6 3.96-1.61-3.96h-.81l2.02 4.88-.32.73c-.17.4-.39.51-.72.51-.12 0-.3-.03-.41-.08zm7.661-1.21h3.93v-.74h-3.1v-5.93h-.83V49zm6.963.12c1.47 0 2.39-1.14 2.39-2.54 0-1.4-.92-2.53-2.39-2.53-1.47 0-2.39 1.13-2.39 2.53s.92 2.54 2.39 2.54zm0-.67c-1.03 0-1.61-.88-1.61-1.87 0-.98.58-1.86 1.61-1.86 1.03 0 1.6.88 1.6 1.86 0 .99-.57 1.87-1.6 1.87zm3.332-1.87c0 1.44.97 2.54 2.41 2.54.88 0 1.4-.36 1.77-.84l-.5-.46c-.32.43-.73.63-1.23.63-1.03 0-1.67-.8-1.67-1.87s.64-1.86 1.67-1.86c.5 0 .91.19 1.23.63l.5-.46c-.37-.48-.89-.84-1.77-.84-1.44 0-2.41 1.1-2.41 2.53zm8.251 2.42h.75v-3.32c0-1.17-.85-1.63-1.87-1.63-.79 0-1.41.26-1.93.8l.35.52c.43-.46.9-.67 1.48-.67.7 0 1.22.37 1.22 1.02v.87c-.39-.45-.94-.66-1.6-.66-.82 0-1.69.51-1.69 1.59 0 1.05.87 1.6 1.69 1.6.65 0 1.2-.23 1.6-.67V49zm0-1.02c-.29.4-.8.6-1.33.6-.7 0-1.19-.44-1.19-1.05 0-.62.49-1.06 1.19-1.06.53 0 1.04.2 1.33.6v.91zm3.474 1.14c.44 0 .71-.13.9-.31l-.22-.56c-.1.11-.3.2-.51.2-.33 0-.49-.26-.49-.62v-3h.98v-.66h-.98v-1.32h-.75v1.32h-.8v.66h.8v3.16c0 .72.36 1.13 1.07 1.13zm2.089-5.76c.28 0 .51-.23.51-.51s-.23-.5-.51-.5c-.27 0-.5.22-.5.5s.23.51.5.51zm-.37 5.64h.75v-4.83h-.75V49zm4.356.12c1.47 0 2.39-1.14 2.39-2.54 0-1.4-.92-2.53-2.39-2.53-1.47 0-2.39 1.13-2.39 2.53s.92 2.54 2.39 2.54zm0-.67c-1.03 0-1.61-.88-1.61-1.87 0-.98.58-1.86 1.61-1.86 1.03 0 1.6.88 1.6 1.86 0 .99-.57 1.87-1.6 1.87zm6.873.55h.75v-3.39c0-1.05-.53-1.56-1.54-1.56-.72 0-1.38.42-1.72.82v-.7h-.75V49h.75v-3.53c.28-.39.84-.75 1.43-.75.65 0 1.08.27 1.08 1.12V49z" fill="#212121"/><path stroke="#000" stroke-width="2" d="M667 30h66v32h-66z"/><path fill="#fff" d="M769 30h66v32h-66z"/><path d="M791.847 43h.83v-3.04h3.47v-.74h-3.47v-2.15h3.54v-.74h-4.37V43zm5.838-5.64c.28 0 .51-.23.51-.51s-.23-.5-.51-.5c-.27 0-.5.22-.5.5s.23.51.5.51zm-.37 5.64h.75v-4.83h-.75V43zm2.247 0h.75v-6.67h-.75V43zm3.466.12c.44 0 .71-.13.9-.31l-.22-.56c-.1.11-.3.2-.51.2-.33 0-.49-.26-.49-.62v-3h.98v-.66h-.98v-1.32h-.75v1.32h-.8v.66h.8v3.16c0 .72.36 1.13 1.07 1.13zm1.439-2.54c0 1.51 1.03 2.54 2.46 2.54.79 0 1.44-.26 1.92-.74l-.36-.49c-.38.39-.94.61-1.49.61-1.04 0-1.68-.76-1.74-1.67h3.91v-.19c0-1.45-.86-2.59-2.32-2.59-1.38 0-2.38 1.13-2.38 2.53zm2.37-1.91c1.1 0 1.58.89 1.59 1.61h-3.17c.04-.74.55-1.61 1.58-1.61zm3.545 4.33h.75v-3.42c.22-.39.85-.77 1.31-.77.12 0 .21.01.3.03v-.77c-.66 0-1.22.37-1.61.88v-.78h-.75V43zm-25.099 8.67c0 1.97 1.33 3.45 3.31 3.45 1.97 0 3.31-1.48 3.31-3.45 0-1.97-1.34-3.45-3.31-3.45-1.98 0-3.31 1.48-3.31 3.45zm5.76 0c0 1.55-.96 2.71-2.45 2.71-1.5 0-2.45-1.16-2.45-2.71 0-1.56.95-2.71 2.45-2.71 1.49 0 2.45 1.15 2.45 2.71zm2.877 5.17v-2.57c.39.54.97.85 1.63.85 1.27 0 2.15-.98 2.15-2.54 0-1.57-.88-2.53-2.15-2.53-.68 0-1.28.35-1.63.84v-.72h-.75v6.67h.75zm2.99-4.26c0 1.07-.58 1.87-1.55 1.87-.59 0-1.18-.36-1.44-.78v-2.18c.26-.42.85-.77 1.44-.77.97 0 1.55.79 1.55 1.86zm3.222 2.54c.44 0 .71-.13.9-.31l-.22-.56c-.1.11-.3.2-.51.2-.33 0-.49-.26-.49-.62v-3h.98v-.66h-.98v-1.32h-.75v1.32h-.8v.66h.8v3.16c0 .72.36 1.13 1.07 1.13zm2.09-5.76c.28 0 .51-.23.51-.51s-.23-.5-.51-.5c-.27 0-.5.22-.5.5s.23.51.5.51zm-.37 5.64h.75v-4.83h-.75V55zm4.356.12c1.47 0 2.39-1.14 2.39-2.54 0-1.4-.92-2.53-2.39-2.53-1.47 0-2.39 1.13-2.39 2.53s.92 2.54 2.39 2.54zm0-.67c-1.03 0-1.61-.88-1.61-1.87 0-.98.58-1.86 1.61-1.86 1.03 0 1.6.88 1.6 1.86 0 .99-.57 1.87-1.6 1.87zm6.872.55h.75v-3.39c0-1.05-.53-1.56-1.54-1.56-.72 0-1.38.42-1.72.82v-.7h-.75V55h.75v-3.53c.28-.39.84-.75 1.43-.75.65 0 1.08.27 1.08 1.12V55zm1.828-.64c.49.52 1.16.76 1.95.76 1.25 0 1.9-.65 1.9-1.46 0-1.07-.97-1.31-1.81-1.5-.63-.15-1.18-.3-1.18-.77 0-.43.41-.73 1.07-.73.62 0 1.15.26 1.44.61l.35-.52c-.39-.39-.97-.7-1.79-.7-1.15 0-1.8.64-1.8 1.39 0 1 .93 1.22 1.75 1.41.65.16 1.24.33 1.24.86 0 .47-.4.8-1.14.8-.66 0-1.27-.32-1.59-.69l-.39.54z" fill="#212121"/><path stroke="#000" stroke-width="2" stroke-dasharray="3 1" d="M769 30h66v32h-66z"/><path fill="#fff" d="M256 148h66v32h-66z"/><path d="M269.695 161h.98l-1.8-2.72c.91-.08 1.73-.74 1.73-1.94 0-1.23-.87-2.01-2.09-2.01h-2.68V161h.83v-2.65h1.33l1.7 2.65zm.05-4.66c0 .75-.54 1.28-1.33 1.28h-1.75v-2.55h1.75c.79 0 1.33.52 1.33 1.27zm1.561 2.24c0 1.51 1.03 2.54 2.46 2.54.79 0 1.44-.26 1.92-.74l-.36-.49c-.38.39-.94.61-1.49.61-1.04 0-1.68-.76-1.74-1.67h3.91v-.19c0-1.45-.86-2.59-2.32-2.59-1.38 0-2.38 1.13-2.38 2.53zm2.37-1.91c1.1 0 1.58.89 1.59 1.61h-3.17c.04-.74.55-1.61 1.58-1.61zm9.375 4.33h.75v-3.49c0-.97-.47-1.46-1.35-1.46-.7 0-1.35.46-1.62.9-.14-.5-.56-.9-1.3-.9-.71 0-1.36.51-1.56.82v-.7h-.75V161h.75v-3.53c.26-.39.78-.75 1.27-.75.63 0 .89.39.89 1V161h.75v-3.54c.25-.38.78-.74 1.28-.74.62 0 .89.39.89 1V161zm1.966-2.42c0 1.51 1.03 2.54 2.46 2.54.79 0 1.44-.26 1.92-.74l-.36-.49c-.38.39-.94.61-1.49.61-1.04 0-1.68-.76-1.74-1.67h3.91v-.19c0-1.45-.86-2.59-2.32-2.59-1.38 0-2.38 1.13-2.38 2.53zm2.37-1.91c1.1 0 1.58.89 1.59 1.61h-3.17c.04-.74.55-1.61 1.58-1.61zm9.375 4.33h.75v-3.49c0-.97-.47-1.46-1.35-1.46-.7 0-1.35.46-1.62.9-.14-.5-.56-.9-1.3-.9-.71 0-1.36.51-1.56.82v-.7h-.75V161h.75v-3.53c.26-.39.78-.75 1.27-.75.63 0 .89.39.89 1V161h.75v-3.54c.25-.38.78-.74 1.28-.74.62 0 .89.39.89 1V161zm2.246 0h.75v-.72c.36.49.95.84 1.63.84 1.26 0 2.15-.96 2.15-2.53 0-1.54-.89-2.54-2.15-2.54-.66 0-1.24.32-1.63.85v-2.57h-.75V161zm.75-1.31v-2.19c.26-.42.85-.78 1.44-.78.98 0 1.56.8 1.56 1.87s-.58 1.86-1.56 1.86c-.59 0-1.18-.34-1.44-.76zm4.722-1.11c0 1.51 1.03 2.54 2.46 2.54.79 0 1.44-.26 1.92-.74l-.36-.49c-.38.39-.94.61-1.49.61-1.04 0-1.68-.76-1.74-1.67h3.91v-.19c0-1.45-.86-2.59-2.32-2.59-1.38 0-2.38 1.13-2.38 2.53zm2.37-1.91c1.1 0 1.58.89 1.59 1.61h-3.17c.04-.74.55-1.61 1.58-1.61zm3.545 4.33h.75v-3.42c.22-.39.85-.77 1.31-.77.12 0 .21.01.3.03v-.77c-.66 0-1.22.37-1.61.88v-.78h-.75V161zm-21.775 12h.83v-6.67h-1.19l-2.08 5.08-2.07-5.08h-1.19V173h.83v-5.55l2.26 5.55h.34l2.27-5.55V173zm2.076-2.42c0 1.51 1.03 2.54 2.46 2.54.79 0 1.44-.26 1.92-.74l-.36-.49c-.38.39-.94.61-1.49.61-1.04 0-1.68-.76-1.74-1.67h3.91v-.19c0-1.45-.86-2.59-2.32-2.59-1.38 0-2.38 1.13-2.38 2.53zm2.37-1.91c1.1 0 1.58.89 1.59 1.61h-3.17c.04-.74.55-1.61 1.58-1.61z" fill="#212121"/><path stroke="#000" stroke-width="2" stroke-dasharray="3 1" d="M256 148h66v32h-66z"/><path fill="#fff" d="M769 207h66v32h-66z"/><path d="M791.847 220h.83v-3.04h3.47v-.74h-3.47v-2.15h3.54v-.74h-4.37V220zm5.838-5.64c.28 0 .51-.23.51-.51s-.23-.5-.51-.5c-.27 0-.5.22-.5.5s.23.51.5.51zm-.37 5.64h.75v-4.83h-.75V220zm2.247 0h.75v-6.67h-.75V220zm3.466.12c.44 0 .71-.13.9-.31l-.22-.56c-.1.11-.3.2-.51.2-.33 0-.49-.26-.49-.62v-3h.98v-.66h-.98v-1.32h-.75v1.32h-.8v.66h.8v3.16c0 .72.36 1.13 1.07 1.13zm1.439-2.54c0 1.51 1.03 2.54 2.46 2.54.79 0 1.44-.26 1.92-.74l-.36-.49c-.38.39-.94.61-1.49.61-1.04 0-1.68-.76-1.74-1.67h3.91v-.19c0-1.45-.86-2.59-2.32-2.59-1.38 0-2.38 1.13-2.38 2.53zm2.37-1.91c1.1 0 1.58.89 1.59 1.61h-3.17c.04-.74.55-1.61 1.58-1.61zm3.545 4.33h.75v-3.42c.22-.39.85-.77 1.31-.77.12 0 .21.01.3.03v-.77c-.66 0-1.22.37-1.61.88v-.78h-.75V220zm-25.099 8.67c0 1.97 1.33 3.45 3.31 3.45 1.97 0 3.31-1.48 3.31-3.45 0-1.97-1.34-3.45-3.31-3.45-1.98 0-3.31 1.48-3.31 3.45zm5.76 0c0 1.55-.96 2.71-2.45 2.71-1.5 0-2.45-1.16-2.45-2.71 0-1.56.95-2.71 2.45-2.71 1.49 0 2.45 1.15 2.45 2.71zm2.877 5.17v-2.57c.39.54.97.85 1.63.85 1.27 0 2.15-.98 2.15-2.54 0-1.57-.88-2.53-2.15-2.53-.68 0-1.28.35-1.63.84v-.72h-.75v6.67h.75zm2.99-4.26c0 1.07-.58 1.87-1.55 1.87-.59 0-1.18-.36-1.44-.78v-2.18c.26-.42.85-.77 1.44-.77.97 0 1.55.79 1.55 1.86zm3.222 2.54c.44 0 .71-.13.9-.31l-.22-.56c-.1.11-.3.2-.51.2-.33 0-.49-.26-.49-.62v-3h.98v-.66h-.98v-1.32h-.75v1.32h-.8v.66h.8v3.16c0 .72.36 1.13 1.07 1.13zm2.09-5.76c.28 0 .51-.23.51-.51s-.23-.5-.51-.5c-.27 0-.5.22-.5.5s.23.51.5.51zm-.37 5.64h.75v-4.83h-.75V232zm4.356.12c1.47 0 2.39-1.14 2.39-2.54 0-1.4-.92-2.53-2.39-2.53-1.47 0-2.39 1.13-2.39 2.53s.92 2.54 2.39 2.54zm0-.67c-1.03 0-1.61-.88-1.61-1.87 0-.98.58-1.86 1.61-1.86 1.03 0 1.6.88 1.6 1.86 0 .99-.57 1.87-1.6 1.87zm6.872.55h.75v-3.39c0-1.05-.53-1.56-1.54-1.56-.72 0-1.38.42-1.72.82v-.7h-.75V232h.75v-3.53c.28-.39.84-.75 1.43-.75.65 0 1.08.27 1.08 1.12V232zm1.828-.64c.49.52 1.16.76 1.95.76 1.25 0 1.9-.65 1.9-1.46 0-1.07-.97-1.31-1.81-1.5-.63-.15-1.18-.3-1.18-.77 0-.43.41-.73 1.07-.73.62 0 1.15.26 1.44.61l.35-.52c-.39-.39-.97-.7-1.79-.7-1.15 0-1.8.64-1.8 1.39 0 1 .93 1.22 1.75 1.41.65.16 1.24.33 1.24.86 0 .47-.4.8-1.14.8-.66 0-1.27-.32-1.59-.69l-.39.54z" fill="#212121"/><path stroke="#000" stroke-width="2" stroke-dasharray="3 1" d="M769 207h66v32h-66z"/><path fill="#fff" d="M256 50h66v32h-66z"/><path d="M275.317 63h.83v-3.04h3.47v-.74h-3.47v-2.15h3.54v-.74h-4.37V63zm7.578.12c1.47 0 2.39-1.14 2.39-2.54 0-1.4-.92-2.53-2.39-2.53-1.47 0-2.39 1.13-2.39 2.53s.92 2.54 2.39 2.54zm0-.67c-1.03 0-1.61-.88-1.61-1.87 0-.98.58-1.86 1.61-1.86 1.03 0 1.6.88 1.6 1.86 0 .99-.57 1.87-1.6 1.87zm3.613.55h.75v-3.42c.22-.39.85-.77 1.31-.77.12 0 .21.01.3.03v-.77c-.66 0-1.22.37-1.61.88v-.78h-.75V63zm3.291 1.24c.57.56 1.13.72 1.95.72 1.18 0 2.3-.5 2.3-2.1v-4.69h-.75v.73c-.39-.53-.97-.85-1.62-.85-1.27 0-2.15.96-2.15 2.51 0 1.56.89 2.5 2.15 2.5.68 0 1.27-.37 1.62-.86v.69c0 1.06-.75 1.45-1.55 1.45-.69 0-1.17-.18-1.57-.66l-.38.56zm3.5-2.63c-.26.42-.84.79-1.44.79-.97 0-1.55-.78-1.55-1.84 0-1.07.58-1.84 1.55-1.84.6 0 1.18.36 1.44.78v2.11zm4.362 1.51c1.47 0 2.39-1.14 2.39-2.54 0-1.4-.92-2.53-2.39-2.53-1.47 0-2.39 1.13-2.39 2.53s.92 2.54 2.39 2.54zm0-.67c-1.03 0-1.61-.88-1.61-1.87 0-.98.58-1.86 1.61-1.86 1.03 0 1.6.88 1.6 1.86 0 .99-.57 1.87-1.6 1.87zm4.832.67c.44 0 .71-.13.9-.31l-.22-.56c-.1.11-.3.2-.51.2-.33 0-.49-.26-.49-.62v-3h.98v-.66h-.98v-1.32h-.75v1.32h-.8v.66h.8v3.16c0 .72.36 1.13 1.07 1.13zm-28.167 10.94c.55.62 1.4 1.06 2.56 1.06 1.8 0 2.46-.99 2.46-1.96 0-1.4-1.24-1.74-2.33-2.03-.85-.23-1.62-.43-1.62-1.1 0-.63.57-1.06 1.37-1.06.73 0 1.43.25 1.93.8l.5-.61c-.56-.59-1.35-.93-2.37-.93-1.31 0-2.29.75-2.29 1.85 0 1.31 1.19 1.61 2.26 1.89.88.24 1.69.46 1.69 1.26 0 .51-.38 1.15-1.57 1.15-.94 0-1.66-.46-2.1-.95l-.49.63zm6.6-4.7c.28 0 .51-.23.51-.51s-.23-.5-.51-.5c-.27 0-.5.22-.5.5s.23.51.5.51zm-.37 5.64h.75v-4.83h-.75V75zm2.236 1.24c.57.56 1.13.72 1.95.72 1.18 0 2.3-.5 2.3-2.1v-4.69h-.75v.73c-.39-.53-.97-.85-1.62-.85-1.27 0-2.15.96-2.15 2.51 0 1.56.89 2.5 2.15 2.5.68 0 1.27-.37 1.62-.86v.69c0 1.06-.75 1.45-1.55 1.45-.69 0-1.17-.18-1.57-.66l-.38.56zm3.5-2.63c-.26.42-.84.79-1.44.79-.97 0-1.55-.78-1.55-1.84 0-1.07.58-1.84 1.55-1.84.6 0 1.18.36 1.44.78v2.11zm5.512 1.39h.75v-3.39c0-1.05-.53-1.56-1.54-1.56-.72 0-1.38.42-1.72.82v-.7h-.75V75h.75v-3.53c.28-.39.84-.75 1.43-.75.65 0 1.08.27 1.08 1.12V75zm1.798-2.09h2.4v-.66h-2.4v.66zm3.818-3.55c.28 0 .51-.23.51-.51s-.23-.5-.51-.5c-.27 0-.5.22-.5.5s.23.51.5.51zm-.37 5.64h.75v-4.83h-.75V75zm5.506 0h.75v-3.39c0-1.05-.53-1.56-1.54-1.56-.72 0-1.38.42-1.72.82v-.7h-.75V75h.75v-3.53c.28-.39.84-.75 1.43-.75.65 0 1.08.27 1.08 1.12V75z" fill="#212121"/><path stroke="#000" stroke-width="2" d="M256 50h66v32h-66z"/><path fill="#fff" d="M256 1h66v32h-66z"/><path d="M275.676 14h.98l-1.8-2.72c.91-.08 1.73-.74 1.73-1.94 0-1.23-.87-2.01-2.09-2.01h-2.68V14h.83v-2.65h1.33l1.7 2.65zm.05-4.66c0 .75-.54 1.28-1.33 1.28h-1.75V8.07h1.75c.79 0 1.33.52 1.33 1.27zm1.561 2.24c0 1.51 1.03 2.54 2.46 2.54.79 0 1.44-.26 1.92-.74l-.36-.49c-.38.39-.94.61-1.49.61-1.04 0-1.68-.76-1.74-1.67h3.91v-.19c0-1.45-.86-2.59-2.32-2.59-1.38 0-2.38 1.13-2.38 2.53zm2.37-1.91c1.1 0 1.58.89 1.59 1.61h-3.17c.04-.74.55-1.61 1.58-1.61zm3.265 1.91c0 1.44.97 2.54 2.41 2.54.88 0 1.4-.36 1.77-.84l-.5-.46c-.32.43-.73.63-1.23.63-1.03 0-1.67-.8-1.67-1.87s.64-1.86 1.67-1.86c.5 0 .91.19 1.23.63l.5-.46c-.37-.48-.89-.84-1.77-.84-1.44 0-2.41 1.1-2.41 2.53zm7.341 2.54c1.47 0 2.39-1.14 2.39-2.54 0-1.4-.92-2.53-2.39-2.53-1.47 0-2.39 1.13-2.39 2.53s.92 2.54 2.39 2.54zm0-.67c-1.03 0-1.61-.88-1.61-1.87 0-.98.58-1.86 1.61-1.86 1.03 0 1.6.88 1.6 1.86 0 .99-.57 1.87-1.6 1.87zm4.903.55h.82l2.01-4.83h-.82l-1.6 3.96-1.61-3.96h-.81l2.01 4.83zm3.332-2.42c0 1.51 1.03 2.54 2.46 2.54.79 0 1.44-.26 1.92-.74l-.36-.49c-.38.39-.94.61-1.49.61-1.04 0-1.68-.76-1.74-1.67h3.91v-.19c0-1.45-.86-2.59-2.32-2.59-1.38 0-2.38 1.13-2.38 2.53zm2.37-1.91c1.1 0 1.58.89 1.59 1.61h-3.17c.04-.74.55-1.61 1.58-1.61zm3.545 4.33h.75v-3.42c.22-.39.85-.77 1.31-.77.12 0 .21.01.3.03v-.77c-.66 0-1.22.37-1.61.88v-.78h-.75V14zm-30.087 11.06c.55.62 1.4 1.06 2.56 1.06 1.8 0 2.46-.99 2.46-1.96 0-1.4-1.24-1.74-2.33-2.03-.85-.23-1.62-.43-1.62-1.1 0-.63.57-1.06 1.37-1.06.73 0 1.43.25 1.93.8l.5-.61c-.56-.59-1.35-.93-2.37-.93-1.31 0-2.29.75-2.29 1.85 0 1.31 1.19 1.61 2.26 1.89.88.24 1.69.46 1.69 1.26 0 .51-.38 1.15-1.57 1.15-.94 0-1.66-.46-2.1-.95l-.49.63zm6.6-4.7c.28 0 .51-.23.51-.51s-.23-.5-.51-.5c-.27 0-.5.22-.5.5s.23.51.5.51zm-.37 5.64h.75v-4.83h-.75V26zm2.236 1.24c.57.56 1.13.72 1.95.72 1.18 0 2.3-.5 2.3-2.1v-4.69h-.75v.73c-.39-.53-.97-.85-1.62-.85-1.27 0-2.15.96-2.15 2.51 0 1.56.89 2.5 2.15 2.5.68 0 1.27-.37 1.62-.86v.69c0 1.06-.75 1.45-1.55 1.45-.69 0-1.17-.18-1.57-.66l-.38.56zm3.5-2.63c-.26.42-.84.79-1.44.79-.97 0-1.55-.78-1.55-1.84 0-1.07.58-1.84 1.55-1.84.6 0 1.18.36 1.44.78v2.11zm5.512 1.39h.75v-3.39c0-1.05-.53-1.56-1.54-1.56-.72 0-1.38.42-1.72.82v-.7h-.75V26h.75v-3.53c.28-.39.84-.75 1.43-.75.65 0 1.08.27 1.08 1.12V26zm1.798-2.09h2.4v-.66h-2.4v.66zm3.818-3.55c.28 0 .51-.23.51-.51s-.23-.5-.51-.5c-.27 0-.5.22-.5.5s.23.51.5.51zm-.37 5.64h.75v-4.83h-.75V26zm5.506 0h.75v-3.39c0-1.05-.53-1.56-1.54-1.56-.72 0-1.38.42-1.72.82v-.7h-.75V26h.75v-3.53c.28-.39.84-.75 1.43-.75.65 0 1.08.27 1.08 1.12V26z" fill="#212121"/><path stroke="#000" stroke-width="2" d="M256 1h66v32h-66z"/><path d="M80 164l-15 3.464v-6.928L80 164zM149 91l-15 3.464v-6.928L149 91zM149 237l-15 3.464v-6.928L149 237zM358 164l-15 3.464v-6.928L358 164zM350 262l-15 3.464v-6.928L350 262zM255 164l-15 3.464v-6.928L255 164zM255 115l-15 3.464v-6.928L255 115zM255 213l-15 3.464v-6.928L255 213zM289 246l-2.598-9h5.196L289 246zM802 147l-2.598-9h5.196L802 147zM802 88l-2.598-9h5.196L802 88zM699 206l-2.598-9h5.196L699 206zM802 181l2.598 9h-5.196l2.598-9zM289 83l2.598 9h-5.196L289 83zM383 189l2.598 9h-5.196l2.598-9zM289 34l2.598 9h-5.196L289 34zM443 164l-15 3.464v-6.928L443 164zM562 164l-15 3.464v-6.928L562 164zM562 46l-15 3.464v-6.928L562 46zM665 164l-15 3.464v-6.928L665 164zM768 46l-15 3.464v-6.928L768 46zM768 223l-15 3.464v-6.928L768 223zM666 46l-15 3.464v-6.928L666 46zM871 164l-15 3.464v-6.928L871 164z" fill="#000"/><path stroke="#000" stroke-width="2" stroke-linecap="round" stroke-linejoin="round" d="M65 164H51M122 121V91M225 115V91M332 164v-49M383 244v-49M536 163V46M802 138v-15M802 79V64M699 197v-15M225 237v-24M122 237v-30M122 91h15M225 115h15M225 213h15M409 164h20M536 164h12M528 164h7M631 164h20M734 223h20M837 164h20M536 46h12M631 46h20M734 46h26M332 164h11"/><path stroke="#000" stroke-width="2" stroke-linecap="round" stroke-linejoin="round" stroke-dasharray="1 3" d="M323 164h8M236 19h18M236 115V20"/><path stroke="#000" stroke-width="2" stroke-linecap="round" stroke-linejoin="round" d="M324 115h8M324 262h11M217 91h8M217 237h8M289 238v-8M802 205v-16M122 237h15"/><path d="M51 164.161l-.695.719v.001l.003.002.01.009.035.034.139.135.538.52 1.39-1.438a212.13 212.13 0 00-.678-.655l-.035-.034-.01-.009-.001-.002v-.001h-.001l-.695.719zm.403 1.78l1.465 1.416 1.39-1.438-1.465-1.416-1.39 1.438zm1.826 1.766l1.473 1.423 1.39-1.438-1.473-1.423-1.39 1.438zm1.837 1.775l1.478 1.429 1.39-1.438-1.478-1.429-1.39 1.438zm1.838 1.777l1.468 1.419 1.39-1.438-1.468-1.419-1.39 1.438zm1.838 1.778l1.47 1.421 1.39-1.438-1.47-1.421-1.39 1.438zm1.834 1.772c.48.466.97.939 1.468 1.42l1.39-1.438-1.468-1.419-1.39 1.437zm1.835 1.776l1.469 1.42 1.39-1.437-1.468-1.421-1.39 1.438zm1.837 1.777l1.467 1.419 1.391-1.437-1.467-1.42-1.39 1.438zm1.834 1.774l1.468 1.42 1.39-1.437-1.468-1.42-1.39 1.437zm1.835 1.776l1.467 1.42 1.391-1.437-1.468-1.421-1.39 1.438zm1.833 1.775l1.467 1.42 1.392-1.437-1.468-1.42-1.39 1.437zm1.836 1.777l1.468 1.422 1.391-1.437-1.468-1.422-1.39 1.437zm1.834 1.777l1.466 1.42 1.392-1.436-1.466-1.421-1.392 1.437zm1.83 1.773l1.47 1.425 1.392-1.436c-.478-.464-.968-.94-1.47-1.425l-1.392 1.436zm1.839 1.782l1.463 1.42 1.393-1.435-1.464-1.421-1.392 1.436zm1.827 1.773l1.471 1.429 1.394-1.435-1.472-1.429-1.393 1.435zm1.832 1.779l1.47 1.43 1.395-1.433-1.471-1.431-1.394 1.434zm1.824 1.775l.73.711 1.397-1.431-.73-.712-1.397 1.432zm.73.711c.232.228.484.462.753.701l1.33-1.493c-.249-.222-.478-.435-.686-.639l-1.398 1.431zm1.126 1.028c.476.41 1.002.837 1.573 1.278l1.223-1.582a37.461 37.461 0 01-1.492-1.212l-1.304 1.516zm1.966 1.579c.51.386 1.051.782 1.624 1.187l1.154-1.633a59.46 59.46 0 01-1.57-1.148l-1.208 1.594zm2.026 1.469c.526.366 1.076.74 1.648 1.117l1.102-1.668c-.559-.37-1.095-.734-1.607-1.09l-1.143 1.641zm2.07 1.394c.54.352 1.098.709 1.674 1.068l1.059-1.697a94.525 94.525 0 01-1.64-1.046l-1.094 1.675zm2.092 1.328c.553.341 1.12.684 1.7 1.028l1.02-1.72c-.57-.339-1.127-.675-1.669-1.01l-1.05 1.702zm2.13 1.282c.561.33 1.135.66 1.72.991l.984-1.741a122.64 122.64 0 01-1.692-.975l-1.013 1.725zm2.15 1.233c.57.319 1.15.638 1.738.955l.95-1.76c-.58-.312-1.15-.626-1.71-.94l-.978 1.745zm2.174 1.189c.578.309 1.163.617 1.756.922l.915-1.778c-.583-.3-1.16-.603-1.728-.907l-.944 1.763zm2.198 1.149c.585.298 1.177.594 1.774.887l.881-1.795c-.588-.288-1.17-.58-1.746-.874l-.909 1.782zm2.22 1.105c.592.288 1.189.572 1.79.853l.846-1.813c-.592-.276-1.179-.556-1.762-.839l-.874 1.799zm2.24 1.061c.599.277 1.202.549 1.808.817l.808-1.83a114.47 114.47 0 01-1.778-.803l-.838 1.816zm2.263 1.016c.606.265 1.216.524 1.826.778l.768-1.847c-.6-.249-1.198-.504-1.795-.764l-.799 1.833zm2.285.967c.614.252 1.229.498 1.845.737l.723-1.865a101.62 101.62 0 01-1.809-.722l-.759 1.85zm2.309.915c.621.238 1.243.468 1.864.69l.675-1.883a88.258 88.258 0 01-1.826-.675l-.713 1.868zm2.335.857c.63.222 1.259.435 1.886.639l.619-1.901a85.013 85.013 0 01-1.841-.624l-.664 1.886zm2.36.792c.639.204 1.275.397 1.908.58l.556-1.921a70.708 70.708 0 01-1.857-.565l-.607 1.906zm2.385.716c.648.183 1.292.353 1.932.512l.481-1.942a61.24 61.24 0 01-1.871-.495l-.542 1.925zm2.422.631c.659.157 1.313.301 1.959.43l.391-1.961a54.683 54.683 0 01-1.886-.414l-.464 1.945zm2.451.526c.67.126 1.332.236 1.984.329l.281-1.98a42.177 42.177 0 01-1.893-.315l-.372 1.966zm2.484.397c.684.088 1.357.156 2.018.203l.141-1.995a32.97 32.97 0 01-1.903-.192l-.256 1.984zm2.524.235c.693.037 1.372.05 2.036.037l-.041-2c-.609.013-1.238.001-1.886-.035l-.109 1.998zm2.555.021c.345-.015.686-.037 1.022-.067l-.178-1.992c-.303.027-.613.047-.928.061l.084 1.998zm1.022-.067l.974-.083-.163-1.993c-.343.028-.673.056-.989.084l.178 1.992zm1.491-.124c.623-.05 1.287-.099 1.988-.151l-.148-1.995c-.702.052-1.369.102-1.997.152l.157 1.994zm2.481-.187l2.006-.147-.147-1.995-2.005.147.146 1.995zm2.513-.185c.649-.048 1.319-.099 2.007-.152l-.155-1.994c-.685.053-1.353.104-2 .152l.148 1.994zm2.519-.193c.654-.051 1.323-.106 2.005-.164l-.169-1.992c-.678.057-1.343.111-1.993.163l.157 1.993zm2.507-.207c.66-.057 1.331-.117 2.013-.181l-.187-1.991c-.676.063-1.343.123-1.998.18l.172 1.992zm2.509-.228c.663-.063 1.334-.13 2.013-.202l-.208-1.989c-.673.071-1.338.137-1.995.2l.19 1.991zm2.511-.254c.664-.071 1.335-.146 2.011-.226l-.233-1.986c-.669.078-1.333.153-1.991.223l.213 1.989zm2.509-.285c.665-.08 1.335-.164 2.009-.252l-.262-1.983c-.665.087-1.327.17-1.985.249l.238 1.986zm2.508-.319c.665-.09 1.334-.184 2.005-.284l-.294-1.978c-.661.098-1.321.191-1.979.28l.268 1.982zm2.504-.359a140.66 140.66 0 002-.318l-.329-1.973c-.657.11-1.315.214-1.971.314l.3 1.977zm2.499-.402c.665-.114 1.331-.233 1.995-.358l-.37-1.966c-.653.123-1.307.24-1.962.352l.337 1.972zm2.493-.453c.665-.129 1.328-.263 1.988-.403l-.417-1.956c-.647.137-1.297.269-1.95.395l.379 1.964zm2.485-.51a96.531 96.531 0 001.979-.454l-.469-1.944c-.641.154-1.286.302-1.936.444l.426 1.954zm2.474-.575a79.662 79.662 0 001.967-.512l-.528-1.929c-.633.174-1.273.34-1.919.499l.48 1.942zm2.461-.649a71.453 71.453 0 001.951-.579l-.597-1.909a68.87 68.87 0 01-1.896.563l.542 1.925zm2.441-.735a59.88 59.88 0 001.931-.657l-.677-1.882a57.47 57.47 0 01-1.866.636l.612 1.903zm2.417-.834c.646-.24 1.282-.49 1.905-.75l-.772-1.846c-.596.25-1.206.49-1.829.72l.696 1.876zm2.382-.953a42.162 42.162 0 001.868-.86l-.882-1.795c-.576.283-1.17.556-1.778.818l.792 1.837zm2.333-1.093a34.127 34.127 0 001.816-.992l-1.013-1.724c-.549.323-1.12.634-1.709.934l.906 1.782zm2.263-1.259c.601-.367 1.182-.75 1.738-1.15l-1.167-1.624c-.513.368-1.051.724-1.613 1.067l1.042 1.707zm2.158-1.458a22.65 22.65 0 001.623-1.336l-1.344-1.482a20.44 20.44 0 01-1.479 1.218l1.2 1.6zm2.005-1.692a18.36 18.36 0 001.451-1.549l-1.537-1.28c-.397.477-.829.938-1.295 1.383l1.381 1.446zm1.789-1.968a15.68 15.68 0 001.202-1.772l-1.728-1.006a13.876 13.876 0 01-1.051 1.548l1.577 1.23zm1.465-2.242c.338-.631.63-1.287.873-1.969l-1.884-.672c-.209.586-.46 1.152-.752 1.697l1.763.944zm1.046-2.484a14.55 14.55 0 00.49-2.102l-1.976-.309c-.098.626-.24 1.229-.423 1.812l1.909.599zm.562-2.627c.084-.693.121-1.405.11-2.138l-2 .03c.01.645-.023 1.268-.095 1.869l1.985.239zm.094-2.665a18.511 18.511 0 00-.22-2.109l-1.975.318c.105.648.169 1.275.197 1.883l1.998-.092zm-.31-2.627c-.066-.348-.14-.699-.225-1.054l-1.946.464c.078.325.146.644.205.958l1.966-.368zm-.225-1.054a15.31 15.31 0 01-.192-.927l-1.97.343c.06.346.132.696.216 1.048l1.946-.464zm-.263-1.38a12.718 12.718 0 01-.13-1.817l-2-.001a14.84 14.84 0 00.149 2.098l1.981-.28zm-.121-2.267a11.33 11.33 0 01.21-1.792l-1.961-.392a13.32 13.32 0 00-.248 2.107l1.999.077zm.307-2.228c.142-.59.332-1.161.565-1.715l-1.844-.776a13.158 13.158 0 00-.665 2.02l1.944.471zm.748-2.128c.254-.545.552-1.074.891-1.588l-1.67-1.1c-.39.591-.735 1.204-1.033 1.841l1.812.847zm1.148-1.964c.348-.493.735-.971 1.157-1.436l-1.48-1.345a17.322 17.322 0 00-1.31 1.626l1.633 1.155zm1.474-1.775c.422-.44.876-.867 1.36-1.282l-1.301-1.519a21.1 21.1 0 00-1.502 1.416l1.443 1.385zm1.721-1.585c.477-.39.98-.769 1.508-1.137l-1.143-1.641c-.567.395-1.112.805-1.632 1.231l1.267 1.547zm1.902-1.406a30.548 30.548 0 011.614-1.009l-1.008-1.727c-.592.345-1.166.703-1.72 1.075l1.114 1.661zm2.031-1.249a38.427 38.427 0 011.691-.896l-.893-1.79a38.95 38.95 0 00-1.781.945l.983 1.741zm2.125-1.109c.57-.276 1.153-.543 1.749-.8l-.794-1.836c-.62.268-1.23.547-1.826.835l.871 1.801zm2.195-.991a54.867 54.867 0 011.793-.716l-.709-1.87c-.629.238-1.25.486-1.86.743l.776 1.843zm2.247-.886a62.293 62.293 0 011.827-.642l-.634-1.897c-.635.213-1.264.434-1.886.663l.693 1.876zm2.288-.794a68.87 68.87 0 011.854-.577l-.568-1.918c-.64.19-1.276.387-1.907.593l.621 1.902zm2.321-.714c.621-.18 1.247-.353 1.875-.518l-.51-1.934a79.11 79.11 0 00-1.922.531l.557 1.921zm2.345-.641c.63-.162 1.261-.317 1.892-.465l-.457-1.947c-.644.151-1.29.309-1.933.475l.498 1.937zm2.367-.575c.635-.145 1.27-.284 1.903-.415l-.407-1.959c-.646.135-1.294.276-1.943.425l.447 1.949zm2.382-.514c.64-.13 1.278-.253 1.912-.37l-.362-1.967c-.645.119-1.295.244-1.948.377l.398 1.96zm2.395-.458c.645-.115 1.285-.224 1.919-.326l-.319-1.975c-.645.104-1.296.215-1.953.333l.353 1.968zm2.406-.404c.649-.102 1.292-.197 1.925-.286l-.277-1.98c-.644.09-1.297.187-1.958.29l.31 1.976zm2.415-.353c.655-.089 1.299-.171 1.931-.246l-.236-1.986c-.643.077-1.298.16-1.964.25l.269 1.982zm2.423-.303a111.52 111.52 0 011.937-.205l-.193-1.991c-.64.062-1.298.132-1.971.209l.227 1.987zm2.43-.252a97.45 97.45 0 011.944-.163l-.148-1.995c-.637.048-1.298.103-1.981.166l.185 1.992zm2.431-.198a85.087 85.087 0 011.943-.115l-.095-1.998a88.72 88.72 0 00-1.987.118l.139 1.995zm2.412-.136c.71-.03 1.363-.047 1.951-.053l-.022-2c-.611.006-1.285.024-2.013.055l.084 1.998zm2.442-.056a24.89 24.89 0 011.892.057l.155-1.994a27.053 27.053 0 00-2.048-.063l.001 2zm2.301.098c.147.019.244.037.301.052.086.021.014.016-.098-.062a.893.893 0 01-.312-.404.943.943 0 01.045-.782.827.827 0 01.24-.281c.043-.031.069-.042.06-.038l.838 1.816a1.66 1.66 0 00.275-.158c.088-.063.24-.189.351-.395.131-.245.18-.568.054-.89a1.12 1.12 0 00-.402-.506 1.708 1.708 0 00-.565-.241 4.918 4.918 0 00-.533-.095l-.254 1.984z" fill="#000"/><path stroke="#000" stroke-width="2" stroke-linecap="round" stroke-dasharray="1 3" d="M289 93v4M289 44v4"/><path d="M374.807 133.06c.55.62 1.4 1.06 2.56 1.06 1.8 0 2.46-.99 2.46-1.96 0-1.4-1.24-1.74-2.33-2.03-.85-.23-1.62-.43-1.62-1.1 0-.63.57-1.06 1.37-1.06.73 0 1.43.25 1.93.8l.5-.61c-.56-.59-1.35-.93-2.37-.93-1.31 0-2.29.75-2.29 1.85 0 1.31 1.19 1.61 2.26 1.89.88.24 1.69.46 1.69 1.26 0 .51-.38 1.15-1.57 1.15-.94 0-1.66-.46-2.1-.95l-.49.63zm7.283 1.06c.44 0 .71-.13.9-.31l-.22-.56c-.1.11-.3.2-.51.2-.33 0-.49-.26-.49-.62v-3h.98v-.66h-.98v-1.32h-.75v1.32h-.8v.66h.8v3.16c0 .72.36 1.13 1.07 1.13zm4.74-.12h.75v-3.32c0-1.17-.85-1.63-1.87-1.63-.79 0-1.41.26-1.93.8l.35.52c.43-.46.9-.67 1.48-.67.7 0 1.22.37 1.22 1.02v.87c-.39-.45-.94-.66-1.6-.66-.82 0-1.69.51-1.69 1.59 0 1.05.87 1.6 1.69 1.6.65 0 1.2-.23 1.6-.67v.55zm0-1.02c-.29.4-.8.6-1.33.6-.7 0-1.19-.44-1.19-1.05 0-.62.49-1.06 1.19-1.06.53 0 1.04.2 1.33.6v.91zm2.253 1.02h.75v-3.42c.22-.39.85-.77 1.31-.77.12 0 .21.01.3.03v-.77c-.66 0-1.22.37-1.61.88v-.78h-.75V134zm4.521.12c.44 0 .71-.13.9-.31l-.22-.56c-.1.11-.3.2-.51.2-.33 0-.49-.26-.49-.62v-3h.98v-.66h-.98v-1.32h-.75v1.32h-.8v.66h.8v3.16c0 .72.36 1.13 1.07 1.13zM883.948 131h.83v-3.04h3.47v-.74h-3.47v-2.15h3.54v-.74h-4.37V131zm5.838-5.64c.28 0 .51-.23.51-.51s-.23-.5-.51-.5c-.27 0-.5.22-.5.5s.23.51.5.51zm-.37 5.64h.75v-4.83h-.75V131zm5.506 0h.75v-3.39c0-1.05-.53-1.56-1.54-1.56-.72 0-1.38.42-1.72.82v-.7h-.75V131h.75v-3.53c.28-.39.84-.75 1.43-.75.65 0 1.08.27 1.08 1.12V131zm2.618-5.64c.28 0 .51-.23.51-.51s-.23-.5-.51-.5c-.27 0-.5.22-.5.5s.23.51.5.51zm-.37 5.64h.75v-4.83h-.75V131zm1.826-.64c.49.52 1.16.76 1.95.76 1.25 0 1.9-.65 1.9-1.46 0-1.07-.97-1.31-1.81-1.5-.63-.15-1.18-.3-1.18-.77 0-.43.41-.73 1.07-.73.62 0 1.15.26 1.44.61l.35-.52c-.39-.39-.97-.7-1.79-.7-1.15 0-1.8.64-1.8 1.39 0 1 .93 1.22 1.75 1.41.65.16 1.24.33 1.24.86 0 .47-.4.8-1.14.8-.66 0-1.27-.32-1.59-.69l-.39.54zm8.338.64h.75v-3.41c0-1.05-.53-1.54-1.54-1.54-.73 0-1.39.42-1.73.82v-2.54h-.75V131h.75v-3.53c.29-.39.85-.75 1.43-.75.65 0 1.09.25 1.09 1.1V131z" fill="#000"/></svg>