<svg id="Layer_1" data-name="Layer 1" xmlns="http://www.w3.org/2000/svg" viewBox="0 0 281 360.6"><defs><style>.cls-1{fill:#707070;}.cls-2{fill:#0b5f75;}.cls-3{fill:#1196a0;}.cls-4{isolation:isolate;}</style></defs><g id="XID_Designs" data-name="XID Designs"><g id="Line_2" data-name="Line 2"><rect class="cls-1" x="138.5" y="-16.9" width="3.6" height="321.38" transform="translate(-60.6 141.3) rotate(-45)"/></g><g id="Line_3" data-name="Line 3"><rect class="cls-1" x="-20.4" y="142" width="321.4" height="3.61" transform="translate(-60.6 141.3) rotate(-45)"/></g><g id="Path_20" data-name="Path 20"><path class="cls-2" d="M219.7,261.9a4.4,4.4,0,0,1-3.2-1.3l-81.2-81.2a4.5,4.5,0,0,1,0-6.3,4.5,4.5,0,0,1,6.4,0l81.2,81.1a4.7,4.7,0,0,1,0,6.4A4.5,4.5,0,0,1,219.7,261.9Z"/></g><g id="Line_5" data-name="Line 5"><path class="cls-3" d="M57.4,261.9a4.4,4.4,0,0,1-3.2-1.3,4.5,4.5,0,0,1,0-6.4l81.1-81.1a4.5,4.5,0,0,1,6.4,0,4.3,4.3,0,0,1,0,6.3L60.5,260.6A4.2,4.2,0,0,1,57.4,261.9Z"/></g><g id="Line_6" data-name="Line 6"><path class="cls-3" d="M140.3,115.8a4.5,4.5,0,0,1-3.2-1.3,4.7,4.7,0,0,1,0-6.4L218.3,27a4.5,4.5,0,0,1,6.4,0,4.7,4.7,0,0,1,0,6.4l-81.2,81.1A4.4,4.4,0,0,1,140.3,115.8Z"/></g><g id="Line_7" data-name="Line 7"><path class="cls-2" d="M140.3,115.8a4.5,4.5,0,0,1-3.2-1.3L56,33.4A4.5,4.5,0,0,1,56,27a4.4,4.4,0,0,1,6.3,0l81.2,81.1a4.5,4.5,0,0,1,0,6.4A4.4,4.4,0,0,1,140.3,115.8Z"/></g><g id="Line_8" data-name="Line 8"><rect class="cls-1" x="227" y="125.6" width="2" height="45"/></g><g id="Path_5" data-name="Path 5"><path class="cls-1" d="M228.9,171.6a2.1,2.1,0,0,1-1.4-.7,1.8,1.8,0,0,1,.3-2.5c6.2-5.3,11.2-9.7,15.2-13.5,11-10.4,10.6-12.7,10.5-12.9-1.9-2-25.5-15.3-39.9-23.3a1.7,1.7,0,0,1-.7-2.4,1.7,1.7,0,0,1,2.4-.7c6.4,3.5,38.1,21,40.8,23.9s-.1,8.1-10.6,18c-4.1,3.9-9.1,8.3-15.4,13.6A2.1,2.1,0,0,1,228.9,171.6Z"/></g><g id="Path_19" data-name="Path 19"><path class="cls-1" d="M199.5,171.4a3.4,3.4,0,0,1-2.5-1.8v-53a3.4,3.4,0,0,1,2.5-1.8,1.4,1.4,0,0,1,1.5,1.8v53A1.4,1.4,0,0,1,199.5,171.4Z"/></g><g id="DESIGNS" class="cls-4"><g class="cls-4"><path class="cls-1" d="M37,326.3a7.4,7.4,0,0,1-2.8,5.8,9.9,9.9,0,0,1-6.9,2.5H16v-1h2v-54H16v-2H27.3a10.4,10.4,0,0,1,6.9,2.4,7.4,7.4,0,0,1,2.8,5.9Zm-7,4V282.7a3.4,3.4,0,0,0-.5-1.7,3.3,3.3,0,0,0-2.7-1.4H24v54h2.9a2.7,2.7,0,0,0,1.7-.6A3.3,3.3,0,0,0,30,330.3Z"/><path class="cls-1" d="M77,334.6H57v-1h2v-54H57v-2H77v17H70v-16H65v25h8v1H65v29h5v-16h7Z"/><path class="cls-1" d="M116,326.7a7.6,7.6,0,0,1-2.7,5.9,10.8,10.8,0,0,1-13.6,0,7.6,7.6,0,0,1-2.7-5.9v-9.1h7v12.6c-.1,2.2.8,3.2,2.7,3.2s2.3-3.2,2.3-3.2V320.1a12.9,12.9,0,0,0-1.9-7l-8-12.4a13.2,13.2,0,0,1-2.1-7.2v-8.1a7.4,7.4,0,0,1,2.7-5.8,10.5,10.5,0,0,1,13.6,0,7.4,7.4,0,0,1,2.7,5.8v9.2h-6V281.9q0-3.3-3-3.3t-3,3.3v9.8a12.7,12.7,0,0,0,1.9,7l8,12.4a13.2,13.2,0,0,1,2.1,7.3Z"/><path class="cls-1" d="M146,334.6H136v-1h2v-55h-2v-1h10v1h-2v55h2Z"/><path class="cls-1" d="M186,326.3a7.4,7.4,0,0,1-2.8,5.9,9.8,9.8,0,0,1-6.7,2.4,10,10,0,0,1-6.7-2.4,7.4,7.4,0,0,1-2.8-5.9V285.5a7.4,7.4,0,0,1,2.8-5.9,10,10,0,0,1,6.7-2.4,9.8,9.8,0,0,1,6.7,2.4,7.4,7.4,0,0,1,2.8,5.9v9.1h-6V281.9a3,3,0,0,0-.8-2.1,3.5,3.5,0,0,0-3.5-1.1,1.8,1.8,0,0,0-1,.4,3.2,3.2,0,0,0-1.7,2.8V330a3.2,3.2,0,0,0,.8,2.1,3.5,3.5,0,0,0,3.5,1.1,1.8,1.8,0,0,0,1-.4A3.2,3.2,0,0,0,180,330V304.6h-4v-1h10Z"/><path class="cls-1" d="M227,278.6h-2v56h-5.4L210,290.3v43.3h2v1h-6v-1h2v-54l-2-1v-1h8l9,39.6V278.6h-2v-1h6Z"/><path class="cls-1" d="M265,326.7a7.6,7.6,0,0,1-2.7,5.9,10.8,10.8,0,0,1-13.6,0,7.6,7.6,0,0,1-2.7-5.9v-9.1h7v12.6c-.1,2.2.9,3.2,2.8,3.2s2.2-3.2,2.2-3.2V320.1a12.9,12.9,0,0,0-1.9-7l-8-12.4a13.2,13.2,0,0,1-2.1-7.2v-8.1a7.4,7.4,0,0,1,2.7-5.8,10.5,10.5,0,0,1,13.6,0,7.4,7.4,0,0,1,2.7,5.8v9.2h-6V281.9q0-3.3-3-3.3t-3,3.3v9.8a12.7,12.7,0,0,0,1.9,7l8,12.4a13.2,13.2,0,0,1,2.1,7.3Z"/></g></g></g></svg>