<svg version="1.1" id="Layer_1" xmlns="http://www.w3.org/2000/svg" x="0" y="0" viewBox="0 0 1134 278" xml:space="preserve">
  <style>
    .st0{opacity:.3;enable-background:new}.st1{fill:#ff760d}.st2{fill:#fff}
  </style>
  <g class="st0">
    <path class="st1" d="M995 11.5c-25.2 0-49.9 7.5-70.8 21.5-21 14-37.3 33.9-47 57.2-9.7 23.3-12.2 48.9-7.3 73.7s17.1 47.5 34.9 65.3 40.5 30 65.3 34.9c24.7 4.9 50.4 2.4 73.7-7.3 23.3-9.7 43.2-26 57.2-47s21.5-45.6 21.5-70.8c0-33.8-13.4-66.2-37.3-90.2-23.9-23.9-56.4-37.3-90.2-37.3zm0 150.5c-4.5 0-9-1.3-12.8-3.9-3.8-2.5-6.7-6.1-8.5-10.3-1.7-4.2-2.2-8.8-1.3-13.3.9-4.5 3.1-8.6 6.3-11.8 3.2-3.2 7.3-5.4 11.8-6.3 4.5-.9 9.1-.4 13.3 1.3 4.2 1.7 7.8 4.7 10.3 8.5 2.5 3.8 3.9 8.2 3.9 12.8 0 6.1-2.4 11.9-6.7 16.3-4.3 4.3-10.2 6.7-16.3 6.7z"/>
  </g>
  <path class="st1" d="M995 278c-76.6 0-139-62.4-139-139S918.4 0 995 0s139 62.4 139 139-62.4 139-139 139zm0-260c-66.7 0-121 54.3-121 121s54.3 121 121 121 121-54.3 121-121-54.3-121-121-121z"/>
  <path class="st2" d="M892.3 84.4c1.1-2.3 2.4-4.5 3.7-6.7v23.4c-1.4 2.2-2.6 4.4-3.7 6.7V84.4zM899.5 72c2-2.9 4-5.7 6.2-8.4 1.6 3.6 3.2 7.3 4.8 11.1 1.6-7.3 3.3-14.6 5-21.8 2.3-2.2 4.6-4.3 7-6.2V70l-4.7 4.1V56.9h-.1c-1.9 7.5-3.6 14.9-5.4 22.5l-3.8 4.2c-1.7-3.8-3.4-7.5-5-11.2v17.5c-1.3 1.7-2.6 3.6-3.9 5.5l-.1-23.4zM927.4 42.9c3.1-2.3 6.3-4.4 9.6-6.3 1.8-1.1 3.8-2 5.8-2.6 1.4-.4 2.5-.4 3.1.1.6.5 1 1.4 1 2.8v4.4c.1 1.4-.3 2.9-1.1 4.1-.9 1.4-2 2.5-3.3 3.5-1.6 1.1-3.6 2.4-6.2 3.9l-3.2 2v7.6l-5.7 3.8V42.9zm9.4 5.8c1.2-.6 2.3-1.5 3.3-2.4.6-.6.9-1.4.9-2.3v-3.7c0-.8-.3-1.1-.9-1.1-1.2.4-2.4.9-3.4 1.6l-3.6 2.2v7.9l3.7-2.2zM951.3 29.6l6.3-2.4v19.4c4.3-1.5 8.7-2.7 13.2-3.7v4c-6.7 1.5-13.2 3.5-19.5 6.1V29.6zM975.2 22.7c7-1.2 14-1.8 21.1-1.8v4c-4.8 0-9.7.3-14.5.8v5.4c4.3-.5 8.7-.8 13.1-.8v4c-4.4 0-8.8.3-13.1.8v6c4.9-.6 9.9-.9 14.9-.8v4c-7.2-.1-14.4.5-21.5 1.8V22.7zM1001.2 21c3.1.1 6.3.4 9.4.8 2.3 5.9 4.6 11.8 6.8 17.8l6.6-15.3c2.9.7 5.8 1.5 8.7 2.4v23.4l-5.8-1.7V31.1h-.2c-2.2 5.2-4.5 10.4-6.8 15.7l-5.3-1-7.2-18.2h-.1v17.3l-6.1-.4V21zM1038.3 28.7c6.7 2.6 13.2 5.8 19.3 9.6v4c-4.2-2.6-8.5-4.9-13-7v5.4c4 1.8 7.9 3.9 11.7 6.2v4c-3.8-2.3-7.7-4.4-11.7-6.2v6c4.6 2.1 9 4.5 13.3 7.2v4c-6.2-3.9-12.8-7.2-19.6-9.8V28.7zM1061.8 41.1c1.9 1.3 3.8 2.6 5.6 4.1 3.7 8.2 7.2 16.6 10.6 25.3v-16c1.4 1.5 2.9 3 4.3 4.6v23.4c-1.6-1.8-3.3-3.6-4.9-5.2-3.4-8.8-7-17.2-10.6-25.5V68l-5-3.6V41.1zM1090.7 73.7c-1.8-2.6-3.7-5-5.7-7.4v-4c5.7 6.8 10.5 14.2 14.5 22.1v4c-1.5-2.9-3.1-5.8-4.7-8.5v19.4c-1.3-2.2-2.7-4.2-4.1-6.2V73.7zM891 170.4c1.1 2.3 2.4 4.5 3.7 6.7v23.4c-1.3-2.2-2.6-4.4-3.7-6.7v-23.4zM898.2 182.8c2 2.9 4 5.7 6.2 8.4l4.8 22.3 5-11.6c2.3 2.2 4.6 4.3 7 6.2v23.4l-4.7-4.1v-17.3h-.1c-1.9 4.1-3.6 8.2-5.4 12.1-1.3-1.3-2.6-2.8-3.8-4.2-1.7-7.7-3.4-15.5-5-23.4h-.1v17.3l-3.9-5.5v-23.6zM926.2 211.9c3 2.3 6.2 4.4 9.5 6.3 2 1.1 4 2.3 5.8 3.6 1.2.8 2.3 1.9 3.1 3.1.7 1.1 1 2.5 1 3.8v4.4c0 1.5-.3 2.6-1.1 3.1-.5.3-1.1.4-1.6.5-.6 0-1.1-.1-1.7-.3-2.2-.7-4.2-1.7-6.2-2.9l-3.2-1.9v7.5l-5.6-3.8v-23.4zm9.3 18.1c1 .7 2.1 1.1 3.3 1.3.6 0 1-.5.9-1.3v-3.7c0-.4-.1-.8-.2-1.1s-.4-.7-.7-.9c-1-.9-2.2-1.7-3.4-2.3l-3.6-2.2v7.9l3.7 2.3zM950 225.2l6.3 2.4v19.3c4.3 1.5 8.7 2.7 13.2 3.7v4c-6.7-1.4-13.2-3.5-19.5-6.1v-23.3zM973.9 232.1c7 1.2 14 1.8 21.1 1.8v4c-4.8 0-9.7-.3-14.5-.8v5.3c4.3.5 8.7.8 13.1.9v4c-4.4-.1-8.8-.4-13.1-.9v6c4.9.6 9.9.9 14.9.9v4c-7.2 0-14.4-.6-21.5-1.8v-23.4zM999.9 233.8c3.1-.2 6.3-.4 9.4-.8l6.8 15.6c2.2-5.9 4.4-12 6.6-18.1 2.9-.7 5.8-1.5 8.7-2.4v23.3l-5.8 1.8v-17.3h-.2c-2.2 6.4-4.5 12.7-6.8 18.9l-5.3 1c-2.4-5.4-4.7-10.8-7.1-16.4h-.2v17.3l-6.1.5v-23.4zM1037 226c6.7-2.5 13.2-5.7 19.3-9.5v4c-4.2 2.6-8.5 4.9-13 6.9v5.4c4-1.8 7.9-3.9 11.7-6.2v4c-3.8 2.3-7.7 4.4-11.7 6.2v6c4.6-2.1 9-4.5 13.3-7.2v4c-6.2 3.9-12.8 7.2-19.6 9.8V226zM1060.5 213.7l5.6-4.1c3.7 2.5 7.2 4.7 10.6 6.6v-15.9c1.4-1.5 2.9-3 4.3-4.6V219c-1.6 1.8-3.2 3.6-4.9 5.3-3.4-2.1-7-4.4-10.6-7v16.2l-5 3.6v-23.4zM1089.4 189.1c-1.8 2.6-3.7 5-5.7 7.4v-4c5.7-6.8 10.5-14.2 14.5-22.1v4c-1.5 2.9-3 5.7-4.7 8.5v19.3c-1.3 2.2-2.7 4.3-4.1 6.3v-19.4zM1050.8 142.1h-7.2v-2.8l6.4-9.7h4v9.9h1.7v2.5h-1.7v3.1h-3.2v-3zm0-2.6v-6.6l-4.2 6.6h4.2zm12.5 5.9c-1.1 0-2.8-.1-5-.3v-2.9c2 .4 3.5.6 4.5.6.9 0 1.5-.1 1.9-.3.4-.2.6-.5.6-1v-2.3c0-.4-.1-.7-.4-.9-.3-.2-.8-.3-1.4-.3h-4.8v-8.4h9.8v2.7h-6.3v3.2h2.4c.9 0 1.8.2 2.7.5.5.2.9.5 1.2 1 .3.4.4.9.4 1.5v3.3c0 .6-.1 1.2-.4 1.7-.2.5-.5.8-.9 1.1-.3.2-.8.4-1.3.6l-1.5.3c-.5-.1-1-.1-1.5-.1zm9.2-15.8h3.8v12.9h7.7v2.7h-11.4v-15.6zm13.9 0h6.3c1.5 0 2.6.1 3.4.3.8.2 1.4.6 1.7 1 .3.5.5 1.1.5 2v1.9c0 .4-.2.8-.5 1.2-.3.4-.7.6-1.2.8v.1c.6.1 1.2.3 1.7.8.5.4.8 1 .8 1.5v2.4c0 1.3-.5 2.2-1.5 2.7s-2.6.8-4.7.8h-6.5v-15.5zm6.4 6.4c.6 0 1 0 1.3-.1.3-.1.5-.2.6-.5.1-.2.2-.5.2-1v-.8c0-.4 0-.6-.1-.8-.1-.2-.3-.3-.6-.4-.3-.1-.8-.1-1.4-.1h-2.5v3.7h2.5zm0 6.5c.9 0 1.6-.1 2-.3.4-.2.6-.5.6-1V140c0-.6-.2-1-.4-1.2-.3-.2-.8-.4-1.6-.4h-3.2v4.2h2.6zM897.8 142.3h-7.2v-2.8l6.4-9.7h4v9.9h1.7v2.5H901v3.1h-3.2v-3zm0-2.6v-6.6l-4.2 6.6h4.2zm12.6 5.9c-1.1 0-2.8-.1-5-.3v-2.9c2 .4 3.5.6 4.5.6.9 0 1.5-.1 1.9-.3.4-.2.6-.5.6-1v-2.3c0-.4-.1-.7-.4-.9-.3-.2-.8-.3-1.4-.3h-4.8v-8.4h9.8v2.7h-6.3v3.2h2.4c.9 0 1.8.2 2.7.5.5.2.9.5 1.2 1 .3.4.4.9.4 1.5v3.3c0 .6-.1 1.2-.4 1.7-.2.5-.5.8-.9 1.1-.3.2-.8.4-1.3.6l-1.5.3c-.6-.1-1.1-.1-1.5-.1zm9.1-15.8h3.7v12.9h7.7v2.7h-11.4v-15.6zm13.9 0h6.3c1.5 0 2.6.1 3.4.3.8.2 1.4.6 1.7 1 .3.5.5 1.1.5 2v1.9c0 .4-.2.8-.5 1.2-.3.4-.7.6-1.2.8v.1c.6.1 1.2.3 1.7.8.5.4.8 1 .8 1.5v2.4c0 1.3-.5 2.2-1.5 2.7s-2.6.8-4.7.8h-6.5v-15.5zm6.4 6.4c.6 0 1 0 1.3-.1.3-.1.5-.2.6-.5.1-.2.2-.5.2-1v-.8c0-.4 0-.6-.1-.8-.1-.2-.3-.3-.6-.4-.3-.1-.8-.1-1.4-.1h-2.5v3.7h2.5zm.1 6.5c.9 0 1.6-.1 1.9-.3.4-.2.6-.5.6-1v-1.2c0-.6-.2-1-.5-1.2-.3-.2-.8-.4-1.6-.4h-3.2v4.2h2.8z"/>
  <path class="st1" d="M995 167c-15.4 0-28-12.6-28-28s12.6-28 28-28 28 12.6 28 28-12.6 28-28 28zm0-46c-9.9 0-18 8.1-18 18s8.1 18 18 18 18-8.1 18-18-8.1-18-18-18z"/>
  <g class="st0">
    <path class="st1" d="M567 11.5c-25.2 0-49.9 7.5-70.8 21.5s-37.3 33.9-47 57.2c-9.6 23.3-12.2 48.9-7.3 73.7 4.9 24.7 17.1 47.5 34.9 65.3s40.5 30 65.3 34.9c24.7 4.9 50.4 2.4 73.7-7.3 23.3-9.7 43.2-26 57.2-47s21.5-45.6 21.5-70.8c0-33.8-13.4-66.2-37.3-90.2S600.8 11.5 567 11.5zm0 150.5c-4.5 0-9-1.3-12.8-3.9-3.8-2.5-6.7-6.1-8.5-10.3-1.7-4.2-2.2-8.8-1.3-13.3.9-4.5 3.1-8.6 6.3-11.8 3.2-3.2 7.3-5.4 11.8-6.3 4.5-.9 9.1-.4 13.3 1.3 4.2 1.7 7.8 4.7 10.3 8.5 2.5 3.8 3.9 8.2 3.9 12.8 0 6.1-2.4 11.9-6.7 16.3-4.3 4.3-10.2 6.7-16.3 6.7z"/>
  </g>
  <path class="st1" d="M567 278c-76.6 0-139-62.4-139-139S490.4 0 567 0s139 62.4 139 139-62.4 139-139 139zm0-260c-66.7 0-121 54.3-121 121s54.3 121 121 121 121-54.3 121-121S633.7 18 567 18z"/>
  <path class="st2" d="M621.4 145.4c-1.3 0-3.1-.1-5.2-.4v-2.8l.8.1c.3.1.5.1.5.1l.8.1c.2 0 .6.1 1.2.1.5 0 1 .1 1.5.1.9 0 1.6-.1 1.9-.3.4-.2.6-.6.6-1.3v-1.8c0-.8-.8-1.1-2.4-1.1h-2.8V136h2.8c1.2 0 1.9-.5 1.9-1.4v-1.5c0-.3-.1-.6-.2-.8-.1-.2-.4-.3-.7-.4-.3-.1-.8-.1-1.4-.1-.9 0-2.3.1-4.2.3v-2.5c2.2-.1 3.7-.2 4.6-.2 2 0 3.4.2 4.2.7.9.4 1.3 1.2 1.3 2.4v2.6c0 .5-.1.9-.4 1.2-.3.3-.6.5-1.1.6 1.4.5 2.1 1.3 2.1 2.3v2.5c0 1.3-.5 2.3-1.4 2.9-1 .6-2.5.8-4.4.8zm14 0c-1.1 0-2.8-.1-5-.3v-2.9c2 .4 3.5.6 4.5.6.9 0 1.5-.1 1.9-.3.4-.2.6-.5.6-1v-2.3c0-.4-.1-.7-.4-.9-.3-.2-.8-.3-1.4-.3h-4.8v-8.4h9.8v2.7h-6.3v3.2h2.4c.9 0 1.8.2 2.7.5.5.2.9.5 1.2 1 .3.4.4.9.4 1.5v3.3c0 .6-.1 1.2-.4 1.7-.2.5-.5.8-.9 1.1-.3.2-.8.4-1.3.6l-1.5.3c-.6-.1-1.1-.1-1.5-.1zm9.1-15.8h3.7v12.9h7.7v2.7h-11.4v-15.6zm13.9 0h6.3c1.5 0 2.6.1 3.4.3.8.2 1.4.6 1.7 1 .3.5.5 1.1.5 2v1.9c0 .4-.2.8-.5 1.2-.3.4-.7.6-1.2.8v.1c.6.1 1.2.3 1.7.8.5.4.8 1 .8 1.5v2.4c0 1.3-.5 2.2-1.5 2.7s-2.6.8-4.7.8h-6.5v-15.5zm6.4 6.4c.6 0 1 0 1.3-.1.3-.1.5-.2.6-.5.1-.2.2-.5.2-1v-.8c0-.4 0-.6-.1-.8-.1-.2-.3-.3-.6-.4-.3-.1-.8-.1-1.4-.1h-2.5v3.7h2.5zm.1 6.5c.9 0 1.6-.1 1.9-.3.4-.2.6-.5.6-1V140c0-.6-.2-1-.5-1.2-.3-.2-.8-.4-1.6-.4h-3.2v4.2h2.8zM468.4 145.6c-1.3 0-3.1-.1-5.2-.4v-2.8l.8.1c.3.1.5.1.5.1l.8.1c.2 0 .6.1 1.2.1.5 0 1 .1 1.5.1.9 0 1.6-.1 1.9-.3.4-.2.6-.6.6-1.3v-1.8c0-.8-.8-1.1-2.4-1.1h-2.8V136h2.8c1.2 0 1.9-.5 1.9-1.4v-1.5c0-.3-.1-.6-.2-.8-.1-.2-.4-.3-.7-.4-.3-.1-.8-.1-1.4-.1-.9 0-2.3.1-4.2.3v-2.5c2.2-.1 3.7-.2 4.6-.2 2 0 3.4.2 4.2.7.9.4 1.3 1.2 1.3 2.4v2.6c0 .5-.1.9-.4 1.2-.3.3-.6.5-1.1.6 1.4.5 2.1 1.3 2.1 2.3v2.5c0 1.3-.5 2.3-1.4 2.9-1 .8-2.5 1-4.4 1zm14 0c-1.1 0-2.8-.1-5-.3v-2.9c2 .4 3.5.6 4.5.6.9 0 1.5-.1 1.9-.3.4-.2.6-.5.6-1v-2.3c0-.4-.1-.7-.4-.9-.3-.2-.8-.3-1.4-.3h-4.8v-8.4h9.8v2.7h-6.3v3.2h2.4c.9 0 1.8.2 2.7.5.5.2.9.5 1.2 1 .3.4.4.9.4 1.5v3.3c0 .6-.1 1.2-.4 1.7-.2.5-.5.8-.9 1.1-.3.2-.8.4-1.3.6l-1.5.3c-.6-.1-1.1-.1-1.5-.1zm9.1-15.8h3.7v12.9h7.7v2.7h-11.4v-15.6zm13.9 0h6.3c1.5 0 2.6.1 3.4.3.8.2 1.4.6 1.7 1 .3.5.5 1.1.5 2v1.9c0 .4-.2.8-.5 1.2-.3.4-.7.6-1.2.8v.1c.6.1 1.2.3 1.7.8.5.4.8 1 .8 1.5v2.4c0 1.3-.5 2.2-1.5 2.7s-2.6.8-4.7.8h-6.5v-15.5zm6.4 6.4c.6 0 1 0 1.3-.1.3-.1.5-.2.6-.5.1-.2.2-.5.2-1v-.8c0-.4 0-.6-.1-.8-.1-.2-.3-.3-.6-.4-.3-.1-.8-.1-1.4-.1h-2.5v3.7h2.5zm.1 6.5c.9 0 1.6-.1 1.9-.3.4-.2.6-.5.6-1v-1.2c0-.6-.2-1-.5-1.2-.3-.2-.8-.4-1.6-.4h-3.2v4.2h2.8z"/>
  <path class="st1" d="M567 167c-15.4 0-28-12.6-28-28s12.6-28 28-28 28 12.6 28 28-12.6 28-28 28zm0-46c-9.9 0-18 8.1-18 18s8.1 18 18 18 18-8.1 18-18-8.1-18-18-18z"/>
  <path class="st2" d="M488.5 53.1c4.8-4.8 10.1-9.2 15.7-13.1v4c-3.8 2.7-7.4 5.5-10.9 8.6V58c3.1-2.9 6.4-5.5 9.8-7.9v4c-3.4 2.4-6.7 5-9.8 7.9v6c3.6-3.2 7.3-6.2 11.3-8.9v4c-5.8 3.9-11.2 8.4-16.1 13.3V53.1zM514.4 45.2l-8-6.7 6.2-3.8 5 5.2c1.6-3.4 3.3-6.8 4.9-10.1 2.2-1 4.4-1.9 6.7-2.7-2.9 4.9-5.7 9.8-8.4 14.9l8.8 8.3c-2.3.8-4.5 1.7-6.7 2.7l-5.3-5.8c-1.8 3.6-3.6 7.3-5.3 11.1l-6.2 3.8c2.7-5.8 5.5-11.4 8.3-16.9zM532.5 25.9l9.9-2.7c1.9-.5 3.8-.8 5.8-.7.6-.1 1.1 0 1.7.2.5.2 1 .5 1.4.9.4.4.7.9.9 1.4.2.5.2 1.1.1 1.7v4.5c0 1.3-.3 2.6-1.1 3.7s-2 1.9-3.3 2.4c-2 .7-4.1 1.3-6.2 1.8l-3.3.8v7.6l-5.9 1.8V25.9zm9.7 9.2c1.2-.2 2.3-.6 3.3-1.2.3-.2.6-.5.7-.9.2-.4.2-.7.2-1.1v-3.7c0-.8-.3-1.2-.9-1.3-1.1-.1-2.3 0-3.4.3l-3.7 1v7.9l3.8-1zM556.6 20.9l6-.5v19.4c4.2-.2 8.4-.1 12.5.1v4c-6.2-.4-12.4-.3-18.5.3V20.9zM586.7 45.4c-1.3-.4-2.5-.9-3.7-1.4-1.2-.6-2.3-1.4-3.2-2.5-.8-1.1-1.2-2.4-1.1-3.7V27.6c-.1-1.1.2-2.1.8-3 .5-.8 1.3-1.5 2.2-1.9.9-.4 1.8-.7 2.8-.8 1.1-.1 2.1-.1 3.2 0l2.8.4 3.1.8c1 .3 2 .8 2.9 1.3 1.1.5 2.1 1.2 3 2 .8.8 1.5 1.7 2 2.7.5 1.1.8 2.2.8 3.4v10.2c0 .5 0 1.1-.2 1.6s-.5 1-.8 1.4c-.4.4-.8.7-1.3.9-.5.2-1.1.3-1.6.3-2.6.2-5.2 0-7.8-.6l-3.9-.9zm6-2.6h1.8c.3 0 .5 0 .8-.1.2-.1.5-.2.7-.4.2-.2.3-.4.4-.7.1-.2.1-.5.1-.8v-10c0-.5-.1-1.1-.4-1.6-.2-.5-.6-.9-1-1.2-1.3-.9-2.8-1.4-4.4-1.7-1.5-.4-3-.4-4.5-.1-.4.1-.8.4-1.1.8-.3.4-.4.8-.3 1.3v10.3c0 .5.2 1.1.5 1.5.4.5.9.9 1.5 1.1l1.8.7 2.1.5 2 .4zM607 27.4c3.6 1.4 7.2 2.9 10.6 4.7 2.5 1.1 4.8 2.7 6.7 4.7 1.2 1.4 1.9 3.1 2 5v4.1c0 1.4-.5 2.2-1.4 2.4-1.3.2-2.6-.1-3.8-.7 2.2 4.4 4.4 8.9 6.5 13.5-2-1.3-4.1-2.5-6.2-3.7-2-4.1-4-8.2-6.1-12.3l-2.6-1.1v9.1l-5.7-2.3V27.4zm10.6 15.1c.8.5 1.7.8 2.6.9.5-.1.7-.7.7-1.7v-1.6c0-.8-.2-1.6-.7-2.2-.8-.8-1.6-1.4-2.6-1.9l-4.9-2.2v6.4l4.9 2.3zM630.7 39.8c5.6 3.8 10.9 8.2 15.7 13v4c-3.3-3.4-6.8-6.5-10.6-9.3v5.4c3.4 2.5 6.7 5.3 9.7 8.3v4c-3-3-6.3-5.8-9.7-8.3v6c3.8 2.9 7.5 6.1 10.9 9.5v4c-4.9-4.9-10.3-9.3-16-13.3V39.8zM488.5 202.8c4.8 4.8 10.1 9.2 15.7 13.1v4c-3.8-2.7-7.4-5.5-10.9-8.6v5.3c3.1 2.9 6.4 5.5 9.8 7.9v4c-3.4-2.4-6.7-5-9.8-7.9v6.1c3.6 3.2 7.4 6.1 11.3 8.8v4c-5.8-3.9-11.2-8.4-16.1-13.3v-23.4zM514.4 233.6c-2.7-5.3-5.4-10.7-8-16.2 2.1 1.3 4.1 2.6 6.2 3.7 1.7 3.6 3.3 7 5 10.4 1.6-1.7 3.3-3.5 4.9-5.4 2.2 1 4.4 1.9 6.7 2.7l-8.4 8c2.9 5.3 5.8 10.4 8.8 15.5-2.3-.8-4.5-1.7-6.7-2.7-1.8-3.5-3.6-7.1-5.3-10.7l-5.3 5.4c-2.1-1.2-4.2-2.4-6.2-3.8l8.3-6.9zM532.5 229.9c3.3 1.1 6.6 2 9.9 2.8l5.8 1.6c1.2.5 2.3 1.2 3.1 2.2.7 1 1.1 2.2 1 3.4v4.4c.1 1.3-.3 2.5-1.1 3.5-.4.4-1 .7-1.5.9s-1.2.3-1.8.3c-2.1.1-4.2-.2-6.2-.7l-3.3-.8v7.6l-5.9-1.8v-23.4zm9.7 14.7c1.1.3 2.2.4 3.3.2.3-.1.6-.4.7-.6.2-.3.3-.6.3-1v-3.8c0-.3-.1-.7-.3-1-.2-.3-.4-.5-.7-.7-1.1-.5-2.2-.9-3.4-1.1l-3.7-.9v7.9l3.8 1zM556.6 235l6 .5v19.3c4.2.2 8.3.2 12.5-.1v4c-6.2.4-12.4.3-18.5-.3V235zM586.7 257.4l-3.7-.3c-1.2-.2-2.4-.8-3.2-1.7-.8-.9-1.2-2.2-1.1-3.4v-10.2c-.1-1.1.2-2.2.8-3.2.5-1 1.3-1.8 2.2-2.4.9-.7 1.8-1.2 2.8-1.6l3.2-1.1 2.8-.7 3.1-.5 2.9-.2c1 0 2 .1 3 .4.8.2 1.5.7 2 1.4.6.9.8 1.9.8 2.9V247c0 1.3-.4 2.6-1.1 3.7-.7 1.2-1.7 2.2-2.9 3-2.4 1.5-5 2.6-7.8 3.2-1.2.3-2.5.5-3.8.5zm6-5l1.8-.8c.6-.3 1.1-.7 1.4-1.2.3-.5.5-1 .5-1.6v-10.3c0-.4-.1-.9-.3-1.3-.3-.4-.6-.6-1.1-.7-1.5-.2-3-.1-4.4.3-1.6.3-3.1.8-4.5 1.6-.4.3-.8.7-1.1 1.1-.2.5-.4 1-.3 1.5v10.2c0 .5.2 1 .5 1.4.2.2.4.4.7.5.3.1.5.1.8.1h1.8l2.1-.4 2.1-.4zM607 228.4c3.6-1.3 7.2-2.9 10.6-4.6 3.1-1.5 5.3-2.4 6.7-2.5 1.4-.1 2 .9 2 2.6v4.1c0 1.5-.5 2.9-1.4 4.1-1 1.4-2.3 2.6-3.8 3.6l6.5 5.8c-2 1.3-4.1 2.5-6.2 3.7l-6.1-6.1-2.6 1.2v9.2l-5.7 2.3v-23.4zm10.6 5.9c1-.4 1.9-1.1 2.6-1.9.5-.7.8-1.5.7-2.4v-1.7c0-.8-.2-1.3-.7-1.3-.9 0-1.8.3-2.6.8l-4.9 2.3v6.5l4.9-2.3zM630.7 216.1c5.6-3.9 10.9-8.2 15.7-13v4c-3.3 3.3-6.9 6.4-10.6 9.3v5.3c3.4-2.5 6.6-5.3 9.6-8.3v4c-3 3-6.2 5.8-9.6 8.3v6c3.8-2.9 7.5-6.1 10.9-9.5v4c-4.9 4.9-10.3 9.3-16 13.3v-23.4z"/>
  <g class="st0">
    <path class="st1" d="M139 11.5c-25.2 0-49.9 7.5-70.8 21.5-21 14-37.3 33.9-47 57.2-9.7 23.3-12.2 48.9-7.3 73.7 4.9 24.7 17.1 47.5 34.9 65.3 17.8 17.8 40.5 30 65.3 34.9 24.7 4.9 50.4 2.4 73.7-7.3 23.3-9.7 43.2-26 57.2-47s21.5-45.6 21.5-70.8c0-33.8-13.4-66.2-37.3-90.2S172.8 11.5 139 11.5zm0 150.5c-4.5 0-9-1.3-12.8-3.9-3.8-2.5-6.7-6.1-8.5-10.3-1.7-4.2-2.2-8.8-1.3-13.3.9-4.5 3.1-8.6 6.3-11.8 3.2-3.2 7.3-5.4 11.8-6.3 4.5-.9 9.1-.4 13.3 1.3 4.2 1.7 7.8 4.7 10.3 8.5 2.5 3.8 3.9 8.2 3.9 12.8 0 6.1-2.4 11.9-6.7 16.3-4.4 4.3-10.2 6.7-16.3 6.7z"/>
  </g>
  <path class="st1" d="M139 278C62.4 278 0 215.6 0 139S62.4 0 139 0s139 62.4 139 139-62.4 139-139 139zm0-260C72.3 18 18 72.3 18 139s54.3 121 121 121 121-54.3 121-121S205.7 18 139 18z"/>
  <path class="st2" d="M188.4 141.6c0-.9.2-1.6.7-2.3s1.1-1.1 1.9-1.5c.6-.3 1.3-.5 2.1-.8.8-.3 1.4-.6 1.9-.9.4-.3.7-.7.7-1.1v-2c0-.5-.2-.8-.6-1-.4-.2-1.1-.3-2-.3-1.1 0-2.6.2-4.4.6v-2.6c1.6-.3 3.3-.5 5-.5 1.9 0 3.3.3 4.2.9.9.6 1.4 1.5 1.4 2.9v2.2c0 .8-.2 1.5-.7 2.1-.5.6-1.1 1-1.9 1.3-.7.3-1.5.6-2.2.8-.8.3-1.5.6-1.9 1-.5.4-.7.8-.7 1.2v.8h7.5v2.6h-10.9v-3.4zm19 3.8c-1.1 0-2.8-.1-5-.3v-2.9c2 .4 3.5.6 4.5.6.9 0 1.5-.1 1.9-.3.4-.2.6-.5.6-1v-2.3c0-.4-.1-.7-.4-.9-.3-.2-.8-.3-1.4-.3h-4.8v-8.4h9.8v2.7h-6.3v3.2h2.4c.9 0 1.8.2 2.7.5.5.2.9.5 1.2 1 .3.4.4.9.4 1.5v3.3c0 .6-.1 1.2-.4 1.7-.2.5-.5.8-.9 1.1-.3.2-.8.4-1.3.6l-1.5.3c-.6-.1-1.1-.1-1.5-.1zm9.1-15.8h3.7v12.9h7.7v2.7h-11.4v-15.6zm13.9 0h6.3c1.5 0 2.6.1 3.4.3.8.2 1.4.6 1.7 1 .3.5.5 1.1.5 2v1.9c0 .4-.2.8-.5 1.2-.3.4-.7.6-1.2.8v.1c.6.1 1.2.3 1.7.8.5.4.8 1 .8 1.5v2.4c0 1.3-.5 2.2-1.5 2.7s-2.6.8-4.7.8h-6.5v-15.5zm6.4 6.4c.6 0 1 0 1.3-.1.3-.1.5-.2.6-.5.1-.2.2-.5.2-1v-.8c0-.4 0-.6-.1-.8-.1-.2-.3-.3-.6-.4-.3-.1-.8-.1-1.4-.1h-2.5v3.7h2.5zm.1 6.5c.9 0 1.6-.1 1.9-.3.4-.2.6-.5.6-1V140c0-.6-.2-1-.5-1.2-.3-.2-.8-.4-1.6-.4h-3.2v4.2h2.8zM35.4 141.8c0-.9.2-1.6.7-2.3s1.1-1.1 1.9-1.5c.6-.3 1.3-.5 2.1-.8.8-.3 1.4-.6 1.9-.9.4-.3.7-.7.7-1.1v-2c0-.5-.2-.8-.6-1-.4-.2-1.1-.3-2-.3-1.1 0-2.6.2-4.4.6v-2.6c1.6-.3 3.3-.5 5-.5 1.9 0 3.3.3 4.2.9.9.6 1.4 1.5 1.4 2.9v2.2c0 .8-.2 1.5-.7 2.1-.5.6-1.1 1-1.9 1.3-.7.3-1.5.6-2.2.8-.8.3-1.5.6-1.9 1-.5.4-.7.8-.7 1.2v.8h7.5v2.6h-11v-3.4zm19 3.8c-1.1 0-2.8-.1-5-.3v-2.9c2 .4 3.5.6 4.5.6.9 0 1.5-.1 1.9-.3.4-.2.6-.5.6-1v-2.3c0-.4-.1-.7-.4-.9-.3-.2-.8-.3-1.4-.3h-4.8v-8.4h9.8v2.7h-6.3v3.2h2.4c.9 0 1.8.2 2.7.5.5.2.9.5 1.2 1 .3.4.4.9.4 1.5v3.3c0 .6-.1 1.2-.4 1.7-.2.5-.5.8-.9 1.1-.3.2-.8.4-1.3.6l-1.5.3c-.6-.1-1.1-.1-1.5-.1zm9.1-15.8h3.7v12.9h7.7v2.7H63.5v-15.6zm13.9 0h6.3c1.5 0 2.6.1 3.4.3.8.2 1.4.6 1.7 1 .3.5.5 1.1.5 2v1.9c0 .4-.2.8-.5 1.2-.3.4-.7.6-1.2.8v.1c.6.1 1.2.3 1.7.8.5.4.8 1 .8 1.5v2.4c0 1.3-.5 2.2-1.5 2.7s-2.6.8-4.7.8h-6.5v-15.5zm6.4 6.4c.6 0 1 0 1.3-.1.3-.1.5-.2.6-.5.1-.2.2-.5.2-1v-.8c0-.4 0-.6-.1-.8-.1-.2-.3-.3-.6-.4-.3-.1-.8-.1-1.4-.1h-2.5v3.7h2.5zm.1 6.5c.9 0 1.6-.1 1.9-.3.4-.2.6-.5.6-1v-1.2c0-.6-.2-1-.5-1.2-.3-.2-.8-.4-1.6-.4h-3.2v4.2h2.8z"/>
  <path class="st1" d="M139 167c-15.4 0-28-12.6-28-28s12.6-28 28-28 28 12.6 28 28-12.6 28-28 28zm0-46c-9.9 0-18 8.1-18 18s8.1 18 18 18 18-8.1 18-18-8.1-18-18-18z"/>
  <path class="st2" d="M77 40.9c2.9-2.2 5.9-4.2 9.1-6 1.9-1.2 4-2.1 6.2-2.7.6-.2 1.2-.2 1.8-.1.6.1 1.1.3 1.6.7.8 1.1 1.2 2.4 1.1 3.8v9.5c0 1.6-.4 3.2-1.1 4.6-.9 1.4-2 2.6-3.3 3.6-1.5 1.1-3.6 2.4-6.3 4-2.7 1.6-6.2 3.8-9.1 5.9V40.9zm8.9 13.5l3.3-2c.6-.5 1.2-1 1.6-1.7.3-.6.5-1.3.5-2v-9.6c0-1.1-.4-1.7-1.3-1.7-1.4.2-2.8.7-4 1.5l-3.9 2.5v15.3l3.8-2.3zM101.2 27.6c5.9-2.3 12-4 18.2-5.2v4c-4.2.8-8.4 1.9-12.5 3.2V35c3.7-1.2 7.5-2.2 11.3-3v4c-3.8.8-7.6 1.8-11.3 3v6c4.2-1.4 8.5-2.5 12.9-3.3v4c-6.3 1.2-12.6 3-18.6 5.3V27.6zM123.7 21.7c6.3-1 12.7-1.4 19.1-1.2v4c-4.4-.1-8.8 0-13.2.5v5.7c4-.4 8-.5 12-.5v4c-4 0-8 .1-12 .5v9.6l-5.9.7V21.7zM146.8 20.7l5.9.6v23.4c-2-.3-3.9-.5-5.9-.6V20.7zM157.9 22.1c2 .3 4 .7 5.9 1.2 3.9 6.2 7.8 12.6 11.5 19.3v-16l5 2v23.3c-1.8-.8-3.7-1.5-5.6-2.1-3.8-6.8-7.7-13.3-11.6-19.5v16.2l-5.2-1.1V22.1zM185.3 30.8c5.9 2.7 11.4 6 16.7 9.8v4c-3.6-2.6-7.4-5-11.3-7.1v5.4c3.5 1.9 6.9 4 10.2 6.3v4c-3.3-2.3-6.7-4.4-10.2-6.3v6c4 2.2 7.9 4.6 11.6 7.3v4c-5.3-3.9-11-7.3-17-10.1V30.8zM77 213.6c2.9 2.1 6 4.1 9.1 5.9 2.1 1.2 4.2 2.5 6.2 4 1.4 1 2.5 2.3 3.4 3.8.7 1.5 1.1 3.1 1.1 4.7v9.6c0 1.7-.4 3-1.1 3.6-.7.6-1.8.9-3.3.5-2.2-.7-4.3-1.6-6.3-2.8-3.2-1.8-6.2-3.8-9.1-6v-23.3zm8.9 25.2c1 .7 2.1 1.2 3.3 1.6.2.1.5.2.8.2.3 0 .6 0 .8-.1.3-.2.5-.7.5-1.5v-9.6c0-.6-.1-1.1-.3-1.6-.2-.5-.6-1-1-1.4-1.2-1.2-2.5-2.1-4-2.9l-3.9-2.4v15.3l3.8 2.4zM101.2 226.8c5.9 2.3 12 4 18.2 5.2v4c-4.2-.8-8.4-1.9-12.5-3.2v5.4c3.7 1.2 7.5 2.2 11.3 2.9v4c-3.8-.7-7.6-1.7-11.3-2.9v6c4.2 1.3 8.5 2.4 12.9 3.3v4c-6.3-1.2-12.6-3-18.6-5.3v-23.4zM123.7 232.8c6.3.9 12.7 1.3 19.1 1.1v4c-4.4.1-8.8 0-13.2-.4v5.7c4 .4 8 .5 12 .5v3.9c-4 .1-8 0-12-.4v9.6c-2-.1-3.9-.4-5.9-.7v-23.3zM146.8 233.7c2-.1 3.9-.3 5.9-.6v23.4l-5.9.6v-23.4zM157.9 232.4l5.9-1.2c3.9 4.4 7.8 8.6 11.5 12.5v-15.9l5-1.9v23.3l-5.6 2.2c-3.8-4.1-7.7-8.4-11.6-12.9v16.2l-5.2 1v-23.3zM185.3 223.7c5.9-2.8 11.5-6.1 16.7-9.9v4c-3.6 2.6-7.4 5-11.3 7.1v5.4c3.5-1.9 6.9-4 10.2-6.4v4c-3.3 2.4-6.7 4.5-10.2 6.4v6c4-2.2 7.9-4.6 11.6-7.3v3.9c-5.3 3.9-11 7.3-17 10.1v-23.3z"/>
  <path class="st1" d="M428 138l-36 10.4v-20.8l36 10.4zM856 138l-36 10.4v-20.8l36 10.4z"/>
  <path class="st1" d="M278 136h115v4H278zM706 136h115v4H706z"/>
</svg>
