<?xml version="1.0" encoding="utf-8"?>
<!-- Generator: Adobe Illustrator 25.3.0, SVG Export Plug-In . SVG Version: 6.00 Build 0)  -->
<svg version="1.1" id="Layer_1" xmlns="http://www.w3.org/2000/svg" xmlns:xlink="http://www.w3.org/1999/xlink" x="0px" y="0px"
	 viewBox="0 0 1134 278" style="enable-background:new 0 0 1134 278;" xml:space="preserve">
<style type="text/css">
	.st0{opacity:0.3;enable-background:new    ;}
	.st1{fill:#FF760D;}
	.st2{fill:#FFFFFF;}
</style>
<g class="st0">
	<path class="st1" d="M995,11.5c-25.2,0-49.9,7.5-70.8,21.5c-21,14-37.3,33.9-47,57.2c-9.7,23.3-12.2,48.9-7.3,73.7
		s17.1,47.5,34.9,65.3s40.5,30,65.3,34.9c24.7,4.9,50.4,2.4,73.7-7.3c23.3-9.7,43.2-26,57.2-47s21.5-45.6,21.5-70.8
		c0-33.8-13.4-66.2-37.3-90.2C1061.3,24.9,1028.8,11.5,995,11.5z M995,162c-4.5,0-9-1.3-12.8-3.9c-3.8-2.5-6.7-6.1-8.5-10.3
		c-1.7-4.2-2.2-8.8-1.3-13.3c0.9-4.5,3.1-8.6,6.3-11.8c3.2-3.2,7.3-5.4,11.8-6.3c4.5-0.9,9.1-0.4,13.3,1.3c4.2,1.7,7.8,4.7,10.3,8.5
		c2.5,3.8,3.9,8.2,3.9,12.8c0,6.1-2.4,11.9-6.7,16.3C1007,159.6,1001.1,162,995,162z"/>
</g>
<g>
	<path class="st1" d="M995,278c-76.6,0-139-62.4-139-139C856,62.4,918.4,0,995,0s139,62.4,139,139C1134,215.6,1071.6,278,995,278z
		 M995,18c-66.7,0-121,54.3-121,121s54.3,121,121,121s121-54.3,121-121S1061.7,18,995,18z"/>
</g>
<g>
	<path class="st2" d="M892.3,84.4c1.1-2.3,2.4-4.5,3.7-6.7v23.4c-1.4,2.2-2.6,4.4-3.7,6.7V84.4z"/>
</g>
<g>
	<path class="st2" d="M899.5,72c2-2.9,4-5.7,6.2-8.4c1.6,3.6,3.2,7.3,4.8,11.1c1.6-7.3,3.3-14.6,5-21.8c2.3-2.2,4.6-4.3,7-6.2V70
		l-4.7,4.1V56.9h-0.1c-1.9,7.5-3.6,14.9-5.4,22.5l-3.8,4.2c-1.7-3.8-3.4-7.5-5-11.2v17.5c-1.3,1.7-2.6,3.6-3.9,5.5L899.5,72z"/>
</g>
<g>
	<path class="st2" d="M927.4,42.9c3.1-2.3,6.3-4.4,9.6-6.3c1.8-1.1,3.8-2,5.8-2.6c1.4-0.4,2.5-0.4,3.1,0.1c0.6,0.5,1,1.4,1,2.8v4.4
		c0.1,1.4-0.3,2.9-1.1,4.1c-0.9,1.4-2,2.5-3.3,3.5c-1.6,1.1-3.6,2.4-6.2,3.9l-3.2,2v7.6l-5.7,3.8V42.9z M936.8,48.7
		c1.2-0.6,2.3-1.5,3.3-2.4c0.6-0.6,0.9-1.4,0.9-2.3v-3.7c0-0.8-0.3-1.1-0.9-1.1c-1.2,0.4-2.4,0.9-3.4,1.6l-3.6,2.2v7.9L936.8,48.7z"
		/>
</g>
<g>
	<path class="st2" d="M951.3,29.6l6.3-2.4v19.4c4.3-1.5,8.7-2.7,13.2-3.7v4c-6.7,1.5-13.2,3.5-19.5,6.1V29.6z"/>
</g>
<g>
	<path class="st2" d="M975.2,22.7c7-1.2,14-1.8,21.1-1.8v4c-4.8,0-9.7,0.3-14.5,0.8v5.4c4.3-0.5,8.7-0.8,13.1-0.8v4
		c-4.4,0-8.8,0.3-13.1,0.8v6c4.9-0.6,9.9-0.9,14.9-0.8v4c-7.2-0.1-14.4,0.5-21.5,1.8V22.7z"/>
</g>
<g>
	<path class="st2" d="M1001.2,21c3.1,0.1,6.3,0.4,9.4,0.8c2.3,5.9,4.6,11.8,6.8,17.8l6.6-15.3c2.9,0.7,5.8,1.5,8.7,2.4v23.4
		l-5.8-1.7V31.1h-0.2c-2.2,5.2-4.5,10.4-6.8,15.7l-5.3-1l-7.2-18.2h-0.1v17.3l-6.1-0.4V21z"/>
</g>
<g>
	<path class="st2" d="M1038.3,28.7c6.7,2.6,13.2,5.8,19.3,9.6v4c-4.2-2.6-8.5-4.9-13-7v5.4c4,1.8,7.9,3.9,11.7,6.2v4
		c-3.8-2.3-7.7-4.4-11.7-6.2v6c4.6,2.1,9,4.5,13.3,7.2v4c-6.2-3.9-12.8-7.2-19.6-9.8V28.7z"/>
</g>
<g>
	<path class="st2" d="M1061.8,41.1c1.9,1.3,3.8,2.6,5.6,4.1c3.7,8.2,7.2,16.6,10.6,25.3v-16c1.4,1.5,2.9,3,4.3,4.6v23.4
		c-1.6-1.8-3.3-3.6-4.9-5.2c-3.4-8.8-7-17.2-10.6-25.5V68l-5-3.6V41.1z"/>
</g>
<g>
	<path class="st2" d="M1090.7,73.7c-1.8-2.6-3.7-5-5.7-7.4v-4c5.7,6.8,10.5,14.2,14.5,22.1v4c-1.5-2.9-3.1-5.8-4.7-8.5v19.4
		c-1.3-2.2-2.7-4.2-4.1-6.2V73.7z"/>
</g>
<g>
	<path class="st2" d="M891,170.4c1.1,2.3,2.4,4.5,3.7,6.7v23.4c-1.3-2.2-2.6-4.4-3.7-6.7V170.4z"/>
</g>
<g>
	<path class="st2" d="M898.2,182.8c2,2.9,4,5.7,6.2,8.4l4.8,22.3l5-11.6c2.3,2.2,4.6,4.3,7,6.2v23.4l-4.7-4.1v-17.3h-0.1
		c-1.9,4.1-3.6,8.2-5.4,12.1c-1.3-1.3-2.6-2.8-3.8-4.2c-1.7-7.7-3.4-15.5-5-23.4h-0.1v17.3l-3.9-5.5V182.8z"/>
</g>
<g>
	<path class="st2" d="M926.2,211.9c3,2.3,6.2,4.4,9.5,6.3c2,1.1,4,2.3,5.8,3.6c1.2,0.8,2.3,1.9,3.1,3.1c0.7,1.1,1,2.5,1,3.8v4.4
		c0,1.5-0.3,2.6-1.1,3.1c-0.5,0.3-1.1,0.4-1.6,0.5c-0.6,0-1.1-0.1-1.7-0.3c-2.2-0.7-4.2-1.7-6.2-2.9l-3.2-1.9v7.5l-5.6-3.8V211.9z
		 M935.5,230c1,0.7,2.1,1.1,3.3,1.3c0.6,0,1-0.5,0.9-1.3v-3.7c0-0.4-0.1-0.8-0.2-1.1s-0.4-0.7-0.7-0.9c-1-0.9-2.2-1.7-3.4-2.3
		l-3.6-2.2v7.9L935.5,230z"/>
</g>
<g>
	<path class="st2" d="M950,225.2l6.3,2.4v19.3c4.3,1.5,8.7,2.7,13.2,3.7v4c-6.7-1.4-13.2-3.5-19.5-6.1V225.2z"/>
</g>
<g>
	<path class="st2" d="M973.9,232.1c7,1.2,14,1.8,21.1,1.8v4c-4.8,0-9.7-0.3-14.5-0.8v5.3c4.3,0.5,8.7,0.8,13.1,0.9v4
		c-4.4-0.1-8.8-0.4-13.1-0.9v6c4.9,0.6,9.9,0.9,14.9,0.9v4c-7.2,0-14.4-0.6-21.5-1.8V232.1z"/>
</g>
<g>
	<path class="st2" d="M999.9,233.8c3.1-0.2,6.3-0.4,9.4-0.8l6.8,15.6c2.2-5.9,4.4-12,6.6-18.1c2.9-0.7,5.8-1.5,8.7-2.4v23.3
		l-5.8,1.8v-17.3h-0.2c-2.2,6.4-4.5,12.7-6.8,18.9l-5.3,1c-2.4-5.4-4.7-10.8-7.1-16.4h-0.2v17.3l-6.1,0.5V233.8z"/>
</g>
<g>
	<path class="st2" d="M1037,226c6.7-2.5,13.2-5.7,19.3-9.5v4c-4.2,2.6-8.5,4.9-13,6.9v5.4c4-1.8,7.9-3.9,11.7-6.2v4
		c-3.8,2.3-7.7,4.4-11.7,6.2v6c4.6-2.1,9-4.5,13.3-7.2v4c-6.2,3.9-12.8,7.2-19.6,9.8V226z"/>
</g>
<g>
	<path class="st2" d="M1060.5,213.7l5.6-4.1c3.7,2.5,7.2,4.7,10.6,6.6v-15.9c1.4-1.5,2.9-3,4.3-4.6V219c-1.6,1.8-3.2,3.6-4.9,5.3
		c-3.4-2.1-7-4.4-10.6-7v16.2l-5,3.6V213.7z"/>
</g>
<g>
	<path class="st2" d="M1089.4,189.1c-1.8,2.6-3.7,5-5.7,7.4v-4c5.7-6.8,10.5-14.2,14.5-22.1v4c-1.5,2.9-3,5.7-4.7,8.5v19.3
		c-1.3,2.2-2.7,4.3-4.1,6.3V189.1z"/>
</g>
<g>
	<path class="st2" d="M1050.8,142.1h-7.2v-2.8l6.4-9.7h4v9.9h1.7v2.5h-1.7v3.1h-3.2V142.1z M1050.8,139.5v-6.6l-4.2,6.6H1050.8z
		 M1063.3,145.4c-1.1,0-2.8-0.1-5-0.3v-2.9c2,0.4,3.5,0.6,4.5,0.6c0.9,0,1.5-0.1,1.9-0.3c0.4-0.2,0.6-0.5,0.6-1v-2.3
		c0-0.4-0.1-0.7-0.4-0.9c-0.3-0.2-0.8-0.3-1.4-0.3h-4.8v-8.4h9.8v2.7h-6.3v3.2h2.4c0.9,0,1.8,0.2,2.7,0.5c0.5,0.2,0.9,0.5,1.2,1
		c0.3,0.4,0.4,0.9,0.4,1.5v3.3c0,0.6-0.1,1.2-0.4,1.7c-0.2,0.5-0.5,0.8-0.9,1.1c-0.3,0.2-0.8,0.4-1.3,0.6c-0.5,0.1-1,0.2-1.5,0.3
		C1064.3,145.4,1063.8,145.4,1063.3,145.4z M1072.5,129.6h3.8v12.9h7.7v2.7h-11.4V129.6z M1086.4,129.6h6.3c1.5,0,2.6,0.1,3.4,0.3
		c0.8,0.2,1.4,0.6,1.7,1c0.3,0.5,0.5,1.1,0.5,2v1.9c0,0.4-0.2,0.8-0.5,1.2c-0.3,0.4-0.7,0.6-1.2,0.8v0.1c0.6,0.1,1.2,0.3,1.7,0.8
		c0.5,0.4,0.8,1,0.8,1.5v2.4c0,1.3-0.5,2.2-1.5,2.7c-1,0.5-2.6,0.8-4.7,0.8h-6.5V129.6z M1092.8,136c0.6,0,1,0,1.3-0.1
		c0.3-0.1,0.5-0.2,0.6-0.5c0.1-0.2,0.2-0.5,0.2-1v-0.8c0-0.4,0-0.6-0.1-0.8c-0.1-0.2-0.3-0.3-0.6-0.4c-0.3-0.1-0.8-0.1-1.4-0.1h-2.5
		v3.7H1092.8z M1092.8,142.5c0.9,0,1.6-0.1,2-0.3c0.4-0.2,0.6-0.5,0.6-1V140c0-0.6-0.2-1-0.4-1.2c-0.3-0.2-0.8-0.4-1.6-0.4h-3.2v4.2
		H1092.8z"/>
</g>
<g>
	<path class="st2" d="M897.8,142.3h-7.2v-2.8l6.4-9.7h4v9.9h1.7v2.5H901v3.1h-3.2V142.3z M897.8,139.7v-6.6l-4.2,6.6H897.8z
		 M910.4,145.6c-1.1,0-2.8-0.1-5-0.3v-2.9c2,0.4,3.5,0.6,4.5,0.6c0.9,0,1.5-0.1,1.9-0.3c0.4-0.2,0.6-0.5,0.6-1v-2.3
		c0-0.4-0.1-0.7-0.4-0.9c-0.3-0.2-0.8-0.3-1.4-0.3h-4.8v-8.4h9.8v2.7h-6.3v3.2h2.4c0.9,0,1.8,0.2,2.7,0.5c0.5,0.2,0.9,0.5,1.2,1
		c0.3,0.4,0.4,0.9,0.4,1.5v3.3c0,0.6-0.1,1.2-0.4,1.7c-0.2,0.5-0.5,0.8-0.9,1.1c-0.3,0.2-0.8,0.4-1.3,0.6c-0.5,0.1-1,0.2-1.5,0.3
		C911.3,145.6,910.8,145.6,910.4,145.6z M919.5,129.8h3.7v12.9h7.7v2.7h-11.4V129.8z M933.4,129.8h6.3c1.5,0,2.6,0.1,3.4,0.3
		c0.8,0.2,1.4,0.6,1.7,1c0.3,0.5,0.5,1.1,0.5,2v1.9c0,0.4-0.2,0.8-0.5,1.2c-0.3,0.4-0.7,0.6-1.2,0.8v0.1c0.6,0.1,1.2,0.3,1.7,0.8
		c0.5,0.4,0.8,1,0.8,1.5v2.4c0,1.3-0.5,2.2-1.5,2.7s-2.6,0.8-4.7,0.8h-6.5V129.8z M939.8,136.2c0.6,0,1,0,1.3-0.1
		c0.3-0.1,0.5-0.2,0.6-0.5c0.1-0.2,0.2-0.5,0.2-1v-0.8c0-0.4,0-0.6-0.1-0.8c-0.1-0.2-0.3-0.3-0.6-0.4c-0.3-0.1-0.8-0.1-1.4-0.1h-2.5
		v3.7H939.8z M939.9,142.7c0.9,0,1.6-0.1,1.9-0.3c0.4-0.2,0.6-0.5,0.6-1v-1.2c0-0.6-0.2-1-0.5-1.2c-0.3-0.2-0.8-0.4-1.6-0.4h-3.2
		v4.2H939.9z"/>
</g>
<g>
	<path class="st1" d="M995,167c-15.4,0-28-12.6-28-28s12.6-28,28-28s28,12.6,28,28S1010.4,167,995,167z M995,121
		c-9.9,0-18,8.1-18,18c0,9.9,8.1,18,18,18s18-8.1,18-18C1013,129.1,1004.9,121,995,121z"/>
</g>
<g class="st0">
	<path class="st1" d="M567,11.5c-25.2,0-49.9,7.5-70.8,21.5s-37.3,33.9-47,57.2c-9.6,23.3-12.2,48.9-7.3,73.7
		c4.9,24.7,17.1,47.5,34.9,65.3s40.5,30,65.3,34.9c24.7,4.9,50.4,2.4,73.7-7.3c23.3-9.7,43.2-26,57.2-47c14-21,21.5-45.6,21.5-70.8
		c0-33.8-13.4-66.2-37.3-90.2S600.8,11.5,567,11.5z M567,162c-4.5,0-9-1.3-12.8-3.9c-3.8-2.5-6.7-6.1-8.5-10.3
		c-1.7-4.2-2.2-8.8-1.3-13.3c0.9-4.5,3.1-8.6,6.3-11.8c3.2-3.2,7.3-5.4,11.8-6.3c4.5-0.9,9.1-0.4,13.3,1.3c4.2,1.7,7.8,4.7,10.3,8.5
		c2.5,3.8,3.9,8.2,3.9,12.8c0,6.1-2.4,11.9-6.7,16.3C579,159.6,573.1,162,567,162z"/>
</g>
<g>
	<path class="st1" d="M567,278c-76.6,0-139-62.4-139-139C428,62.4,490.4,0,567,0c76.6,0,139,62.4,139,139
		C706,215.6,643.6,278,567,278z M567,18c-66.7,0-121,54.3-121,121s54.3,121,121,121s121-54.3,121-121S633.7,18,567,18z"/>
</g>
<g>
	<path class="st2" d="M621.4,145.4c-1.3,0-3.1-0.1-5.2-0.4v-2.8l0.8,0.1c0.3,0.1,0.5,0.1,0.5,0.1l0.8,0.1c0.2,0,0.6,0.1,1.2,0.1
		c0.5,0,1,0.1,1.5,0.1c0.9,0,1.6-0.1,1.9-0.3c0.4-0.2,0.6-0.6,0.6-1.3v-1.8c0-0.8-0.8-1.1-2.4-1.1h-2.8V136h2.8
		c1.2,0,1.9-0.5,1.9-1.4v-1.5c0-0.3-0.1-0.6-0.2-0.8c-0.1-0.2-0.4-0.3-0.7-0.4c-0.3-0.1-0.8-0.1-1.4-0.1c-0.9,0-2.3,0.1-4.2,0.3
		v-2.5c2.2-0.1,3.7-0.2,4.6-0.2c2,0,3.4,0.2,4.2,0.7c0.9,0.4,1.3,1.2,1.3,2.4v2.6c0,0.5-0.1,0.9-0.4,1.2c-0.3,0.3-0.6,0.5-1.1,0.6
		c1.4,0.5,2.1,1.3,2.1,2.3v2.5c0,1.3-0.5,2.3-1.4,2.9C624.8,145.2,623.3,145.4,621.4,145.4z M635.4,145.4c-1.1,0-2.8-0.1-5-0.3v-2.9
		c2,0.4,3.5,0.6,4.5,0.6c0.9,0,1.5-0.1,1.9-0.3c0.4-0.2,0.6-0.5,0.6-1v-2.3c0-0.4-0.1-0.7-0.4-0.9c-0.3-0.2-0.8-0.3-1.4-0.3h-4.8
		v-8.4h9.8v2.7h-6.3v3.2h2.4c0.9,0,1.8,0.2,2.7,0.5c0.5,0.2,0.9,0.5,1.2,1c0.3,0.4,0.4,0.9,0.4,1.5v3.3c0,0.6-0.1,1.2-0.4,1.7
		c-0.2,0.5-0.5,0.8-0.9,1.1c-0.3,0.2-0.8,0.4-1.3,0.6c-0.5,0.1-1,0.2-1.5,0.3C636.3,145.4,635.8,145.4,635.4,145.4z M644.5,129.6
		h3.7v12.9h7.7v2.7h-11.4V129.6z M658.4,129.6h6.3c1.5,0,2.6,0.1,3.4,0.3c0.8,0.2,1.4,0.6,1.7,1c0.3,0.5,0.5,1.1,0.5,2v1.9
		c0,0.4-0.2,0.8-0.5,1.2c-0.3,0.4-0.7,0.6-1.2,0.8v0.1c0.6,0.1,1.2,0.3,1.7,0.8c0.5,0.4,0.8,1,0.8,1.5v2.4c0,1.3-0.5,2.2-1.5,2.7
		s-2.6,0.8-4.7,0.8h-6.5V129.6z M664.8,136c0.6,0,1,0,1.3-0.1c0.3-0.1,0.5-0.2,0.6-0.5c0.1-0.2,0.2-0.5,0.2-1v-0.8
		c0-0.4,0-0.6-0.1-0.8c-0.1-0.2-0.3-0.3-0.6-0.4c-0.3-0.1-0.8-0.1-1.4-0.1h-2.5v3.7H664.8z M664.9,142.5c0.9,0,1.6-0.1,1.9-0.3
		c0.4-0.2,0.6-0.5,0.6-1V140c0-0.6-0.2-1-0.5-1.2c-0.3-0.2-0.8-0.4-1.6-0.4h-3.2v4.2H664.9z"/>
</g>
<g>
	<path class="st2" d="M468.4,145.6c-1.3,0-3.1-0.1-5.2-0.4v-2.8l0.8,0.1c0.3,0.1,0.5,0.1,0.5,0.1l0.8,0.1c0.2,0,0.6,0.1,1.2,0.1
		c0.5,0,1,0.1,1.5,0.1c0.9,0,1.6-0.1,1.9-0.3c0.4-0.2,0.6-0.6,0.6-1.3v-1.8c0-0.8-0.8-1.1-2.4-1.1h-2.8v-2.4h2.8
		c1.2,0,1.9-0.5,1.9-1.4v-1.5c0-0.3-0.1-0.6-0.2-0.8c-0.1-0.2-0.4-0.3-0.7-0.4c-0.3-0.1-0.8-0.1-1.4-0.1c-0.9,0-2.3,0.1-4.2,0.3
		v-2.5c2.2-0.1,3.7-0.2,4.6-0.2c2,0,3.4,0.2,4.2,0.7c0.9,0.4,1.3,1.2,1.3,2.4v2.6c0,0.5-0.1,0.9-0.4,1.2c-0.3,0.3-0.6,0.5-1.1,0.6
		c1.4,0.5,2.1,1.3,2.1,2.3v2.5c0,1.3-0.5,2.3-1.4,2.9C471.8,145.4,470.3,145.6,468.4,145.6z M482.4,145.6c-1.1,0-2.8-0.1-5-0.3v-2.9
		c2,0.4,3.5,0.6,4.5,0.6c0.9,0,1.5-0.1,1.9-0.3c0.4-0.2,0.6-0.5,0.6-1v-2.3c0-0.4-0.1-0.7-0.4-0.9c-0.3-0.2-0.8-0.3-1.4-0.3h-4.8
		v-8.4h9.8v2.7h-6.3v3.2h2.4c0.9,0,1.8,0.2,2.7,0.5c0.5,0.2,0.9,0.5,1.2,1c0.3,0.4,0.4,0.9,0.4,1.5v3.3c0,0.6-0.1,1.2-0.4,1.7
		c-0.2,0.5-0.5,0.8-0.9,1.1c-0.3,0.2-0.8,0.4-1.3,0.6c-0.5,0.1-1,0.2-1.5,0.3C483.3,145.6,482.8,145.6,482.4,145.6z M491.5,129.8
		h3.7v12.9h7.7v2.7h-11.4V129.8z M505.4,129.8h6.3c1.5,0,2.6,0.1,3.4,0.3c0.8,0.2,1.4,0.6,1.7,1c0.3,0.5,0.5,1.1,0.5,2v1.9
		c0,0.4-0.2,0.8-0.5,1.2c-0.3,0.4-0.7,0.6-1.2,0.8v0.1c0.6,0.1,1.2,0.3,1.7,0.8c0.5,0.4,0.8,1,0.8,1.5v2.4c0,1.3-0.5,2.2-1.5,2.7
		s-2.6,0.8-4.7,0.8h-6.5V129.8z M511.8,136.2c0.6,0,1,0,1.3-0.1c0.3-0.1,0.5-0.2,0.6-0.5c0.1-0.2,0.2-0.5,0.2-1v-0.8
		c0-0.4,0-0.6-0.1-0.8c-0.1-0.2-0.3-0.3-0.6-0.4c-0.3-0.1-0.8-0.1-1.4-0.1h-2.5v3.7H511.8z M511.9,142.7c0.9,0,1.6-0.1,1.9-0.3
		c0.4-0.2,0.6-0.5,0.6-1v-1.2c0-0.6-0.2-1-0.5-1.2c-0.3-0.2-0.8-0.4-1.6-0.4h-3.2v4.2H511.9z"/>
</g>
<g>
	<path class="st1" d="M567,167c-15.4,0-28-12.6-28-28s12.6-28,28-28s28,12.6,28,28S582.4,167,567,167z M567,121c-9.9,0-18,8.1-18,18
		c0,9.9,8.1,18,18,18c9.9,0,18-8.1,18-18C585,129.1,576.9,121,567,121z"/>
</g>
<g>
	<path class="st2" d="M488.5,53.1c4.8-4.8,10.1-9.2,15.7-13.1v4c-3.8,2.7-7.4,5.5-10.9,8.6V58c3.1-2.9,6.4-5.5,9.8-7.9v4
		c-3.4,2.4-6.7,5-9.8,7.9v6c3.6-3.2,7.3-6.2,11.3-8.9v4c-5.8,3.9-11.2,8.4-16.1,13.3V53.1z"/>
</g>
<g>
	<path class="st2" d="M514.4,45.2l-8-6.7l6.2-3.8l5,5.2c1.6-3.4,3.3-6.8,4.9-10.1c2.2-1,4.4-1.9,6.7-2.7c-2.9,4.9-5.7,9.8-8.4,14.9
		l8.8,8.3c-2.3,0.8-4.5,1.7-6.7,2.7l-5.3-5.8c-1.8,3.6-3.6,7.3-5.3,11.1l-6.2,3.8C508.8,56.3,511.6,50.7,514.4,45.2z"/>
</g>
<g>
	<path class="st2" d="M532.5,25.9l9.9-2.7c1.9-0.5,3.8-0.8,5.8-0.7c0.6-0.1,1.1,0,1.7,0.2c0.5,0.2,1,0.5,1.4,0.9
		c0.4,0.4,0.7,0.9,0.9,1.4c0.2,0.5,0.2,1.1,0.1,1.7v4.5c0,1.3-0.3,2.6-1.1,3.7c-0.8,1.1-2,1.9-3.3,2.4c-2,0.7-4.1,1.3-6.2,1.8
		l-3.3,0.8v7.6l-5.9,1.8V25.9z M542.2,35.1c1.2-0.2,2.3-0.6,3.3-1.2c0.3-0.2,0.6-0.5,0.7-0.9c0.2-0.4,0.2-0.7,0.2-1.1v-3.7
		c0-0.8-0.3-1.2-0.9-1.3c-1.1-0.1-2.3,0-3.4,0.3l-3.7,1v7.9L542.2,35.1z"/>
</g>
<g>
	<path class="st2" d="M556.6,20.9l6-0.5v19.4c4.2-0.2,8.4-0.1,12.5,0.1v4c-6.2-0.4-12.4-0.3-18.5,0.3V20.9z"/>
</g>
<g>
	<path class="st2" d="M586.7,45.4c-1.3-0.4-2.5-0.9-3.7-1.4c-1.2-0.6-2.3-1.4-3.2-2.5c-0.8-1.1-1.2-2.4-1.1-3.7V27.6
		c-0.1-1.1,0.2-2.1,0.8-3c0.5-0.8,1.3-1.5,2.2-1.9c0.9-0.4,1.8-0.7,2.8-0.8c1.1-0.1,2.1-0.1,3.2,0l2.8,0.4l3.1,0.8
		c1,0.3,2,0.8,2.9,1.3c1.1,0.5,2.1,1.2,3,2c0.8,0.8,1.5,1.7,2,2.7c0.5,1.1,0.8,2.2,0.8,3.4v10.2c0,0.5,0,1.1-0.2,1.6
		c-0.2,0.5-0.5,1-0.8,1.4c-0.4,0.4-0.8,0.7-1.3,0.9c-0.5,0.2-1.1,0.3-1.6,0.3c-2.6,0.2-5.2,0-7.8-0.6L586.7,45.4z M592.7,42.8h1.8
		c0.3,0,0.5,0,0.8-0.1c0.2-0.1,0.5-0.2,0.7-0.4c0.2-0.2,0.3-0.4,0.4-0.7c0.1-0.2,0.1-0.5,0.1-0.8V30.8c0-0.5-0.1-1.1-0.4-1.6
		c-0.2-0.5-0.6-0.9-1-1.2c-1.3-0.9-2.8-1.4-4.4-1.7c-1.5-0.4-3-0.4-4.5-0.1c-0.4,0.1-0.8,0.4-1.1,0.8c-0.3,0.4-0.4,0.8-0.3,1.3v10.3
		c0,0.5,0.2,1.1,0.5,1.5c0.4,0.5,0.9,0.9,1.5,1.1l1.8,0.7l2.1,0.5L592.7,42.8z"/>
</g>
<g>
	<path class="st2" d="M607,27.4c3.6,1.4,7.2,2.9,10.6,4.7c2.5,1.1,4.8,2.7,6.7,4.7c1.2,1.4,1.9,3.1,2,5v4.1c0,1.4-0.5,2.2-1.4,2.4
		c-1.3,0.2-2.6-0.1-3.8-0.7c2.2,4.4,4.4,8.9,6.5,13.5c-2-1.3-4.1-2.5-6.2-3.7c-2-4.1-4-8.2-6.1-12.3l-2.6-1.1v9.1l-5.7-2.3V27.4z
		 M617.6,42.5c0.8,0.5,1.7,0.8,2.6,0.9c0.5-0.1,0.7-0.7,0.7-1.7v-1.6c0-0.8-0.2-1.6-0.7-2.2c-0.8-0.8-1.6-1.4-2.6-1.9l-4.9-2.2v6.4
		L617.6,42.5z"/>
</g>
<g>
	<path class="st2" d="M630.7,39.8c5.6,3.8,10.9,8.2,15.7,13v4c-3.3-3.4-6.8-6.5-10.6-9.3v5.4c3.4,2.5,6.7,5.3,9.7,8.3v4
		c-3-3-6.3-5.8-9.7-8.3v6c3.8,2.9,7.5,6.1,10.9,9.5v4c-4.9-4.9-10.3-9.3-16-13.3V39.8z"/>
</g>
<g>
	<path class="st2" d="M488.5,202.8c4.8,4.8,10.1,9.2,15.7,13.1v4c-3.8-2.7-7.4-5.5-10.9-8.6v5.3c3.1,2.9,6.4,5.5,9.8,7.9v4
		c-3.4-2.4-6.7-5-9.8-7.9v6.1c3.6,3.2,7.4,6.1,11.3,8.8v4c-5.8-3.9-11.2-8.4-16.1-13.3V202.8z"/>
</g>
<g>
	<path class="st2" d="M514.4,233.6c-2.7-5.3-5.4-10.7-8-16.2c2.1,1.3,4.1,2.6,6.2,3.7c1.7,3.6,3.3,7,5,10.4c1.6-1.7,3.3-3.5,4.9-5.4
		c2.2,1,4.4,1.9,6.7,2.7l-8.4,8c2.9,5.3,5.8,10.4,8.8,15.5c-2.3-0.8-4.5-1.7-6.7-2.7c-1.8-3.5-3.6-7.1-5.3-10.7l-5.3,5.4
		c-2.1-1.2-4.2-2.4-6.2-3.8L514.4,233.6z"/>
</g>
<g>
	<path class="st2" d="M532.5,229.9c3.3,1.1,6.6,2,9.9,2.8l5.8,1.6c1.2,0.5,2.3,1.2,3.1,2.2c0.7,1,1.1,2.2,1,3.4v4.4
		c0.1,1.3-0.3,2.5-1.1,3.5c-0.4,0.4-1,0.7-1.5,0.9s-1.2,0.3-1.8,0.3c-2.1,0.1-4.2-0.2-6.2-0.7l-3.3-0.8v7.6l-5.9-1.8V229.9z
		 M542.2,244.6c1.1,0.3,2.2,0.4,3.3,0.2c0.3-0.1,0.6-0.4,0.7-0.6c0.2-0.3,0.3-0.6,0.3-1v-3.8c0-0.3-0.1-0.7-0.3-1
		c-0.2-0.3-0.4-0.5-0.7-0.7c-1.1-0.5-2.2-0.9-3.4-1.1l-3.7-0.9v7.9L542.2,244.6z"/>
</g>
<g>
	<path class="st2" d="M556.6,235l6,0.5v19.3c4.2,0.2,8.3,0.2,12.5-0.1v4c-6.2,0.4-12.4,0.3-18.5-0.3V235z"/>
</g>
<g>
	<path class="st2" d="M586.7,257.4l-3.7-0.3c-1.2-0.2-2.4-0.8-3.2-1.7c-0.8-0.9-1.2-2.2-1.1-3.4v-10.2c-0.1-1.1,0.2-2.2,0.8-3.2
		c0.5-1,1.3-1.8,2.2-2.4c0.9-0.7,1.8-1.2,2.8-1.6l3.2-1.1l2.8-0.7l3.1-0.5l2.9-0.2c1,0,2,0.1,3,0.4c0.8,0.2,1.5,0.7,2,1.4
		c0.6,0.9,0.8,1.9,0.8,2.9V247c0,1.3-0.4,2.6-1.1,3.7c-0.7,1.2-1.7,2.2-2.9,3c-2.4,1.5-5,2.6-7.8,3.2
		C589.3,257.2,588,257.4,586.7,257.4z M592.7,252.4l1.8-0.8c0.6-0.3,1.1-0.7,1.4-1.2c0.3-0.5,0.5-1,0.5-1.6v-10.3
		c0-0.4-0.1-0.9-0.3-1.3c-0.3-0.4-0.6-0.6-1.1-0.7c-1.5-0.2-3-0.1-4.4,0.3c-1.6,0.3-3.1,0.8-4.5,1.6c-0.4,0.3-0.8,0.7-1.1,1.1
		c-0.2,0.5-0.4,1-0.3,1.5v10.2c0,0.5,0.2,1,0.5,1.4c0.2,0.2,0.4,0.4,0.7,0.5c0.3,0.1,0.5,0.1,0.8,0.1h1.8l2.1-0.4L592.7,252.4z"/>
</g>
<g>
	<path class="st2" d="M607,228.4c3.6-1.3,7.2-2.9,10.6-4.6c3.1-1.5,5.3-2.4,6.7-2.5c1.4-0.1,2,0.9,2,2.6v4.1c0,1.5-0.5,2.9-1.4,4.1
		c-1,1.4-2.3,2.6-3.8,3.6l6.5,5.8c-2,1.3-4.1,2.5-6.2,3.7l-6.1-6.1l-2.6,1.2v9.2l-5.7,2.3V228.4z M617.6,234.3
		c1-0.4,1.9-1.1,2.6-1.9c0.5-0.7,0.8-1.5,0.7-2.4v-1.7c0-0.8-0.2-1.3-0.7-1.3c-0.9,0-1.8,0.3-2.6,0.8l-4.9,2.3v6.5L617.6,234.3z"/>
</g>
<g>
	<path class="st2" d="M630.7,216.1c5.6-3.9,10.9-8.2,15.7-13v4c-3.3,3.3-6.9,6.4-10.6,9.3v5.3c3.4-2.5,6.6-5.3,9.6-8.3v4
		c-3,3-6.2,5.8-9.6,8.3v6c3.8-2.9,7.5-6.1,10.9-9.5v4c-4.9,4.9-10.3,9.3-16,13.3V216.1z"/>
</g>
<g class="st0">
	<path class="st1" d="M139,11.5c-25.2,0-49.9,7.5-70.8,21.5c-21,14-37.3,33.9-47,57.2c-9.7,23.3-12.2,48.9-7.3,73.7
		c4.9,24.7,17.1,47.5,34.9,65.3c17.8,17.8,40.5,30,65.3,34.9c24.7,4.9,50.4,2.4,73.7-7.3c23.3-9.7,43.2-26,57.2-47
		c14-21,21.5-45.6,21.5-70.8c0-33.8-13.4-66.2-37.3-90.2S172.8,11.5,139,11.5z M139,162c-4.5,0-9-1.3-12.8-3.9
		c-3.8-2.5-6.7-6.1-8.5-10.3c-1.7-4.2-2.2-8.8-1.3-13.3c0.9-4.5,3.1-8.6,6.3-11.8c3.2-3.2,7.3-5.4,11.8-6.3
		c4.5-0.9,9.1-0.4,13.3,1.3c4.2,1.7,7.8,4.7,10.3,8.5c2.5,3.8,3.9,8.2,3.9,12.8c0,6.1-2.4,11.9-6.7,16.3
		C150.9,159.6,145.1,162,139,162z"/>
</g>
<g>
	<path class="st1" d="M139,278C62.4,278,0,215.6,0,139C0,62.4,62.4,0,139,0s139,62.4,139,139C278,215.6,215.6,278,139,278z M139,18
		C72.3,18,18,72.3,18,139s54.3,121,121,121s121-54.3,121-121S205.7,18,139,18z"/>
</g>
<g>
	<path class="st2" d="M188.4,141.6c0-0.9,0.2-1.6,0.7-2.3s1.1-1.1,1.9-1.5c0.6-0.3,1.3-0.5,2.1-0.8c0.8-0.3,1.4-0.6,1.9-0.9
		c0.4-0.3,0.7-0.7,0.7-1.1v-2c0-0.5-0.2-0.8-0.6-1c-0.4-0.2-1.1-0.3-2-0.3c-1.1,0-2.6,0.2-4.4,0.6v-2.6c1.6-0.3,3.3-0.5,5-0.5
		c1.9,0,3.3,0.3,4.2,0.9c0.9,0.6,1.4,1.5,1.4,2.9v2.2c0,0.8-0.2,1.5-0.7,2.1c-0.5,0.6-1.1,1-1.9,1.3c-0.7,0.3-1.5,0.6-2.2,0.8
		c-0.8,0.3-1.5,0.6-1.9,1c-0.5,0.4-0.7,0.8-0.7,1.2v0.8h7.5v2.6h-10.9V141.6z M207.4,145.4c-1.1,0-2.8-0.1-5-0.3v-2.9
		c2,0.4,3.5,0.6,4.5,0.6c0.9,0,1.5-0.1,1.9-0.3c0.4-0.2,0.6-0.5,0.6-1v-2.3c0-0.4-0.1-0.7-0.4-0.9c-0.3-0.2-0.8-0.3-1.4-0.3h-4.8
		v-8.4h9.8v2.7h-6.3v3.2h2.4c0.9,0,1.8,0.2,2.7,0.5c0.5,0.2,0.9,0.5,1.2,1c0.3,0.4,0.4,0.9,0.4,1.5v3.3c0,0.6-0.1,1.2-0.4,1.7
		c-0.2,0.5-0.5,0.8-0.9,1.1c-0.3,0.2-0.8,0.4-1.3,0.6c-0.5,0.1-1,0.2-1.5,0.3C208.3,145.4,207.8,145.4,207.4,145.4z M216.5,129.6
		h3.7v12.9h7.7v2.7h-11.4V129.6z M230.4,129.6h6.3c1.5,0,2.6,0.1,3.4,0.3c0.8,0.2,1.4,0.6,1.7,1c0.3,0.5,0.5,1.1,0.5,2v1.9
		c0,0.4-0.2,0.8-0.5,1.2c-0.3,0.4-0.7,0.6-1.2,0.8v0.1c0.6,0.1,1.2,0.3,1.7,0.8c0.5,0.4,0.8,1,0.8,1.5v2.4c0,1.3-0.5,2.2-1.5,2.7
		s-2.6,0.8-4.7,0.8h-6.5V129.6z M236.8,136c0.6,0,1,0,1.3-0.1c0.3-0.1,0.5-0.2,0.6-0.5c0.1-0.2,0.2-0.5,0.2-1v-0.8
		c0-0.4,0-0.6-0.1-0.8c-0.1-0.2-0.3-0.3-0.6-0.4c-0.3-0.1-0.8-0.1-1.4-0.1h-2.5v3.7H236.8z M236.9,142.5c0.9,0,1.6-0.1,1.9-0.3
		c0.4-0.2,0.6-0.5,0.6-1V140c0-0.6-0.2-1-0.5-1.2c-0.3-0.2-0.8-0.4-1.6-0.4h-3.2v4.2H236.9z"/>
</g>
<g>
	<path class="st2" d="M35.4,141.8c0-0.9,0.2-1.6,0.7-2.3s1.1-1.1,1.9-1.5c0.6-0.3,1.3-0.5,2.1-0.8c0.8-0.3,1.4-0.6,1.9-0.9
		c0.4-0.3,0.7-0.7,0.7-1.1v-2c0-0.5-0.2-0.8-0.6-1c-0.4-0.2-1.1-0.3-2-0.3c-1.1,0-2.6,0.2-4.4,0.6v-2.6c1.6-0.3,3.3-0.5,5-0.5
		c1.9,0,3.3,0.3,4.2,0.9c0.9,0.6,1.4,1.5,1.4,2.9v2.2c0,0.8-0.2,1.5-0.7,2.1c-0.5,0.6-1.1,1-1.9,1.3c-0.7,0.3-1.5,0.6-2.2,0.8
		c-0.8,0.3-1.5,0.6-1.9,1c-0.5,0.4-0.7,0.8-0.7,1.2v0.8h7.5v2.6H35.4V141.8z M54.4,145.6c-1.1,0-2.8-0.1-5-0.3v-2.9
		c2,0.4,3.5,0.6,4.5,0.6c0.9,0,1.5-0.1,1.9-0.3c0.4-0.2,0.6-0.5,0.6-1v-2.3c0-0.4-0.1-0.7-0.4-0.9c-0.3-0.2-0.8-0.3-1.4-0.3h-4.8
		v-8.4h9.8v2.7h-6.3v3.2h2.4c0.9,0,1.8,0.2,2.7,0.5c0.5,0.2,0.9,0.5,1.2,1c0.3,0.4,0.4,0.9,0.4,1.5v3.3c0,0.6-0.1,1.2-0.4,1.7
		c-0.2,0.5-0.5,0.8-0.9,1.1c-0.3,0.2-0.8,0.4-1.3,0.6c-0.5,0.1-1,0.2-1.5,0.3C55.3,145.6,54.8,145.6,54.4,145.6z M63.5,129.8h3.7
		v12.9h7.7v2.7H63.5V129.8z M77.4,129.8h6.3c1.5,0,2.6,0.1,3.4,0.3c0.8,0.2,1.4,0.6,1.7,1c0.3,0.5,0.5,1.1,0.5,2v1.9
		c0,0.4-0.2,0.8-0.5,1.2c-0.3,0.4-0.7,0.6-1.2,0.8v0.1c0.6,0.1,1.2,0.3,1.7,0.8c0.5,0.4,0.8,1,0.8,1.5v2.4c0,1.3-0.5,2.2-1.5,2.7
		c-1,0.5-2.6,0.8-4.7,0.8h-6.5V129.8z M83.8,136.2c0.6,0,1,0,1.3-0.1c0.3-0.1,0.5-0.2,0.6-0.5c0.1-0.2,0.2-0.5,0.2-1v-0.8
		c0-0.4,0-0.6-0.1-0.8c-0.1-0.2-0.3-0.3-0.6-0.4c-0.3-0.1-0.8-0.1-1.4-0.1h-2.5v3.7H83.8z M83.9,142.7c0.9,0,1.6-0.1,1.9-0.3
		c0.4-0.2,0.6-0.5,0.6-1v-1.2c0-0.6-0.2-1-0.5-1.2c-0.3-0.2-0.8-0.4-1.6-0.4h-3.2v4.2H83.9z"/>
</g>
<g>
	<path class="st1" d="M139,167c-15.4,0-28-12.6-28-28s12.6-28,28-28s28,12.6,28,28S154.4,167,139,167z M139,121c-9.9,0-18,8.1-18,18
		c0,9.9,8.1,18,18,18s18-8.1,18-18C157,129.1,148.9,121,139,121z"/>
</g>
<g>
	<path class="st2" d="M77,40.9c2.9-2.2,5.9-4.2,9.1-6c1.9-1.2,4-2.1,6.2-2.7c0.6-0.2,1.2-0.2,1.8-0.1c0.6,0.1,1.1,0.3,1.6,0.7
		c0.8,1.1,1.2,2.4,1.1,3.8v9.5c0,1.6-0.4,3.2-1.1,4.6c-0.9,1.4-2,2.6-3.3,3.6c-1.5,1.1-3.6,2.4-6.3,4c-2.7,1.6-6.2,3.8-9.1,5.9V40.9
		z M85.9,54.4l3.3-2c0.6-0.5,1.2-1,1.6-1.7c0.3-0.6,0.5-1.3,0.5-2v-9.6c0-1.1-0.4-1.7-1.3-1.7c-1.4,0.2-2.8,0.7-4,1.5l-3.9,2.5v15.3
		L85.9,54.4z"/>
</g>
<g>
	<path class="st2" d="M101.2,27.6c5.9-2.3,12-4,18.2-5.2v4c-4.2,0.8-8.4,1.9-12.5,3.2V35c3.7-1.2,7.5-2.2,11.3-3v4
		c-3.8,0.8-7.6,1.8-11.3,3v6c4.2-1.4,8.5-2.5,12.9-3.3v4c-6.3,1.2-12.6,3-18.6,5.3V27.6z"/>
</g>
<g>
	<path class="st2" d="M123.7,21.7c6.3-1,12.7-1.4,19.1-1.2v4c-4.4-0.1-8.8,0-13.2,0.5v5.7c4-0.4,8-0.5,12-0.5v4c-4,0-8,0.1-12,0.5
		v9.6l-5.9,0.7V21.7z"/>
</g>
<g>
	<path class="st2" d="M146.8,20.7l5.9,0.6v23.4c-2-0.3-3.9-0.5-5.9-0.6V20.7z"/>
</g>
<g>
	<path class="st2" d="M157.9,22.1c2,0.3,4,0.7,5.9,1.2c3.9,6.2,7.8,12.6,11.5,19.3v-16l5,2v23.3c-1.8-0.8-3.7-1.5-5.6-2.1
		c-3.8-6.8-7.7-13.3-11.6-19.5v16.2l-5.2-1.1V22.1z"/>
</g>
<g>
	<path class="st2" d="M185.3,30.8c5.9,2.7,11.4,6,16.7,9.8v4c-3.6-2.6-7.4-5-11.3-7.1v5.4c3.5,1.9,6.9,4,10.2,6.3v4
		c-3.3-2.3-6.7-4.4-10.2-6.3v6c4,2.2,7.9,4.6,11.6,7.3v4c-5.3-3.9-11-7.3-17-10.1V30.8z"/>
</g>
<g>
	<path class="st2" d="M77,213.6c2.9,2.1,6,4.1,9.1,5.9c2.1,1.2,4.2,2.5,6.2,4c1.4,1,2.5,2.3,3.4,3.8c0.7,1.5,1.1,3.1,1.1,4.7v9.6
		c0,1.7-0.4,3-1.1,3.6c-0.7,0.6-1.8,0.9-3.3,0.5c-2.2-0.7-4.3-1.6-6.3-2.8c-3.2-1.8-6.2-3.8-9.1-6V213.6z M85.9,238.8
		c1,0.7,2.1,1.2,3.3,1.6c0.2,0.1,0.5,0.2,0.8,0.2c0.3,0,0.6,0,0.8-0.1c0.3-0.2,0.5-0.7,0.5-1.5v-9.6c0-0.6-0.1-1.1-0.3-1.6
		c-0.2-0.5-0.6-1-1-1.4c-1.2-1.2-2.5-2.1-4-2.9l-3.9-2.4v15.3L85.9,238.8z"/>
</g>
<g>
	<path class="st2" d="M101.2,226.8c5.9,2.3,12,4,18.2,5.2v4c-4.2-0.8-8.4-1.9-12.5-3.2v5.4c3.7,1.2,7.5,2.2,11.3,2.9v4
		c-3.8-0.7-7.6-1.7-11.3-2.9v6c4.2,1.3,8.5,2.4,12.9,3.3v4c-6.3-1.2-12.6-3-18.6-5.3V226.8z"/>
</g>
<g>
	<path class="st2" d="M123.7,232.8c6.3,0.9,12.7,1.3,19.1,1.1v4c-4.4,0.1-8.8,0-13.2-0.4v5.7c4,0.4,8,0.5,12,0.5v3.9
		c-4,0.1-8,0-12-0.4v9.6c-2-0.1-3.9-0.4-5.9-0.7V232.8z"/>
</g>
<g>
	<path class="st2" d="M146.8,233.7c2-0.1,3.9-0.3,5.9-0.6v23.4l-5.9,0.6V233.7z"/>
</g>
<g>
	<path class="st2" d="M157.9,232.4l5.9-1.2c3.9,4.4,7.8,8.6,11.5,12.5v-15.9l5-1.9v23.3l-5.6,2.2c-3.8-4.1-7.7-8.4-11.6-12.9v16.2
		l-5.2,1V232.4z"/>
</g>
<g>
	<path class="st2" d="M185.3,223.7c5.9-2.8,11.5-6.1,16.7-9.9v4c-3.6,2.6-7.4,5-11.3,7.1v5.4c3.5-1.9,6.9-4,10.2-6.4v4
		c-3.3,2.4-6.7,4.5-10.2,6.4v6c4-2.2,7.9-4.6,11.6-7.3v3.9c-5.3,3.9-11,7.3-17,10.1V223.7z"/>
</g>
<g>
	<path class="st1" d="M428,138l-36,10.4v-20.8L428,138z"/>
</g>
<g>
	<path class="st1" d="M856,138l-36,10.4v-20.8L856,138z"/>
</g>
<g>
	<rect x="278" y="136" class="st1" width="115" height="4"/>
</g>
<g>
	<rect x="706" y="136" class="st1" width="115" height="4"/>
</g>
</svg>
