<svg width="160" height="160" viewBox="0 0 160 160" fill="none" xmlns="http://www.w3.org/2000/svg">
<path d="M79.2837 38.9266L80 39.3159L80.7163 38.9266L138.5 7.52243V93.5154L80 152.863L21.5 93.5154V7.52243L79.2837 38.9266Z" fill="#FF760D" fill-opacity="0.4" stroke="#FF760D" stroke-width="3"/>
<mask id="path-2-inside-1" fill="white">
<path fill-rule="evenodd" clip-rule="evenodd" d="M114 37L80 55.6957L46 37V53.5178L23.973 41.2526L23 43L46 55.807V63.5178L23.973 51.2526L23 53L46 65.807V73.5178L23.973 61.2526L23 63L46 75.807V88.1014L80 123L114 88.1014V75.5359L136.099 63.2339L136.973 62.7475L136 61L135.126 61.4864L114 73.2469V65.5359L136.099 53.2339L136.973 52.7475L136 51L135.126 51.4864L114 63.2469V55.5359L136.099 43.2339L136.973 42.7475L136 41L135.126 41.4864L114 53.2469V37ZM114 53.2469L96.3684 63.062L95.4947 63.5483L96.4675 65.2958L97.3412 64.8094L114 55.5359V53.2469ZM114 63.2469L96.3684 73.062L95.4947 73.5483L96.4675 75.2958L97.3412 74.8094L114 65.5359V63.2469ZM114 73.2469L96.3684 83.062L95.4947 83.5483L96.4675 85.2958L97.3412 84.8094L114 75.5359V73.2469ZM46 75.807L63.4946 85.5483L64.4675 83.801L46 73.5178V75.807ZM46 65.807L63.4946 75.5483L64.4675 73.801L46 63.5178V65.807ZM46 55.807L63.4946 65.5483L64.4675 63.801L46 53.5178V55.807Z"/>
</mask>
<path fill-rule="evenodd" clip-rule="evenodd" d="M114 37L80 55.6957L46 37V53.5178L23.973 41.2526L23 43L46 55.807V63.5178L23.973 51.2526L23 53L46 65.807V73.5178L23.973 61.2526L23 63L46 75.807V88.1014L80 123L114 88.1014V75.5359L136.099 63.2339L136.973 62.7475L136 61L135.126 61.4864L114 73.2469V65.5359L136.099 53.2339L136.973 52.7475L136 51L135.126 51.4864L114 63.2469V55.5359L136.099 43.2339L136.973 42.7475L136 41L135.126 41.4864L114 53.2469V37ZM114 53.2469L96.3684 63.062L95.4947 63.5483L96.4675 65.2958L97.3412 64.8094L114 55.5359V53.2469ZM114 63.2469L96.3684 73.062L95.4947 73.5483L96.4675 75.2958L97.3412 74.8094L114 65.5359V63.2469ZM114 73.2469L96.3684 83.062L95.4947 83.5483L96.4675 85.2958L97.3412 84.8094L114 75.5359V73.2469ZM46 75.807L63.4946 85.5483L64.4675 83.801L46 73.5178V75.807ZM46 65.807L63.4946 75.5483L64.4675 73.801L46 63.5178V65.807ZM46 55.807L63.4946 65.5483L64.4675 63.801L46 53.5178V55.807Z" fill="#FF760D" fill-opacity="0.4"/>
<path d="M80 55.6957L79.0363 57.4482L80 57.9781L80.9637 57.4482L80 55.6957ZM114 37H116V33.6178L113.036 35.2475L114 37ZM46 37L46.9637 35.2475L44 33.6178V37H46ZM23.973 41.2526L24.946 39.5053L23.1986 38.5323L22.2256 40.2796L23.973 41.2526ZM23 43L21.2526 42.027L20.2796 43.7744L22.027 44.7474L23 43ZM23.973 51.2526L24.946 49.5053L23.1986 48.5323L22.2256 50.2796L23.973 51.2526ZM23 53L21.2526 52.027L20.2796 53.7744L22.027 54.7474L23 53ZM23.973 61.2526L24.946 59.5053L23.1986 58.5323L22.2256 60.2796L23.973 61.2526ZM23 63L21.2526 62.027L20.2796 63.7744L22.027 64.7474L23 63ZM46 88.1014H44V88.9146L44.5675 89.4971L46 88.1014ZM80 123L78.5675 124.396L80 125.866L81.4325 124.396L80 123ZM114 88.1014L115.433 89.4971L116 88.9146V88.1014H114ZM136.099 63.2339L137.072 64.9814L137.072 64.9814L136.099 63.2339ZM136.973 62.7475L137.946 64.495L139.693 63.5222L138.72 61.7747L136.973 62.7475ZM136 61L137.747 60.0272L136.775 58.2797L135.027 59.2525L136 61ZM135.126 61.4864L136.099 63.2339L136.099 63.2339L135.126 61.4864ZM136.099 53.2339L135.126 51.4864L135.126 51.4864L136.099 53.2339ZM136.973 52.7475L137.946 54.495L139.693 53.5222L138.72 51.7747L136.973 52.7475ZM136 51L137.747 50.0272L136.775 48.2797L135.027 49.2525L136 51ZM135.126 51.4864L134.153 49.7389L134.153 49.7389L135.126 51.4864ZM136.099 43.2339L135.126 41.4864L135.126 41.4864L136.099 43.2339ZM136.973 42.7475L137.946 44.495L139.693 43.5222L138.72 41.7747L136.973 42.7475ZM136 41L137.747 40.0272L136.775 38.2797L135.027 39.2525L136 41ZM135.126 41.4864L134.153 39.7389L134.153 39.7389L135.126 41.4864ZM96.3684 63.062L95.3957 61.3145L95.3957 61.3145L96.3684 63.062ZM95.4947 63.5483L94.5219 61.8009L92.7744 62.7736L93.7472 64.5211L95.4947 63.5483ZM96.4675 65.2958L94.72 66.2686L95.6928 68.0161L97.4403 67.0433L96.4675 65.2958ZM97.3412 64.8094L96.3684 63.062L96.3684 63.062L97.3412 64.8094ZM96.3684 73.062L97.3412 74.8094L97.3412 74.8094L96.3684 73.062ZM95.4947 73.5483L94.5219 71.8009L92.7744 72.7736L93.7472 74.5211L95.4947 73.5483ZM96.4675 75.2958L94.72 76.2686L95.6928 78.0161L97.4403 77.0433L96.4675 75.2958ZM97.3412 74.8094L98.314 76.5569L98.314 76.5569L97.3412 74.8094ZM96.3684 83.062L97.3412 84.8094L97.3412 84.8094L96.3684 83.062ZM95.4947 83.5483L94.5219 81.8009L92.7744 82.7736L93.7472 84.5211L95.4947 83.5483ZM96.4675 85.2958L94.72 86.2686L95.6928 88.0161L97.4403 87.0433L96.4675 85.2958ZM97.3412 84.8094L98.314 86.5569L98.314 86.5569L97.3412 84.8094ZM63.4946 85.5483L62.5216 87.2957L64.2689 88.2687L65.2419 86.5213L63.4946 85.5483ZM64.4675 83.801L66.2149 84.774L67.1879 83.0266L65.4405 82.0536L64.4675 83.801ZM63.4946 75.5483L62.5216 77.2957L64.2689 78.2687L65.2419 76.5213L63.4946 75.5483ZM64.4675 73.801L66.2149 74.774L67.1879 73.0266L65.4405 72.0536L64.4675 73.801ZM63.4946 65.5483L62.5216 67.2957L64.2689 68.2687L65.2419 66.5213L63.4946 65.5483ZM64.4675 63.801L66.2149 64.774L67.1879 63.0266L65.4405 62.0536L64.4675 63.801ZM80.9637 57.4482L114.964 38.7525L113.036 35.2475L79.0363 53.9431L80.9637 57.4482ZM45.0363 38.7525L79.0363 57.4482L80.9637 53.9431L46.9637 35.2475L45.0363 38.7525ZM48 53.5178V37H44V53.5178H48ZM46.973 51.7704L24.946 39.5053L23 43L45.027 55.2652L46.973 51.7704ZM22.2256 40.2796L21.2526 42.027L24.7474 43.973L25.7204 42.2256L22.2256 40.2796ZM22.027 44.7474L45.027 57.5543L46.973 54.0596L23.973 41.2526L22.027 44.7474ZM48 63.5178V55.807H44V63.5178H48ZM23 53L45.027 65.2652L46.973 61.7704L24.946 49.5053L23 53ZM24.7474 53.973L25.7204 52.2256L22.2256 50.2796L21.2526 52.027L24.7474 53.973ZM46.973 64.0596L23.973 51.2526L22.027 54.7474L45.027 67.5543L46.973 64.0596ZM48 73.5178V65.807H44V73.5178H48ZM46.973 71.7704L24.946 59.5053L23 63L45.027 75.2652L46.973 71.7704ZM22.2256 60.2796L21.2526 62.027L24.7474 63.973L25.7204 62.2256L22.2256 60.2796ZM22.027 64.7474L45.027 77.5543L46.973 74.0596L23.973 61.2526L22.027 64.7474ZM48 88.1014V75.807H44V88.1014H48ZM81.4325 121.604L47.4325 86.7058L44.5675 89.4971L78.5675 124.396L81.4325 121.604ZM112.567 86.7058L78.5675 121.604L81.4325 124.396L115.433 89.4971L112.567 86.7058ZM112 75.5359V88.1014H116V75.5359H112ZM135.126 61.4864L113.027 73.7884L114.973 77.2834L137.072 64.9814L135.126 61.4864ZM136 61L135.126 61.4864L137.072 64.9814L137.946 64.495L136 61ZM134.253 61.9728L135.225 63.7203L138.72 61.7747L137.747 60.0272L134.253 61.9728ZM136.099 63.2339L136.973 62.7475L135.027 59.2525L134.153 59.7389L136.099 63.2339ZM114.973 74.9944L136.099 63.2339L134.153 59.7389L113.027 71.4994L114.973 74.9944ZM112 65.5359V73.2469H116V65.5359H112ZM114.973 67.2834L137.072 54.9814L135.126 51.4864L113.027 63.7884L114.973 67.2834ZM137.072 54.9814L137.946 54.495L136 51L135.126 51.4864L137.072 54.9814ZM138.72 51.7747L137.747 50.0272L134.253 51.9728L135.225 53.7203L138.72 51.7747ZM135.027 49.2525L134.153 49.7389L136.099 53.2339L136.973 52.7475L135.027 49.2525ZM134.153 49.7389L113.027 61.4994L114.973 64.9944L136.099 53.2339L134.153 49.7389ZM112 55.5359V63.2469H116V55.5359H112ZM114.973 57.2834L137.072 44.9814L135.126 41.4864L113.027 53.7884L114.973 57.2834ZM137.072 44.9814L137.946 44.495L136 41L135.126 41.4864L137.072 44.9814ZM138.72 41.7747L137.747 40.0272L134.253 41.9728L135.225 43.7203L138.72 41.7747ZM135.027 39.2525L134.153 39.7389L136.099 43.2339L136.973 42.7475L135.027 39.2525ZM134.153 39.7389L113.027 51.4994L114.973 54.9944L136.099 43.2339L134.153 39.7389ZM112 37V53.2469H116V37H112ZM113.027 51.4994L95.3957 61.3145L97.3412 64.8094L114.973 54.9944L113.027 51.4994ZM95.3957 61.3145L94.5219 61.8009L96.4675 65.2958L97.3412 64.8094L95.3957 61.3145ZM93.7472 64.5211L94.72 66.2686L98.215 64.323L97.2422 62.5756L93.7472 64.5211ZM97.4403 67.0433L98.314 66.5569L96.3684 63.062L95.4947 63.5483L97.4403 67.0433ZM98.314 66.5569L114.973 57.2834L113.027 53.7884L96.3684 63.062L98.314 66.5569ZM112 53.2469V55.5359H116V53.2469H112ZM113.027 61.4994L95.3957 71.3145L97.3412 74.8094L114.973 64.9944L113.027 61.4994ZM95.3957 71.3145L94.5219 71.8009L96.4675 75.2958L97.3412 74.8094L95.3957 71.3145ZM93.7472 74.5211L94.72 76.2686L98.215 74.323L97.2422 72.5756L93.7472 74.5211ZM97.4403 77.0433L98.314 76.5569L96.3684 73.062L95.4947 73.5483L97.4403 77.0433ZM98.314 76.5569L114.973 67.2834L113.027 63.7884L96.3684 73.062L98.314 76.5569ZM112 63.2469V65.5359H116V63.2469H112ZM97.3412 84.8094L114.973 74.9944L113.027 71.4994L95.3957 81.3145L97.3412 84.8094ZM96.4675 85.2958L97.3412 84.8094L95.3957 81.3145L94.5219 81.8009L96.4675 85.2958ZM98.215 84.323L97.2422 82.5756L93.7472 84.5211L94.72 86.2686L98.215 84.323ZM96.3684 83.062L95.4947 83.5483L97.4403 87.0433L98.314 86.5569L96.3684 83.062ZM113.027 73.7884L96.3684 83.062L98.314 86.5569L114.973 77.2834L113.027 73.7884ZM112 73.2469V75.5359H116V73.2469H112ZM45.027 77.5543L62.5216 87.2957L64.4675 83.801L46.973 74.0596L45.027 77.5543ZM65.2419 86.5213L66.2149 84.774L62.7202 82.828L61.7472 84.5754L65.2419 86.5213ZM65.4405 82.0536L46.973 71.7704L45.027 75.2652L63.4946 85.5483L65.4405 82.0536ZM48 75.807V73.5178H44V75.807H48ZM64.4675 73.801L46.973 64.0596L45.027 67.5543L62.5216 77.2957L64.4675 73.801ZM62.7202 72.828L61.7472 74.5754L65.2419 76.5213L66.2149 74.774L62.7202 72.828ZM45.027 65.2652L63.4946 75.5483L65.4405 72.0536L46.973 61.7704L45.027 65.2652ZM48 65.807V63.5178H44V65.807H48ZM45.027 57.5543L62.5216 67.2957L64.4675 63.801L46.973 54.0596L45.027 57.5543ZM65.2419 66.5213L66.2149 64.774L62.7202 62.828L61.7472 64.5754L65.2419 66.5213ZM65.4405 62.0536L46.973 51.7704L45.027 55.2652L63.4946 65.5483L65.4405 62.0536ZM48 55.807V53.5178H44V55.807H48Z" fill="white" mask="url(#path-2-inside-1)"/>
<path d="M80 55.6957L79.0363 57.4482L80 57.9781L80.9637 57.4482L80 55.6957ZM114 37H116V33.6178L113.036 35.2475L114 37ZM46 37L46.9637 35.2475L44 33.6178V37H46ZM23.973 41.2526L24.946 39.5053L23.1986 38.5323L22.2256 40.2796L23.973 41.2526ZM23 43L21.2526 42.027L20.2796 43.7744L22.027 44.7474L23 43ZM23.973 51.2526L24.946 49.5053L23.1986 48.5323L22.2256 50.2796L23.973 51.2526ZM23 53L21.2526 52.027L20.2796 53.7744L22.027 54.7474L23 53ZM23.973 61.2526L24.946 59.5053L23.1986 58.5323L22.2256 60.2796L23.973 61.2526ZM23 63L21.2526 62.027L20.2796 63.7744L22.027 64.7474L23 63ZM46 88.1014H44V88.9146L44.5675 89.4971L46 88.1014ZM80 123L78.5675 124.396L80 125.866L81.4325 124.396L80 123ZM114 88.1014L115.433 89.4971L116 88.9146V88.1014H114ZM136.099 63.2339L137.072 64.9814L137.072 64.9814L136.099 63.2339ZM136.973 62.7475L137.946 64.495L139.693 63.5222L138.72 61.7747L136.973 62.7475ZM136 61L137.747 60.0272L136.775 58.2797L135.027 59.2525L136 61ZM135.126 61.4864L136.099 63.2339L136.099 63.2339L135.126 61.4864ZM136.099 53.2339L135.126 51.4864L135.126 51.4864L136.099 53.2339ZM136.973 52.7475L137.946 54.495L139.693 53.5222L138.72 51.7747L136.973 52.7475ZM136 51L137.747 50.0272L136.775 48.2797L135.027 49.2525L136 51ZM135.126 51.4864L134.153 49.7389L134.153 49.7389L135.126 51.4864ZM136.099 43.2339L135.126 41.4864L135.126 41.4864L136.099 43.2339ZM136.973 42.7475L137.946 44.495L139.693 43.5222L138.72 41.7747L136.973 42.7475ZM136 41L137.747 40.0272L136.775 38.2797L135.027 39.2525L136 41ZM135.126 41.4864L134.153 39.7389L134.153 39.7389L135.126 41.4864ZM96.3684 63.062L95.3957 61.3145L95.3957 61.3145L96.3684 63.062ZM95.4947 63.5483L94.5219 61.8009L92.7744 62.7736L93.7472 64.5211L95.4947 63.5483ZM96.4675 65.2958L94.72 66.2686L95.6928 68.0161L97.4403 67.0433L96.4675 65.2958ZM97.3412 64.8094L96.3684 63.062L96.3684 63.062L97.3412 64.8094ZM96.3684 73.062L97.3412 74.8094L97.3412 74.8094L96.3684 73.062ZM95.4947 73.5483L94.5219 71.8009L92.7744 72.7736L93.7472 74.5211L95.4947 73.5483ZM96.4675 75.2958L94.72 76.2686L95.6928 78.0161L97.4403 77.0433L96.4675 75.2958ZM97.3412 74.8094L98.314 76.5569L98.314 76.5569L97.3412 74.8094ZM96.3684 83.062L97.3412 84.8094L97.3412 84.8094L96.3684 83.062ZM95.4947 83.5483L94.5219 81.8009L92.7744 82.7736L93.7472 84.5211L95.4947 83.5483ZM96.4675 85.2958L94.72 86.2686L95.6928 88.0161L97.4403 87.0433L96.4675 85.2958ZM97.3412 84.8094L98.314 86.5569L98.314 86.5569L97.3412 84.8094ZM63.4946 85.5483L62.5216 87.2957L64.2689 88.2687L65.2419 86.5213L63.4946 85.5483ZM64.4675 83.801L66.2149 84.774L67.1879 83.0266L65.4405 82.0536L64.4675 83.801ZM63.4946 75.5483L62.5216 77.2957L64.2689 78.2687L65.2419 76.5213L63.4946 75.5483ZM64.4675 73.801L66.2149 74.774L67.1879 73.0266L65.4405 72.0536L64.4675 73.801ZM63.4946 65.5483L62.5216 67.2957L64.2689 68.2687L65.2419 66.5213L63.4946 65.5483ZM64.4675 63.801L66.2149 64.774L67.1879 63.0266L65.4405 62.0536L64.4675 63.801ZM80.9637 57.4482L114.964 38.7525L113.036 35.2475L79.0363 53.9431L80.9637 57.4482ZM45.0363 38.7525L79.0363 57.4482L80.9637 53.9431L46.9637 35.2475L45.0363 38.7525ZM48 53.5178V37H44V53.5178H48ZM46.973 51.7704L24.946 39.5053L23 43L45.027 55.2652L46.973 51.7704ZM22.2256 40.2796L21.2526 42.027L24.7474 43.973L25.7204 42.2256L22.2256 40.2796ZM22.027 44.7474L45.027 57.5543L46.973 54.0596L23.973 41.2526L22.027 44.7474ZM48 63.5178V55.807H44V63.5178H48ZM23 53L45.027 65.2652L46.973 61.7704L24.946 49.5053L23 53ZM24.7474 53.973L25.7204 52.2256L22.2256 50.2796L21.2526 52.027L24.7474 53.973ZM46.973 64.0596L23.973 51.2526L22.027 54.7474L45.027 67.5543L46.973 64.0596ZM48 73.5178V65.807H44V73.5178H48ZM46.973 71.7704L24.946 59.5053L23 63L45.027 75.2652L46.973 71.7704ZM22.2256 60.2796L21.2526 62.027L24.7474 63.973L25.7204 62.2256L22.2256 60.2796ZM22.027 64.7474L45.027 77.5543L46.973 74.0596L23.973 61.2526L22.027 64.7474ZM48 88.1014V75.807H44V88.1014H48ZM81.4325 121.604L47.4325 86.7058L44.5675 89.4971L78.5675 124.396L81.4325 121.604ZM112.567 86.7058L78.5675 121.604L81.4325 124.396L115.433 89.4971L112.567 86.7058ZM112 75.5359V88.1014H116V75.5359H112ZM135.126 61.4864L113.027 73.7884L114.973 77.2834L137.072 64.9814L135.126 61.4864ZM136 61L135.126 61.4864L137.072 64.9814L137.946 64.495L136 61ZM134.253 61.9728L135.225 63.7203L138.72 61.7747L137.747 60.0272L134.253 61.9728ZM136.099 63.2339L136.973 62.7475L135.027 59.2525L134.153 59.7389L136.099 63.2339ZM114.973 74.9944L136.099 63.2339L134.153 59.7389L113.027 71.4994L114.973 74.9944ZM112 65.5359V73.2469H116V65.5359H112ZM114.973 67.2834L137.072 54.9814L135.126 51.4864L113.027 63.7884L114.973 67.2834ZM137.072 54.9814L137.946 54.495L136 51L135.126 51.4864L137.072 54.9814ZM138.72 51.7747L137.747 50.0272L134.253 51.9728L135.225 53.7203L138.72 51.7747ZM135.027 49.2525L134.153 49.7389L136.099 53.2339L136.973 52.7475L135.027 49.2525ZM134.153 49.7389L113.027 61.4994L114.973 64.9944L136.099 53.2339L134.153 49.7389ZM112 55.5359V63.2469H116V55.5359H112ZM114.973 57.2834L137.072 44.9814L135.126 41.4864L113.027 53.7884L114.973 57.2834ZM137.072 44.9814L137.946 44.495L136 41L135.126 41.4864L137.072 44.9814ZM138.72 41.7747L137.747 40.0272L134.253 41.9728L135.225 43.7203L138.72 41.7747ZM135.027 39.2525L134.153 39.7389L136.099 43.2339L136.973 42.7475L135.027 39.2525ZM134.153 39.7389L113.027 51.4994L114.973 54.9944L136.099 43.2339L134.153 39.7389ZM112 37V53.2469H116V37H112ZM113.027 51.4994L95.3957 61.3145L97.3412 64.8094L114.973 54.9944L113.027 51.4994ZM95.3957 61.3145L94.5219 61.8009L96.4675 65.2958L97.3412 64.8094L95.3957 61.3145ZM93.7472 64.5211L94.72 66.2686L98.215 64.323L97.2422 62.5756L93.7472 64.5211ZM97.4403 67.0433L98.314 66.5569L96.3684 63.062L95.4947 63.5483L97.4403 67.0433ZM98.314 66.5569L114.973 57.2834L113.027 53.7884L96.3684 63.062L98.314 66.5569ZM112 53.2469V55.5359H116V53.2469H112ZM113.027 61.4994L95.3957 71.3145L97.3412 74.8094L114.973 64.9944L113.027 61.4994ZM95.3957 71.3145L94.5219 71.8009L96.4675 75.2958L97.3412 74.8094L95.3957 71.3145ZM93.7472 74.5211L94.72 76.2686L98.215 74.323L97.2422 72.5756L93.7472 74.5211ZM97.4403 77.0433L98.314 76.5569L96.3684 73.062L95.4947 73.5483L97.4403 77.0433ZM98.314 76.5569L114.973 67.2834L113.027 63.7884L96.3684 73.062L98.314 76.5569ZM112 63.2469V65.5359H116V63.2469H112ZM97.3412 84.8094L114.973 74.9944L113.027 71.4994L95.3957 81.3145L97.3412 84.8094ZM96.4675 85.2958L97.3412 84.8094L95.3957 81.3145L94.5219 81.8009L96.4675 85.2958ZM98.215 84.323L97.2422 82.5756L93.7472 84.5211L94.72 86.2686L98.215 84.323ZM96.3684 83.062L95.4947 83.5483L97.4403 87.0433L98.314 86.5569L96.3684 83.062ZM113.027 73.7884L96.3684 83.062L98.314 86.5569L114.973 77.2834L113.027 73.7884ZM112 73.2469V75.5359H116V73.2469H112ZM45.027 77.5543L62.5216 87.2957L64.4675 83.801L46.973 74.0596L45.027 77.5543ZM65.2419 86.5213L66.2149 84.774L62.7202 82.828L61.7472 84.5754L65.2419 86.5213ZM65.4405 82.0536L46.973 71.7704L45.027 75.2652L63.4946 85.5483L65.4405 82.0536ZM48 75.807V73.5178H44V75.807H48ZM64.4675 73.801L46.973 64.0596L45.027 67.5543L62.5216 77.2957L64.4675 73.801ZM62.7202 72.828L61.7472 74.5754L65.2419 76.5213L66.2149 74.774L62.7202 72.828ZM45.027 65.2652L63.4946 75.5483L65.4405 72.0536L46.973 61.7704L45.027 65.2652ZM48 65.807V63.5178H44V65.807H48ZM45.027 57.5543L62.5216 67.2957L64.4675 63.801L46.973 54.0596L45.027 57.5543ZM65.2419 66.5213L66.2149 64.774L62.7202 62.828L61.7472 64.5754L65.2419 66.5213ZM65.4405 62.0536L46.973 51.7704L45.027 55.2652L63.4946 65.5483L65.4405 62.0536ZM48 55.807V53.5178H44V55.807H48Z" fill="url(#paint0_angular)" fill-opacity="0.8" style="mix-blend-mode:difference" mask="url(#path-2-inside-1)"/>
<path d="M80 55.6957L79.0363 57.4482L80 57.9781L80.9637 57.4482L80 55.6957ZM114 37H116V33.6178L113.036 35.2475L114 37ZM46 37L46.9637 35.2475L44 33.6178V37H46ZM23.973 41.2526L24.946 39.5053L23.1986 38.5323L22.2256 40.2796L23.973 41.2526ZM23 43L21.2526 42.027L20.2796 43.7744L22.027 44.7474L23 43ZM23.973 51.2526L24.946 49.5053L23.1986 48.5323L22.2256 50.2796L23.973 51.2526ZM23 53L21.2526 52.027L20.2796 53.7744L22.027 54.7474L23 53ZM23.973 61.2526L24.946 59.5053L23.1986 58.5323L22.2256 60.2796L23.973 61.2526ZM23 63L21.2526 62.027L20.2796 63.7744L22.027 64.7474L23 63ZM46 88.1014H44V88.9146L44.5675 89.4971L46 88.1014ZM80 123L78.5675 124.396L80 125.866L81.4325 124.396L80 123ZM114 88.1014L115.433 89.4971L116 88.9146V88.1014H114ZM136.099 63.2339L137.072 64.9814L137.072 64.9814L136.099 63.2339ZM136.973 62.7475L137.946 64.495L139.693 63.5222L138.72 61.7747L136.973 62.7475ZM136 61L137.747 60.0272L136.775 58.2797L135.027 59.2525L136 61ZM135.126 61.4864L136.099 63.2339L136.099 63.2339L135.126 61.4864ZM136.099 53.2339L135.126 51.4864L135.126 51.4864L136.099 53.2339ZM136.973 52.7475L137.946 54.495L139.693 53.5222L138.72 51.7747L136.973 52.7475ZM136 51L137.747 50.0272L136.775 48.2797L135.027 49.2525L136 51ZM135.126 51.4864L134.153 49.7389L134.153 49.7389L135.126 51.4864ZM136.099 43.2339L135.126 41.4864L135.126 41.4864L136.099 43.2339ZM136.973 42.7475L137.946 44.495L139.693 43.5222L138.72 41.7747L136.973 42.7475ZM136 41L137.747 40.0272L136.775 38.2797L135.027 39.2525L136 41ZM135.126 41.4864L134.153 39.7389L134.153 39.7389L135.126 41.4864ZM96.3684 63.062L95.3957 61.3145L95.3957 61.3145L96.3684 63.062ZM95.4947 63.5483L94.5219 61.8009L92.7744 62.7736L93.7472 64.5211L95.4947 63.5483ZM96.4675 65.2958L94.72 66.2686L95.6928 68.0161L97.4403 67.0433L96.4675 65.2958ZM97.3412 64.8094L96.3684 63.062L96.3684 63.062L97.3412 64.8094ZM96.3684 73.062L97.3412 74.8094L97.3412 74.8094L96.3684 73.062ZM95.4947 73.5483L94.5219 71.8009L92.7744 72.7736L93.7472 74.5211L95.4947 73.5483ZM96.4675 75.2958L94.72 76.2686L95.6928 78.0161L97.4403 77.0433L96.4675 75.2958ZM97.3412 74.8094L98.314 76.5569L98.314 76.5569L97.3412 74.8094ZM96.3684 83.062L97.3412 84.8094L97.3412 84.8094L96.3684 83.062ZM95.4947 83.5483L94.5219 81.8009L92.7744 82.7736L93.7472 84.5211L95.4947 83.5483ZM96.4675 85.2958L94.72 86.2686L95.6928 88.0161L97.4403 87.0433L96.4675 85.2958ZM97.3412 84.8094L98.314 86.5569L98.314 86.5569L97.3412 84.8094ZM63.4946 85.5483L62.5216 87.2957L64.2689 88.2687L65.2419 86.5213L63.4946 85.5483ZM64.4675 83.801L66.2149 84.774L67.1879 83.0266L65.4405 82.0536L64.4675 83.801ZM63.4946 75.5483L62.5216 77.2957L64.2689 78.2687L65.2419 76.5213L63.4946 75.5483ZM64.4675 73.801L66.2149 74.774L67.1879 73.0266L65.4405 72.0536L64.4675 73.801ZM63.4946 65.5483L62.5216 67.2957L64.2689 68.2687L65.2419 66.5213L63.4946 65.5483ZM64.4675 63.801L66.2149 64.774L67.1879 63.0266L65.4405 62.0536L64.4675 63.801ZM80.9637 57.4482L114.964 38.7525L113.036 35.2475L79.0363 53.9431L80.9637 57.4482ZM45.0363 38.7525L79.0363 57.4482L80.9637 53.9431L46.9637 35.2475L45.0363 38.7525ZM48 53.5178V37H44V53.5178H48ZM46.973 51.7704L24.946 39.5053L23 43L45.027 55.2652L46.973 51.7704ZM22.2256 40.2796L21.2526 42.027L24.7474 43.973L25.7204 42.2256L22.2256 40.2796ZM22.027 44.7474L45.027 57.5543L46.973 54.0596L23.973 41.2526L22.027 44.7474ZM48 63.5178V55.807H44V63.5178H48ZM23 53L45.027 65.2652L46.973 61.7704L24.946 49.5053L23 53ZM24.7474 53.973L25.7204 52.2256L22.2256 50.2796L21.2526 52.027L24.7474 53.973ZM46.973 64.0596L23.973 51.2526L22.027 54.7474L45.027 67.5543L46.973 64.0596ZM48 73.5178V65.807H44V73.5178H48ZM46.973 71.7704L24.946 59.5053L23 63L45.027 75.2652L46.973 71.7704ZM22.2256 60.2796L21.2526 62.027L24.7474 63.973L25.7204 62.2256L22.2256 60.2796ZM22.027 64.7474L45.027 77.5543L46.973 74.0596L23.973 61.2526L22.027 64.7474ZM48 88.1014V75.807H44V88.1014H48ZM81.4325 121.604L47.4325 86.7058L44.5675 89.4971L78.5675 124.396L81.4325 121.604ZM112.567 86.7058L78.5675 121.604L81.4325 124.396L115.433 89.4971L112.567 86.7058ZM112 75.5359V88.1014H116V75.5359H112ZM135.126 61.4864L113.027 73.7884L114.973 77.2834L137.072 64.9814L135.126 61.4864ZM136 61L135.126 61.4864L137.072 64.9814L137.946 64.495L136 61ZM134.253 61.9728L135.225 63.7203L138.72 61.7747L137.747 60.0272L134.253 61.9728ZM136.099 63.2339L136.973 62.7475L135.027 59.2525L134.153 59.7389L136.099 63.2339ZM114.973 74.9944L136.099 63.2339L134.153 59.7389L113.027 71.4994L114.973 74.9944ZM112 65.5359V73.2469H116V65.5359H112ZM114.973 67.2834L137.072 54.9814L135.126 51.4864L113.027 63.7884L114.973 67.2834ZM137.072 54.9814L137.946 54.495L136 51L135.126 51.4864L137.072 54.9814ZM138.72 51.7747L137.747 50.0272L134.253 51.9728L135.225 53.7203L138.72 51.7747ZM135.027 49.2525L134.153 49.7389L136.099 53.2339L136.973 52.7475L135.027 49.2525ZM134.153 49.7389L113.027 61.4994L114.973 64.9944L136.099 53.2339L134.153 49.7389ZM112 55.5359V63.2469H116V55.5359H112ZM114.973 57.2834L137.072 44.9814L135.126 41.4864L113.027 53.7884L114.973 57.2834ZM137.072 44.9814L137.946 44.495L136 41L135.126 41.4864L137.072 44.9814ZM138.72 41.7747L137.747 40.0272L134.253 41.9728L135.225 43.7203L138.72 41.7747ZM135.027 39.2525L134.153 39.7389L136.099 43.2339L136.973 42.7475L135.027 39.2525ZM134.153 39.7389L113.027 51.4994L114.973 54.9944L136.099 43.2339L134.153 39.7389ZM112 37V53.2469H116V37H112ZM113.027 51.4994L95.3957 61.3145L97.3412 64.8094L114.973 54.9944L113.027 51.4994ZM95.3957 61.3145L94.5219 61.8009L96.4675 65.2958L97.3412 64.8094L95.3957 61.3145ZM93.7472 64.5211L94.72 66.2686L98.215 64.323L97.2422 62.5756L93.7472 64.5211ZM97.4403 67.0433L98.314 66.5569L96.3684 63.062L95.4947 63.5483L97.4403 67.0433ZM98.314 66.5569L114.973 57.2834L113.027 53.7884L96.3684 63.062L98.314 66.5569ZM112 53.2469V55.5359H116V53.2469H112ZM113.027 61.4994L95.3957 71.3145L97.3412 74.8094L114.973 64.9944L113.027 61.4994ZM95.3957 71.3145L94.5219 71.8009L96.4675 75.2958L97.3412 74.8094L95.3957 71.3145ZM93.7472 74.5211L94.72 76.2686L98.215 74.323L97.2422 72.5756L93.7472 74.5211ZM97.4403 77.0433L98.314 76.5569L96.3684 73.062L95.4947 73.5483L97.4403 77.0433ZM98.314 76.5569L114.973 67.2834L113.027 63.7884L96.3684 73.062L98.314 76.5569ZM112 63.2469V65.5359H116V63.2469H112ZM97.3412 84.8094L114.973 74.9944L113.027 71.4994L95.3957 81.3145L97.3412 84.8094ZM96.4675 85.2958L97.3412 84.8094L95.3957 81.3145L94.5219 81.8009L96.4675 85.2958ZM98.215 84.323L97.2422 82.5756L93.7472 84.5211L94.72 86.2686L98.215 84.323ZM96.3684 83.062L95.4947 83.5483L97.4403 87.0433L98.314 86.5569L96.3684 83.062ZM113.027 73.7884L96.3684 83.062L98.314 86.5569L114.973 77.2834L113.027 73.7884ZM112 73.2469V75.5359H116V73.2469H112ZM45.027 77.5543L62.5216 87.2957L64.4675 83.801L46.973 74.0596L45.027 77.5543ZM65.2419 86.5213L66.2149 84.774L62.7202 82.828L61.7472 84.5754L65.2419 86.5213ZM65.4405 82.0536L46.973 71.7704L45.027 75.2652L63.4946 85.5483L65.4405 82.0536ZM48 75.807V73.5178H44V75.807H48ZM64.4675 73.801L46.973 64.0596L45.027 67.5543L62.5216 77.2957L64.4675 73.801ZM62.7202 72.828L61.7472 74.5754L65.2419 76.5213L66.2149 74.774L62.7202 72.828ZM45.027 65.2652L63.4946 75.5483L65.4405 72.0536L46.973 61.7704L45.027 65.2652ZM48 65.807V63.5178H44V65.807H48ZM45.027 57.5543L62.5216 67.2957L64.4675 63.801L46.973 54.0596L45.027 57.5543ZM65.2419 66.5213L66.2149 64.774L62.7202 62.828L61.7472 64.5754L65.2419 66.5213ZM65.4405 62.0536L46.973 51.7704L45.027 55.2652L63.4946 65.5483L65.4405 62.0536ZM48 55.807V53.5178H44V55.807H48Z" fill="url(#paint1_angular)" fill-opacity="0.65" style="mix-blend-mode:screen" mask="url(#path-2-inside-1)"/>
<path d="M80 55.6957L79.0363 57.4482L80 57.9781L80.9637 57.4482L80 55.6957ZM114 37H116V33.6178L113.036 35.2475L114 37ZM46 37L46.9637 35.2475L44 33.6178V37H46ZM23.973 41.2526L24.946 39.5053L23.1986 38.5323L22.2256 40.2796L23.973 41.2526ZM23 43L21.2526 42.027L20.2796 43.7744L22.027 44.7474L23 43ZM23.973 51.2526L24.946 49.5053L23.1986 48.5323L22.2256 50.2796L23.973 51.2526ZM23 53L21.2526 52.027L20.2796 53.7744L22.027 54.7474L23 53ZM23.973 61.2526L24.946 59.5053L23.1986 58.5323L22.2256 60.2796L23.973 61.2526ZM23 63L21.2526 62.027L20.2796 63.7744L22.027 64.7474L23 63ZM46 88.1014H44V88.9146L44.5675 89.4971L46 88.1014ZM80 123L78.5675 124.396L80 125.866L81.4325 124.396L80 123ZM114 88.1014L115.433 89.4971L116 88.9146V88.1014H114ZM136.099 63.2339L137.072 64.9814L137.072 64.9814L136.099 63.2339ZM136.973 62.7475L137.946 64.495L139.693 63.5222L138.72 61.7747L136.973 62.7475ZM136 61L137.747 60.0272L136.775 58.2797L135.027 59.2525L136 61ZM135.126 61.4864L136.099 63.2339L136.099 63.2339L135.126 61.4864ZM136.099 53.2339L135.126 51.4864L135.126 51.4864L136.099 53.2339ZM136.973 52.7475L137.946 54.495L139.693 53.5222L138.72 51.7747L136.973 52.7475ZM136 51L137.747 50.0272L136.775 48.2797L135.027 49.2525L136 51ZM135.126 51.4864L134.153 49.7389L134.153 49.7389L135.126 51.4864ZM136.099 43.2339L135.126 41.4864L135.126 41.4864L136.099 43.2339ZM136.973 42.7475L137.946 44.495L139.693 43.5222L138.72 41.7747L136.973 42.7475ZM136 41L137.747 40.0272L136.775 38.2797L135.027 39.2525L136 41ZM135.126 41.4864L134.153 39.7389L134.153 39.7389L135.126 41.4864ZM96.3684 63.062L95.3957 61.3145L95.3957 61.3145L96.3684 63.062ZM95.4947 63.5483L94.5219 61.8009L92.7744 62.7736L93.7472 64.5211L95.4947 63.5483ZM96.4675 65.2958L94.72 66.2686L95.6928 68.0161L97.4403 67.0433L96.4675 65.2958ZM97.3412 64.8094L96.3684 63.062L96.3684 63.062L97.3412 64.8094ZM96.3684 73.062L97.3412 74.8094L97.3412 74.8094L96.3684 73.062ZM95.4947 73.5483L94.5219 71.8009L92.7744 72.7736L93.7472 74.5211L95.4947 73.5483ZM96.4675 75.2958L94.72 76.2686L95.6928 78.0161L97.4403 77.0433L96.4675 75.2958ZM97.3412 74.8094L98.314 76.5569L98.314 76.5569L97.3412 74.8094ZM96.3684 83.062L97.3412 84.8094L97.3412 84.8094L96.3684 83.062ZM95.4947 83.5483L94.5219 81.8009L92.7744 82.7736L93.7472 84.5211L95.4947 83.5483ZM96.4675 85.2958L94.72 86.2686L95.6928 88.0161L97.4403 87.0433L96.4675 85.2958ZM97.3412 84.8094L98.314 86.5569L98.314 86.5569L97.3412 84.8094ZM63.4946 85.5483L62.5216 87.2957L64.2689 88.2687L65.2419 86.5213L63.4946 85.5483ZM64.4675 83.801L66.2149 84.774L67.1879 83.0266L65.4405 82.0536L64.4675 83.801ZM63.4946 75.5483L62.5216 77.2957L64.2689 78.2687L65.2419 76.5213L63.4946 75.5483ZM64.4675 73.801L66.2149 74.774L67.1879 73.0266L65.4405 72.0536L64.4675 73.801ZM63.4946 65.5483L62.5216 67.2957L64.2689 68.2687L65.2419 66.5213L63.4946 65.5483ZM64.4675 63.801L66.2149 64.774L67.1879 63.0266L65.4405 62.0536L64.4675 63.801ZM80.9637 57.4482L114.964 38.7525L113.036 35.2475L79.0363 53.9431L80.9637 57.4482ZM45.0363 38.7525L79.0363 57.4482L80.9637 53.9431L46.9637 35.2475L45.0363 38.7525ZM48 53.5178V37H44V53.5178H48ZM46.973 51.7704L24.946 39.5053L23 43L45.027 55.2652L46.973 51.7704ZM22.2256 40.2796L21.2526 42.027L24.7474 43.973L25.7204 42.2256L22.2256 40.2796ZM22.027 44.7474L45.027 57.5543L46.973 54.0596L23.973 41.2526L22.027 44.7474ZM48 63.5178V55.807H44V63.5178H48ZM23 53L45.027 65.2652L46.973 61.7704L24.946 49.5053L23 53ZM24.7474 53.973L25.7204 52.2256L22.2256 50.2796L21.2526 52.027L24.7474 53.973ZM46.973 64.0596L23.973 51.2526L22.027 54.7474L45.027 67.5543L46.973 64.0596ZM48 73.5178V65.807H44V73.5178H48ZM46.973 71.7704L24.946 59.5053L23 63L45.027 75.2652L46.973 71.7704ZM22.2256 60.2796L21.2526 62.027L24.7474 63.973L25.7204 62.2256L22.2256 60.2796ZM22.027 64.7474L45.027 77.5543L46.973 74.0596L23.973 61.2526L22.027 64.7474ZM48 88.1014V75.807H44V88.1014H48ZM81.4325 121.604L47.4325 86.7058L44.5675 89.4971L78.5675 124.396L81.4325 121.604ZM112.567 86.7058L78.5675 121.604L81.4325 124.396L115.433 89.4971L112.567 86.7058ZM112 75.5359V88.1014H116V75.5359H112ZM135.126 61.4864L113.027 73.7884L114.973 77.2834L137.072 64.9814L135.126 61.4864ZM136 61L135.126 61.4864L137.072 64.9814L137.946 64.495L136 61ZM134.253 61.9728L135.225 63.7203L138.72 61.7747L137.747 60.0272L134.253 61.9728ZM136.099 63.2339L136.973 62.7475L135.027 59.2525L134.153 59.7389L136.099 63.2339ZM114.973 74.9944L136.099 63.2339L134.153 59.7389L113.027 71.4994L114.973 74.9944ZM112 65.5359V73.2469H116V65.5359H112ZM114.973 67.2834L137.072 54.9814L135.126 51.4864L113.027 63.7884L114.973 67.2834ZM137.072 54.9814L137.946 54.495L136 51L135.126 51.4864L137.072 54.9814ZM138.72 51.7747L137.747 50.0272L134.253 51.9728L135.225 53.7203L138.72 51.7747ZM135.027 49.2525L134.153 49.7389L136.099 53.2339L136.973 52.7475L135.027 49.2525ZM134.153 49.7389L113.027 61.4994L114.973 64.9944L136.099 53.2339L134.153 49.7389ZM112 55.5359V63.2469H116V55.5359H112ZM114.973 57.2834L137.072 44.9814L135.126 41.4864L113.027 53.7884L114.973 57.2834ZM137.072 44.9814L137.946 44.495L136 41L135.126 41.4864L137.072 44.9814ZM138.72 41.7747L137.747 40.0272L134.253 41.9728L135.225 43.7203L138.72 41.7747ZM135.027 39.2525L134.153 39.7389L136.099 43.2339L136.973 42.7475L135.027 39.2525ZM134.153 39.7389L113.027 51.4994L114.973 54.9944L136.099 43.2339L134.153 39.7389ZM112 37V53.2469H116V37H112ZM113.027 51.4994L95.3957 61.3145L97.3412 64.8094L114.973 54.9944L113.027 51.4994ZM95.3957 61.3145L94.5219 61.8009L96.4675 65.2958L97.3412 64.8094L95.3957 61.3145ZM93.7472 64.5211L94.72 66.2686L98.215 64.323L97.2422 62.5756L93.7472 64.5211ZM97.4403 67.0433L98.314 66.5569L96.3684 63.062L95.4947 63.5483L97.4403 67.0433ZM98.314 66.5569L114.973 57.2834L113.027 53.7884L96.3684 63.062L98.314 66.5569ZM112 53.2469V55.5359H116V53.2469H112ZM113.027 61.4994L95.3957 71.3145L97.3412 74.8094L114.973 64.9944L113.027 61.4994ZM95.3957 71.3145L94.5219 71.8009L96.4675 75.2958L97.3412 74.8094L95.3957 71.3145ZM93.7472 74.5211L94.72 76.2686L98.215 74.323L97.2422 72.5756L93.7472 74.5211ZM97.4403 77.0433L98.314 76.5569L96.3684 73.062L95.4947 73.5483L97.4403 77.0433ZM98.314 76.5569L114.973 67.2834L113.027 63.7884L96.3684 73.062L98.314 76.5569ZM112 63.2469V65.5359H116V63.2469H112ZM97.3412 84.8094L114.973 74.9944L113.027 71.4994L95.3957 81.3145L97.3412 84.8094ZM96.4675 85.2958L97.3412 84.8094L95.3957 81.3145L94.5219 81.8009L96.4675 85.2958ZM98.215 84.323L97.2422 82.5756L93.7472 84.5211L94.72 86.2686L98.215 84.323ZM96.3684 83.062L95.4947 83.5483L97.4403 87.0433L98.314 86.5569L96.3684 83.062ZM113.027 73.7884L96.3684 83.062L98.314 86.5569L114.973 77.2834L113.027 73.7884ZM112 73.2469V75.5359H116V73.2469H112ZM45.027 77.5543L62.5216 87.2957L64.4675 83.801L46.973 74.0596L45.027 77.5543ZM65.2419 86.5213L66.2149 84.774L62.7202 82.828L61.7472 84.5754L65.2419 86.5213ZM65.4405 82.0536L46.973 71.7704L45.027 75.2652L63.4946 85.5483L65.4405 82.0536ZM48 75.807V73.5178H44V75.807H48ZM64.4675 73.801L46.973 64.0596L45.027 67.5543L62.5216 77.2957L64.4675 73.801ZM62.7202 72.828L61.7472 74.5754L65.2419 76.5213L66.2149 74.774L62.7202 72.828ZM45.027 65.2652L63.4946 75.5483L65.4405 72.0536L46.973 61.7704L45.027 65.2652ZM48 65.807V63.5178H44V65.807H48ZM45.027 57.5543L62.5216 67.2957L64.4675 63.801L46.973 54.0596L45.027 57.5543ZM65.2419 66.5213L66.2149 64.774L62.7202 62.828L61.7472 64.5754L65.2419 66.5213ZM65.4405 62.0536L46.973 51.7704L45.027 55.2652L63.4946 65.5483L65.4405 62.0536ZM48 55.807V53.5178H44V55.807H48Z" fill="url(#paint2_radial)" fill-opacity="0.5" mask="url(#path-2-inside-1)"/>
<path d="M80 55.6957L79.0363 57.4482L80 57.9781L80.9637 57.4482L80 55.6957ZM114 37H116V33.6178L113.036 35.2475L114 37ZM46 37L46.9637 35.2475L44 33.6178V37H46ZM23.973 41.2526L24.946 39.5053L23.1986 38.5323L22.2256 40.2796L23.973 41.2526ZM23 43L21.2526 42.027L20.2796 43.7744L22.027 44.7474L23 43ZM23.973 51.2526L24.946 49.5053L23.1986 48.5323L22.2256 50.2796L23.973 51.2526ZM23 53L21.2526 52.027L20.2796 53.7744L22.027 54.7474L23 53ZM23.973 61.2526L24.946 59.5053L23.1986 58.5323L22.2256 60.2796L23.973 61.2526ZM23 63L21.2526 62.027L20.2796 63.7744L22.027 64.7474L23 63ZM46 88.1014H44V88.9146L44.5675 89.4971L46 88.1014ZM80 123L78.5675 124.396L80 125.866L81.4325 124.396L80 123ZM114 88.1014L115.433 89.4971L116 88.9146V88.1014H114ZM136.099 63.2339L137.072 64.9814L137.072 64.9814L136.099 63.2339ZM136.973 62.7475L137.946 64.495L139.693 63.5222L138.72 61.7747L136.973 62.7475ZM136 61L137.747 60.0272L136.775 58.2797L135.027 59.2525L136 61ZM135.126 61.4864L136.099 63.2339L136.099 63.2339L135.126 61.4864ZM136.099 53.2339L135.126 51.4864L135.126 51.4864L136.099 53.2339ZM136.973 52.7475L137.946 54.495L139.693 53.5222L138.72 51.7747L136.973 52.7475ZM136 51L137.747 50.0272L136.775 48.2797L135.027 49.2525L136 51ZM135.126 51.4864L134.153 49.7389L134.153 49.7389L135.126 51.4864ZM136.099 43.2339L135.126 41.4864L135.126 41.4864L136.099 43.2339ZM136.973 42.7475L137.946 44.495L139.693 43.5222L138.72 41.7747L136.973 42.7475ZM136 41L137.747 40.0272L136.775 38.2797L135.027 39.2525L136 41ZM135.126 41.4864L134.153 39.7389L134.153 39.7389L135.126 41.4864ZM96.3684 63.062L95.3957 61.3145L95.3957 61.3145L96.3684 63.062ZM95.4947 63.5483L94.5219 61.8009L92.7744 62.7736L93.7472 64.5211L95.4947 63.5483ZM96.4675 65.2958L94.72 66.2686L95.6928 68.0161L97.4403 67.0433L96.4675 65.2958ZM97.3412 64.8094L96.3684 63.062L96.3684 63.062L97.3412 64.8094ZM96.3684 73.062L97.3412 74.8094L97.3412 74.8094L96.3684 73.062ZM95.4947 73.5483L94.5219 71.8009L92.7744 72.7736L93.7472 74.5211L95.4947 73.5483ZM96.4675 75.2958L94.72 76.2686L95.6928 78.0161L97.4403 77.0433L96.4675 75.2958ZM97.3412 74.8094L98.314 76.5569L98.314 76.5569L97.3412 74.8094ZM96.3684 83.062L97.3412 84.8094L97.3412 84.8094L96.3684 83.062ZM95.4947 83.5483L94.5219 81.8009L92.7744 82.7736L93.7472 84.5211L95.4947 83.5483ZM96.4675 85.2958L94.72 86.2686L95.6928 88.0161L97.4403 87.0433L96.4675 85.2958ZM97.3412 84.8094L98.314 86.5569L98.314 86.5569L97.3412 84.8094ZM63.4946 85.5483L62.5216 87.2957L64.2689 88.2687L65.2419 86.5213L63.4946 85.5483ZM64.4675 83.801L66.2149 84.774L67.1879 83.0266L65.4405 82.0536L64.4675 83.801ZM63.4946 75.5483L62.5216 77.2957L64.2689 78.2687L65.2419 76.5213L63.4946 75.5483ZM64.4675 73.801L66.2149 74.774L67.1879 73.0266L65.4405 72.0536L64.4675 73.801ZM63.4946 65.5483L62.5216 67.2957L64.2689 68.2687L65.2419 66.5213L63.4946 65.5483ZM64.4675 63.801L66.2149 64.774L67.1879 63.0266L65.4405 62.0536L64.4675 63.801ZM80.9637 57.4482L114.964 38.7525L113.036 35.2475L79.0363 53.9431L80.9637 57.4482ZM45.0363 38.7525L79.0363 57.4482L80.9637 53.9431L46.9637 35.2475L45.0363 38.7525ZM48 53.5178V37H44V53.5178H48ZM46.973 51.7704L24.946 39.5053L23 43L45.027 55.2652L46.973 51.7704ZM22.2256 40.2796L21.2526 42.027L24.7474 43.973L25.7204 42.2256L22.2256 40.2796ZM22.027 44.7474L45.027 57.5543L46.973 54.0596L23.973 41.2526L22.027 44.7474ZM48 63.5178V55.807H44V63.5178H48ZM23 53L45.027 65.2652L46.973 61.7704L24.946 49.5053L23 53ZM24.7474 53.973L25.7204 52.2256L22.2256 50.2796L21.2526 52.027L24.7474 53.973ZM46.973 64.0596L23.973 51.2526L22.027 54.7474L45.027 67.5543L46.973 64.0596ZM48 73.5178V65.807H44V73.5178H48ZM46.973 71.7704L24.946 59.5053L23 63L45.027 75.2652L46.973 71.7704ZM22.2256 60.2796L21.2526 62.027L24.7474 63.973L25.7204 62.2256L22.2256 60.2796ZM22.027 64.7474L45.027 77.5543L46.973 74.0596L23.973 61.2526L22.027 64.7474ZM48 88.1014V75.807H44V88.1014H48ZM81.4325 121.604L47.4325 86.7058L44.5675 89.4971L78.5675 124.396L81.4325 121.604ZM112.567 86.7058L78.5675 121.604L81.4325 124.396L115.433 89.4971L112.567 86.7058ZM112 75.5359V88.1014H116V75.5359H112ZM135.126 61.4864L113.027 73.7884L114.973 77.2834L137.072 64.9814L135.126 61.4864ZM136 61L135.126 61.4864L137.072 64.9814L137.946 64.495L136 61ZM134.253 61.9728L135.225 63.7203L138.72 61.7747L137.747 60.0272L134.253 61.9728ZM136.099 63.2339L136.973 62.7475L135.027 59.2525L134.153 59.7389L136.099 63.2339ZM114.973 74.9944L136.099 63.2339L134.153 59.7389L113.027 71.4994L114.973 74.9944ZM112 65.5359V73.2469H116V65.5359H112ZM114.973 67.2834L137.072 54.9814L135.126 51.4864L113.027 63.7884L114.973 67.2834ZM137.072 54.9814L137.946 54.495L136 51L135.126 51.4864L137.072 54.9814ZM138.72 51.7747L137.747 50.0272L134.253 51.9728L135.225 53.7203L138.72 51.7747ZM135.027 49.2525L134.153 49.7389L136.099 53.2339L136.973 52.7475L135.027 49.2525ZM134.153 49.7389L113.027 61.4994L114.973 64.9944L136.099 53.2339L134.153 49.7389ZM112 55.5359V63.2469H116V55.5359H112ZM114.973 57.2834L137.072 44.9814L135.126 41.4864L113.027 53.7884L114.973 57.2834ZM137.072 44.9814L137.946 44.495L136 41L135.126 41.4864L137.072 44.9814ZM138.72 41.7747L137.747 40.0272L134.253 41.9728L135.225 43.7203L138.72 41.7747ZM135.027 39.2525L134.153 39.7389L136.099 43.2339L136.973 42.7475L135.027 39.2525ZM134.153 39.7389L113.027 51.4994L114.973 54.9944L136.099 43.2339L134.153 39.7389ZM112 37V53.2469H116V37H112ZM113.027 51.4994L95.3957 61.3145L97.3412 64.8094L114.973 54.9944L113.027 51.4994ZM95.3957 61.3145L94.5219 61.8009L96.4675 65.2958L97.3412 64.8094L95.3957 61.3145ZM93.7472 64.5211L94.72 66.2686L98.215 64.323L97.2422 62.5756L93.7472 64.5211ZM97.4403 67.0433L98.314 66.5569L96.3684 63.062L95.4947 63.5483L97.4403 67.0433ZM98.314 66.5569L114.973 57.2834L113.027 53.7884L96.3684 63.062L98.314 66.5569ZM112 53.2469V55.5359H116V53.2469H112ZM113.027 61.4994L95.3957 71.3145L97.3412 74.8094L114.973 64.9944L113.027 61.4994ZM95.3957 71.3145L94.5219 71.8009L96.4675 75.2958L97.3412 74.8094L95.3957 71.3145ZM93.7472 74.5211L94.72 76.2686L98.215 74.323L97.2422 72.5756L93.7472 74.5211ZM97.4403 77.0433L98.314 76.5569L96.3684 73.062L95.4947 73.5483L97.4403 77.0433ZM98.314 76.5569L114.973 67.2834L113.027 63.7884L96.3684 73.062L98.314 76.5569ZM112 63.2469V65.5359H116V63.2469H112ZM97.3412 84.8094L114.973 74.9944L113.027 71.4994L95.3957 81.3145L97.3412 84.8094ZM96.4675 85.2958L97.3412 84.8094L95.3957 81.3145L94.5219 81.8009L96.4675 85.2958ZM98.215 84.323L97.2422 82.5756L93.7472 84.5211L94.72 86.2686L98.215 84.323ZM96.3684 83.062L95.4947 83.5483L97.4403 87.0433L98.314 86.5569L96.3684 83.062ZM113.027 73.7884L96.3684 83.062L98.314 86.5569L114.973 77.2834L113.027 73.7884ZM112 73.2469V75.5359H116V73.2469H112ZM45.027 77.5543L62.5216 87.2957L64.4675 83.801L46.973 74.0596L45.027 77.5543ZM65.2419 86.5213L66.2149 84.774L62.7202 82.828L61.7472 84.5754L65.2419 86.5213ZM65.4405 82.0536L46.973 71.7704L45.027 75.2652L63.4946 85.5483L65.4405 82.0536ZM48 75.807V73.5178H44V75.807H48ZM64.4675 73.801L46.973 64.0596L45.027 67.5543L62.5216 77.2957L64.4675 73.801ZM62.7202 72.828L61.7472 74.5754L65.2419 76.5213L66.2149 74.774L62.7202 72.828ZM45.027 65.2652L63.4946 75.5483L65.4405 72.0536L46.973 61.7704L45.027 65.2652ZM48 65.807V63.5178H44V65.807H48ZM45.027 57.5543L62.5216 67.2957L64.4675 63.801L46.973 54.0596L45.027 57.5543ZM65.2419 66.5213L66.2149 64.774L62.7202 62.828L61.7472 64.5754L65.2419 66.5213ZM65.4405 62.0536L46.973 51.7704L45.027 55.2652L63.4946 65.5483L65.4405 62.0536ZM48 55.807V53.5178H44V55.807H48Z" fill="url(#paint3_linear)" fill-opacity="0.8" style="mix-blend-mode:lighten" mask="url(#path-2-inside-1)"/>
<path d="M79.045 39.3659L80 39.885L80.955 39.3659L138 8.36324V93.3104L80 152.151L22 93.3104V8.36324L79.045 39.3659Z" stroke="#FF760D" stroke-width="4"/>
<path d="M25.04 140.18C23.924 140.18 22.544 140.072 20.9 139.856V137.714C22.94 138.026 24.332 138.182 25.076 138.182C26.636 138.182 27.416 137.78 27.416 136.976V136.22C27.416 135.836 27.302 135.542 27.074 135.338C26.858 135.134 26.462 135.032 25.886 135.032H24.518C21.95 135.032 20.666 134.012 20.666 131.972V131.108C20.666 130.088 21.092 129.338 21.944 128.858C22.796 128.378 24.146 128.138 25.994 128.138C26.954 128.138 28.172 128.216 29.648 128.372V130.46C27.836 130.244 26.588 130.136 25.904 130.136C24.956 130.136 24.32 130.214 23.996 130.37C23.648 130.538 23.474 130.802 23.474 131.162V131.99C23.474 132.602 23.99 132.908 25.022 132.908H26.426C27.758 132.908 28.724 133.154 29.324 133.646C29.924 134.138 30.224 134.888 30.224 135.896V136.67C30.224 138.062 29.726 139.004 28.73 139.496C28.25 139.748 27.716 139.922 27.128 140.018C26.552 140.126 25.856 140.18 25.04 140.18ZM38.656 128.318H43.336C44.476 128.318 45.376 128.396 46.036 128.552C46.708 128.708 47.194 128.984 47.494 129.38C47.806 129.764 47.962 130.304 47.962 131V133.214C47.962 133.982 47.794 134.582 47.458 135.014C47.134 135.446 46.612 135.752 45.892 135.932C45.184 136.112 44.224 136.202 43.012 136.202H41.464V140H38.656V128.318ZM43.246 134.276C43.978 134.276 44.494 134.192 44.794 134.024C45.094 133.844 45.244 133.544 45.244 133.124V131.252C45.244 130.868 45.1 130.616 44.812 130.496C44.536 130.376 44.002 130.316 43.21 130.316H41.464V134.276H43.246ZM61.6952 140.18C61.0472 140.18 60.4472 140.138 59.8952 140.054C59.3552 139.97 58.7912 139.826 58.2032 139.622C57.5672 139.406 57.0692 139.058 56.7092 138.578C56.3492 138.086 56.1692 137.492 56.1692 136.796V131.684C56.1692 131.108 56.2952 130.592 56.5472 130.136C56.8112 129.68 57.1472 129.32 57.5552 129.056C57.9152 128.828 58.3592 128.636 58.8872 128.48C59.4152 128.324 59.9072 128.228 60.3632 128.192C60.7832 128.156 61.2272 128.138 61.6952 128.138C62.2472 128.138 62.7272 128.162 63.1352 128.21C63.5432 128.246 63.9992 128.33 64.5032 128.462C65.0792 128.63 65.5532 128.834 65.9252 129.074C66.2972 129.314 66.6092 129.65 66.8612 130.082C67.1252 130.526 67.2572 131.06 67.2572 131.684V136.796C67.2572 137.444 67.0832 138.002 66.7352 138.47C66.3992 138.938 65.9312 139.292 65.3312 139.532C64.2512 139.964 63.0392 140.18 61.6952 140.18ZM61.7312 138.182C62.1272 138.182 62.4572 138.17 62.7212 138.146C62.9972 138.11 63.2792 138.05 63.5672 137.966C63.8552 137.882 64.0712 137.744 64.2152 137.552C64.3712 137.348 64.4492 137.096 64.4492 136.796V131.666C64.4492 131.114 64.2272 130.724 63.7832 130.496C63.3392 130.256 62.6492 130.136 61.7132 130.136C60.7772 130.136 60.0872 130.25 59.6432 130.478C59.1992 130.706 58.9772 131.102 58.9772 131.666V136.796C58.9772 137.096 59.0552 137.348 59.2112 137.552C59.3672 137.744 59.5952 137.882 59.8952 137.966C60.1832 138.05 60.4592 138.11 60.7232 138.146C60.9992 138.17 61.3352 138.182 61.7312 138.182ZM78.6969 130.316H75.0969V128.318H85.0869V130.316H81.5049V140H78.6969V130.316ZM95.882 130.316H92.282V128.318H102.272V130.316H98.69V140H95.882V130.316ZM110.367 128.318H119.277V130.316H113.175V132.998H118.683V134.996H113.175V138.002H119.457V140H110.367V128.318ZM127.833 128.318H133.089C134.649 128.318 135.777 128.51 136.473 128.894C137.169 129.266 137.517 129.896 137.517 130.784V132.836C137.517 133.52 137.271 134.06 136.779 134.456C136.299 134.84 135.657 135.086 134.853 135.194L138.237 140H134.997L131.937 135.41H130.641V140H127.833V128.318ZM133.053 133.556C133.713 133.556 134.163 133.472 134.403 133.304C134.643 133.124 134.763 132.782 134.763 132.278V131.45C134.763 131.018 134.631 130.724 134.367 130.568C134.115 130.4 133.677 130.316 133.053 130.316H130.641V133.556H133.053Z" fill="black"/>
<path d="M20.9 139.856H20.4V140.295L20.8349 140.352L20.9 139.856ZM20.9 137.714L20.9756 137.22L20.4 137.132V137.714H20.9ZM27.074 135.338L26.7306 135.702L26.7406 135.711L27.074 135.338ZM21.944 128.858L22.1894 129.294L22.1894 129.294L21.944 128.858ZM29.648 128.372H30.148V127.922L29.7006 127.875L29.648 128.372ZM29.648 130.46L29.5888 130.956L30.148 131.023V130.46H29.648ZM23.996 130.37L23.7791 129.919L23.7786 129.92L23.996 130.37ZM29.324 133.646L29.007 134.033L29.007 134.033L29.324 133.646ZM28.73 139.496L28.5085 139.048L28.4976 139.053L28.73 139.496ZM27.128 140.018L27.0474 139.524L27.0359 139.527L27.128 140.018ZM25.04 139.68C23.9535 139.68 22.5968 139.575 20.9651 139.36L20.8349 140.352C22.4912 140.569 23.8945 140.68 25.04 140.68V139.68ZM21.4 139.856V137.714H20.4V139.856H21.4ZM20.8244 138.208C22.8603 138.52 24.2884 138.682 25.076 138.682V137.682C24.3756 137.682 23.0197 137.532 20.9756 137.22L20.8244 138.208ZM25.076 138.682C25.8827 138.682 26.5637 138.581 27.0601 138.325C27.3155 138.193 27.5352 138.014 27.6896 137.775C27.8455 137.534 27.916 137.261 27.916 136.976H26.916C26.916 137.093 26.889 137.172 26.8499 137.232C26.8093 137.295 26.7365 137.367 26.6019 137.436C26.3183 137.582 25.8293 137.682 25.076 137.682V138.682ZM27.916 136.976V136.22H26.916V136.976H27.916ZM27.916 136.22C27.916 135.733 27.7673 135.287 27.4074 134.965L26.7406 135.711C26.8367 135.797 26.916 135.939 26.916 136.22H27.916ZM27.4173 134.974C27.0532 134.631 26.4849 134.532 25.886 134.532V135.532C26.4391 135.532 26.6628 135.637 26.7307 135.702L27.4173 134.974ZM25.886 134.532H24.518V135.532H25.886V134.532ZM24.518 134.532C23.2868 134.532 22.4558 134.285 21.94 133.875C21.4461 133.483 21.166 132.88 21.166 131.972H20.166C20.166 133.104 20.5279 134.031 21.318 134.659C22.0862 135.269 23.1812 135.532 24.518 135.532V134.532ZM21.166 131.972V131.108H20.166V131.972H21.166ZM21.166 131.108C21.166 130.259 21.5029 129.68 22.1894 129.294L21.6986 128.422C20.6811 128.996 20.166 129.917 20.166 131.108H21.166ZM22.1894 129.294C22.9256 128.879 24.168 128.638 25.994 128.638V127.638C24.124 127.638 22.6664 127.877 21.6986 128.422L22.1894 129.294ZM25.994 128.638C26.9297 128.638 28.1286 128.714 29.5954 128.869L29.7006 127.875C28.2154 127.718 26.9783 127.638 25.994 127.638V128.638ZM29.148 128.372V130.46H30.148V128.372H29.148ZM29.7072 129.964C27.8975 129.748 26.6217 129.636 25.904 129.636V130.636C26.5543 130.636 27.7745 130.74 29.5888 130.956L29.7072 129.964ZM25.904 129.636C25.4183 129.636 25.0004 129.656 24.6551 129.698C24.3184 129.74 24.0145 129.806 23.7791 129.919L24.2129 130.821C24.3015 130.778 24.4776 130.727 24.7769 130.691C25.0676 130.655 25.4417 130.636 25.904 130.636V129.636ZM23.7786 129.92C23.5414 130.034 23.3337 130.196 23.187 130.419C23.039 130.643 22.974 130.898 22.974 131.162H23.974C23.974 131.066 23.996 131.009 24.022 130.969C24.0493 130.928 24.1026 130.874 24.2134 130.82L23.7786 129.92ZM22.974 131.162V131.99H23.974V131.162H22.974ZM22.974 131.99C22.974 132.468 23.1924 132.863 23.606 133.109C23.9785 133.33 24.4729 133.408 25.022 133.408V132.408C24.5391 132.408 24.2595 132.333 24.116 132.248C24.0136 132.188 23.974 132.124 23.974 131.99H22.974ZM25.022 133.408H26.426V132.408H25.022V133.408ZM26.426 133.408C27.7176 133.408 28.541 133.651 29.007 134.033L29.641 133.259C28.907 132.657 27.7984 132.408 26.426 132.408V133.408ZM29.007 134.033C29.4584 134.403 29.724 134.99 29.724 135.896H30.724C30.724 134.786 30.3896 133.873 29.641 133.259L29.007 134.033ZM29.724 135.896V136.67H30.724V135.896H29.724ZM29.724 136.67C29.724 137.929 29.2877 138.663 28.5086 139.048L28.9514 139.944C30.1643 139.345 30.724 138.195 30.724 136.67H29.724ZM28.4976 139.053C28.0696 139.278 27.5876 139.436 27.0474 139.525L27.2086 140.511C27.8444 140.408 28.4304 140.218 28.9624 139.939L28.4976 139.053ZM27.0359 139.527C26.4994 139.627 25.8361 139.68 25.04 139.68V140.68C25.8759 140.68 26.6046 140.625 27.2201 140.509L27.0359 139.527ZM38.656 128.318V127.818H38.156V128.318H38.656ZM46.036 128.552L45.921 129.039L45.923 129.039L46.036 128.552ZM47.494 129.38L47.0955 129.682L47.1006 129.689L47.106 129.695L47.494 129.38ZM47.458 135.014L47.0633 134.707L47.058 134.714L47.458 135.014ZM45.892 135.932L45.7707 135.447L45.7688 135.447L45.892 135.932ZM41.464 136.202V135.702H40.964V136.202H41.464ZM41.464 140V140.5H41.964V140H41.464ZM38.656 140H38.156V140.5H38.656V140ZM44.794 134.024L45.0383 134.46L45.0448 134.457L45.0513 134.453L44.794 134.024ZM44.812 130.496L44.6126 130.955L44.6197 130.958L44.812 130.496ZM41.464 130.316V129.816H40.964V130.316H41.464ZM41.464 134.276H40.964V134.776H41.464V134.276ZM38.656 128.818H43.336V127.818H38.656V128.818ZM43.336 128.818C44.4597 128.818 45.3156 128.895 45.921 129.039L46.151 128.065C45.4365 127.897 44.4924 127.818 43.336 127.818V128.818ZM45.923 129.039C46.525 129.179 46.8892 129.41 47.0955 129.682L47.8926 129.078C47.4989 128.558 46.8911 128.237 46.1491 128.065L45.923 129.039ZM47.106 129.695C47.3211 129.96 47.462 130.373 47.462 131H48.462C48.462 130.235 48.2909 129.568 47.8821 129.065L47.106 129.695ZM47.462 131V133.214H48.462V131H47.462ZM47.462 133.214C47.462 133.915 47.3083 134.392 47.0633 134.707L47.8527 135.321C48.2797 134.772 48.462 134.049 48.462 133.214H47.462ZM47.058 134.714C46.8248 135.025 46.4207 135.284 45.7707 135.447L46.0133 136.417C46.8033 136.22 47.4433 135.867 47.858 135.314L47.058 134.714ZM45.7688 135.447C45.1188 135.613 44.2059 135.702 43.012 135.702V136.702C44.2422 136.702 45.2493 136.611 46.0152 136.417L45.7688 135.447ZM43.012 135.702H41.464V136.702H43.012V135.702ZM40.964 136.202V140H41.964V136.202H40.964ZM41.464 139.5H38.656V140.5H41.464V139.5ZM39.156 140V128.318H38.156V140H39.156ZM43.246 134.776C43.9874 134.776 44.6175 134.696 45.0383 134.46L44.5497 133.588C44.3706 133.688 43.9687 133.776 43.246 133.776V134.776ZM45.0513 134.453C45.5342 134.163 45.744 133.678 45.744 133.124H44.744C44.744 133.41 44.6539 133.525 44.5368 133.595L45.0513 134.453ZM45.744 133.124V131.252H44.744V133.124H45.744ZM45.744 131.252C45.744 131 45.6971 130.749 45.5701 130.527C45.4391 130.298 45.2421 130.134 45.0043 130.034L44.6197 130.958C44.6699 130.978 44.6889 131 44.7019 131.023C44.719 131.053 44.744 131.12 44.744 131.252H45.744ZM45.0114 130.037C44.8052 129.948 44.5445 129.896 44.2603 129.864C43.9684 129.831 43.6168 129.816 43.21 129.816V130.816C43.5952 130.816 43.9067 130.831 44.1487 130.858C44.3986 130.886 44.5428 130.924 44.6127 130.955L45.0114 130.037ZM43.21 129.816H41.464V130.816H43.21V129.816ZM40.964 130.316V134.276H41.964V130.316H40.964ZM41.464 134.776H43.246V133.776H41.464V134.776ZM59.8952 140.054L59.8183 140.548L59.82 140.548L59.8952 140.054ZM58.2032 139.622L58.3671 139.15L58.364 139.149L58.2032 139.622ZM56.7092 138.578L56.3056 138.873L56.3092 138.878L56.7092 138.578ZM56.5472 130.136L56.1144 129.885L56.1096 129.894L56.5472 130.136ZM57.5552 129.056L57.2876 128.634L57.2835 128.636L57.5552 129.056ZM58.8872 128.48L59.0288 128.96L59.0288 128.96L58.8872 128.48ZM60.3632 128.192L60.4025 128.69L60.4059 128.69L60.3632 128.192ZM63.1352 128.21L63.0768 128.707L63.084 128.707L63.0912 128.708L63.1352 128.21ZM64.5032 128.462L64.6432 127.982L64.6299 127.978L64.5032 128.462ZM65.9252 129.074L66.1962 128.654L66.1962 128.654L65.9252 129.074ZM66.8612 130.082L66.4293 130.334L66.4314 130.338L66.8612 130.082ZM66.7352 138.47L66.3339 138.172L66.329 138.178L66.7352 138.47ZM65.3312 139.532L65.1455 139.068L65.1455 139.068L65.3312 139.532ZM62.7212 138.146L62.7664 138.644L62.7762 138.643L62.7858 138.642L62.7212 138.146ZM63.5672 137.966L63.4272 137.486L63.4272 137.486L63.5672 137.966ZM64.2152 137.552L63.818 137.248L63.8152 137.252L64.2152 137.552ZM63.7832 130.496L63.5454 130.936L63.5548 130.941L63.7832 130.496ZM59.2112 137.552L58.814 137.856L58.8185 137.862L58.8231 137.867L59.2112 137.552ZM59.8952 137.966L60.0352 137.486L60.03 137.485L59.8952 137.966ZM60.7232 138.146L60.6556 138.641L60.6677 138.643L60.6799 138.644L60.7232 138.146ZM61.6952 139.68C61.0685 139.68 60.4939 139.639 59.9704 139.56L59.82 140.548C60.4004 140.637 61.0259 140.68 61.6952 140.68V139.68ZM59.972 139.56C59.4654 139.481 58.9306 139.345 58.3671 139.15L58.0393 140.094C58.6518 140.307 59.245 140.459 59.8183 140.548L59.972 139.56ZM58.364 139.149C57.8115 138.961 57.4016 138.668 57.1092 138.278L56.3092 138.878C56.7367 139.448 57.3228 139.851 58.0424 140.095L58.364 139.149ZM57.1127 138.283C56.824 137.888 56.6692 137.401 56.6692 136.796H55.6692C55.6692 137.583 55.8743 138.284 56.3057 138.873L57.1127 138.283ZM56.6692 136.796V131.684H55.6692V136.796H56.6692ZM56.6692 131.684C56.6692 131.183 56.7779 130.752 56.9848 130.378L56.1096 129.894C55.8124 130.432 55.6692 131.033 55.6692 131.684H56.6692ZM56.9799 130.387C57.2077 129.993 57.4906 129.693 57.8268 129.476L57.2835 128.636C56.8038 128.947 56.4146 129.367 56.1145 129.885L56.9799 130.387ZM57.8227 129.478C58.1341 129.281 58.533 129.106 59.0288 128.96L58.7455 128C58.1853 128.166 57.6962 128.375 57.2876 128.634L57.8227 129.478ZM59.0288 128.96C59.53 128.811 59.9874 128.723 60.4025 128.69L60.3238 127.694C59.827 127.733 59.3004 127.837 58.7455 128L59.0288 128.96ZM60.4059 128.69C60.8102 128.656 61.2399 128.638 61.6952 128.638V127.638C61.2144 127.638 60.7561 127.656 60.3205 127.694L60.4059 128.69ZM61.6952 128.638C62.2338 128.638 62.6934 128.661 63.0768 128.707L63.1936 127.713C62.7609 127.663 62.2605 127.638 61.6952 127.638V128.638ZM63.0912 128.708C63.465 128.741 63.8927 128.819 64.3765 128.946L64.6299 127.978C64.1056 127.841 63.6214 127.751 63.1791 127.712L63.0912 128.708ZM64.3632 128.942C64.9081 129.101 65.3342 129.288 65.6541 129.494L66.1962 128.654C65.7722 128.38 65.2502 128.159 64.6432 127.982L64.3632 128.942ZM65.6541 129.494C65.9519 129.686 66.2117 129.961 66.4293 130.334L67.2931 129.83C67.0066 129.339 66.6425 128.942 66.1962 128.654L65.6541 129.494ZM66.4314 130.338C66.6407 130.69 66.7572 131.131 66.7572 131.684H67.7572C67.7572 130.989 67.6096 130.362 67.2909 129.826L66.4314 130.338ZM66.7572 131.684V136.796H67.7572V131.684H66.7572ZM66.7572 136.796C66.7572 137.349 66.6107 137.799 66.3339 138.172L67.1364 138.768C67.5556 138.205 67.7572 137.539 67.7572 136.796H66.7572ZM66.329 138.178C66.0551 138.56 65.6681 138.859 65.1455 139.068L65.5169 139.996C66.1942 139.725 66.7432 139.316 67.1413 138.762L66.329 138.178ZM65.1455 139.068C64.133 139.473 62.9853 139.68 61.6952 139.68V140.68C63.093 140.68 64.3694 140.455 65.5169 139.996L65.1455 139.068ZM61.7312 138.682C62.1357 138.682 62.482 138.67 62.7664 138.644L62.6759 137.648C62.4323 137.67 62.1186 137.682 61.7312 137.682V138.682ZM62.7858 138.642C63.0892 138.602 63.3964 138.537 63.7072 138.446L63.4272 137.486C63.1619 137.563 62.9051 137.618 62.6565 137.65L62.7858 138.642ZM63.7072 138.446C64.0727 138.339 64.3915 138.15 64.6152 137.852L63.8152 137.252C63.7508 137.338 63.6377 137.425 63.4272 137.486L63.7072 138.446ZM64.6124 137.856C64.8458 137.55 64.9492 137.187 64.9492 136.796H63.9492C63.9492 137.005 63.8965 137.146 63.818 137.248L64.6124 137.856ZM64.9492 136.796V131.666H63.9492V136.796H64.9492ZM64.9492 131.666C64.9492 131.323 64.8799 130.998 64.7172 130.712C64.5528 130.423 64.31 130.204 64.0116 130.051L63.5548 130.941C63.7004 131.016 63.7905 131.106 63.8481 131.207C63.9074 131.311 63.9492 131.457 63.9492 131.666H64.9492ZM64.0209 130.056C63.465 129.756 62.6725 129.636 61.7132 129.636V130.636C62.6258 130.636 63.2133 130.756 63.5454 130.936L64.0209 130.056ZM61.7132 129.636C60.7557 129.636 59.9674 129.749 59.4148 130.033L59.8716 130.923C60.2069 130.751 60.7986 130.636 61.7132 130.636V129.636ZM59.4148 130.033C59.1144 130.187 58.8713 130.409 58.7075 130.701C58.5457 130.99 58.4772 131.319 58.4772 131.666H59.4772C59.4772 131.449 59.5197 131.298 59.5798 131.191C59.638 131.087 59.7279 130.997 59.8716 130.923L59.4148 130.033ZM58.4772 131.666V136.796H59.4772V131.666H58.4772ZM58.4772 136.796C58.4772 137.187 58.5805 137.55 58.814 137.856L59.6084 137.248C59.5298 137.146 59.4772 137.005 59.4772 136.796H58.4772ZM58.8231 137.867C59.0595 138.158 59.3868 138.343 59.7604 138.447L60.03 137.485C59.8036 137.421 59.6749 137.33 59.5992 137.237L58.8231 137.867ZM59.7552 138.446C60.064 138.536 60.3643 138.602 60.6556 138.641L60.7907 137.651C60.5541 137.618 60.3023 137.564 60.0352 137.486L59.7552 138.446ZM60.6799 138.644C60.9749 138.67 61.3263 138.682 61.7312 138.682V137.682C61.3441 137.682 61.0234 137.67 60.7665 137.648L60.6799 138.644ZM78.6969 130.316H79.1969V129.816H78.6969V130.316ZM75.0969 130.316H74.5969V130.816H75.0969V130.316ZM75.0969 128.318V127.818H74.5969V128.318H75.0969ZM85.0869 128.318H85.5869V127.818H85.0869V128.318ZM85.0869 130.316V130.816H85.5869V130.316H85.0869ZM81.5049 130.316V129.816H81.0049V130.316H81.5049ZM81.5049 140V140.5H82.0049V140H81.5049ZM78.6969 140H78.1969V140.5H78.6969V140ZM78.6969 129.816H75.0969V130.816H78.6969V129.816ZM75.5969 130.316V128.318H74.5969V130.316H75.5969ZM75.0969 128.818H85.0869V127.818H75.0969V128.818ZM84.5869 128.318V130.316H85.5869V128.318H84.5869ZM85.0869 129.816H81.5049V130.816H85.0869V129.816ZM81.0049 130.316V140H82.0049V130.316H81.0049ZM81.5049 139.5H78.6969V140.5H81.5049V139.5ZM79.1969 140V130.316H78.1969V140H79.1969ZM95.882 130.316H96.382V129.816H95.882V130.316ZM92.282 130.316H91.782V130.816H92.282V130.316ZM92.282 128.318V127.818H91.782V128.318H92.282ZM102.272 128.318H102.772V127.818H102.272V128.318ZM102.272 130.316V130.816H102.772V130.316H102.272ZM98.69 130.316V129.816H98.19V130.316H98.69ZM98.69 140V140.5H99.19V140H98.69ZM95.882 140H95.382V140.5H95.882V140ZM95.882 129.816H92.282V130.816H95.882V129.816ZM92.782 130.316V128.318H91.782V130.316H92.782ZM92.282 128.818H102.272V127.818H92.282V128.818ZM101.772 128.318V130.316H102.772V128.318H101.772ZM102.272 129.816H98.69V130.816H102.272V129.816ZM98.19 130.316V140H99.19V130.316H98.19ZM98.69 139.5H95.882V140.5H98.69V139.5ZM96.382 140V130.316H95.382V140H96.382ZM110.367 128.318V127.818H109.867V128.318H110.367ZM119.277 128.318H119.777V127.818H119.277V128.318ZM119.277 130.316V130.816H119.777V130.316H119.277ZM113.175 130.316V129.816H112.675V130.316H113.175ZM113.175 132.998H112.675V133.498H113.175V132.998ZM118.683 132.998H119.183V132.498H118.683V132.998ZM118.683 134.996V135.496H119.183V134.996H118.683ZM113.175 134.996V134.496H112.675V134.996H113.175ZM113.175 138.002H112.675V138.502H113.175V138.002ZM119.457 138.002H119.957V137.502H119.457V138.002ZM119.457 140V140.5H119.957V140H119.457ZM110.367 140H109.867V140.5H110.367V140ZM110.367 128.818H119.277V127.818H110.367V128.818ZM118.777 128.318V130.316H119.777V128.318H118.777ZM119.277 129.816H113.175V130.816H119.277V129.816ZM112.675 130.316V132.998H113.675V130.316H112.675ZM113.175 133.498H118.683V132.498H113.175V133.498ZM118.183 132.998V134.996H119.183V132.998H118.183ZM118.683 134.496H113.175V135.496H118.683V134.496ZM112.675 134.996V138.002H113.675V134.996H112.675ZM113.175 138.502H119.457V137.502H113.175V138.502ZM118.957 138.002V140H119.957V138.002H118.957ZM119.457 139.5H110.367V140.5H119.457V139.5ZM110.867 140V128.318H109.867V140H110.867ZM127.833 128.318V127.818H127.333V128.318H127.833ZM136.473 128.894L136.232 129.332L136.238 129.335L136.473 128.894ZM136.779 134.456L137.092 134.846L137.093 134.846L136.779 134.456ZM134.853 135.194L134.787 134.698L133.97 134.808L134.445 135.482L134.853 135.194ZM138.237 140V140.5H139.201L138.646 139.712L138.237 140ZM134.997 140L134.581 140.277L134.73 140.5H134.997V140ZM131.937 135.41L132.353 135.133L132.205 134.91H131.937V135.41ZM130.641 135.41V134.91H130.141V135.41H130.641ZM130.641 140V140.5H131.141V140H130.641ZM127.833 140H127.333V140.5H127.833V140ZM134.403 133.304L134.69 133.714L134.697 133.709L134.703 133.704L134.403 133.304ZM134.367 130.568L134.09 130.984L134.101 130.992L134.113 130.998L134.367 130.568ZM130.641 130.316V129.816H130.141V130.316H130.641ZM130.641 133.556H130.141V134.056H130.641V133.556ZM127.833 128.818H133.089V127.818H127.833V128.818ZM133.089 128.818C134.632 128.818 135.652 129.012 136.232 129.332L136.715 128.456C135.903 128.008 134.667 127.818 133.089 127.818V128.818ZM136.238 129.335C136.509 129.48 136.696 129.665 136.819 129.887C136.943 130.113 137.017 130.405 137.017 130.784H138.017C138.017 130.275 137.917 129.808 137.694 129.404C137.469 128.996 137.134 128.68 136.709 128.453L136.238 129.335ZM137.017 130.784V132.836H138.017V130.784H137.017ZM137.017 132.836C137.017 133.383 136.829 133.774 136.466 134.066L137.093 134.846C137.714 134.346 138.017 133.657 138.017 132.836H137.017ZM136.467 134.066C136.077 134.377 135.529 134.599 134.787 134.698L134.92 135.69C135.786 135.573 136.522 135.303 137.092 134.846L136.467 134.066ZM134.445 135.482L137.829 140.288L138.646 139.712L135.262 134.906L134.445 135.482ZM138.237 139.5H134.997V140.5H138.237V139.5ZM135.413 139.723L132.353 135.133L131.521 135.687L134.581 140.277L135.413 139.723ZM131.937 134.91H130.641V135.91H131.937V134.91ZM130.141 135.41V140H131.141V135.41H130.141ZM130.641 139.5H127.833V140.5H130.641V139.5ZM128.333 140V128.318H127.333V140H128.333ZM133.053 134.056C133.402 134.056 133.712 134.034 133.978 133.985C134.237 133.936 134.488 133.855 134.69 133.714L134.117 132.894C134.079 132.921 133.984 132.966 133.794 133.001C133.609 133.036 133.365 133.056 133.053 133.056V134.056ZM134.703 133.704C135.135 133.38 135.263 132.834 135.263 132.278H134.263C134.263 132.73 134.152 132.868 134.103 132.904L134.703 133.704ZM135.263 132.278V131.45H134.263V132.278H135.263ZM135.263 131.45C135.263 130.921 135.096 130.418 134.622 130.138L134.113 130.998C134.166 131.03 134.263 131.115 134.263 131.45H135.263ZM134.645 130.152C134.261 129.896 133.691 129.816 133.053 129.816V130.816C133.664 130.816 133.97 130.904 134.09 130.984L134.645 130.152ZM133.053 129.816H130.641V130.816H133.053V129.816ZM130.141 130.316V133.556H131.141V130.316H130.141ZM130.641 134.056H133.053V133.056H130.641V134.056Z" fill="#868686"/>
<path d="M20.9 139.856H20.4V140.295L20.8349 140.352L20.9 139.856ZM20.9 137.714L20.9756 137.22L20.4 137.132V137.714H20.9ZM27.074 135.338L26.7306 135.702L26.7406 135.711L27.074 135.338ZM21.944 128.858L22.1894 129.294L22.1894 129.294L21.944 128.858ZM29.648 128.372H30.148V127.922L29.7006 127.875L29.648 128.372ZM29.648 130.46L29.5888 130.956L30.148 131.023V130.46H29.648ZM23.996 130.37L23.7791 129.919L23.7786 129.92L23.996 130.37ZM29.324 133.646L29.007 134.033L29.007 134.033L29.324 133.646ZM28.73 139.496L28.5085 139.048L28.4976 139.053L28.73 139.496ZM27.128 140.018L27.0474 139.524L27.0359 139.527L27.128 140.018ZM25.04 139.68C23.9535 139.68 22.5968 139.575 20.9651 139.36L20.8349 140.352C22.4912 140.569 23.8945 140.68 25.04 140.68V139.68ZM21.4 139.856V137.714H20.4V139.856H21.4ZM20.8244 138.208C22.8603 138.52 24.2884 138.682 25.076 138.682V137.682C24.3756 137.682 23.0197 137.532 20.9756 137.22L20.8244 138.208ZM25.076 138.682C25.8827 138.682 26.5637 138.581 27.0601 138.325C27.3155 138.193 27.5352 138.014 27.6896 137.775C27.8455 137.534 27.916 137.261 27.916 136.976H26.916C26.916 137.093 26.889 137.172 26.8499 137.232C26.8093 137.295 26.7365 137.367 26.6019 137.436C26.3183 137.582 25.8293 137.682 25.076 137.682V138.682ZM27.916 136.976V136.22H26.916V136.976H27.916ZM27.916 136.22C27.916 135.733 27.7673 135.287 27.4074 134.965L26.7406 135.711C26.8367 135.797 26.916 135.939 26.916 136.22H27.916ZM27.4173 134.974C27.0532 134.631 26.4849 134.532 25.886 134.532V135.532C26.4391 135.532 26.6628 135.637 26.7307 135.702L27.4173 134.974ZM25.886 134.532H24.518V135.532H25.886V134.532ZM24.518 134.532C23.2868 134.532 22.4558 134.285 21.94 133.875C21.4461 133.483 21.166 132.88 21.166 131.972H20.166C20.166 133.104 20.5279 134.031 21.318 134.659C22.0862 135.269 23.1812 135.532 24.518 135.532V134.532ZM21.166 131.972V131.108H20.166V131.972H21.166ZM21.166 131.108C21.166 130.259 21.5029 129.68 22.1894 129.294L21.6986 128.422C20.6811 128.996 20.166 129.917 20.166 131.108H21.166ZM22.1894 129.294C22.9256 128.879 24.168 128.638 25.994 128.638V127.638C24.124 127.638 22.6664 127.877 21.6986 128.422L22.1894 129.294ZM25.994 128.638C26.9297 128.638 28.1286 128.714 29.5954 128.869L29.7006 127.875C28.2154 127.718 26.9783 127.638 25.994 127.638V128.638ZM29.148 128.372V130.46H30.148V128.372H29.148ZM29.7072 129.964C27.8975 129.748 26.6217 129.636 25.904 129.636V130.636C26.5543 130.636 27.7745 130.74 29.5888 130.956L29.7072 129.964ZM25.904 129.636C25.4183 129.636 25.0004 129.656 24.6551 129.698C24.3184 129.74 24.0145 129.806 23.7791 129.919L24.2129 130.821C24.3015 130.778 24.4776 130.727 24.7769 130.691C25.0676 130.655 25.4417 130.636 25.904 130.636V129.636ZM23.7786 129.92C23.5414 130.034 23.3337 130.196 23.187 130.419C23.039 130.643 22.974 130.898 22.974 131.162H23.974C23.974 131.066 23.996 131.009 24.022 130.969C24.0493 130.928 24.1026 130.874 24.2134 130.82L23.7786 129.92ZM22.974 131.162V131.99H23.974V131.162H22.974ZM22.974 131.99C22.974 132.468 23.1924 132.863 23.606 133.109C23.9785 133.33 24.4729 133.408 25.022 133.408V132.408C24.5391 132.408 24.2595 132.333 24.116 132.248C24.0136 132.188 23.974 132.124 23.974 131.99H22.974ZM25.022 133.408H26.426V132.408H25.022V133.408ZM26.426 133.408C27.7176 133.408 28.541 133.651 29.007 134.033L29.641 133.259C28.907 132.657 27.7984 132.408 26.426 132.408V133.408ZM29.007 134.033C29.4584 134.403 29.724 134.99 29.724 135.896H30.724C30.724 134.786 30.3896 133.873 29.641 133.259L29.007 134.033ZM29.724 135.896V136.67H30.724V135.896H29.724ZM29.724 136.67C29.724 137.929 29.2877 138.663 28.5086 139.048L28.9514 139.944C30.1643 139.345 30.724 138.195 30.724 136.67H29.724ZM28.4976 139.053C28.0696 139.278 27.5876 139.436 27.0474 139.525L27.2086 140.511C27.8444 140.408 28.4304 140.218 28.9624 139.939L28.4976 139.053ZM27.0359 139.527C26.4994 139.627 25.8361 139.68 25.04 139.68V140.68C25.8759 140.68 26.6046 140.625 27.2201 140.509L27.0359 139.527ZM38.656 128.318V127.818H38.156V128.318H38.656ZM46.036 128.552L45.921 129.039L45.923 129.039L46.036 128.552ZM47.494 129.38L47.0955 129.682L47.1006 129.689L47.106 129.695L47.494 129.38ZM47.458 135.014L47.0633 134.707L47.058 134.714L47.458 135.014ZM45.892 135.932L45.7707 135.447L45.7688 135.447L45.892 135.932ZM41.464 136.202V135.702H40.964V136.202H41.464ZM41.464 140V140.5H41.964V140H41.464ZM38.656 140H38.156V140.5H38.656V140ZM44.794 134.024L45.0383 134.46L45.0448 134.457L45.0513 134.453L44.794 134.024ZM44.812 130.496L44.6126 130.955L44.6197 130.958L44.812 130.496ZM41.464 130.316V129.816H40.964V130.316H41.464ZM41.464 134.276H40.964V134.776H41.464V134.276ZM38.656 128.818H43.336V127.818H38.656V128.818ZM43.336 128.818C44.4597 128.818 45.3156 128.895 45.921 129.039L46.151 128.065C45.4365 127.897 44.4924 127.818 43.336 127.818V128.818ZM45.923 129.039C46.525 129.179 46.8892 129.41 47.0955 129.682L47.8926 129.078C47.4989 128.558 46.8911 128.237 46.1491 128.065L45.923 129.039ZM47.106 129.695C47.3211 129.96 47.462 130.373 47.462 131H48.462C48.462 130.235 48.2909 129.568 47.8821 129.065L47.106 129.695ZM47.462 131V133.214H48.462V131H47.462ZM47.462 133.214C47.462 133.915 47.3083 134.392 47.0633 134.707L47.8527 135.321C48.2797 134.772 48.462 134.049 48.462 133.214H47.462ZM47.058 134.714C46.8248 135.025 46.4207 135.284 45.7707 135.447L46.0133 136.417C46.8033 136.22 47.4433 135.867 47.858 135.314L47.058 134.714ZM45.7688 135.447C45.1188 135.613 44.2059 135.702 43.012 135.702V136.702C44.2422 136.702 45.2493 136.611 46.0152 136.417L45.7688 135.447ZM43.012 135.702H41.464V136.702H43.012V135.702ZM40.964 136.202V140H41.964V136.202H40.964ZM41.464 139.5H38.656V140.5H41.464V139.5ZM39.156 140V128.318H38.156V140H39.156ZM43.246 134.776C43.9874 134.776 44.6175 134.696 45.0383 134.46L44.5497 133.588C44.3706 133.688 43.9687 133.776 43.246 133.776V134.776ZM45.0513 134.453C45.5342 134.163 45.744 133.678 45.744 133.124H44.744C44.744 133.41 44.6539 133.525 44.5368 133.595L45.0513 134.453ZM45.744 133.124V131.252H44.744V133.124H45.744ZM45.744 131.252C45.744 131 45.6971 130.749 45.5701 130.527C45.4391 130.298 45.2421 130.134 45.0043 130.034L44.6197 130.958C44.6699 130.978 44.6889 131 44.7019 131.023C44.719 131.053 44.744 131.12 44.744 131.252H45.744ZM45.0114 130.037C44.8052 129.948 44.5445 129.896 44.2603 129.864C43.9684 129.831 43.6168 129.816 43.21 129.816V130.816C43.5952 130.816 43.9067 130.831 44.1487 130.858C44.3986 130.886 44.5428 130.924 44.6127 130.955L45.0114 130.037ZM43.21 129.816H41.464V130.816H43.21V129.816ZM40.964 130.316V134.276H41.964V130.316H40.964ZM41.464 134.776H43.246V133.776H41.464V134.776ZM59.8952 140.054L59.8183 140.548L59.82 140.548L59.8952 140.054ZM58.2032 139.622L58.3671 139.15L58.364 139.149L58.2032 139.622ZM56.7092 138.578L56.3056 138.873L56.3092 138.878L56.7092 138.578ZM56.5472 130.136L56.1144 129.885L56.1096 129.894L56.5472 130.136ZM57.5552 129.056L57.2876 128.634L57.2835 128.636L57.5552 129.056ZM58.8872 128.48L59.0288 128.96L59.0288 128.96L58.8872 128.48ZM60.3632 128.192L60.4025 128.69L60.4059 128.69L60.3632 128.192ZM63.1352 128.21L63.0768 128.707L63.084 128.707L63.0912 128.708L63.1352 128.21ZM64.5032 128.462L64.6432 127.982L64.6299 127.978L64.5032 128.462ZM65.9252 129.074L66.1962 128.654L66.1962 128.654L65.9252 129.074ZM66.8612 130.082L66.4293 130.334L66.4314 130.338L66.8612 130.082ZM66.7352 138.47L66.3339 138.172L66.329 138.178L66.7352 138.47ZM65.3312 139.532L65.1455 139.068L65.1455 139.068L65.3312 139.532ZM62.7212 138.146L62.7664 138.644L62.7762 138.643L62.7858 138.642L62.7212 138.146ZM63.5672 137.966L63.4272 137.486L63.4272 137.486L63.5672 137.966ZM64.2152 137.552L63.818 137.248L63.8152 137.252L64.2152 137.552ZM63.7832 130.496L63.5454 130.936L63.5548 130.941L63.7832 130.496ZM59.2112 137.552L58.814 137.856L58.8185 137.862L58.8231 137.867L59.2112 137.552ZM59.8952 137.966L60.0352 137.486L60.03 137.485L59.8952 137.966ZM60.7232 138.146L60.6556 138.641L60.6677 138.643L60.6799 138.644L60.7232 138.146ZM61.6952 139.68C61.0685 139.68 60.4939 139.639 59.9704 139.56L59.82 140.548C60.4004 140.637 61.0259 140.68 61.6952 140.68V139.68ZM59.972 139.56C59.4654 139.481 58.9306 139.345 58.3671 139.15L58.0393 140.094C58.6518 140.307 59.245 140.459 59.8183 140.548L59.972 139.56ZM58.364 139.149C57.8115 138.961 57.4016 138.668 57.1092 138.278L56.3092 138.878C56.7367 139.448 57.3228 139.851 58.0424 140.095L58.364 139.149ZM57.1127 138.283C56.824 137.888 56.6692 137.401 56.6692 136.796H55.6692C55.6692 137.583 55.8743 138.284 56.3057 138.873L57.1127 138.283ZM56.6692 136.796V131.684H55.6692V136.796H56.6692ZM56.6692 131.684C56.6692 131.183 56.7779 130.752 56.9848 130.378L56.1096 129.894C55.8124 130.432 55.6692 131.033 55.6692 131.684H56.6692ZM56.9799 130.387C57.2077 129.993 57.4906 129.693 57.8268 129.476L57.2835 128.636C56.8038 128.947 56.4146 129.367 56.1145 129.885L56.9799 130.387ZM57.8227 129.478C58.1341 129.281 58.533 129.106 59.0288 128.96L58.7455 128C58.1853 128.166 57.6962 128.375 57.2876 128.634L57.8227 129.478ZM59.0288 128.96C59.53 128.811 59.9874 128.723 60.4025 128.69L60.3238 127.694C59.827 127.733 59.3004 127.837 58.7455 128L59.0288 128.96ZM60.4059 128.69C60.8102 128.656 61.2399 128.638 61.6952 128.638V127.638C61.2144 127.638 60.7561 127.656 60.3205 127.694L60.4059 128.69ZM61.6952 128.638C62.2338 128.638 62.6934 128.661 63.0768 128.707L63.1936 127.713C62.7609 127.663 62.2605 127.638 61.6952 127.638V128.638ZM63.0912 128.708C63.465 128.741 63.8927 128.819 64.3765 128.946L64.6299 127.978C64.1056 127.841 63.6214 127.751 63.1791 127.712L63.0912 128.708ZM64.3632 128.942C64.9081 129.101 65.3342 129.288 65.6541 129.494L66.1962 128.654C65.7722 128.38 65.2502 128.159 64.6432 127.982L64.3632 128.942ZM65.6541 129.494C65.9519 129.686 66.2117 129.961 66.4293 130.334L67.2931 129.83C67.0066 129.339 66.6425 128.942 66.1962 128.654L65.6541 129.494ZM66.4314 130.338C66.6407 130.69 66.7572 131.131 66.7572 131.684H67.7572C67.7572 130.989 67.6096 130.362 67.2909 129.826L66.4314 130.338ZM66.7572 131.684V136.796H67.7572V131.684H66.7572ZM66.7572 136.796C66.7572 137.349 66.6107 137.799 66.3339 138.172L67.1364 138.768C67.5556 138.205 67.7572 137.539 67.7572 136.796H66.7572ZM66.329 138.178C66.0551 138.56 65.6681 138.859 65.1455 139.068L65.5169 139.996C66.1942 139.725 66.7432 139.316 67.1413 138.762L66.329 138.178ZM65.1455 139.068C64.133 139.473 62.9853 139.68 61.6952 139.68V140.68C63.093 140.68 64.3694 140.455 65.5169 139.996L65.1455 139.068ZM61.7312 138.682C62.1357 138.682 62.482 138.67 62.7664 138.644L62.6759 137.648C62.4323 137.67 62.1186 137.682 61.7312 137.682V138.682ZM62.7858 138.642C63.0892 138.602 63.3964 138.537 63.7072 138.446L63.4272 137.486C63.1619 137.563 62.9051 137.618 62.6565 137.65L62.7858 138.642ZM63.7072 138.446C64.0727 138.339 64.3915 138.15 64.6152 137.852L63.8152 137.252C63.7508 137.338 63.6377 137.425 63.4272 137.486L63.7072 138.446ZM64.6124 137.856C64.8458 137.55 64.9492 137.187 64.9492 136.796H63.9492C63.9492 137.005 63.8965 137.146 63.818 137.248L64.6124 137.856ZM64.9492 136.796V131.666H63.9492V136.796H64.9492ZM64.9492 131.666C64.9492 131.323 64.8799 130.998 64.7172 130.712C64.5528 130.423 64.31 130.204 64.0116 130.051L63.5548 130.941C63.7004 131.016 63.7905 131.106 63.8481 131.207C63.9074 131.311 63.9492 131.457 63.9492 131.666H64.9492ZM64.0209 130.056C63.465 129.756 62.6725 129.636 61.7132 129.636V130.636C62.6258 130.636 63.2133 130.756 63.5454 130.936L64.0209 130.056ZM61.7132 129.636C60.7557 129.636 59.9674 129.749 59.4148 130.033L59.8716 130.923C60.2069 130.751 60.7986 130.636 61.7132 130.636V129.636ZM59.4148 130.033C59.1144 130.187 58.8713 130.409 58.7075 130.701C58.5457 130.99 58.4772 131.319 58.4772 131.666H59.4772C59.4772 131.449 59.5197 131.298 59.5798 131.191C59.638 131.087 59.7279 130.997 59.8716 130.923L59.4148 130.033ZM58.4772 131.666V136.796H59.4772V131.666H58.4772ZM58.4772 136.796C58.4772 137.187 58.5805 137.55 58.814 137.856L59.6084 137.248C59.5298 137.146 59.4772 137.005 59.4772 136.796H58.4772ZM58.8231 137.867C59.0595 138.158 59.3868 138.343 59.7604 138.447L60.03 137.485C59.8036 137.421 59.6749 137.33 59.5992 137.237L58.8231 137.867ZM59.7552 138.446C60.064 138.536 60.3643 138.602 60.6556 138.641L60.7907 137.651C60.5541 137.618 60.3023 137.564 60.0352 137.486L59.7552 138.446ZM60.6799 138.644C60.9749 138.67 61.3263 138.682 61.7312 138.682V137.682C61.3441 137.682 61.0234 137.67 60.7665 137.648L60.6799 138.644ZM78.6969 130.316H79.1969V129.816H78.6969V130.316ZM75.0969 130.316H74.5969V130.816H75.0969V130.316ZM75.0969 128.318V127.818H74.5969V128.318H75.0969ZM85.0869 128.318H85.5869V127.818H85.0869V128.318ZM85.0869 130.316V130.816H85.5869V130.316H85.0869ZM81.5049 130.316V129.816H81.0049V130.316H81.5049ZM81.5049 140V140.5H82.0049V140H81.5049ZM78.6969 140H78.1969V140.5H78.6969V140ZM78.6969 129.816H75.0969V130.816H78.6969V129.816ZM75.5969 130.316V128.318H74.5969V130.316H75.5969ZM75.0969 128.818H85.0869V127.818H75.0969V128.818ZM84.5869 128.318V130.316H85.5869V128.318H84.5869ZM85.0869 129.816H81.5049V130.816H85.0869V129.816ZM81.0049 130.316V140H82.0049V130.316H81.0049ZM81.5049 139.5H78.6969V140.5H81.5049V139.5ZM79.1969 140V130.316H78.1969V140H79.1969ZM95.882 130.316H96.382V129.816H95.882V130.316ZM92.282 130.316H91.782V130.816H92.282V130.316ZM92.282 128.318V127.818H91.782V128.318H92.282ZM102.272 128.318H102.772V127.818H102.272V128.318ZM102.272 130.316V130.816H102.772V130.316H102.272ZM98.69 130.316V129.816H98.19V130.316H98.69ZM98.69 140V140.5H99.19V140H98.69ZM95.882 140H95.382V140.5H95.882V140ZM95.882 129.816H92.282V130.816H95.882V129.816ZM92.782 130.316V128.318H91.782V130.316H92.782ZM92.282 128.818H102.272V127.818H92.282V128.818ZM101.772 128.318V130.316H102.772V128.318H101.772ZM102.272 129.816H98.69V130.816H102.272V129.816ZM98.19 130.316V140H99.19V130.316H98.19ZM98.69 139.5H95.882V140.5H98.69V139.5ZM96.382 140V130.316H95.382V140H96.382ZM110.367 128.318V127.818H109.867V128.318H110.367ZM119.277 128.318H119.777V127.818H119.277V128.318ZM119.277 130.316V130.816H119.777V130.316H119.277ZM113.175 130.316V129.816H112.675V130.316H113.175ZM113.175 132.998H112.675V133.498H113.175V132.998ZM118.683 132.998H119.183V132.498H118.683V132.998ZM118.683 134.996V135.496H119.183V134.996H118.683ZM113.175 134.996V134.496H112.675V134.996H113.175ZM113.175 138.002H112.675V138.502H113.175V138.002ZM119.457 138.002H119.957V137.502H119.457V138.002ZM119.457 140V140.5H119.957V140H119.457ZM110.367 140H109.867V140.5H110.367V140ZM110.367 128.818H119.277V127.818H110.367V128.818ZM118.777 128.318V130.316H119.777V128.318H118.777ZM119.277 129.816H113.175V130.816H119.277V129.816ZM112.675 130.316V132.998H113.675V130.316H112.675ZM113.175 133.498H118.683V132.498H113.175V133.498ZM118.183 132.998V134.996H119.183V132.998H118.183ZM118.683 134.496H113.175V135.496H118.683V134.496ZM112.675 134.996V138.002H113.675V134.996H112.675ZM113.175 138.502H119.457V137.502H113.175V138.502ZM118.957 138.002V140H119.957V138.002H118.957ZM119.457 139.5H110.367V140.5H119.457V139.5ZM110.867 140V128.318H109.867V140H110.867ZM127.833 128.318V127.818H127.333V128.318H127.833ZM136.473 128.894L136.232 129.332L136.238 129.335L136.473 128.894ZM136.779 134.456L137.092 134.846L137.093 134.846L136.779 134.456ZM134.853 135.194L134.787 134.698L133.97 134.808L134.445 135.482L134.853 135.194ZM138.237 140V140.5H139.201L138.646 139.712L138.237 140ZM134.997 140L134.581 140.277L134.73 140.5H134.997V140ZM131.937 135.41L132.353 135.133L132.205 134.91H131.937V135.41ZM130.641 135.41V134.91H130.141V135.41H130.641ZM130.641 140V140.5H131.141V140H130.641ZM127.833 140H127.333V140.5H127.833V140ZM134.403 133.304L134.69 133.714L134.697 133.709L134.703 133.704L134.403 133.304ZM134.367 130.568L134.09 130.984L134.101 130.992L134.113 130.998L134.367 130.568ZM130.641 130.316V129.816H130.141V130.316H130.641ZM130.641 133.556H130.141V134.056H130.641V133.556ZM127.833 128.818H133.089V127.818H127.833V128.818ZM133.089 128.818C134.632 128.818 135.652 129.012 136.232 129.332L136.715 128.456C135.903 128.008 134.667 127.818 133.089 127.818V128.818ZM136.238 129.335C136.509 129.48 136.696 129.665 136.819 129.887C136.943 130.113 137.017 130.405 137.017 130.784H138.017C138.017 130.275 137.917 129.808 137.694 129.404C137.469 128.996 137.134 128.68 136.709 128.453L136.238 129.335ZM137.017 130.784V132.836H138.017V130.784H137.017ZM137.017 132.836C137.017 133.383 136.829 133.774 136.466 134.066L137.093 134.846C137.714 134.346 138.017 133.657 138.017 132.836H137.017ZM136.467 134.066C136.077 134.377 135.529 134.599 134.787 134.698L134.92 135.69C135.786 135.573 136.522 135.303 137.092 134.846L136.467 134.066ZM134.445 135.482L137.829 140.288L138.646 139.712L135.262 134.906L134.445 135.482ZM138.237 139.5H134.997V140.5H138.237V139.5ZM135.413 139.723L132.353 135.133L131.521 135.687L134.581 140.277L135.413 139.723ZM131.937 134.91H130.641V135.91H131.937V134.91ZM130.141 135.41V140H131.141V135.41H130.141ZM130.641 139.5H127.833V140.5H130.641V139.5ZM128.333 140V128.318H127.333V140H128.333ZM133.053 134.056C133.402 134.056 133.712 134.034 133.978 133.985C134.237 133.936 134.488 133.855 134.69 133.714L134.117 132.894C134.079 132.921 133.984 132.966 133.794 133.001C133.609 133.036 133.365 133.056 133.053 133.056V134.056ZM134.703 133.704C135.135 133.38 135.263 132.834 135.263 132.278H134.263C134.263 132.73 134.152 132.868 134.103 132.904L134.703 133.704ZM135.263 132.278V131.45H134.263V132.278H135.263ZM135.263 131.45C135.263 130.921 135.096 130.418 134.622 130.138L134.113 130.998C134.166 131.03 134.263 131.115 134.263 131.45H135.263ZM134.645 130.152C134.261 129.896 133.691 129.816 133.053 129.816V130.816C133.664 130.816 133.97 130.904 134.09 130.984L134.645 130.152ZM133.053 129.816H130.641V130.816H133.053V129.816ZM130.141 130.316V133.556H131.141V130.316H130.141ZM130.641 134.056H133.053V133.056H130.641V134.056Z" fill="url(#paint4_linear)"/>
<defs>
<radialGradient id="paint0_angular" cx="0" cy="0" r="1" gradientUnits="userSpaceOnUse" gradientTransform="translate(79.4734 80) rotate(-101.888) scale(55.6946 65.0204)">
<stop stop-color="white"/>
<stop offset="0.229058"/>
<stop offset="0.429685" stop-color="white"/>
<stop offset="0.627609"/>
<stop offset="0.815117" stop-color="white"/>
<stop offset="1"/>
</radialGradient>
<radialGradient id="paint1_angular" cx="0" cy="0" r="1" gradientUnits="userSpaceOnUse" gradientTransform="translate(80 88.5) rotate(-126.931) scale(93.2001 36.157)">
<stop stop-color="white" stop-opacity="0.72"/>
<stop offset="0.216034" stop-color="#060606"/>
<stop offset="0.216134"/>
<stop offset="0.419268" stop-color="white" stop-opacity="0.72"/>
<stop offset="0.632818"/>
<stop offset="0.809908" stop-color="white" stop-opacity="0.72"/>
<stop offset="1"/>
</radialGradient>
<radialGradient id="paint2_radial" cx="0" cy="0" r="1" gradientUnits="userSpaceOnUse" gradientTransform="translate(130 85) rotate(-151.913) scale(117.882 166.916)">
<stop/>
<stop offset="0.497396" stop-color="#A3A3A3"/>
<stop offset="1"/>
</radialGradient>
<linearGradient id="paint3_linear" x1="46.5" y1="37" x2="89.5" y2="123" gradientUnits="userSpaceOnUse">
<stop stop-color="#F6F6F6"/>
<stop offset="1" stop-color="#FCFCFC" stop-opacity="0"/>
</linearGradient>
<linearGradient id="paint4_linear" x1="80" y1="123" x2="80" y2="144" gradientUnits="userSpaceOnUse">
<stop stop-color="white"/>
<stop offset="1" stop-color="white" stop-opacity="0"/>
</linearGradient>
</defs>
</svg>
