<svg width="1920" height="1080" fill="none" xmlns="http://www.w3.org/2000/svg">
  <rect x="218" y="472" width="126" height="126" rx="63" fill="#fff"/>
  <path d="M265.788 531.18c-3.264 0-4.896-1.056-4.896-3.168v-5.526c0-2.232 1.632-3.348 4.896-3.348 3.3 0 4.95 1.11 4.95 3.33v5.544c0 1.128-.456 1.938-1.368 2.43-.912.492-2.106.738-3.582.738zm.036-1.17c2.148 0 3.222-.672 3.222-2.016v-5.562c0-1.44-1.08-2.16-3.24-2.16-1.044 0-1.848.162-2.412.486-.552.324-.828.882-.828 1.674v5.562c0 1.344 1.086 2.016 3.258 2.016zm7.501-7.722h1.602v.936h.018c.132-.744 1.122-1.116 2.97-1.116 1.104 0 1.938.234 2.502.702.564.456.846 1.044.846 1.764v3.582c0 .516-.078.966-.234 1.35-.144.384-.336.684-.576.9-.216.204-.516.366-.9.486-.372.12-.744.198-1.116.234-.336.036-.744.054-1.224.054-.528 0-1.014-.06-1.458-.18-.432-.132-.702-.318-.81-.558v4.302h-1.62v-12.456zm3.924 7.794c.624 0 1.098-.042 1.422-.126.336-.096.576-.264.72-.504.144-.24.216-.606.216-1.098v-3.204c0-.54-.072-.942-.216-1.206-.144-.264-.384-.438-.72-.522-.324-.096-.804-.144-1.44-.144-.636 0-1.11.048-1.422.144-.312.084-.534.258-.666.522-.132.252-.198.654-.198 1.206v3.204c0 .492.066.858.198 1.098.144.24.378.408.702.504.324.084.792.126 1.404.126zm10.172 1.098c-2.664 0-3.996-.888-3.996-2.664v-3.438c0-1.056.3-1.812.9-2.268.612-.468 1.596-.702 2.952-.702 1.284 0 2.208.222 2.772.666.576.444.864 1.212.864 2.304v1.926h-5.85v1.314c0 .6.21 1.032.63 1.296.42.264 1.068.396 1.944.396.828 0 1.806-.144 2.934-.432v1.242c-1.104.24-2.154.36-3.15.36zm1.872-5.238v-1.368c0-.528-.162-.888-.486-1.08-.312-.204-.852-.306-1.62-.306-.744 0-1.284.102-1.62.306-.336.192-.504.552-.504 1.08v1.368h4.23zm4.089-3.654h1.62v1.062c.168-.828 1.122-1.242 2.862-1.242 1.116 0 1.896.204 2.34.612.456.396.684 1.026.684 1.89V531h-1.62v-6.3c0-.228-.018-.414-.054-.558a1.217 1.217 0 00-.216-.432c-.24-.3-.774-.45-1.602-.45-.636 0-1.128.048-1.476.144-.336.084-.576.228-.72.432-.132.204-.198.492-.198.864v6.3h-1.62v-8.712zm-44.11 18.03h4.176c.996 0 1.788.102 2.376.306.54.192.9.432 1.08.72.192.288.288.684.288 1.188v1.566c0 .468-.132.834-.396 1.098-.264.252-.666.438-1.206.558v.072c.636.108 1.146.33 1.53.666.396.324.594.732.594 1.224v1.962c0 .852-.318 1.452-.954 1.8-.636.348-1.698.522-3.186.522h-4.302v-11.682zm4.23 5.112c.732 0 1.254-.108 1.566-.324.324-.228.486-.582.486-1.062v-1.368c0-.444-.162-.756-.486-.936-.324-.18-.864-.27-1.62-.27h-2.43v3.96h2.484zm.072 5.364c.876 0 1.494-.09 1.854-.27.36-.18.54-.486.54-.918v-1.764c0-.312-.066-.558-.198-.738-.12-.192-.312-.33-.576-.414a3.49 3.49 0 00-.702-.126 8.564 8.564 0 00-.918-.036h-2.556v4.266h2.556zm6.629-7.506h1.53v1.422c0-.276.12-.534.36-.774.24-.252.546-.45.918-.594a2.825 2.825 0 011.098-.234h.792v1.386h-.9c-.768 0-1.326.102-1.674.306-.336.192-.504.546-.504 1.062V552h-1.62v-8.712zm10 8.892c-.768 0-1.344-.03-1.728-.09a3.826 3.826 0 01-1.152-.342 1.686 1.686 0 01-.864-.864c-.18-.408-.27-.954-.27-1.638v-3.024c0-.54.066-1.014.198-1.422.132-.408.306-.726.522-.954.18-.204.45-.36.81-.468.372-.12.75-.198 1.134-.234a24.36 24.36 0 011.35-.036c.624 0 1.092.018 1.404.054.324.024.666.084 1.026.18.372.108.66.27.864.486.204.216.378.528.522.936.132.42.198.906.198 1.458v3.024c0 1.02-.234 1.764-.702 2.232-.192.192-.468.342-.828.45-.36.108-.732.18-1.116.216-.456.024-.912.036-1.368.036zm0-1.062c.504 0 .87-.012 1.098-.036.228-.024.45-.09.666-.198a.821.821 0 00.45-.468c.096-.228.144-.54.144-.936v-3.528c0-.54-.066-.93-.198-1.17-.132-.252-.36-.414-.684-.486-.312-.084-.804-.126-1.476-.126-.672 0-1.17.042-1.494.126-.312.072-.534.234-.666.486-.132.24-.198.63-.198 1.17v3.528c0 .396.042.708.126.936a.892.892 0 00.468.468c.216.108.438.174.666.198.228.024.594.036 1.098.036zm5.353-7.83h1.782l2.124 7.164h.108l2.052-7.164h1.818l2.124 7.164h.108l2.052-7.164h1.656L286.518 552h-1.926l-2.106-7.038-2.07 7.038h-1.926l-2.934-8.712zm18.108 8.892c-.924 0-1.92-.072-2.988-.216v-1.242c1.404.228 2.412.342 3.024.342.768 0 1.32-.072 1.656-.216.336-.156.504-.438.504-.846v-.882c0-.372-.126-.636-.378-.792-.252-.156-.66-.234-1.224-.234h-.99c-.9 0-1.59-.186-2.07-.558-.468-.372-.702-.894-.702-1.566v-.81c0-1.368 1.296-2.052 3.888-2.052.192 0 1.074.048 2.646.144v1.17c-1.068-.168-1.974-.252-2.718-.252-.852 0-1.434.084-1.746.252-.312.168-.468.45-.468.846v.738c0 .588.534.882 1.602.882h1.008c1.836 0 2.754.684 2.754 2.052v.756c0 .9-.312 1.542-.936 1.926-.624.372-1.578.558-2.862.558zm9.709 0c-2.664 0-3.996-.888-3.996-2.664v-3.438c0-1.056.3-1.812.9-2.268.612-.468 1.596-.702 2.952-.702 1.284 0 2.208.222 2.772.666.576.444.864 1.212.864 2.304v1.926h-5.85v1.314c0 .6.21 1.032.63 1.296.42.264 1.068.396 1.944.396.828 0 1.806-.144 2.934-.432v1.242c-1.104.24-2.154.36-3.15.36zm1.872-5.238v-1.368c0-.528-.162-.888-.486-1.08-.312-.204-.852-.306-1.62-.306-.744 0-1.284.102-1.62.306-.336.192-.504.552-.504 1.08v1.368h4.23zm4.089-3.654h1.53v1.422c0-.276.12-.534.36-.774.24-.252.546-.45.918-.594a2.825 2.825 0 011.098-.234h.792v1.386h-.9c-.768 0-1.326.102-1.674.306-.336.192-.504.546-.504 1.062V552h-1.62v-8.712z" fill="#000"/>
  <rect x="218" y="472" width="126" height="126" rx="63" stroke="#FF760D" stroke-width="4"/>
  <rect x="972" y="692" width="96" height="96" rx="48" fill="#fff"/>
  <path d="M1003.01 724.318h8.03v1.224h-6.28v3.816h5.69v1.224h-5.69V736h-1.75v-11.682zm13.48 0h2.01l4.54 11.682h-1.82l-1.33-3.546h-5.01l-1.31 3.546h-1.73l4.65-11.682zm2.97 6.93l-1.98-5.274h-.17l-1.98 5.274h4.13zm5.37-6.93h4.17c1 0 1.79.102 2.38.306.54.192.9.432 1.08.72.19.288.29.684.29 1.188v1.566c0 .468-.14.834-.4 1.098-.26.252-.67.438-1.21.558v.072c.64.108 1.15.33 1.53.666.4.324.6.732.6 1.224v1.962c0 .852-.32 1.452-.96 1.8-.63.348-1.69.522-3.18.522h-4.3v-11.682zm4.23 5.112c.73 0 1.25-.108 1.56-.324.33-.228.49-.582.49-1.062v-1.368c0-.444-.16-.756-.49-.936-.32-.18-.86-.27-1.62-.27h-2.43v3.96h2.49zm.07 5.364c.87 0 1.49-.09 1.85-.27.36-.18.54-.486.54-.918v-1.764c0-.312-.06-.558-.2-.738-.12-.192-.31-.33-.57-.414-.27-.072-.5-.114-.7-.126a8.658 8.658 0 00-.92-.036h-2.56v4.266h2.56zm-30.505 10.524h2.615l3.74 9.72.05.018 3.55-9.738h2.52V757h-1.53v-9.882h-.09l-3.76 9.882h-1.57l-3.87-9.882h-.09V757h-1.565v-11.682zm19.065 11.862c-2.66 0-3.99-.888-3.99-2.664v-3.438c0-1.056.3-1.812.9-2.268.61-.468 1.59-.702 2.95-.702 1.28 0 2.21.222 2.77.666.58.444.87 1.212.87 2.304v1.926h-5.85v1.314c0 .6.21 1.032.63 1.296.42.264 1.06.396 1.94.396.83 0 1.81-.144 2.93-.432v1.242c-1.1.24-2.15.36-3.15.36zm1.88-5.238v-1.368c0-.528-.17-.888-.49-1.08-.31-.204-.85-.306-1.62-.306-.74 0-1.28.102-1.62.306-.34.192-.5.552-.5 1.08v1.368h4.23zm4.08-3.654h1.62v1.062c.17-.828 1.13-1.242 2.87-1.242 1.11 0 1.89.204 2.34.612.45.396.68 1.026.68 1.89V757h-1.62v-6.3c0-.228-.02-.414-.05-.558a1.265 1.265 0 00-.22-.432c-.24-.3-.77-.45-1.6-.45-.64 0-1.13.048-1.48.144-.33.084-.57.228-.72.432-.13.204-.2.492-.2.864v6.3h-1.62v-8.712zm13.35 8.892c-1.12 0-1.91-.198-2.36-.594-.45-.408-.67-1.044-.67-1.908v-6.39h1.62v6.3c0 .228.02.414.06.558.04.132.12.27.23.414.22.312.74.468 1.58.468.89 0 1.52-.084 1.88-.252.34-.168.52-.474.52-.918v-6.57h1.62V757h-1.62v-1.062c-.16.828-1.11 1.242-2.86 1.242z" fill="#000"/>
  <rect x="972" y="692" width="96" height="96" rx="48" stroke="#FF760D" stroke-width="4"/>
  <rect x="447" y="360" width="126" height="56" rx="10" fill="#fff"/>
  <path d="M486.489 394.68c-.996 0-2.184-.096-3.564-.288v-1.458c1.392.3 2.616.45 3.672.45.888 0 1.536-.096 1.944-.288.408-.204.612-.576.612-1.116v-1.512c0-.504-.144-.858-.432-1.062-.288-.204-.792-.306-1.512-.306h-1.368c-1.14 0-1.95-.228-2.43-.684-.48-.456-.72-1.164-.72-2.124v-.936c0-.636.138-1.152.414-1.548.288-.396.762-.69 1.422-.882.672-.192 1.59-.288 2.754-.288.78 0 1.782.066 3.006.198v1.314c-1.368-.204-2.412-.306-3.132-.306-1.116 0-1.854.108-2.214.324-.372.228-.558.606-.558 1.134v1.332c0 .408.144.708.432.9.3.18.81.27 1.53.27h1.404c.804 0 1.428.096 1.872.288.456.192.774.486.954.882.192.384.288.906.288 1.566v.846c0 .828-.156 1.482-.468 1.962-.3.48-.768.822-1.404 1.026-.636.204-1.47.306-2.502.306zm6.774-12.042h1.62v1.692h-1.62v-1.692zm0 3.15h1.62v8.712h-1.62v-8.712zm7.724 12.672c-1.188 0-2.19-.066-3.006-.198v-1.152c1.44.168 2.49.252 3.15.252.828 0 1.428-.132 1.8-.396.384-.264.576-.702.576-1.314v-2.088c-.024.384-.288.666-.792.846-.492.18-1.116.27-1.872.27-.9 0-1.602-.084-2.106-.252-.492-.168-.846-.444-1.062-.828-.204-.384-.306-.906-.306-1.566v-3.546c0-1.032.276-1.77.828-2.214.564-.444 1.482-.666 2.754-.666 1.512 0 2.4.342 2.664 1.026v-.846h1.512v9.54c0 .804-.15 1.434-.45 1.89-.3.456-.75.774-1.35.954-.6.192-1.38.288-2.34.288zm.198-4.86c.852 0 1.452-.102 1.8-.306.348-.204.522-.588.522-1.152V388.2c0-.396-.066-.696-.198-.9-.12-.204-.348-.348-.684-.432-.336-.096-.828-.144-1.476-.144-.612 0-1.074.042-1.386.126-.3.084-.51.234-.63.45-.108.204-.162.504-.162.9v3.942c0 .408.06.714.18.918.12.204.336.348.648.432.312.072.774.108 1.386.108zm6.756-7.812h1.62v1.062c.168-.828 1.122-1.242 2.862-1.242 1.116 0 1.896.204 2.34.612.456.396.684 1.026.684 1.89v6.39h-1.62v-6.3c0-.228-.018-.414-.054-.558a1.217 1.217 0 00-.216-.432c-.24-.3-.774-.45-1.602-.45-.636 0-1.128.048-1.476.144-.336.084-.576.228-.72.432-.132.204-.198.492-.198.864v6.3h-1.62v-8.712zm9.634 2.916h5.004V390h-5.004v-1.296zm7.244-5.886h1.746V394.5h-1.746v-11.682zm4.655 2.97h1.62v1.062c.168-.828 1.122-1.242 2.862-1.242 1.116 0 1.896.204 2.34.612.456.396.684 1.026.684 1.89v6.39h-1.62v-6.3c0-.228-.018-.414-.054-.558a1.217 1.217 0 00-.216-.432c-.24-.3-.774-.45-1.602-.45-.636 0-1.128.048-1.476.144-.336.084-.576.228-.72.432-.132.204-.198.492-.198.864v6.3h-1.62v-8.712z" fill="#000"/>
  <rect x="447" y="360" width="126" height="56" rx="10" stroke="#FF760D" stroke-width="4"/>
  <path d="M698.272 636.68c-.996 0-2.184-.096-3.564-.288v-1.458c1.392.3 2.616.45 3.672.45.888 0 1.536-.096 1.944-.288.408-.204.612-.576.612-1.116v-1.512c0-.504-.144-.858-.432-1.062-.288-.204-.792-.306-1.512-.306h-1.368c-1.14 0-1.95-.228-2.43-.684-.48-.456-.72-1.164-.72-2.124v-.936c0-.636.138-1.152.414-1.548.288-.396.762-.69 1.422-.882.672-.192 1.59-.288 2.754-.288.78 0 1.782.066 3.006.198v1.314c-1.368-.204-2.412-.306-3.132-.306-1.116 0-1.854.108-2.214.324-.372.228-.558.606-.558 1.134v1.332c0 .408.144.708.432.9.3.18.81.27 1.53.27h1.404c.804 0 1.428.096 1.872.288.456.192.774.486.954.882.192.384.288.906.288 1.566v.846c0 .828-.156 1.482-.468 1.962-.3.48-.768.822-1.404 1.026-.636.204-1.47.306-2.502.306zm10.284 0c-.6 0-1.038-.012-1.314-.036a5.332 5.332 0 01-.918-.18c-.372-.096-.66-.24-.864-.432-.204-.192-.378-.474-.522-.846-.144-.36-.216-.81-.216-1.35v-3.204c0-.972.186-1.668.558-2.088.204-.24.408-.42.612-.54.216-.132.492-.222.828-.27.336-.048.636-.078.9-.09.264-.024.636-.036 1.116-.036.828 0 1.656.09 2.484.27v1.188c-.96-.24-1.854-.36-2.682-.36-.624 0-1.086.048-1.386.144-.288.084-.492.246-.612.486-.108.228-.162.582-.162 1.062v3.564c0 .444.06.774.18.99.132.216.36.372.684.468.336.084.828.126 1.476.126.876 0 1.752-.114 2.628-.342v1.224c-.816.168-1.746.252-2.79.252zm4.839-12.78h1.62v4.95c.168-.828 1.122-1.242 2.862-1.242 1.116 0 1.896.204 2.34.612.456.396.684 1.026.684 1.89v6.39h-1.62v-6.282c0-.228-.018-.414-.054-.558a1.217 1.217 0 00-.216-.432c-.24-.3-.774-.45-1.602-.45-.66 0-1.164.048-1.512.144-.336.084-.57.228-.702.432-.12.204-.18.492-.18.864v6.282h-1.62v-12.6zm13.991 12.78c-2.664 0-3.996-.888-3.996-2.664v-3.438c0-1.056.3-1.812.9-2.268.612-.468 1.596-.702 2.952-.702 1.284 0 2.208.222 2.772.666.576.444.864 1.212.864 2.304v1.926h-5.85v1.314c0 .6.21 1.032.63 1.296.42.264 1.068.396 1.944.396.828 0 1.806-.144 2.934-.432v1.242c-1.104.24-2.154.36-3.15.36zm1.872-5.238v-1.368c0-.528-.162-.888-.486-1.08-.312-.204-.852-.306-1.62-.306-.744 0-1.284.102-1.62.306-.336.192-.504.552-.504 1.08v1.368h4.23zm7.202 5.238c-.864 0-1.542-.084-2.034-.252-.492-.18-.852-.468-1.08-.864-.216-.396-.324-.948-.324-1.656v-3.834c0-.876.27-1.506.81-1.89.552-.384 1.458-.576 2.718-.576.756 0 1.404.096 1.944.288.552.192.834.468.846.828h.036l-.036-2.214v-2.61h1.62v12.6h-1.584v-1.026c0 .324-.258.6-.774.828-.516.252-1.23.378-2.142.378zm.342-1.116c.9 0 1.548-.102 1.944-.306.396-.204.594-.552.594-1.044v-4.302c0-.78-.798-1.17-2.394-1.17-.96 0-1.584.072-1.872.216-.3.144-.45.462-.45.954v4.302c0 .492.162.84.486 1.044.336.204.9.306 1.692.306zm9.852 1.116c-1.116 0-1.902-.198-2.358-.594-.444-.408-.666-1.044-.666-1.908v-6.39h1.62v6.3c0 .228.018.414.054.558.048.132.126.27.234.414.216.312.744.468 1.584.468.888 0 1.512-.084 1.872-.252.348-.168.522-.474.522-.918v-6.57h1.62v8.712h-1.62v-1.062c-.156.828-1.11 1.242-2.862 1.242zm7.294-12.78h1.62v12.6h-1.62v-12.6zm8.102 12.78c-2.664 0-3.996-.888-3.996-2.664v-3.438c0-1.056.3-1.812.9-2.268.612-.468 1.596-.702 2.952-.702 1.284 0 2.208.222 2.772.666.576.444.864 1.212.864 2.304v1.926h-5.85v1.314c0 .6.21 1.032.63 1.296.42.264 1.068.396 1.944.396.828 0 1.806-.144 2.934-.432v1.242c-1.104.24-2.154.36-3.15.36zm1.872-5.238v-1.368c0-.528-.162-.888-.486-1.08-.312-.204-.852-.306-1.62-.306-.744 0-1.284.102-1.62.306-.336.192-.504.552-.504 1.08v1.368h4.23z" fill="#FF760D"/>
  <rect x="667" y="602" width="126" height="56" rx="10" stroke="#FF760D" stroke-width="4"/>
  <path d="M1351.56 714.542h-3.96v-1.224h9.67v1.224h-3.94V725h-1.77v-10.458zm7.55 1.746h1.53v1.422c0-.276.12-.534.36-.774.24-.252.54-.45.91-.594.38-.156.74-.234 1.1-.234h.79v1.386h-.9c-.76 0-1.32.102-1.67.306-.34.192-.5.546-.5 1.062V725h-1.62v-8.712zm8.99 8.892c-.83 0-1.47-.078-1.93-.234-.44-.156-.77-.432-.97-.828-.19-.396-.29-.966-.29-1.71 0-.66.09-1.17.27-1.53.19-.372.51-.636.96-.792.45-.156 1.09-.234 1.92-.234h2.61v-1.386c0-.324-.06-.57-.2-.738-.12-.18-.33-.306-.63-.378-.28-.072-.71-.108-1.27-.108-.9 0-1.9.072-2.99.216v-1.188c1.19-.108 2.26-.162 3.22-.162 1.01 0 1.75.078 2.23.234.48.144.81.402.99.774.18.372.27.948.27 1.728V725h-1.56v-.828c-.14.672-1.01 1.008-2.63 1.008zm.27-1.062c.59 0 1.08-.042 1.49-.126.54-.108.81-.36.81-.756v-2.376h-2.5c-.52 0-.89.042-1.12.126a.684.684 0 00-.45.432c-.07.216-.1.564-.1 1.044 0 .432.04.768.12 1.008a.93.93 0 00.45.504c.22.096.54.144.97.144h.33zm10.24 1.062c-.6 0-1.04-.012-1.31-.036a5.279 5.279 0 01-.92-.18c-.37-.096-.66-.24-.86-.432-.21-.192-.38-.474-.53-.846-.14-.36-.21-.81-.21-1.35v-3.204c0-.972.18-1.668.56-2.088.2-.24.4-.42.61-.54.21-.132.49-.222.83-.27.33-.048.63-.078.9-.09.26-.024.63-.036 1.11-.036.83 0 1.66.09 2.49.27v1.188c-.96-.24-1.86-.36-2.69-.36-.62 0-1.08.048-1.38.144-.29.084-.49.246-.61.486-.11.228-.17.582-.17 1.062v3.564c0 .444.06.774.18.99.14.216.36.372.69.468.33.084.83.126 1.47.126.88 0 1.76-.114 2.63-.342v1.224c-.81.168-1.74.252-2.79.252zm4.84-12.78h1.62V725h-1.62v-12.6zm1.82 7.83l3.67-3.942h1.98l-3.78 3.942 4.12 4.77h-2.01l-3.98-4.77zm11.1 4.95c-2.67 0-4-.888-4-2.664v-3.438c0-1.056.3-1.812.9-2.268.61-.468 1.6-.702 2.95-.702 1.29 0 2.21.222 2.78.666.57.444.86 1.212.86 2.304v1.926h-5.85v1.314c0 .6.21 1.032.63 1.296.42.264 1.07.396 1.94.396.83 0 1.81-.144 2.94-.432v1.242c-1.11.24-2.16.36-3.15.36zm1.87-5.238v-1.368c0-.528-.16-.888-.49-1.08-.31-.204-.85-.306-1.62-.306-.74 0-1.28.102-1.62.306-.33.192-.5.552-.5 1.08v1.368h4.23zm4.09-3.654h1.53v1.422c0-.276.12-.534.36-.774.24-.252.55-.45.92-.594.37-.156.74-.234 1.1-.234h.79v1.386h-.9c-.77 0-1.33.102-1.68.306-.33.192-.5.546-.5 1.062V725h-1.62v-8.712zm14.06 8.892c-2.62 0-3.93-.69-3.93-2.07v-1.962c0-.912.56-1.614 1.66-2.106l.85-.396-.71-.828c-.37-.42-.55-.834-.55-1.242v-1.746c0-1.14.99-1.71 2.98-1.71.81 0 1.62.09 2.45.27v1.314c-.89-.3-1.71-.45-2.48-.45-.52 0-.88.054-1.1.162-.22.108-.32.294-.32.558v1.332c0 .192.06.354.18.486l4.35 5.274c.04-.216.06-.468.06-.756v-1.728h1.36v1.656c0 .816-.12 1.488-.37 2.016.49.456.85.684 1.08.684h.46V725h-1.15c-.42 0-.86-.204-1.31-.612-.77.528-1.94.792-3.51.792zm.32-1.116c1.18 0 1.97-.168 2.38-.504l-3.48-4.14-.63.27c-.25.12-.45.3-.61.54-.14.24-.21.492-.21.756v2.196c0 .588.78.882 2.35.882h.2zm-64.73 10.254h3.82c.54 0 .97.012 1.29.036.34.024.69.078 1.06.162.39.084.69.21.92.378.24.168.45.396.61.684.16.276.24.624.24 1.044v2.43c0 .972-.38 1.674-1.14 2.106-.74.42-1.84.63-3.31.63h-1.74V746h-1.75v-11.682zm3.73 6.372c.75 0 1.36-.138 1.81-.414.46-.276.69-.714.69-1.314v-2.124c0-.324-.09-.588-.25-.792-.17-.216-.41-.366-.72-.45-.3-.072-.56-.12-.76-.144-.2-.024-.47-.036-.81-.036h-1.96v5.274h2zm6.43-3.402h1.53v1.422c0-.276.12-.534.36-.774.24-.252.54-.45.92-.594a2.78 2.78 0 011.09-.234h.8v1.386h-.9c-.77 0-1.33.102-1.68.306-.33.192-.5.546-.5 1.062V746h-1.62v-8.712zm10 8.892c-.77 0-1.35-.03-1.73-.09a3.814 3.814 0 01-1.15-.342c-.4-.18-.69-.468-.87-.864-.18-.408-.27-.954-.27-1.638v-3.024c0-.54.07-1.014.2-1.422.13-.408.31-.726.52-.954.18-.204.45-.36.81-.468.38-.12.75-.198 1.14-.234.43-.024.88-.036 1.35-.036.62 0 1.09.018 1.4.054.33.024.67.084 1.03.18.37.108.66.27.86.486.21.216.38.528.52.936.14.42.2.906.2 1.458v3.024c0 1.02-.23 1.764-.7 2.232-.19.192-.47.342-.83.45-.36.108-.73.18-1.11.216-.46.024-.92.036-1.37.036zm0-1.062c.5 0 .87-.012 1.1-.036.22-.024.45-.09.66-.198a.798.798 0 00.45-.468c.1-.228.15-.54.15-.936v-3.528c0-.54-.07-.93-.2-1.17-.13-.252-.36-.414-.69-.486-.31-.084-.8-.126-1.47-.126-.67 0-1.17.042-1.5.126-.31.072-.53.234-.66.486-.13.24-.2.63-.2 1.17v3.528c0 .396.04.708.13.936.09.216.25.372.46.468.22.108.44.174.67.198.23.024.59.036 1.1.036zm9.83 4.842c-1.19 0-2.19-.066-3-.198v-1.152c1.44.168 2.49.252 3.15.252.82 0 1.42-.132 1.8-.396.38-.264.57-.702.57-1.314v-2.088c-.02.384-.29.666-.79.846-.49.18-1.12.27-1.87.27-.9 0-1.6-.084-2.11-.252-.49-.168-.84-.444-1.06-.828-.2-.384-.31-.906-.31-1.566v-3.546c0-1.032.28-1.77.83-2.214.57-.444 1.48-.666 2.76-.666 1.51 0 2.4.342 2.66 1.026v-.846h1.51v9.54c0 .804-.15 1.434-.45 1.89-.3.456-.75.774-1.35.954-.6.192-1.38.288-2.34.288zm.2-4.86c.85 0 1.45-.102 1.8-.306.35-.204.52-.588.52-1.152V739.7c0-.396-.06-.696-.2-.9-.12-.204-.34-.348-.68-.432-.34-.096-.83-.144-1.48-.144-.61 0-1.07.042-1.38.126-.3.084-.51.234-.63.45-.11.204-.16.504-.16.9v3.942c0 .408.06.714.18.918.12.204.33.348.64.432.32.072.78.108 1.39.108zm6.76-7.812h1.53v1.422c0-.276.12-.534.36-.774.24-.252.54-.45.91-.594.38-.156.74-.234 1.1-.234h.79v1.386h-.9c-.76 0-1.32.102-1.67.306-.34.192-.5.546-.5 1.062V746h-1.62v-8.712zm8.99 8.892c-.83 0-1.47-.078-1.93-.234a1.696 1.696 0 01-.97-.828c-.19-.396-.29-.966-.29-1.71 0-.66.09-1.17.27-1.53.2-.372.51-.636.96-.792.45-.156 1.1-.234 1.92-.234h2.61v-1.386c0-.324-.06-.57-.19-.738-.12-.18-.33-.306-.63-.378-.29-.072-.72-.108-1.28-.108-.9 0-1.9.072-2.99.216v-1.188c1.19-.108 2.26-.162 3.22-.162 1.01 0 1.75.078 2.23.234.48.144.81.402.99.774.18.372.27.948.27 1.728V746h-1.56v-.828c-.13.672-1.01 1.008-2.63 1.008zm.27-1.062c.59 0 1.09-.042 1.49-.126.54-.108.81-.36.81-.756v-2.376h-2.5c-.51 0-.89.042-1.11.126a.644.644 0 00-.45.432c-.08.216-.11.564-.11 1.044 0 .432.04.768.12 1.008a.93.93 0 00.45.504c.22.096.54.144.98.144h.32zm6.73-7.83h1.62v1.062c.17-.828 1.15-1.242 2.94-1.242 1.45 0 2.35.396 2.71 1.188.11-.384.44-.678.98-.882.55-.204 1.22-.306 2.01-.306 1.08 0 1.84.204 2.29.612.44.396.66 1.026.66 1.89V746h-1.62v-6.282c0-.228-.01-.414-.05-.558a1.265 1.265 0 00-.22-.432c-.24-.3-.77-.45-1.6-.45-.63 0-1.11.042-1.42.126-.31.084-.53.228-.65.432-.11.204-.16.498-.16.882V746h-1.62v-6.282c0-.228-.02-.414-.05-.558a1.265 1.265 0 00-.22-.432c-.24-.3-.77-.45-1.58-.45-.66 0-1.16.042-1.5.126-.33.084-.57.228-.7.432-.13.192-.2.486-.2.882V746h-1.62v-8.712z" fill="#FF760D"/>
  <rect x="1322" y="701" width="126" height="56" rx="10" stroke="#FF760D" stroke-width="4"/>
  <path d="M917.76 840.818h2.016l4.536 11.682h-1.818l-1.332-3.546h-5.004l-1.314 3.546h-1.728l4.644-11.682zm2.97 6.93l-1.98-5.274h-.162l-1.98 5.274h4.122zm8.376 4.932c-.864 0-1.542-.084-2.034-.252-.492-.18-.852-.468-1.08-.864-.216-.396-.324-.948-.324-1.656v-3.834c0-.876.27-1.506.81-1.89.552-.384 1.458-.576 2.718-.576.756 0 1.404.096 1.944.288.552.192.834.468.846.828h.036l-.036-2.214v-2.61h1.62v12.6h-1.584v-1.026c0 .324-.258.6-.774.828-.516.252-1.23.378-2.142.378zm.342-1.116c.9 0 1.548-.102 1.944-.306.396-.204.594-.552.594-1.044v-4.302c0-.78-.798-1.17-2.394-1.17-.96 0-1.584.072-1.872.216-.3.144-.45.462-.45.954v4.302c0 .492.162.84.486 1.044.336.204.9.306 1.692.306zm9.941 1.116c-.864 0-1.542-.084-2.034-.252-.492-.18-.852-.468-1.08-.864-.216-.396-.324-.948-.324-1.656v-3.834c0-.876.27-1.506.81-1.89.552-.384 1.458-.576 2.718-.576.756 0 1.404.096 1.944.288.552.192.834.468.846.828h.036l-.036-2.214v-2.61h1.62v12.6h-1.584v-1.026c0 .324-.258.6-.774.828-.516.252-1.23.378-2.142.378zm.342-1.116c.9 0 1.548-.102 1.944-.306.396-.204.594-.552.594-1.044v-4.302c0-.78-.798-1.17-2.394-1.17-.96 0-1.584.072-1.872.216-.3.144-.45.462-.45.954v4.302c0 .492.162.84.486 1.044.336.204.9.306 1.692.306z" fill="#FF760D"/>
  <rect x="866" y="818" width="126" height="56" rx="10" stroke="#FF760D" stroke-width="4"/>
  <path d="M906.458 942.68a9.814 9.814 0 01-1.674-.126 5.968 5.968 0 01-1.386-.432 2.422 2.422 0 01-1.116-.99c-.252-.444-.378-.984-.378-1.62v-8.694h1.674v8.676c0 .732.246 1.254.738 1.566.492.3 1.218.45 2.178.45s1.674-.15 2.142-.45c.48-.312.72-.834.72-1.566v-8.676h1.674v8.694c0 2.112-1.524 3.168-4.572 3.168zm7.502-8.892h1.602v.936h.018c.132-.744 1.122-1.116 2.97-1.116 1.104 0 1.938.234 2.502.702.564.456.846 1.044.846 1.764v3.582c0 .516-.078.966-.234 1.35-.144.384-.336.684-.576.9-.216.204-.516.366-.9.486-.372.12-.744.198-1.116.234-.336.036-.744.054-1.224.054-.528 0-1.014-.06-1.458-.18-.432-.132-.702-.318-.81-.558v4.302h-1.62v-12.456zm3.924 7.794c.624 0 1.098-.042 1.422-.126.336-.096.576-.264.72-.504.144-.24.216-.606.216-1.098v-3.204c0-.54-.072-.942-.216-1.206-.144-.264-.384-.438-.72-.522-.324-.096-.804-.144-1.44-.144-.636 0-1.11.048-1.422.144-.312.084-.534.258-.666.522-.132.252-.198.654-.198 1.206v3.204c0 .492.066.858.198 1.098.144.24.378.408.702.504.324.084.792.126 1.404.126zm6.499-11.682h1.62v12.6h-1.62v-12.6zm8.12 12.78c-.768 0-1.344-.03-1.728-.09a3.826 3.826 0 01-1.152-.342 1.686 1.686 0 01-.864-.864c-.18-.408-.27-.954-.27-1.638v-3.024c0-.54.066-1.014.198-1.422.132-.408.306-.726.522-.954.18-.204.45-.36.81-.468.372-.12.75-.198 1.134-.234a24.36 24.36 0 011.35-.036c.624 0 1.092.018 1.404.054.324.024.666.084 1.026.18.372.108.66.27.864.486.204.216.378.528.522.936.132.42.198.906.198 1.458v3.024c0 1.02-.234 1.764-.702 2.232-.192.192-.468.342-.828.45-.36.108-.732.18-1.116.216-.456.024-.912.036-1.368.036zm0-1.062c.504 0 .87-.012 1.098-.036.228-.024.45-.09.666-.198a.821.821 0 00.45-.468c.096-.228.144-.54.144-.936v-3.528c0-.54-.066-.93-.198-1.17-.132-.252-.36-.414-.684-.486-.312-.084-.804-.126-1.476-.126-.672 0-1.17.042-1.494.126-.312.072-.534.234-.666.486-.132.24-.198.63-.198 1.17v3.528c0 .396.042.708.126.936a.892.892 0 00.468.468c.216.108.438.174.666.198.228.024.594.036 1.098.036zm9.223 1.062c-.828 0-1.47-.078-1.926-.234a1.67 1.67 0 01-.972-.828c-.192-.396-.288-.966-.288-1.71 0-.66.09-1.17.27-1.53.192-.372.51-.636.954-.792.456-.156 1.098-.234 1.926-.234h2.61v-1.386c0-.324-.066-.57-.198-.738-.12-.18-.33-.306-.63-.378-.288-.072-.714-.108-1.278-.108-.9 0-1.896.072-2.988.216v-1.188a35.894 35.894 0 013.222-.162c1.008 0 1.752.078 2.232.234.48.144.81.402.99.774.18.372.27.948.27 1.728v6.156h-1.566v-.828c-.132.672-1.008 1.008-2.628 1.008zm.27-1.062c.588 0 1.086-.042 1.494-.126.54-.108.81-.36.81-.756v-2.376h-2.502c-.516 0-.888.042-1.116.126a.652.652 0 00-.45.432c-.072.216-.108.564-.108 1.044 0 .432.042.768.126 1.008a.886.886 0 00.45.504c.216.096.54.144.972.144h.324zm9.847 1.062c-.864 0-1.542-.084-2.034-.252-.492-.18-.852-.468-1.08-.864-.216-.396-.324-.948-.324-1.656v-3.834c0-.876.27-1.506.81-1.89.552-.384 1.458-.576 2.718-.576.756 0 1.404.096 1.944.288.552.192.834.468.846.828h.036l-.036-2.214v-2.61h1.62v12.6h-1.584v-1.026c0 .324-.258.6-.774.828-.516.252-1.23.378-2.142.378zm.342-1.116c.9 0 1.548-.102 1.944-.306.396-.204.594-.552.594-1.044v-4.302c0-.78-.798-1.17-2.394-1.17-.96 0-1.584.072-1.872.216-.3.144-.45.462-.45.954v4.302c0 .492.162.84.486 1.044.336.204.9.306 1.692.306z" fill="#FF760D"/>
  <rect x="866" y="908" width="126" height="56" rx="10" stroke="#FF760D" stroke-width="4"/>
  <rect x="864" y="602" width="126" height="56" rx="10" fill="#fff"/>
  <path d="M891.106 624.818h7.848v1.224h-6.102v3.816h5.508v1.224h-5.508v4.194h6.282v1.224h-8.028v-11.682zm12.349 7.2l-3.06-4.23h1.782l2.16 3.186 2.178-3.186h1.782l-3.06 4.23 3.24 4.482h-1.782l-2.358-3.438-2.34 3.438h-1.782l3.24-4.482zm10.269 4.662c-2.664 0-3.996-.888-3.996-2.664v-3.438c0-1.056.3-1.812.9-2.268.612-.468 1.596-.702 2.952-.702 1.284 0 2.208.222 2.772.666.576.444.864 1.212.864 2.304v1.926h-5.85v1.314c0 .6.21 1.032.63 1.296.42.264 1.068.396 1.944.396.828 0 1.806-.144 2.934-.432v1.242c-1.104.24-2.154.36-3.15.36zm1.872-5.238v-1.368c0-.528-.162-.888-.486-1.08-.312-.204-.852-.306-1.62-.306-.744 0-1.284.102-1.62.306-.336.192-.504.552-.504 1.08v1.368h4.23zm4.089-3.654h1.53v1.422c0-.276.12-.534.36-.774.24-.252.546-.45.918-.594a2.825 2.825 0 011.098-.234h.792v1.386h-.9c-.768 0-1.326.102-1.674.306-.336.192-.504.546-.504 1.062v6.138h-1.62v-8.712zm9.821 8.892c-.6 0-1.038-.012-1.314-.036a5.332 5.332 0 01-.918-.18c-.372-.096-.66-.24-.864-.432-.204-.192-.378-.474-.522-.846-.144-.36-.216-.81-.216-1.35v-3.204c0-.972.186-1.668.558-2.088.204-.24.408-.42.612-.54.216-.132.492-.222.828-.27.336-.048.636-.078.9-.09.264-.024.636-.036 1.116-.036.828 0 1.656.09 2.484.27v1.188c-.96-.24-1.854-.36-2.682-.36-.624 0-1.086.048-1.386.144-.288.084-.492.246-.612.486-.108.228-.162.582-.162 1.062v3.564c0 .444.06.774.18.99.132.216.36.372.684.468.336.084.828.126 1.476.126.876 0 1.752-.114 2.628-.342v1.224c-.816.168-1.746.252-2.79.252zm4.839-12.042h1.62v1.692h-1.62v-1.692zm0 3.15h1.62v8.712h-1.62v-8.712zm7.094 8.892c-.924 0-1.92-.072-2.988-.216v-1.242c1.404.228 2.412.342 3.024.342.768 0 1.32-.072 1.656-.216.336-.156.504-.438.504-.846v-.882c0-.372-.126-.636-.378-.792-.252-.156-.66-.234-1.224-.234h-.99c-.9 0-1.59-.186-2.07-.558-.468-.372-.702-.894-.702-1.566v-.81c0-1.368 1.296-2.052 3.888-2.052.192 0 1.074.048 2.646.144v1.17c-1.068-.168-1.974-.252-2.718-.252-.852 0-1.434.084-1.746.252-.312.168-.468.45-.468.846v.738c0 .588.534.882 1.602.882h1.008c1.836 0 2.754.684 2.754 2.052v.756c0 .9-.312 1.542-.936 1.926-.624.372-1.578.558-2.862.558zm9.709 0c-2.664 0-3.996-.888-3.996-2.664v-3.438c0-1.056.3-1.812.9-2.268.612-.468 1.596-.702 2.952-.702 1.284 0 2.208.222 2.772.666.576.444.864 1.212.864 2.304v1.926h-5.85v1.314c0 .6.21 1.032.63 1.296.42.264 1.068.396 1.944.396.828 0 1.806-.144 2.934-.432v1.242c-1.104.24-2.154.36-3.15.36zm1.872-5.238v-1.368c0-.528-.162-.888-.486-1.08-.312-.204-.852-.306-1.62-.306-.744 0-1.284.102-1.62.306-.336.192-.504.552-.504 1.08v1.368h4.23zm6.753 5.238c-.924 0-1.92-.072-2.988-.216v-1.242c1.404.228 2.412.342 3.024.342.768 0 1.32-.072 1.656-.216.336-.156.504-.438.504-.846v-.882c0-.372-.126-.636-.378-.792-.252-.156-.66-.234-1.224-.234h-.99c-.9 0-1.59-.186-2.07-.558-.468-.372-.702-.894-.702-1.566v-.81c0-1.368 1.296-2.052 3.888-2.052.192 0 1.074.048 2.646.144v1.17c-1.068-.168-1.974-.252-2.718-.252-.852 0-1.434.084-1.746.252-.312.168-.468.45-.468.846v.738c0 .588.534.882 1.602.882h1.008c1.836 0 2.754.684 2.754 2.052v.756c0 .9-.312 1.542-.936 1.926-.624.372-1.578.558-2.862.558z" fill="#000"/>
  <rect x="864" y="602" width="126" height="56" rx="10" stroke="#FF760D" stroke-width="4"/>
  <rect x="1318" y="602" width="126" height="56" rx="10" fill="#fff"/>
  <path d="M1356.92 636.68c-3.28 0-4.91-1.056-4.91-3.168v-5.544c0-2.232 1.63-3.348 4.91-3.348 1.12 0 2.18.114 3.2.342v1.296c-1.15-.288-2.2-.432-3.16-.432-.47 0-.88.03-1.23.09-.35.048-.68.138-1.01.27-.69.3-1.04.888-1.04 1.764v5.472c0 1.344 1.12 2.016 3.35 2.016.96 0 2.01-.144 3.17-.432v1.332c-1.02.228-2.12.342-3.28.342zm8.52 0c-1.11 0-1.9-.198-2.36-.594-.44-.408-.66-1.044-.66-1.908v-6.39h1.62v6.3c0 .228.02.414.05.558.05.132.13.27.24.414.21.312.74.468 1.58.468.89 0 1.51-.084 1.87-.252.35-.168.52-.474.52-.918v-6.57h1.62v8.712h-1.62v-1.062c-.15.828-1.11 1.242-2.86 1.242zm7.3-8.892h1.53v1.422c0-.276.12-.534.36-.774.24-.252.54-.45.91-.594.38-.156.74-.234 1.1-.234h.79v1.386h-.9c-.76 0-1.32.102-1.67.306-.34.192-.5.546-.5 1.062v6.138h-1.62v-8.712zm6.31 0h1.53v1.422c0-.276.12-.534.36-.774.24-.252.54-.45.91-.594.38-.156.74-.234 1.1-.234h.79v1.386h-.9c-.76 0-1.32.102-1.67.306-.34.192-.5.546-.5 1.062v6.138h-1.62v-8.712zm9.98 8.892c-2.66 0-4-.888-4-2.664v-3.438c0-1.056.3-1.812.9-2.268.62-.468 1.6-.702 2.96-.702 1.28 0 2.2.222 2.77.666.57.444.86 1.212.86 2.304v1.926h-5.85v1.314c0 .6.21 1.032.63 1.296.42.264 1.07.396 1.95.396.82 0 1.8-.144 2.93-.432v1.242c-1.1.24-2.15.36-3.15.36zm1.87-5.238v-1.368c0-.528-.16-.888-.48-1.08-.32-.204-.86-.306-1.62-.306-.75 0-1.29.102-1.62.306-.34.192-.51.552-.51 1.08v1.368h4.23zm4.09-3.654h1.62v1.062c.17-.828 1.12-1.242 2.86-1.242 1.12 0 1.9.204 2.34.612.46.396.69 1.026.69 1.89v6.39h-1.62v-6.3c0-.228-.02-.414-.06-.558a1.23 1.23 0 00-.21-.432c-.24-.3-.78-.45-1.61-.45-.63 0-1.12.048-1.47.144-.34.084-.58.228-.72.432-.13.204-.2.492-.2.864v6.3h-1.62v-8.712zm13.97 8.892c-.74 0-1.32-.078-1.74-.234a1.683 1.683 0 01-.92-.828c-.18-.396-.27-.948-.27-1.656v-5.112h-1.95v-1.062h1.95v-2.7h1.64v2.7h3.11v1.062h-3.11v5.202c0 .432.04.756.14.972.11.216.29.372.54.468.26.084.64.126 1.13.126.16 0 .59-.048 1.3-.144v1.062c-.61.096-1.22.144-1.82.144z" fill="#000"/>
  <rect x="1318" y="602" width="126" height="56" rx="10" stroke="#FF760D" stroke-width="4"/>
  <rect x="1050" y="602" width="126" height="56" rx="10" fill="#fff"/>
  <path d="M1075.63 624.818h3.82c.54 0 .97.012 1.29.036.34.024.69.078 1.06.162.39.084.69.21.92.378.24.168.45.396.61.684.16.276.24.624.24 1.044v2.43c0 .972-.38 1.674-1.14 2.106-.74.42-1.84.63-3.31.63h-1.74v4.212h-1.75v-11.682zm3.73 6.372c.75 0 1.36-.138 1.81-.414.46-.276.69-.714.69-1.314v-2.124c0-.324-.09-.588-.25-.792-.17-.216-.41-.366-.72-.45-.3-.072-.56-.12-.76-.144-.2-.024-.47-.036-.81-.036h-1.96v5.274h2zm6.43-3.402h1.53v1.422c0-.276.12-.534.36-.774.24-.252.54-.45.91-.594.38-.156.74-.234 1.1-.234h.79v1.386h-.9c-.76 0-1.32.102-1.67.306-.34.192-.5.546-.5 1.062v6.138h-1.62v-8.712zm10 8.892c-.77 0-1.35-.03-1.73-.09a3.814 3.814 0 01-1.15-.342c-.4-.18-.69-.468-.87-.864-.18-.408-.27-.954-.27-1.638v-3.024c0-.54.07-1.014.2-1.422.13-.408.31-.726.52-.954.18-.204.45-.36.81-.468.38-.12.75-.198 1.14-.234.43-.024.88-.036 1.35-.036.62 0 1.09.018 1.4.054.33.024.67.084 1.03.18.37.108.66.27.86.486.21.216.38.528.52.936.14.42.2.906.2 1.458v3.024c0 1.02-.23 1.764-.7 2.232-.19.192-.47.342-.83.45-.36.108-.73.18-1.11.216-.46.024-.92.036-1.37.036zm0-1.062c.5 0 .87-.012 1.1-.036.22-.024.45-.09.66-.198a.798.798 0 00.45-.468c.1-.228.15-.54.15-.936v-3.528c0-.54-.07-.93-.2-1.17-.13-.252-.36-.414-.69-.486-.31-.084-.8-.126-1.47-.126-.67 0-1.17.042-1.5.126-.31.072-.53.234-.66.486-.13.24-.2.63-.2 1.17v3.528c0 .396.04.708.13.936.09.216.25.372.46.468.22.108.44.174.67.198.23.024.59.036 1.1.036zm9.83 4.842c-1.19 0-2.19-.066-3-.198v-1.152c1.44.168 2.49.252 3.15.252.82 0 1.42-.132 1.8-.396.38-.264.57-.702.57-1.314v-2.088c-.02.384-.29.666-.79.846-.49.18-1.12.27-1.87.27-.9 0-1.6-.084-2.11-.252-.49-.168-.84-.444-1.06-.828-.2-.384-.31-.906-.31-1.566v-3.546c0-1.032.28-1.77.83-2.214.57-.444 1.48-.666 2.76-.666 1.51 0 2.4.342 2.66 1.026v-.846h1.51v9.54c0 .804-.15 1.434-.45 1.89-.3.456-.75.774-1.35.954-.6.192-1.38.288-2.34.288zm.2-4.86c.85 0 1.45-.102 1.8-.306.35-.204.52-.588.52-1.152V630.2c0-.396-.06-.696-.2-.9-.12-.204-.34-.348-.68-.432-.34-.096-.83-.144-1.48-.144-.61 0-1.07.042-1.38.126-.3.084-.51.234-.63.45-.11.204-.16.504-.16.9v3.942c0 .408.06.714.18.918.12.204.33.348.64.432.32.072.78.108 1.39.108zm6.76-7.812h1.53v1.422c0-.276.12-.534.36-.774.24-.252.54-.45.91-.594.38-.156.74-.234 1.1-.234h.79v1.386h-.9c-.76 0-1.32.102-1.67.306-.34.192-.5.546-.5 1.062v6.138h-1.62v-8.712zm8.99 8.892c-.83 0-1.47-.078-1.93-.234-.44-.156-.77-.432-.97-.828-.19-.396-.29-.966-.29-1.71 0-.66.09-1.17.27-1.53.19-.372.51-.636.96-.792.45-.156 1.09-.234 1.92-.234h2.61v-1.386c0-.324-.06-.57-.2-.738-.12-.18-.33-.306-.63-.378-.28-.072-.71-.108-1.27-.108-.9 0-1.9.072-2.99.216v-1.188c1.19-.108 2.26-.162 3.22-.162 1.01 0 1.75.078 2.23.234.48.144.81.402.99.774.18.372.27.948.27 1.728v6.156h-1.56v-.828c-.14.672-1.01 1.008-2.63 1.008zm.27-1.062c.59 0 1.08-.042 1.49-.126.54-.108.81-.36.81-.756v-2.376h-2.5c-.52 0-.89.042-1.12.126a.684.684 0 00-.45.432c-.07.216-.1.564-.1 1.044 0 .432.04.768.12 1.008a.93.93 0 00.45.504c.22.096.54.144.97.144h.33zm6.73-7.83h1.62v1.062c.17-.828 1.15-1.242 2.94-1.242 1.45 0 2.35.396 2.71 1.188.11-.384.44-.678.98-.882.55-.204 1.22-.306 2.01-.306 1.08 0 1.84.204 2.29.612.44.396.66 1.026.66 1.89v6.39h-1.62v-6.282c0-.228-.01-.414-.05-.558a1.265 1.265 0 00-.22-.432c-.24-.3-.77-.45-1.6-.45-.63 0-1.11.042-1.42.126-.31.084-.53.228-.65.432-.11.204-.16.498-.16.882v6.282h-1.62v-6.282c0-.228-.02-.414-.05-.558a1.265 1.265 0 00-.22-.432c-.24-.3-.77-.45-1.58-.45-.66 0-1.16.042-1.5.126-.33.084-.57.228-.7.432-.13.192-.2.486-.2.882v6.282h-1.62v-8.712zm18.68 8.892c-.92 0-1.92-.072-2.99-.216v-1.242c1.41.228 2.41.342 3.03.342.76 0 1.32-.072 1.65-.216.34-.156.51-.438.51-.846v-.882c0-.372-.13-.636-.38-.792-.25-.156-.66-.234-1.23-.234h-.99c-.9 0-1.59-.186-2.07-.558-.46-.372-.7-.894-.7-1.566v-.81c0-1.368 1.3-2.052 3.89-2.052.19 0 1.07.048 2.65.144v1.17c-1.07-.168-1.98-.252-2.72-.252-.85 0-1.44.084-1.75.252-.31.168-.47.45-.47.846v.738c0 .588.54.882 1.61.882h1c1.84 0 2.76.684 2.76 2.052v.756c0 .9-.31 1.542-.94 1.926-.62.372-1.58.558-2.86.558z" fill="#000"/>
  <rect x="1050" y="602" width="126" height="56" rx="10" stroke="#FF760D" stroke-width="4"/>
  <rect x="1504" y="602" width="126" height="56" rx="10" fill="#fff"/>
  <path d="M1550.56 624.818h3.82c.54 0 .97.012 1.3.036.33.024.69.078 1.06.162.38.084.69.21.92.378.24.168.44.396.61.684.15.276.23.624.23 1.044v2.43c0 .972-.38 1.674-1.13 2.106-.75.42-1.85.63-3.31.63h-1.75v4.212h-1.75v-11.682zm3.73 6.372c.76 0 1.36-.138 1.82-.414.45-.276.68-.714.68-1.314v-2.124c0-.324-.08-.588-.25-.792-.17-.216-.41-.366-.72-.45-.3-.072-.55-.12-.76-.144-.2-.024-.47-.036-.81-.036h-1.96v5.274h2zm9.11 5.49c-.82 0-1.47-.078-1.92-.234-.45-.156-.77-.432-.97-.828-.2-.396-.29-.966-.29-1.71 0-.66.09-1.17.27-1.53.19-.372.51-.636.95-.792.46-.156 1.1-.234 1.93-.234h2.61v-1.386c0-.324-.07-.57-.2-.738-.12-.18-.33-.306-.63-.378-.29-.072-.71-.108-1.28-.108-.9 0-1.89.072-2.99.216v-1.188c1.19-.108 2.27-.162 3.23-.162 1 0 1.75.078 2.23.234.48.144.81.402.99.774.18.372.27.948.27 1.728v6.156h-1.57v-.828c-.13.672-1.01 1.008-2.63 1.008zm.27-1.062c.59 0 1.09-.042 1.5-.126.54-.108.81-.36.81-.756v-2.376h-2.5c-.52 0-.89.042-1.12.126a.644.644 0 00-.45.432c-.07.216-.11.564-.11 1.044 0 .432.04.768.13 1.008a.86.86 0 00.45.504c.21.096.54.144.97.144h.32zm9.4 1.062c-.92 0-1.92-.072-2.99-.216v-1.242c1.41.228 2.42.342 3.03.342.77 0 1.32-.072 1.65-.216.34-.156.51-.438.51-.846v-.882c0-.372-.13-.636-.38-.792-.25-.156-.66-.234-1.22-.234h-.99c-.9 0-1.59-.186-2.07-.558-.47-.372-.71-.894-.71-1.566v-.81c0-1.368 1.3-2.052 3.89-2.052.19 0 1.08.048 2.65.144v1.17c-1.07-.168-1.98-.252-2.72-.252-.85 0-1.43.084-1.75.252-.31.168-.46.45-.46.846v.738c0 .588.53.882 1.6.882h1.01c1.83 0 2.75.684 2.75 2.052v.756c0 .9-.31 1.542-.94 1.926-.62.372-1.57.558-2.86.558zm9.69 0c-.74 0-1.32-.078-1.74-.234a1.683 1.683 0 01-.92-.828c-.18-.396-.27-.948-.27-1.656v-5.112h-1.94v-1.062h1.94v-2.7h1.64v2.7h3.11v1.062h-3.11v5.202c0 .432.05.756.14.972.11.216.29.372.54.468.27.084.64.126 1.14.126.15 0 .58-.048 1.29-.144v1.062c-.61.096-1.22.144-1.82.144z" fill="#000"/>
  <rect x="1504" y="602" width="126" height="56" rx="10" stroke="#FF760D" stroke-width="4"/>
  <rect x="667" y="512" width="126" height="56" rx="10" fill="#FF760D"/>
  <path d="M706.475 534.818h2.808v4.68h4.968v-4.68h2.808V546.5h-2.808v-5.004h-4.968v5.004h-2.808v-11.682zm17.164 11.862c-.54 0-.984-.018-1.332-.054a6.996 6.996 0 01-1.116-.216c-.432-.12-.78-.288-1.044-.504-.264-.228-.486-.546-.666-.954-.18-.396-.27-.876-.27-1.44v-2.574c0-.576.09-1.08.27-1.512.18-.432.414-.768.702-1.008.252-.204.582-.372.99-.504.42-.144.828-.234 1.224-.27.456-.024.87-.036 1.242-.036.552 0 .99.018 1.314.054.336.024.702.096 1.098.216.432.132.78.312 1.044.54.276.228.51.552.702.972.18.432.27.948.27 1.548v2.574c0 .54-.09 1.014-.27 1.422-.168.408-.39.726-.666.954-.24.204-.57.372-.99.504-.408.12-.81.198-1.206.234-.36.036-.792.054-1.296.054zm0-1.638c.492 0 .864-.036 1.116-.108.252-.084.426-.21.522-.378.108-.168.162-.414.162-.738v-3.294c0-.48-.126-.816-.378-1.008-.252-.192-.726-.288-1.422-.288s-1.17.096-1.422.288c-.252.192-.378.528-.378 1.008v3.294c0 .324.048.57.144.738.108.168.288.294.54.378.252.072.624.108 1.116.108zm6.476-7.254h2.628v1.062c.168-.828 1.026-1.242 2.574-1.242.816 0 1.434.108 1.854.324.42.204.702.528.846.972.144-.456.42-.786.828-.99.42-.204 1.05-.306 1.89-.306.756 0 1.338.09 1.746.27.408.168.69.432.846.792.168.36.252.84.252 1.44v6.39h-2.628v-6.03c0-.384-.024-.654-.072-.81a.489.489 0 00-.324-.342c-.156-.06-.432-.09-.828-.09-.492 0-.846.03-1.062.09-.204.06-.342.174-.414.342-.06.156-.09.426-.09.81v6.03h-2.628v-6.03c0-.384-.024-.654-.072-.81a.489.489 0 00-.324-.342c-.156-.06-.432-.09-.828-.09-.492 0-.846.03-1.062.09-.204.06-.342.174-.414.342-.06.156-.09.426-.09.81v6.03h-2.628v-8.712zm20.141 8.892c-3.084 0-4.626-.942-4.626-2.826v-3.132c0-1.092.348-1.884 1.044-2.376.708-.492 1.794-.738 3.258-.738 1.38 0 2.388.24 3.024.72.648.468.972 1.266.972 2.394v2.124h-5.652v.792c0 .504.18.864.54 1.08.36.216 1.008.324 1.944.324.864 0 1.836-.126 2.916-.378v1.674a16.36 16.36 0 01-3.42.342zm1.17-5.328v-1.26a.707.707 0 00-.36-.648c-.228-.144-.618-.216-1.17-.216-.636 0-1.062.072-1.278.216a.743.743 0 00-.342.648v1.26h3.15z" fill="#fff"/>
  <rect x="667" y="512" width="126" height="56" rx="10" stroke="#FF760D" stroke-width="4"/>
  <rect x="957" y="512" width="126" height="56" rx="10" fill="#FF760D"/>
  <path d="M978.44 534.818h2.916l2.268 8.532 2.268-8.532h2.61l2.448 8.532 2.088-8.532h2.844l-3.744 11.682h-2.772l-2.232-8.478-2.304 8.478h-2.772l-3.618-11.682zm22.92 11.862c-.54 0-.98-.018-1.33-.054a6.976 6.976 0 01-1.118-.216c-.432-.12-.78-.288-1.044-.504-.264-.228-.486-.546-.666-.954-.18-.396-.27-.876-.27-1.44v-2.574c0-.576.09-1.08.27-1.512.18-.432.414-.768.702-1.008.252-.204.582-.372.99-.504a5.23 5.23 0 011.226-.27c.45-.024.87-.036 1.24-.036.55 0 .99.018 1.31.054.34.024.71.096 1.1.216.43.132.78.312 1.05.54.27.228.51.552.7.972.18.432.27.948.27 1.548v2.574c0 .54-.09 1.014-.27 1.422-.17.408-.39.726-.67.954-.24.204-.57.372-.99.504-.41.12-.81.198-1.2.234-.36.036-.8.054-1.3.054zm0-1.638c.49 0 .86-.036 1.12-.108.25-.084.42-.21.52-.378.11-.168.16-.414.16-.738v-3.294c0-.48-.13-.816-.38-1.008-.25-.192-.72-.288-1.42-.288s-1.17.096-1.422.288c-.252.192-.378.528-.378 1.008v3.294c0 .324.048.57.144.738.108.168.288.294.536.378.26.072.63.108 1.12.108zm6.48-7.254h2.5v1.53c0-.276.11-.546.34-.81.23-.264.52-.48.86-.648.36-.168.72-.252 1.07-.252h.93v2.178h-.9c-.74 0-1.29.114-1.65.342-.35.228-.53.606-.53 1.134v5.238h-2.62v-8.712zm7.15-3.888h2.63v12.6h-2.63v-12.6zm2.74 7.704l2.86-3.816h3l-3.02 3.798 3.28 4.914h-2.97l-3.15-4.896zm11.16 5.076c-.54 0-.99-.018-1.33-.054a7.082 7.082 0 01-1.12-.216c-.43-.12-.78-.288-1.04-.504-.27-.228-.49-.546-.67-.954-.18-.396-.27-.876-.27-1.44v-2.574c0-.576.09-1.08.27-1.512.18-.432.41-.768.7-1.008.25-.204.58-.372.99-.504.42-.144.83-.234 1.23-.27.45-.024.87-.036 1.24-.036.55 0 .99.018 1.31.054.34.024.7.096 1.1.216.43.132.78.312 1.04.54.28.228.51.552.71.972.18.432.27.948.27 1.548v2.574c0 .54-.09 1.014-.27 1.422-.17.408-.39.726-.67.954-.24.204-.57.372-.99.504-.41.12-.81.198-1.21.234-.36.036-.79.054-1.29.054zm0-1.638c.49 0 .86-.036 1.11-.108.26-.084.43-.21.53-.378.1-.168.16-.414.16-.738v-3.294c0-.48-.13-.816-.38-1.008-.25-.192-.73-.288-1.42-.288-.7 0-1.17.096-1.42.288-.26.192-.38.528-.38 1.008v3.294c0 .324.05.57.14.738.11.168.29.294.54.378.25.072.63.108 1.12.108zm9.5 1.638c-1.12 0-1.9-.198-2.36-.594-.44-.408-.67-1.044-.67-1.908v-6.39h2.63v6.03c0 .336.03.588.09.756.07.168.21.288.4.36.2.072.51.108.92.108.51 0 .89-.03 1.13-.09.24-.072.4-.192.49-.36.08-.168.12-.426.12-.774v-6.03h2.63v8.712h-2.59v-1.062c-.19.828-1.12 1.242-2.79 1.242zm12.03 0c-.44 0-.81-.018-1.11-.054-.3-.036-.6-.108-.9-.216a2.286 2.286 0 01-.83-.45c-.2-.192-.37-.456-.5-.792-.15-.348-.22-.75-.22-1.206v-4.554h-1.76v-1.62h1.76v-2.52h2.63v2.52h2.39v1.62h-2.39v4.104c0 .42.03.738.11.954.07.204.21.354.41.45.2.084.52.126.94.126.16 0 .48-.03.93-.09v1.638c-.56.06-1.05.09-1.46.09zm6.24 0c-.94 0-2.08-.09-3.44-.27v-1.746c1.67.252 2.83.378 3.47.378.56 0 .96-.054 1.23-.162.26-.108.39-.306.39-.594v-.54c0-.3-.08-.51-.25-.63-.17-.132-.5-.198-.99-.198h-1.13c-.93 0-1.64-.18-2.14-.54-.51-.372-.76-.912-.76-1.62v-1.062c0-.756.36-1.29 1.08-1.602.72-.324 1.81-.486 3.26-.486.57 0 1.61.054 3.09.162v1.674c-1.87-.144-2.92-.216-3.16-.216-.71 0-1.17.048-1.39.144-.19.108-.29.306-.29.594v.468c0 .156.08.294.24.414.15.108.38.162.68.162h1.15c2.14 0 3.21.696 3.21 2.088v1.098c0 .42-.08.786-.24 1.098-.15.312-.36.558-.61.738-.24.168-.55.3-.94.396a7.14 7.14 0 01-1.17.198c-.37.036-.8.054-1.29.054z" fill="#fff"/>
  <rect x="957" y="512" width="126" height="56" rx="10" stroke="#FF760D" stroke-width="4"/>
  <rect x="1411" y="512" width="126" height="56" rx="10" fill="#FF760D"/>
  <path d="M1451.2 546.68c-.53 0-1-.024-1.42-.072a9.462 9.462 0 01-1.35-.27c-.55-.144-1.01-.33-1.37-.558a2.88 2.88 0 01-.9-.99c-.25-.42-.38-.918-.38-1.494v-5.13c0-2.352 1.81-3.528 5.42-3.528.93 0 2.16.132 3.71.396v2.106c-1.39-.336-2.62-.504-3.67-.504-.45 0-.79.012-1.05.036-.24.024-.49.084-.75.18-.57.192-.85.618-.85 1.278v4.968c0 1.056.97 1.584 2.9 1.584.83 0 1.99-.174 3.49-.522v2.124a18.68 18.68 0 01-3.78.396zm5.54-12.78h2.63v12.6h-2.63v-12.6zm5.08.738h2.63v2.124h-2.63v-2.124zm0 3.15h2.63v8.712h-2.63v-8.712zm9.38 8.892c-3.08 0-4.62-.942-4.62-2.826v-3.132c0-1.092.34-1.884 1.04-2.376.71-.492 1.79-.738 3.26-.738 1.38 0 2.39.24 3.02.72.65.468.97 1.266.97 2.394v2.124h-5.65v.792c0 .504.18.864.54 1.08.36.216 1.01.324 1.95.324.86 0 1.83-.126 2.91-.378v1.674c-1.07.228-2.21.342-3.42.342zm1.17-5.328v-1.26a.707.707 0 00-.36-.648c-.23-.144-.62-.216-1.17-.216-.63 0-1.06.072-1.28.216a.76.76 0 00-.34.648v1.26h3.15zm4.51-3.564h2.6v1.062c.2-.828 1.13-1.242 2.79-1.242 1.11 0 1.89.204 2.34.612.45.396.68 1.026.68 1.89v6.39h-2.63v-6.048c0-.336-.03-.588-.11-.756-.06-.168-.19-.288-.39-.36-.19-.072-.49-.108-.9-.108-.52 0-.9.036-1.14.108-.24.06-.4.174-.48.342-.09.168-.13.426-.13.774v6.048h-2.63v-8.712zm15.06 8.892c-.44 0-.81-.018-1.11-.054-.3-.036-.6-.108-.9-.216a2.286 2.286 0 01-.83-.45c-.2-.192-.37-.456-.5-.792-.15-.348-.22-.75-.22-1.206v-4.554h-1.76v-1.62h1.76v-2.52h2.63v2.52h2.39v1.62h-2.39v4.104c0 .42.03.738.11.954.07.204.21.354.41.45.2.084.52.126.94.126.16 0 .48-.03.93-.09v1.638c-.56.06-1.05.09-1.46.09zm6.24 0c-.94 0-2.09-.09-3.44-.27v-1.746c1.67.252 2.82.378 3.47.378.55 0 .96-.054 1.23-.162.26-.108.39-.306.39-.594v-.54c0-.3-.08-.51-.25-.63-.17-.132-.5-.198-.99-.198h-1.13c-.93 0-1.64-.18-2.15-.54-.5-.372-.75-.912-.75-1.62v-1.062c0-.756.36-1.29 1.08-1.602.72-.324 1.8-.486 3.26-.486.57 0 1.6.054 3.09.162v1.674c-1.87-.144-2.93-.216-3.17-.216-.7 0-1.17.048-1.38.144-.19.108-.29.306-.29.594v.468c0 .156.08.294.23.414.16.108.39.162.69.162h1.15c2.14 0 3.2.696 3.2 2.088v1.098c0 .42-.07.786-.23 1.098-.16.312-.36.558-.61.738-.24.168-.55.3-.94.396a7.14 7.14 0 01-1.17.198c-.37.036-.8.054-1.29.054z" fill="#fff"/>
  <rect x="1411" y="512" width="126" height="56" rx="10" stroke="#FF760D" stroke-width="4"/>
  <rect x="1679" y="512" width="126" height="56" rx="10" fill="#FF760D"/>
  <path d="M1715.43 534.818h4.68c1.14 0 2.04.078 2.7.234.67.156 1.15.432 1.45.828.32.384.47.924.47 1.62v2.214c0 .768-.17 1.368-.5 1.8-.33.432-.85.738-1.57.918-.71.18-1.67.27-2.88.27h-1.55v3.798h-2.8v-11.682zm4.59 5.958c.73 0 1.24-.084 1.54-.252.3-.18.45-.48.45-.9v-1.872c0-.384-.14-.636-.43-.756-.27-.12-.81-.18-1.6-.18h-1.75v3.96h1.79zm6.58-2.988h2.5v1.53c0-.276.12-.546.35-.81.22-.264.51-.48.86-.648.36-.168.71-.252 1.06-.252h.94v2.178h-.9c-.75 0-1.3.114-1.66.342-.35.228-.52.606-.52 1.134v5.238h-2.63v-8.712zm11.33 8.892c-.54 0-.98-.018-1.33-.054a7.082 7.082 0 01-1.12-.216c-.43-.12-.78-.288-1.04-.504a2.702 2.702 0 01-.67-.954c-.18-.396-.27-.876-.27-1.44v-2.574c0-.576.09-1.08.27-1.512.18-.432.42-.768.71-1.008.25-.204.58-.372.99-.504.42-.144.82-.234 1.22-.27.46-.024.87-.036 1.24-.036.55 0 .99.018 1.32.054.33.024.7.096 1.09.216.44.132.78.312 1.05.54.27.228.51.552.7.972.18.432.27.948.27 1.548v2.574c0 .54-.09 1.014-.27 1.422-.17.408-.39.726-.67.954-.24.204-.57.372-.99.504a6.2 6.2 0 01-1.2.234c-.36.036-.79.054-1.3.054zm0-1.638c.49 0 .87-.036 1.12-.108.25-.084.42-.21.52-.378.11-.168.16-.414.16-.738v-3.294c0-.48-.12-.816-.38-1.008-.25-.192-.72-.288-1.42-.288-.69 0-1.17.096-1.42.288-.25.192-.38.528-.38 1.008v3.294c0 .324.05.57.15.738.1.168.28.294.54.378.25.072.62.108 1.11.108zm7.14-5.634h-1.63v-1.62h1.63v-1.314c0-.708.12-1.26.35-1.656.24-.408.6-.69 1.08-.846.49-.168 1.14-.252 1.96-.252.41 0 .92.03 1.55.09v1.62c-.52-.06-.9-.09-1.14-.09-.44 0-.75.072-.92.216-.16.132-.25.39-.25.774v1.458h2.22v1.62h-2.22v7.092h-2.63v-7.092zm5.78-5.508h2.63v2.124h-2.63V533.9zm0 3.888h2.63v8.712h-2.63v-8.712zm5.07-3.888h2.63v12.6h-2.63v-12.6zm9.39 12.78c-3.09 0-4.63-.942-4.63-2.826v-3.132c0-1.092.35-1.884 1.04-2.376.71-.492 1.8-.738 3.26-.738 1.38 0 2.39.24 3.03.72.64.468.97 1.266.97 2.394v2.124h-5.65v.792c0 .504.18.864.54 1.08.36.216 1 .324 1.94.324.86 0 1.84-.126 2.92-.378v1.674c-1.07.228-2.21.342-3.42.342zm1.17-5.328v-1.26a.707.707 0 00-.36-.648c-.23-.144-.62-.216-1.17-.216-.64 0-1.07.072-1.28.216a.737.737 0 00-.34.648v1.26h3.15z" fill="#fff"/>
  <rect x="1679" y="512" width="126" height="56" rx="10" stroke="#FF760D" stroke-width="4"/>
  <rect x="447" y="664" width="126" height="56" rx="10" fill="#fff"/>
  <path d="M485.997 686.818h1.746v10.458h5.742v1.224h-7.488v-11.682zm12.934 11.862c-.768 0-1.344-.03-1.728-.09a3.826 3.826 0 01-1.152-.342 1.686 1.686 0 01-.864-.864c-.18-.408-.27-.954-.27-1.638v-3.024c0-.54.066-1.014.198-1.422.132-.408.306-.726.522-.954.18-.204.45-.36.81-.468.372-.12.75-.198 1.134-.234a24.36 24.36 0 011.35-.036c.624 0 1.092.018 1.404.054.324.024.666.084 1.026.18.372.108.66.27.864.486.204.216.378.528.522.936.132.42.198.906.198 1.458v3.024c0 1.02-.234 1.764-.702 2.232-.192.192-.468.342-.828.45-.36.108-.732.18-1.116.216-.456.024-.912.036-1.368.036zm0-1.062c.504 0 .87-.012 1.098-.036.228-.024.45-.09.666-.198a.821.821 0 00.45-.468c.096-.228.144-.54.144-.936v-3.528c0-.54-.066-.93-.198-1.17-.132-.252-.36-.414-.684-.486-.312-.084-.804-.126-1.476-.126-.672 0-1.17.042-1.494.126-.312.072-.534.234-.666.486-.132.24-.198.63-.198 1.17v3.528c0 .396.042.708.126.936a.892.892 0 00.468.468c.216.108.438.174.666.198.228.024.594.036 1.098.036zm9.834 4.842c-1.188 0-2.19-.066-3.006-.198v-1.152c1.44.168 2.49.252 3.15.252.828 0 1.428-.132 1.8-.396.384-.264.576-.702.576-1.314v-2.088c-.024.384-.288.666-.792.846-.492.18-1.116.27-1.872.27-.9 0-1.602-.084-2.106-.252-.492-.168-.846-.444-1.062-.828-.204-.384-.306-.906-.306-1.566v-3.546c0-1.032.276-1.77.828-2.214.564-.444 1.482-.666 2.754-.666 1.512 0 2.4.342 2.664 1.026v-.846h1.512v9.54c0 .804-.15 1.434-.45 1.89-.3.456-.75.774-1.35.954-.6.192-1.38.288-2.34.288zm.198-4.86c.852 0 1.452-.102 1.8-.306.348-.204.522-.588.522-1.152V692.2c0-.396-.066-.696-.198-.9-.12-.204-.348-.348-.684-.432-.336-.096-.828-.144-1.476-.144-.612 0-1.074.042-1.386.126-.3.084-.51.234-.63.45-.108.204-.162.504-.162.9v3.942c0 .408.06.714.18.918.12.204.336.348.648.432.312.072.774.108 1.386.108zm6.072-4.896h5.004V694h-5.004v-1.296zm7.136-6.066h1.62v1.692h-1.62v-1.692zm0 3.15h1.62v8.712h-1.62v-8.712zm4.429 0h1.62v1.062c.168-.828 1.122-1.242 2.862-1.242 1.116 0 1.896.204 2.34.612.456.396.684 1.026.684 1.89v6.39h-1.62v-6.3c0-.228-.018-.414-.054-.558a1.217 1.217 0 00-.216-.432c-.24-.3-.774-.45-1.602-.45-.636 0-1.128.048-1.476.144-.336.084-.576.228-.72.432-.132.204-.198.492-.198.864v6.3h-1.62v-8.712z" fill="#000"/>
  <rect x="447" y="664" width="126" height="56" rx="10" stroke="#FF760D" stroke-width="4"/>
  <rect x="513.372" y="450.826" width="126" height="126" rx="18" transform="rotate(47.264 513.372 450.826)" fill="#fff"/>
  <path d="M476.972 524.17h1.746v10.458h5.742v1.224h-7.488V524.17zm11.926 11.862c-.828 0-1.47-.078-1.926-.234a1.67 1.67 0 01-.972-.828c-.192-.396-.288-.966-.288-1.71 0-.66.09-1.17.27-1.53.192-.372.51-.636.954-.792.456-.156 1.098-.234 1.926-.234h2.61v-1.386c0-.324-.066-.57-.198-.738-.12-.18-.33-.306-.63-.378-.288-.072-.714-.108-1.278-.108-.9 0-1.896.072-2.988.216v-1.188a35.894 35.894 0 013.222-.162c1.008 0 1.752.078 2.232.234.48.144.81.402.99.774.18.372.27.948.27 1.728v6.156h-1.566v-.828c-.132.672-1.008 1.008-2.628 1.008zm.27-1.062c.588 0 1.086-.042 1.494-.126.54-.108.81-.36.81-.756v-2.376h-2.502c-.516 0-.888.042-1.116.126a.652.652 0 00-.45.432c-.072.216-.108.564-.108 1.044 0 .432.042.768.126 1.008a.886.886 0 00.45.504c.216.096.54.144.972.144h.324zm6.734-7.83h1.62v1.062c.168-.828 1.122-1.242 2.862-1.242 1.116 0 1.896.204 2.34.612.456.396.684 1.026.684 1.89v6.39h-1.62v-6.3c0-.228-.018-.414-.054-.558a1.217 1.217 0 00-.216-.432c-.24-.3-.774-.45-1.602-.45-.636 0-1.128.048-1.476.144-.336.084-.576.228-.72.432-.132.204-.198.492-.198.864v6.3h-1.62v-8.712zm13.432 8.892c-.864 0-1.542-.084-2.034-.252-.492-.18-.852-.468-1.08-.864-.216-.396-.324-.948-.324-1.656v-3.834c0-.876.27-1.506.81-1.89.552-.384 1.458-.576 2.718-.576.756 0 1.404.096 1.944.288.552.192.834.468.846.828h.036l-.036-2.214v-2.61h1.62v12.6h-1.584v-1.026c0 .324-.258.6-.774.828-.516.252-1.23.378-2.142.378zm.342-1.116c.9 0 1.548-.102 1.944-.306.396-.204.594-.552.594-1.044v-4.302c0-.78-.798-1.17-2.394-1.17-.96 0-1.584.072-1.872.216-.3.144-.45.462-.45.954v4.302c0 .492.162.84.486 1.044.336.204.9.306 1.692.306zm6.827-10.926h1.62v1.692h-1.62v-1.692zm0 3.15h1.62v8.712h-1.62v-8.712zm4.43 0h1.62v1.062c.168-.828 1.122-1.242 2.862-1.242 1.116 0 1.896.204 2.34.612.456.396.684 1.026.684 1.89v6.39h-1.62v-6.3c0-.228-.018-.414-.054-.558a1.217 1.217 0 00-.216-.432c-.24-.3-.774-.45-1.602-.45-.636 0-1.128.048-1.476.144-.336.084-.576.228-.72.432-.132.204-.198.492-.198.864v6.3h-1.62v-8.712zm13.612 12.672c-1.188 0-2.19-.066-3.006-.198v-1.152c1.44.168 2.49.252 3.15.252.828 0 1.428-.132 1.8-.396.384-.264.576-.702.576-1.314v-2.088c-.024.384-.288.666-.792.846-.492.18-1.116.27-1.872.27-.9 0-1.602-.084-2.106-.252-.492-.168-.846-.444-1.062-.828-.204-.384-.306-.906-.306-1.566v-3.546c0-1.032.276-1.77.828-2.214.564-.444 1.482-.666 2.754-.666 1.512 0 2.4.342 2.664 1.026v-.846h1.512v9.54c0 .804-.15 1.434-.45 1.89-.3.456-.75.774-1.35.954-.6.192-1.38.288-2.34.288zm.198-4.86c.852 0 1.452-.102 1.8-.306.348-.204.522-.588.522-1.152v-3.942c0-.396-.066-.696-.198-.9-.12-.204-.348-.348-.684-.432-.336-.096-.828-.144-1.476-.144-.612 0-1.074.042-1.386.126-.3.084-.51.234-.63.45-.108.204-.162.504-.162.9v3.942c0 .408.06.714.18.918.12.204.336.348.648.432.312.072.774.108 1.386.108zm-43.295 10.218h3.816c.54 0 .972.012 1.296.036.336.024.69.078 1.062.162.384.084.69.21.918.378.24.168.444.396.612.684.156.276.234.624.234 1.044v2.43c0 .972-.378 1.674-1.134 2.106-.744.42-1.848.63-3.312.63h-1.746v4.212h-1.746V545.17zm3.726 6.372c.756 0 1.362-.138 1.818-.414.456-.276.684-.714.684-1.314v-2.124c0-.324-.084-.588-.252-.792-.168-.216-.408-.366-.72-.45a6.7 6.7 0 00-.756-.144 7.242 7.242 0 00-.81-.036h-1.962v5.274h1.998zm9.114 5.49c-.828 0-1.47-.078-1.926-.234a1.67 1.67 0 01-.972-.828c-.192-.396-.288-.966-.288-1.71 0-.66.09-1.17.27-1.53.192-.372.51-.636.954-.792.456-.156 1.098-.234 1.926-.234h2.61v-1.386c0-.324-.066-.57-.198-.738-.12-.18-.33-.306-.63-.378-.288-.072-.714-.108-1.278-.108-.9 0-1.896.072-2.988.216v-1.188a35.894 35.894 0 013.222-.162c1.008 0 1.752.078 2.232.234.48.144.81.402.99.774.18.372.27.948.27 1.728v6.156h-1.566v-.828c-.132.672-1.008 1.008-2.628 1.008zm.27-1.062c.588 0 1.086-.042 1.494-.126.54-.108.81-.36.81-.756v-2.376h-2.502c-.516 0-.888.042-1.116.126a.652.652 0 00-.45.432c-.072.216-.108.564-.108 1.044 0 .432.042.768.126 1.008a.886.886 0 00.45.504c.216.096.54.144.972.144h.324zm10.027 4.842c-1.188 0-2.19-.066-3.006-.198v-1.152c1.44.168 2.49.252 3.15.252.828 0 1.428-.132 1.8-.396.384-.264.576-.702.576-1.314v-2.088c-.024.384-.288.666-.792.846-.492.18-1.116.27-1.872.27-.9 0-1.602-.084-2.106-.252-.492-.168-.846-.444-1.062-.828-.204-.384-.306-.906-.306-1.566v-3.546c0-1.032.276-1.77.828-2.214.564-.444 1.482-.666 2.754-.666 1.512 0 2.4.342 2.664 1.026v-.846h1.512v9.54c0 .804-.15 1.434-.45 1.89-.3.456-.75.774-1.35.954-.6.192-1.38.288-2.34.288zm.198-4.86c.852 0 1.452-.102 1.8-.306.348-.204.522-.588.522-1.152v-3.942c0-.396-.066-.696-.198-.9-.12-.204-.348-.348-.684-.432-.336-.096-.828-.144-1.476-.144-.612 0-1.074.042-1.386.126-.3.084-.51.234-.63.45-.108.204-.162.504-.162.9v3.942c0 .408.06.714.18.918.12.204.336.348.648.432.312.072.774.108 1.386.108zm10.428 1.08c-2.664 0-3.996-.888-3.996-2.664v-3.438c0-1.056.3-1.812.9-2.268.612-.468 1.596-.702 2.952-.702 1.284 0 2.208.222 2.772.666.576.444.864 1.212.864 2.304v1.926h-5.85v1.314c0 .6.21 1.032.63 1.296.42.264 1.068.396 1.944.396.828 0 1.806-.144 2.934-.432v1.242c-1.104.24-2.154.36-3.15.36zm1.872-5.238v-1.368c0-.528-.162-.888-.486-1.08-.312-.204-.852-.306-1.62-.306-.744 0-1.284.102-1.62.306-.336.192-.504.552-.504 1.08v1.368h4.23z" fill="#000"/>
  <rect x="513.372" y="450.826" width="126" height="126" rx="18" transform="rotate(47.264 513.372 450.826)" stroke="#FF760D" stroke-width="4"/>
  <path d="M409.606 529c1.562.912 15.508 7.566 14.323 8.652-3.968 3.635-8.07 6.938-12.4 10.112-2.131 1.562-5.888 3.227-1.479 1.51M646.606 538c1.562.912 15.508 7.566 14.323 8.652-3.968 3.635-8.07 6.938-12.4 10.112-2.131 1.562-5.888 3.227-1.479 1.51M937.606 532c1.562.912 15.508 7.566 14.323 8.652-3.968 3.635-8.07 6.938-12.4 10.112-2.131 1.562-5.888 3.227-1.479 1.51M1036.61 621c1.56.912 15.5 7.566 14.32 8.652-3.97 3.635-8.07 6.938-12.4 10.112-2.13 1.562-5.89 3.227-1.48 1.51M1489.61 622c1.56.912 15.5 7.566 14.32 8.652-3.97 3.635-8.07 6.938-12.4 10.112-2.13 1.562-5.89 3.227-1.48 1.51M1391.61 532c1.56.912 15.5 7.566 14.32 8.652-3.97 3.635-8.07 6.938-12.4 10.112-2.13 1.562-5.89 3.227-1.48 1.51M1662.61 532c1.56.912 15.5 7.566 14.32 8.652-3.97 3.635-8.07 6.938-12.4 10.112-2.13 1.562-5.89 3.227-1.48 1.51M812.394 549c-1.562-.912-15.508-7.566-14.323-8.652 3.968-3.635 8.07-6.938 12.4-10.112 2.131-1.562 5.888-3.227 1.479-1.51M1003.39 641c-1.56-.912-15.504-7.566-14.319-8.652 3.968-3.635 8.07-6.938 12.399-10.112 2.13-1.562 5.89-3.227 1.48-1.51M1456.39 642c-1.56-.912-15.5-7.566-14.32-8.652 3.97-3.635 8.07-6.938 12.4-10.112 2.13-1.562 5.89-3.227 1.48-1.51M1102.39 549c-1.56-.912-15.5-7.566-14.32-8.652 3.97-3.635 8.07-6.938 12.4-10.112 2.13-1.562 5.89-3.227 1.48-1.51M1553.39 553c-1.56-.912-15.5-7.566-14.32-8.652 3.97-3.635 8.07-6.938 12.4-10.112 2.13-1.562 5.89-3.227 1.48-1.51M520 645.606c-.912 1.562-7.566 15.508-8.652 14.323-3.635-3.968-6.938-8.07-10.112-12.4-1.562-2.131-3.227-5.888-1.51-1.479M938 585.606c-.912 1.562-7.566 15.508-8.652 14.323-3.635-3.968-6.938-8.07-10.112-12.4-1.562-2.131-3.227-5.888-1.51-1.479M739 585.606c-.912 1.562-7.566 15.508-8.652 14.323-3.635-3.968-6.938-8.07-10.112-12.4-1.562-2.131-3.227-5.888-1.51-1.479M938 891.606c-.912 1.562-7.566 15.508-8.652 14.323-3.635-3.968-6.938-8.07-10.112-12.4-1.562-2.131-3.227-5.888-1.51-1.479M938 801.606c-.912 1.562-7.566 15.508-8.652 14.323-3.635-3.968-6.938-8.07-10.112-12.4-1.562-2.131-3.227-5.888-1.51-1.479M1394 685.606c-.91 1.562-7.57 15.508-8.65 14.323-3.64-3.968-6.94-8.07-10.11-12.4-1.57-2.131-3.23-5.888-1.51-1.479M1031 675.606c-.91 1.562-7.57 15.508-8.65 14.323-3.64-3.968-6.94-8.07-10.11-12.4-1.57-2.131-3.23-5.888-1.51-1.479M1394 585.606c-.91 1.562-7.57 15.508-8.65 14.323-3.64-3.968-6.94-8.07-10.11-12.4-1.57-2.131-3.23-5.888-1.51-1.479M501 434.394c.912-1.562 7.566-15.508 8.652-14.323 3.635 3.968 6.938 8.07 10.112 12.4 1.562 2.131 3.227 5.888 1.51 1.479" stroke="#000" stroke-width="3" stroke-linecap="round" stroke-linejoin="round"/>
  <path d="M351 537.112c6.916 0 13.798-.242 20.7-.015 3.987.13 7.933.293 11.926.293h38.003M509.875 422.121c0 7.05.138 14.09.138 21.135 0 2.244-.138 4.469-.138 6.709v2.465c0 .747.276 1.48.276 2.221M510.565 657.276c0-6.629.633-13.207.633-19.84 0-4.231-.633-8.454-.633-12.664M800.622 540.214h17.363c9.657 0 19.121-1.418 28.764-1.857 12.185-.553 24.565-.991 36.713.34 14.949 1.639 30.587.576 45.603.576h13.022c2.712 0 5.078 1.412 7.74 1.412M1090.02 539.973c9.7-.067 19.18-1.258 28.8-2.238 9.69-.987 19.47-1.061 29.12-2.239 10.2-1.243 20.75-1.343 31.02-1.343 9.47 0 18.8 1.343 28.25 1.343h48.35c2.96 0 5.59-.689 8.5-1.069 4.74-.618 9.66-.274 14.43-.274h23.35c6.95 0 14.13-.11 21.04.697 10.06 1.173 20.16 3.215 30.27 3.681 8.06.371 16.11.547 24.17.547 3.1 0 6.08.117 9.13.423 1.46.145 2.94.356 4.4.447 1.35.085 2.37.851 3.58.92 3.26.187 6.59 0 9.85 0M1540.82 544.45c8.46 0 16.98-1.811 25.37-2.86 7.01-.876 14.34-.227 21.39-.274 12.32-.081 24.66-.447 37-.447 10.31 0 20.64.208 30.94 0 3.9-.079 7.68-.896 11.59-.896 1.54 0 5.12.652 6.22-.447M575.541 386.748c9.185.13 18.132 2.364 24.838 9.07 3.242 3.243 4.627 8.354 6.906 12.152 2.282 3.804 1.867 8.414 1.867 12.627 0 19.01 1.067 38.136 1.067 57.145v34.679c0 5.059.37 9.708.948 14.701.372 3.201 2.144 5.051 2.787 7.943.638 2.875 4.321 6.026 6.402 8.003 2.909 2.764 9.088 2.668 12.656 2.668 8.047 0 16.077.533 24.156.533M627.036 545.825c-.626 1.483-1.531 2.795-2.327 4.188-1.246 2.179-2.077 4.714-2.926 7.07-1.748 4.851-1.795 9.608-1.795 14.694v24.254c0 4.717-.134 9.212-1.022 13.857-.628 3.283-.945 6.586-1.599 9.854-.829 4.147-.9 8.407-1.62 12.552-1.147 6.601-2.046 13.323-3.829 19.795-1.446 5.247-3.063 10.442-4.448 15.706-.893 3.392-1.888 6.669-3.383 9.854-2.252 4.799-5.114 9.592-8.941 13.313-5.163 5.02-12.256 6.199-19.208 6.199M928.809 599.496c0-5.036.185-10.073.331-15.06.027-.914.609-1.543.976-2.338.459-.995.222-2.195.884-3.111 2.228-3.085 6.939-2.357 10.218-2.357 3.493 0 6.92.644 10.42.663 7.465.041 14.983.103 22.424.736 9.109.775 18.221.589 27.358.589 3.72 0 8.19-.763 11.16-3.166 1.08-.878 2.39-2.983 2.39-4.456M992.436 632.966c1.896-.038 3.287-.725 5.1-1.123 1.321-.29 2.654-.141 3.994-.276 2.82-.285 5.58-.89 8.4-1.178 6.59-.677 13.39.202 20.01-.092 5.92-.263 11.95-.645 17.84-.645M1444 633c4.46 0 8.82-.104 13.24-.571 2.86-.303 5.53-1.035 8.46-1.035 5.35 0 10.79-.058 16.14-.339 2.21-.116 4.38-.732 6.59-.928 2.06-.182 4.25-.018 6.32-.018 1.57 0 6.44-.501 7.25.643M1385.15 597.773c0-3.777.46-7.525.46-11.293 0-1.65-.08-3.294.18-4.927.14-.837.21-1.666.43-2.489.26-1.001.69-1.647 1.27-2.522 3.21-4.88 9.21-5.216 14.48-3.818 1.15.306 2.25.93 3.39 1.312 1.95.652 3.93 1.049 5.9 1.608 3.33.949 7.07 1.512 10.53 1.863 3.78.384 7.5.916 11.21 1.735 2.95.649 6 .632 8.95 1.168 2.24.407 4.44.755 6.71 1.025 2.93.35 5.98-.056 8.94.152 3.44.243 7.28.609 10.57-.652 2.15-.823 4.27-1.311 5.85-3.081 1.43-1.61 3.39-3.392 3.81-5.629.17-.944.42-1.984.42-2.946M730.868 597.9c0-7.196.57-14.385.57-21.559 0-2.076-.285-4.06-.285-6.098M1020.78 687.978c0-5.503 2.75-21.919-5.64-22.968-9.69-1.211-20.369-.031-30.134-.031-5.436 0-10.755.561-16.205.561-5.464 0-11.775-.555-17.077.873-7.2 1.938-14.279 1.932-21.69 1.932-3.112 0-4.269-1.072-6.731-2.805-1.314-.924-.686-4.161-.686-5.609M928.227 814.189c.769-4.039 1.86-7.899 2.68-11.904.605-2.962.124-6.526.124-9.536 0-8.055-2.478-17.759 2.556-24.806 4.781-6.694 11.853-11.081 19.633-12.933 3.175-.756 6.586-2.036 9.785-2.493 2.613-.374 4.783-.317 7.292-1.153M928.227 905.061c-.815-5.804-.561-11.661-.561-17.514 0-4.764-1.122-9.241-1.122-13.898M1383.71 697.514c0-12.667-.47-25.523-4.49-37.583" stroke="#000" stroke-width="3" stroke-linecap="round" stroke-linejoin="round"/>
  <rect x="854.5" y="439.5" width="333" height="540" rx="10.5" stroke="#fff" stroke-width="3" stroke-dasharray="12 12"/>
  <rect x="1306.5" y="439.5" width="333" height="359" rx="10.5" stroke="#fff" stroke-width="3" stroke-dasharray="12 12"/>
  <rect x="627.5" y="437.5" width="207" height="261" rx="10.5" stroke="#fff" stroke-width="3" stroke-dasharray="12 12"/>
  <path d="M680.96 389.316h-3.6v-1.998h9.99v1.998h-3.582V399h-2.808v-9.684zm10.363 9.864c-.816 0-1.428-.072-1.836-.216a1.479 1.479 0 01-.846-.81c-.156-.396-.234-.984-.234-1.764 0-.696.084-1.242.252-1.638a1.62 1.62 0 01.846-.846c.396-.18.936-.27 1.62-.27h2.952v-.594c0-.372-.054-.648-.162-.828-.096-.18-.282-.306-.558-.378-.264-.072-.666-.108-1.206-.108-.744 0-1.764.072-3.06.216v-1.656c.948-.12 2.058-.18 3.33-.18 1.116 0 1.974.084 2.574.252.612.168 1.05.456 1.314.864s.396 1.002.396 1.782V399h-2.574v-.792c-.204.348-.48.594-.828.738-.348.156-1.008.234-1.98.234zm1.026-1.638c.528 0 .906-.018 1.134-.054.168-.024.282-.06.342-.108a.53.53 0 00.18-.234c.048-.084.072-.21.072-.378v-1.692h-1.8c-.408 0-.696.03-.864.09a.489.489 0 00-.342.324c-.06.156-.09.438-.09.846 0 .396.03.672.09.828.06.156.174.258.342.306.18.048.492.072.936.072zm9.926 1.638c-.936 0-2.082-.09-3.438-.27v-1.746c1.668.252 2.826.378 3.474.378.552 0 .96-.054 1.224-.162.264-.108.396-.306.396-.594v-.54c0-.3-.084-.51-.252-.63-.168-.132-.498-.198-.99-.198h-1.134c-.924 0-1.638-.18-2.142-.54-.504-.372-.756-.912-.756-1.62v-1.062c0-.756.36-1.29 1.08-1.602.72-.324 1.806-.486 3.258-.486.576 0 1.608.054 3.096.162v1.674c-1.872-.144-2.928-.216-3.168-.216-.708 0-1.17.048-1.386.144-.192.108-.288.306-.288.594v.468c0 .156.078.294.234.414.156.108.384.162.684.162h1.152c2.136 0 3.204.696 3.204 2.088v1.098c0 .42-.078.786-.234 1.098-.156.312-.36.558-.612.738-.24.168-.552.3-.936.396a7.213 7.213 0 01-1.17.198c-.372.036-.804.054-1.296.054zm6.199-12.78h2.628V399h-2.628v-12.6zm2.736 7.704l2.862-3.816h3.006l-3.024 3.798L717.33 399h-2.97l-3.15-4.896zm14.697-4.032l-3.186 1.764v-2.214l3.69-2.304h2.124V399h-2.628v-8.928zm-48.637 18.246h1.818l3.744 10.026h.162l3.744-10.026h1.728L683.822 420h-2.016l-4.536-11.682zm12.876-.18h1.62v1.692h-1.62v-1.692zm0 3.15h1.62V420h-1.62v-8.712zm8.102 8.892c-2.664 0-3.996-.888-3.996-2.664v-3.438c0-1.056.3-1.812.9-2.268.612-.468 1.596-.702 2.952-.702 1.284 0 2.208.222 2.772.666.576.444.864 1.212.864 2.304v1.926h-5.85v1.314c0 .6.21 1.032.63 1.296.42.264 1.068.396 1.944.396.828 0 1.806-.144 2.934-.432v1.242c-1.104.24-2.154.36-3.15.36zm1.872-5.238v-1.368c0-.528-.162-.888-.486-1.08-.312-.204-.852-.306-1.62-.306-.744 0-1.284.102-1.62.306-.336.192-.504.552-.504 1.08v1.368h4.23zm2.901-3.654h1.782l2.124 7.164h.108l2.052-7.164h1.818l2.124 7.164h.108l2.052-7.164h1.656L713.983 420h-1.926l-2.106-7.038-2.07 7.038h-1.926l-2.934-8.712zm23.066 8.892c-.996 0-2.184-.096-3.564-.288v-1.458c1.392.3 2.616.45 3.672.45.888 0 1.536-.096 1.944-.288.408-.204.612-.576.612-1.116v-1.512c0-.504-.144-.858-.432-1.062-.288-.204-.792-.306-1.512-.306h-1.368c-1.14 0-1.95-.228-2.43-.684-.48-.456-.72-1.164-.72-2.124v-.936c0-.636.138-1.152.414-1.548.288-.396.762-.69 1.422-.882.672-.192 1.59-.288 2.754-.288.78 0 1.782.066 3.006.198v1.314c-1.368-.204-2.412-.306-3.132-.306-1.116 0-1.854.108-2.214.324-.372.228-.558.606-.558 1.134v1.332c0 .408.144.708.432.9.3.18.81.27 1.53.27h1.404c.804 0 1.428.096 1.872.288.456.192.774.486.954.882.192.384.288.906.288 1.566v.846c0 .828-.156 1.482-.468 1.962-.3.48-.768.822-1.404 1.026-.636.204-1.47.306-2.502.306zm10.284 0c-.6 0-1.038-.012-1.314-.036a5.332 5.332 0 01-.918-.18c-.372-.096-.66-.24-.864-.432-.204-.192-.378-.474-.522-.846-.144-.36-.216-.81-.216-1.35v-3.204c0-.972.186-1.668.558-2.088.204-.24.408-.42.612-.54.216-.132.492-.222.828-.27.336-.048.636-.078.9-.09.264-.024.636-.036 1.116-.036.828 0 1.656.09 2.484.27v1.188c-.96-.24-1.854-.36-2.682-.36-.624 0-1.086.048-1.386.144-.288.084-.492.246-.612.486-.108.228-.162.582-.162 1.062v3.564c0 .444.06.774.18.99.132.216.36.372.684.468.336.084.828.126 1.476.126.876 0 1.752-.114 2.628-.342v1.224c-.816.168-1.746.252-2.79.252zm4.84-12.78h1.62v4.95c.168-.828 1.122-1.242 2.862-1.242 1.116 0 1.896.204 2.34.612.456.396.684 1.026.684 1.89V420h-1.62v-6.282c0-.228-.018-.414-.054-.558a1.217 1.217 0 00-.216-.432c-.24-.3-.774-.45-1.602-.45-.66 0-1.164.048-1.512.144-.336.084-.57.228-.702.432-.12.204-.18.492-.18.864V420h-1.62v-12.6zm13.99 12.78c-2.664 0-3.996-.888-3.996-2.664v-3.438c0-1.056.3-1.812.9-2.268.612-.468 1.596-.702 2.952-.702 1.284 0 2.208.222 2.772.666.576.444.864 1.212.864 2.304v1.926h-5.85v1.314c0 .6.21 1.032.63 1.296.42.264 1.068.396 1.944.396.828 0 1.806-.144 2.934-.432v1.242c-1.104.24-2.154.36-3.15.36zm1.872-5.238v-1.368c0-.528-.162-.888-.486-1.08-.312-.204-.852-.306-1.62-.306-.744 0-1.284.102-1.62.306-.336.192-.504.552-.504 1.08v1.368h4.23zm7.203 5.238c-.864 0-1.542-.084-2.034-.252-.492-.18-.852-.468-1.08-.864-.216-.396-.324-.948-.324-1.656v-3.834c0-.876.27-1.506.81-1.89.552-.384 1.458-.576 2.718-.576.756 0 1.404.096 1.944.288.552.192.834.468.846.828h.036l-.036-2.214v-2.61h1.62V420h-1.584v-1.026c0 .324-.258.6-.774.828-.516.252-1.23.378-2.142.378zm.342-1.116c.9 0 1.548-.102 1.944-.306.396-.204.594-.552.594-1.044v-4.302c0-.78-.798-1.17-2.394-1.17-.96 0-1.584.072-1.872.216-.3.144-.45.462-.45.954v4.302c0 .492.162.84.486 1.044.336.204.9.306 1.692.306zm9.851 1.116c-1.116 0-1.902-.198-2.358-.594-.444-.408-.666-1.044-.666-1.908v-6.39h1.62v6.3c0 .228.018.414.054.558.048.132.126.27.234.414.216.312.744.468 1.584.468.888 0 1.512-.084 1.872-.252.348-.168.522-.474.522-.918v-6.57h1.62V420h-1.62v-1.062c-.156.828-1.11 1.242-2.862 1.242zm7.294-12.78h1.62V420h-1.62v-12.6zm8.102 12.78c-2.664 0-3.996-.888-3.996-2.664v-3.438c0-1.056.3-1.812.9-2.268.612-.468 1.596-.702 2.952-.702 1.284 0 2.208.222 2.772.666.576.444.864 1.212.864 2.304v1.926h-5.85v1.314c0 .6.21 1.032.63 1.296.42.264 1.068.396 1.944.396.828 0 1.806-.144 2.934-.432v1.242c-1.104.24-2.154.36-3.15.36zm1.872-5.238v-1.368c0-.528-.162-.888-.486-1.08-.312-.204-.852-.306-1.62-.306-.744 0-1.284.102-1.62.306-.336.192-.504.552-.504 1.08v1.368h4.23zM947.96 389.316h-3.6v-1.998h9.99v1.998h-3.582V399h-2.808v-9.684zm10.363 9.864c-.816 0-1.428-.072-1.836-.216a1.479 1.479 0 01-.846-.81c-.156-.396-.234-.984-.234-1.764 0-.696.084-1.242.252-1.638a1.62 1.62 0 01.846-.846c.396-.18.936-.27 1.62-.27h2.952v-.594c0-.372-.054-.648-.162-.828-.096-.18-.282-.306-.558-.378-.264-.072-.666-.108-1.206-.108-.744 0-1.764.072-3.06.216v-1.656c.948-.12 2.058-.18 3.33-.18 1.116 0 1.974.084 2.574.252.612.168 1.05.456 1.314.864s.396 1.002.396 1.782V399h-2.574v-.792c-.204.348-.48.594-.828.738-.348.156-1.008.234-1.98.234zm1.026-1.638c.528 0 .906-.018 1.134-.054.168-.024.282-.06.342-.108a.53.53 0 00.18-.234c.048-.084.072-.21.072-.378v-1.692h-1.8c-.408 0-.696.03-.864.09a.489.489 0 00-.342.324c-.06.156-.09.438-.09.846 0 .396.03.672.09.828.06.156.174.258.342.306.18.048.492.072.936.072zm9.926 1.638c-.936 0-2.082-.09-3.438-.27v-1.746c1.668.252 2.826.378 3.474.378.552 0 .96-.054 1.224-.162.264-.108.396-.306.396-.594v-.54c0-.3-.084-.51-.252-.63-.168-.132-.498-.198-.99-.198h-1.134c-.924 0-1.638-.18-2.142-.54-.504-.372-.756-.912-.756-1.62v-1.062c0-.756.36-1.29 1.08-1.602.72-.324 1.806-.486 3.258-.486.576 0 1.608.054 3.096.162v1.674c-1.872-.144-2.928-.216-3.168-.216-.708 0-1.17.048-1.386.144-.192.108-.288.306-.288.594v.468c0 .156.078.294.234.414.156.108.384.162.684.162h1.152c2.136 0 3.204.696 3.204 2.088v1.098c0 .42-.078.786-.234 1.098-.156.312-.36.558-.612.738-.24.168-.552.3-.936.396a7.213 7.213 0 01-1.17.198c-.372.036-.804.054-1.296.054zm6.199-12.78h2.628V399h-2.628v-12.6zm2.736 7.704l2.862-3.816h3.006l-3.024 3.798L984.33 399h-2.97l-3.15-4.896zm11.025 2.232c0-.648.18-1.212.54-1.692.36-.48.828-.846 1.404-1.098.456-.204.99-.408 1.602-.612.612-.204 1.086-.42 1.422-.648.336-.228.504-.498.504-.81v-1.494c0-.372-.15-.618-.45-.738-.324-.132-.828-.198-1.512-.198-.828 0-1.92.15-3.276.45v-1.98c1.2-.252 2.454-.378 3.762-.378 1.416 0 2.466.216 3.15.648.696.432 1.044 1.152 1.044 2.16v1.62c0 .612-.186 1.146-.558 1.602-.36.444-.828.78-1.404 1.008-.54.228-1.092.432-1.656.612-.612.216-1.098.456-1.458.72-.348.264-.522.576-.522.936v.594h5.616V399h-8.208v-2.664zm-39.169 23.844a9.814 9.814 0 01-1.674-.126 5.968 5.968 0 01-1.386-.432 2.422 2.422 0 01-1.116-.99c-.252-.444-.378-.984-.378-1.62v-8.694h1.674v8.676c0 .732.246 1.254.738 1.566.492.3 1.218.45 2.178.45s1.674-.15 2.142-.45c.48-.312.72-.834.72-1.566v-8.676h1.674v8.694c0 2.112-1.524 3.168-4.572 3.168zm7.502-8.892h1.602v.936h.018c.132-.744 1.122-1.116 2.97-1.116 1.104 0 1.938.234 2.502.702.564.456.846 1.044.846 1.764v3.582c0 .516-.078.966-.234 1.35-.144.384-.336.684-.576.9-.216.204-.516.366-.9.486-.372.12-.744.198-1.116.234-.336.036-.744.054-1.224.054-.528 0-1.014-.06-1.458-.18-.432-.132-.702-.318-.81-.558v4.302h-1.62v-12.456zm3.924 7.794c.624 0 1.098-.042 1.422-.126.336-.096.576-.264.72-.504.144-.24.216-.606.216-1.098v-3.204c0-.54-.072-.942-.216-1.206-.144-.264-.384-.438-.72-.522-.324-.096-.804-.144-1.44-.144-.636 0-1.11.048-1.422.144-.312.084-.534.258-.666.522-.132.252-.198.654-.198 1.206v3.204c0 .492.066.858.198 1.098.144.24.378.408.702.504.324.084.792.126 1.404.126zm6.5-11.682h1.62V420h-1.62v-12.6zm8.12 12.78c-.768 0-1.344-.03-1.728-.09a3.826 3.826 0 01-1.152-.342 1.686 1.686 0 01-.864-.864c-.18-.408-.27-.954-.27-1.638v-3.024c0-.54.066-1.014.198-1.422.132-.408.306-.726.522-.954.18-.204.45-.36.81-.468.372-.12.75-.198 1.134-.234a24.36 24.36 0 011.35-.036c.624 0 1.092.018 1.404.054.324.024.666.084 1.026.18.372.108.66.27.864.486.204.216.378.528.522.936.132.42.198.906.198 1.458v3.024c0 1.02-.234 1.764-.702 2.232-.192.192-.468.342-.828.45-.36.108-.732.18-1.116.216-.456.024-.912.036-1.368.036zm0-1.062c.504 0 .87-.012 1.098-.036.228-.024.45-.09.666-.198a.821.821 0 00.45-.468c.096-.228.144-.54.144-.936v-3.528c0-.54-.066-.93-.198-1.17-.132-.252-.36-.414-.684-.486-.312-.084-.804-.126-1.476-.126-.672 0-1.17.042-1.494.126-.312.072-.534.234-.666.486-.132.24-.198.63-.198 1.17v3.528c0 .396.042.708.126.936a.892.892 0 00.468.468c.216.108.438.174.666.198.228.024.594.036 1.098.036zm9.222 1.062c-.828 0-1.47-.078-1.926-.234a1.67 1.67 0 01-.972-.828c-.192-.396-.288-.966-.288-1.71 0-.66.09-1.17.27-1.53.192-.372.51-.636.954-.792.456-.156 1.098-.234 1.926-.234h2.61v-1.386c0-.324-.066-.57-.198-.738-.12-.18-.33-.306-.63-.378-.288-.072-.714-.108-1.278-.108-.9 0-1.896.072-2.988.216v-1.188a35.894 35.894 0 013.222-.162c1.008 0 1.752.078 2.232.234.48.144.81.402.99.774.18.372.27.948.27 1.728V420h-1.566v-.828c-.132.672-1.008 1.008-2.628 1.008zm.27-1.062c.588 0 1.086-.042 1.494-.126.54-.108.81-.36.81-.756v-2.376h-2.502c-.516 0-.888.042-1.116.126a.652.652 0 00-.45.432c-.072.216-.108.564-.108 1.044 0 .432.042.768.126 1.008a.886.886 0 00.45.504c.216.096.54.144.972.144h.324zm9.848 1.062c-.864 0-1.542-.084-2.034-.252-.492-.18-.852-.468-1.08-.864-.216-.396-.324-.948-.324-1.656v-3.834c0-.876.27-1.506.81-1.89.552-.384 1.458-.576 2.718-.576.756 0 1.404.096 1.944.288.552.192.834.468.846.828h.036l-.036-2.214v-2.61h1.62V420h-1.584v-1.026c0 .324-.258.6-.774.828-.516.252-1.23.378-2.142.378zm.342-1.116c.9 0 1.548-.102 1.944-.306.396-.204.594-.552.594-1.044v-4.302c0-.78-.798-1.17-2.394-1.17-.96 0-1.584.072-1.872.216-.3.144-.45.462-.45.954v4.302c0 .492.162.84.486 1.044.336.204.9.306 1.692.306zm13.656 1.116c-.83 0-1.47-.078-1.92-.234a1.685 1.685 0 01-.98-.828c-.19-.396-.28-.966-.28-1.71 0-.66.09-1.17.27-1.53.19-.372.51-.636.95-.792.46-.156 1.1-.234 1.93-.234h2.61v-1.386c0-.324-.07-.57-.2-.738-.12-.18-.33-.306-.63-.378-.29-.072-.72-.108-1.28-.108-.9 0-1.9.072-2.99.216v-1.188c1.19-.108 2.26-.162 3.22-.162 1.01 0 1.76.078 2.24.234.48.144.81.402.99.774.18.372.27.948.27 1.728V420h-1.57v-.828c-.13.672-1.01 1.008-2.63 1.008zm.27-1.062c.59 0 1.09-.042 1.5-.126.54-.108.81-.36.81-.756v-2.376h-2.51c-.51 0-.88.042-1.11.126a.644.644 0 00-.45.432c-.07.216-.11.564-.11 1.044 0 .432.04.768.13 1.008a.86.86 0 00.45.504c.21.096.54.144.97.144h.32zm6.73-7.83h1.62v1.062c.17-.828 1.13-1.242 2.87-1.242 1.11 0 1.89.204 2.34.612.45.396.68 1.026.68 1.89V420h-1.62v-6.3c0-.228-.02-.414-.05-.558a1.265 1.265 0 00-.22-.432c-.24-.3-.77-.45-1.6-.45-.64 0-1.13.048-1.48.144-.33.084-.57.228-.72.432-.13.204-.2.492-.2.864v6.3h-1.62v-8.712zm14.58-2.97h7.85v1.224h-6.1v3.816h5.5v1.224h-5.5v4.194h6.28V420h-8.03v-11.682zm12.35 7.2l-3.06-4.23h1.78l2.16 3.186 2.18-3.186h1.78l-3.06 4.23 3.24 4.482h-1.78l-2.36-3.438-2.34 3.438h-1.78l3.24-4.482zm10.27 4.662c-2.67 0-4-.888-4-2.664v-3.438c0-1.056.3-1.812.9-2.268.61-.468 1.6-.702 2.95-.702 1.29 0 2.21.222 2.78.666.57.444.86 1.212.86 2.304v1.926h-5.85v1.314c0 .6.21 1.032.63 1.296.42.264 1.07.396 1.94.396.83 0 1.81-.144 2.94-.432v1.242c-1.11.24-2.16.36-3.15.36zm1.87-5.238v-1.368c0-.528-.16-.888-.49-1.08-.31-.204-.85-.306-1.62-.306-.74 0-1.28.102-1.62.306-.33.192-.5.552-.5 1.08v1.368h4.23zm4.09-3.654h1.53v1.422c0-.276.12-.534.36-.774.24-.252.55-.45.92-.594.37-.156.74-.234 1.1-.234h.79v1.386h-.9c-.77 0-1.33.102-1.68.306-.33.192-.5.546-.5 1.062V420h-1.62v-8.712zm9.82 8.892c-.6 0-1.04-.012-1.31-.036a5.279 5.279 0 01-.92-.18c-.37-.096-.66-.24-.87-.432-.2-.192-.37-.474-.52-.846-.14-.36-.21-.81-.21-1.35v-3.204c0-.972.18-1.668.55-2.088.21-.24.41-.42.62-.54.21-.132.49-.222.82-.27.34-.048.64-.078.9-.09.27-.024.64-.036 1.12-.036.83 0 1.66.09 2.48.27v1.188c-.96-.24-1.85-.36-2.68-.36-.62 0-1.08.048-1.38.144-.29.084-.5.246-.62.486-.1.228-.16.582-.16 1.062v3.564c0 .444.06.774.18.99.13.216.36.372.69.468.33.084.82.126 1.47.126.88 0 1.75-.114 2.63-.342v1.224c-.82.168-1.75.252-2.79.252zm4.84-12.042h1.62v1.692h-1.62v-1.692zm0 3.15h1.62V420h-1.62v-8.712zm7.09 8.892c-.92 0-1.92-.072-2.99-.216v-1.242c1.41.228 2.42.342 3.03.342.77 0 1.32-.072 1.65-.216.34-.156.51-.438.51-.846v-.882c0-.372-.13-.636-.38-.792-.25-.156-.66-.234-1.22-.234h-.99c-.9 0-1.59-.186-2.07-.558-.47-.372-.71-.894-.71-1.566v-.81c0-1.368 1.3-2.052 3.89-2.052.19 0 1.08.048 2.65.144v1.17c-1.07-.168-1.98-.252-2.72-.252-.85 0-1.43.084-1.75.252-.31.168-.46.45-.46.846v.738c0 .588.53.882 1.6.882h1.01c1.83 0 2.75.684 2.75 2.052v.756c0 .9-.31 1.542-.94 1.926-.62.372-1.57.558-2.86.558zm9.71 0c-2.66 0-3.99-.888-3.99-2.664v-3.438c0-1.056.3-1.812.9-2.268.61-.468 1.59-.702 2.95-.702 1.28 0 2.21.222 2.77.666.58.444.86 1.212.86 2.304v1.926h-5.85v1.314c0 .6.21 1.032.63 1.296.42.264 1.07.396 1.95.396.83 0 1.8-.144 2.93-.432v1.242c-1.1.24-2.15.36-3.15.36zm1.87-5.238v-1.368c0-.528-.16-.888-.48-1.08-.31-.204-.85-.306-1.62-.306-.75 0-1.29.102-1.62.306-.34.192-.51.552-.51 1.08v1.368h4.23zM1373.96 389.316h-3.6v-1.998h9.99v1.998h-3.58V399h-2.81v-9.684zm10.36 9.864c-.81 0-1.42-.072-1.83-.216a1.48 1.48 0 01-.85-.81c-.15-.396-.23-.984-.23-1.764 0-.696.08-1.242.25-1.638.18-.396.46-.678.85-.846.39-.18.93-.27 1.62-.27h2.95v-.594c0-.372-.06-.648-.16-.828-.1-.18-.29-.306-.56-.378-.27-.072-.67-.108-1.21-.108-.74 0-1.76.072-3.06.216v-1.656c.95-.12 2.06-.18 3.33-.18 1.12 0 1.98.084 2.58.252.61.168 1.05.456 1.31.864s.4 1.002.4 1.782V399h-2.58v-.792c-.2.348-.48.594-.83.738-.34.156-1 .234-1.98.234zm1.03-1.638c.53 0 .91-.018 1.13-.054.17-.024.29-.06.35-.108a.56.56 0 00.18-.234c.04-.084.07-.21.07-.378v-1.692h-1.8c-.41 0-.7.03-.87.09a.5.5 0 00-.34.324c-.06.156-.09.438-.09.846 0 .396.03.672.09.828.06.156.18.258.34.306.18.048.5.072.94.072zm9.93 1.638c-.94 0-2.09-.09-3.44-.27v-1.746c1.67.252 2.82.378 3.47.378.55 0 .96-.054 1.23-.162.26-.108.39-.306.39-.594v-.54c0-.3-.08-.51-.25-.63-.17-.132-.5-.198-.99-.198h-1.13c-.93 0-1.64-.18-2.15-.54-.5-.372-.75-.912-.75-1.62v-1.062c0-.756.36-1.29 1.08-1.602.72-.324 1.8-.486 3.26-.486.57 0 1.6.054 3.09.162v1.674c-1.87-.144-2.93-.216-3.17-.216-.7 0-1.17.048-1.38.144-.19.108-.29.306-.29.594v.468c0 .156.08.294.23.414.16.108.39.162.69.162h1.15c2.14 0 3.2.696 3.2 2.088v1.098c0 .42-.07.786-.23 1.098-.16.312-.36.558-.61.738-.24.168-.55.3-.94.396a7.14 7.14 0 01-1.17.198c-.37.036-.8.054-1.29.054zm6.19-12.78h2.63V399h-2.63v-12.6zm2.74 7.704l2.86-3.816h3.01l-3.03 3.798 3.28 4.914h-2.97l-3.15-4.896zm14.75 5.076c-1.01 0-2.31-.09-3.92-.27v-2.088l.57.108c.23.048.36.078.38.09l.61.108c.15.024.45.06.92.108.36.036.73.054 1.1.054.7 0 1.18-.084 1.44-.252.28-.168.41-.486.41-.954v-1.35c0-.564-.6-.846-1.81-.846h-2.13v-1.8h2.13c.93 0 1.4-.342 1.4-1.026v-1.134c0-.252-.05-.444-.14-.576-.1-.144-.27-.246-.53-.306-.24-.06-.6-.09-1.08-.09-.68 0-1.74.072-3.16.216V387.3c1.63-.108 2.78-.162 3.45-.162 1.47 0 2.52.168 3.17.504.66.336.99.93.99 1.782v1.926c0 .348-.11.648-.32.9-.21.24-.47.402-.8.486 1.06.372 1.59.954 1.59 1.746v1.908c0 .996-.34 1.71-1.03 2.142-.68.432-1.76.648-3.24.648zm-44.57 10.362h-3.96v-1.224h9.67v1.224h-3.94V420h-1.77v-10.458zm7.54 1.746h1.53v1.422c0-.276.12-.534.36-.774.24-.252.55-.45.92-.594.37-.156.74-.234 1.1-.234h.79v1.386h-.9c-.77 0-1.32.102-1.67.306-.34.192-.51.546-.51 1.062V420h-1.62v-8.712zm9 8.892c-.83 0-1.47-.078-1.93-.234-.44-.156-.77-.432-.97-.828-.19-.396-.29-.966-.29-1.71 0-.66.09-1.17.27-1.53.19-.372.51-.636.95-.792.46-.156 1.1-.234 1.93-.234h2.61v-1.386c0-.324-.07-.57-.2-.738-.12-.18-.33-.306-.63-.378-.29-.072-.71-.108-1.28-.108-.9 0-1.89.072-2.98.216v-1.188a35.71 35.71 0 013.22-.162c1.01 0 1.75.078 2.23.234.48.144.81.402.99.774.18.372.27.948.27 1.728V420h-1.57v-.828c-.13.672-1 1.008-2.62 1.008zm.27-1.062c.58 0 1.08-.042 1.49-.126.54-.108.81-.36.81-.756v-2.376h-2.5c-.52 0-.89.042-1.12.126a.644.644 0 00-.45.432c-.07.216-.11.564-.11 1.044 0 .432.05.768.13 1.008a.86.86 0 00.45.504c.22.096.54.144.97.144h.33zm10.24 1.062c-.6 0-1.04-.012-1.31-.036a5.279 5.279 0 01-.92-.18c-.37-.096-.66-.24-.87-.432-.2-.192-.37-.474-.52-.846-.14-.36-.21-.81-.21-1.35v-3.204c0-.972.18-1.668.55-2.088.21-.24.41-.42.62-.54.21-.132.49-.222.82-.27.34-.048.64-.078.9-.09.27-.024.64-.036 1.12-.036.83 0 1.66.09 2.48.27v1.188c-.96-.24-1.85-.36-2.68-.36-.62 0-1.08.048-1.38.144-.29.084-.5.246-.62.486-.1.228-.16.582-.16 1.062v3.564c0 .444.06.774.18.99.13.216.36.372.69.468.33.084.82.126 1.47.126.88 0 1.75-.114 2.63-.342v1.224c-.82.168-1.75.252-2.79.252zm4.84-12.78h1.62V420h-1.62v-12.6zm1.82 7.83l3.67-3.942h1.98l-3.78 3.942 4.12 4.77h-2.01l-3.98-4.77zm14.26 4.95c-.83 0-1.47-.078-1.93-.234-.44-.156-.77-.432-.97-.828-.19-.396-.29-.966-.29-1.71 0-.66.09-1.17.27-1.53.19-.372.51-.636.95-.792.46-.156 1.1-.234 1.93-.234h2.61v-1.386c0-.324-.07-.57-.2-.738-.12-.18-.33-.306-.63-.378-.29-.072-.71-.108-1.28-.108-.9 0-1.89.072-2.98.216v-1.188a35.71 35.71 0 013.22-.162c1.01 0 1.75.078 2.23.234.48.144.81.402.99.774.18.372.27.948.27 1.728V420h-1.57v-.828c-.13.672-1 1.008-2.62 1.008zm.27-1.062c.58 0 1.08-.042 1.49-.126.54-.108.81-.36.81-.756v-2.376h-2.5c-.52 0-.89.042-1.12.126a.644.644 0 00-.45.432c-.07.216-.11.564-.11 1.044 0 .432.05.768.13 1.008a.86.86 0 00.45.504c.22.096.54.144.97.144h.33zm15.54 1.062c-3.28 0-4.91-1.056-4.91-3.168v-5.544c0-2.232 1.63-3.348 4.91-3.348 1.12 0 2.18.114 3.2.342v1.296c-1.15-.288-2.2-.432-3.16-.432-.47 0-.88.03-1.23.09-.35.048-.68.138-1.01.27-.69.3-1.04.888-1.04 1.764v5.472c0 1.344 1.12 2.016 3.35 2.016.96 0 2.01-.144 3.17-.432v1.332c-1.02.228-2.12.342-3.28.342zm5.5-12.78h1.62V420h-1.62v-12.6zm4.43.738h1.62v1.692h-1.62v-1.692zm0 3.15h1.62V420h-1.62v-8.712zm8.1 8.892c-2.66 0-4-.888-4-2.664v-3.438c0-1.056.3-1.812.9-2.268.62-.468 1.6-.702 2.96-.702 1.28 0 2.2.222 2.77.666.57.444.86 1.212.86 2.304v1.926h-5.85v1.314c0 .6.21 1.032.63 1.296.42.264 1.07.396 1.95.396.82 0 1.8-.144 2.93-.432v1.242c-1.1.24-2.15.36-3.15.36zm1.87-5.238v-1.368c0-.528-.16-.888-.48-1.08-.32-.204-.86-.306-1.62-.306-.75 0-1.29.102-1.62.306-.34.192-.51.552-.51 1.08v1.368h4.23zm4.09-3.654h1.62v1.062c.17-.828 1.12-1.242 2.86-1.242 1.12 0 1.9.204 2.34.612.46.396.69 1.026.69 1.89V420h-1.62v-6.3c0-.228-.02-.414-.06-.558a1.23 1.23 0 00-.21-.432c-.24-.3-.78-.45-1.61-.45-.63 0-1.12.048-1.47.144-.34.084-.58.228-.72.432-.13.204-.2.492-.2.864v6.3h-1.62v-8.712zm13.97 8.892c-.74 0-1.32-.078-1.74-.234a1.683 1.683 0 01-.92-.828c-.18-.396-.27-.948-.27-1.656v-5.112h-1.95v-1.062h1.95v-2.7h1.64v2.7h3.11v1.062h-3.11v5.202c0 .432.04.756.14.972.11.216.29.372.54.468.26.084.64.126 1.13.126.16 0 .59-.048 1.3-.144v1.062c-.61.096-1.22.144-1.82.144zm6.25 0c-.92 0-1.92-.072-2.98-.216v-1.242c1.4.228 2.41.342 3.02.342.77 0 1.32-.072 1.66-.216.33-.156.5-.438.5-.846v-.882c0-.372-.13-.636-.38-.792-.25-.156-.66-.234-1.22-.234h-.99c-.9 0-1.59-.186-2.07-.558-.47-.372-.7-.894-.7-1.566v-.81c0-1.368 1.29-2.052 3.88-2.052.2 0 1.08.048 2.65.144v1.17c-1.07-.168-1.97-.252-2.72-.252-.85 0-1.43.084-1.74.252-.32.168-.47.45-.47.846v.738c0 .588.53.882 1.6.882h1.01c1.83 0 2.75.684 2.75 2.052v.756c0 .9-.31 1.542-.93 1.926-.63.372-1.58.558-2.87.558zm10.3-11.862h3.81c.54 0 .98.012 1.3.036.34.024.69.078 1.06.162.39.084.69.21.92.378.24.168.44.396.61.684.16.276.24.624.24 1.044v2.43c0 .972-.38 1.674-1.14 2.106-.74.42-1.85.63-3.31.63h-1.75V420h-1.74v-11.682zm3.72 6.372c.76 0 1.37-.138 1.82-.414.46-.276.69-.714.69-1.314v-2.124c0-.324-.09-.588-.26-.792-.16-.216-.4-.366-.72-.45-.3-.072-.55-.12-.75-.144a7.393 7.393 0 00-.81-.036h-1.96v5.274h1.99zm6.44-3.402h1.53v1.422c0-.276.12-.534.36-.774.24-.252.54-.45.91-.594.38-.156.74-.234 1.1-.234h.79v1.386h-.9c-.76 0-1.32.102-1.67.306-.34.192-.5.546-.5 1.062V420h-1.62v-8.712zm10 8.892c-.77 0-1.35-.03-1.73-.09a3.732 3.732 0 01-1.15-.342c-.4-.18-.69-.468-.87-.864-.18-.408-.27-.954-.27-1.638v-3.024c0-.54.07-1.014.2-1.422.13-.408.31-.726.52-.954.18-.204.45-.36.81-.468.37-.12.75-.198 1.14-.234.43-.024.88-.036 1.35-.036.62 0 1.09.018 1.4.054.32.024.67.084 1.03.18.37.108.66.27.86.486.2.216.38.528.52.936.13.42.2.906.2 1.458v3.024c0 1.02-.23 1.764-.7 2.232-.19.192-.47.342-.83.45-.36.108-.73.18-1.12.216-.45.024-.91.036-1.36.036zm0-1.062c.5 0 .87-.012 1.09-.036.23-.024.45-.09.67-.198a.798.798 0 00.45-.468c.1-.228.14-.54.14-.936v-3.528c0-.54-.06-.93-.19-1.17-.14-.252-.36-.414-.69-.486-.31-.084-.8-.126-1.47-.126-.68 0-1.17.042-1.5.126-.31.072-.53.234-.66.486-.14.24-.2.63-.2 1.17v3.528c0 .396.04.708.12.936.1.216.26.372.47.468.22.108.44.174.67.198.23.024.59.036 1.1.036zm9.83 4.842c-1.19 0-2.19-.066-3.01-.198v-1.152c1.44.168 2.49.252 3.15.252.83 0 1.43-.132 1.8-.396.39-.264.58-.702.58-1.314v-2.088c-.02.384-.29.666-.79.846-.49.18-1.12.27-1.87.27-.9 0-1.61-.084-2.11-.252-.49-.168-.85-.444-1.06-.828-.21-.384-.31-.906-.31-1.566v-3.546c0-1.032.28-1.77.83-2.214.56-.444 1.48-.666 2.75-.666 1.52 0 2.4.342 2.67 1.026v-.846h1.51v9.54c0 .804-.15 1.434-.45 1.89-.3.456-.75.774-1.35.954-.6.192-1.38.288-2.34.288zm.2-4.86c.85 0 1.45-.102 1.8-.306.35-.204.52-.588.52-1.152V413.7c0-.396-.07-.696-.2-.9-.12-.204-.35-.348-.68-.432-.34-.096-.83-.144-1.48-.144-.61 0-1.07.042-1.38.126-.3.084-.51.234-.63.45-.11.204-.17.504-.17.9v3.942c0 .408.06.714.18.918.12.204.34.348.65.432.31.072.78.108 1.39.108zm6.75-7.812h1.53v1.422c0-.276.12-.534.36-.774.24-.252.55-.45.92-.594.37-.156.74-.234 1.1-.234h.79v1.386h-.9c-.77 0-1.32.102-1.67.306-.34.192-.51.546-.51 1.062V420h-1.62v-8.712zm9.99 8.892c-2.67 0-4-.888-4-2.664v-3.438c0-1.056.3-1.812.9-2.268.61-.468 1.6-.702 2.95-.702 1.29 0 2.21.222 2.78.666.57.444.86 1.212.86 2.304v1.926h-5.85v1.314c0 .6.21 1.032.63 1.296.42.264 1.07.396 1.94.396.83 0 1.81-.144 2.94-.432v1.242c-1.11.24-2.16.36-3.15.36zm1.87-5.238v-1.368c0-.528-.16-.888-.49-1.08-.31-.204-.85-.306-1.62-.306-.74 0-1.28.102-1.62.306-.33.192-.5.552-.5 1.08v1.368h4.23zm6.75 5.238c-.92 0-1.92-.072-2.99-.216v-1.242c1.41.228 2.42.342 3.03.342.77 0 1.32-.072 1.65-.216.34-.156.51-.438.51-.846v-.882c0-.372-.13-.636-.38-.792-.25-.156-.66-.234-1.22-.234h-.99c-.9 0-1.59-.186-2.07-.558-.47-.372-.71-.894-.71-1.566v-.81c0-1.368 1.3-2.052 3.89-2.052.19 0 1.08.048 2.65.144v1.17c-1.07-.168-1.98-.252-2.72-.252-.85 0-1.43.084-1.75.252-.31.168-.46.45-.46.846v.738c0 .588.53.882 1.6.882h1.01c1.83 0 2.75.684 2.75 2.052v.756c0 .9-.31 1.542-.94 1.926-.62.372-1.57.558-2.86.558zm8.7 0c-.92 0-1.92-.072-2.98-.216v-1.242c1.4.228 2.41.342 3.02.342.77 0 1.32-.072 1.66-.216.33-.156.5-.438.5-.846v-.882c0-.372-.13-.636-.38-.792-.25-.156-.66-.234-1.22-.234h-.99c-.9 0-1.59-.186-2.07-.558-.47-.372-.7-.894-.7-1.566v-.81c0-1.368 1.29-2.052 3.88-2.052.2 0 1.08.048 2.65.144v1.17c-1.07-.168-1.97-.252-2.72-.252-.85 0-1.43.084-1.74.252-.32.168-.47.45-.47.846v.738c0 .588.53.882 1.6.882h1.01c1.83 0 2.75.684 2.75 2.052v.756c0 .9-.31 1.542-.93 1.926-.63.372-1.58.558-2.87.558z" fill="#fff"/>
</svg>
